<?xml version="1.0" standalone="no"?>
 <!DOCTYPE svg PUBLIC "-//W3C//DTD SVG 1.1//EN" 
 "http://www.w3.org/Graphics/SVG/1.1/DTD/svg11.dtd"> 
<svg xmlns="http://www.w3.org/2000/svg" version="1.1" 
    width="41.9989cm" height="29.7002cm" viewBox="0 0 165350 116930 ">
<title>SVG Picture created as pihat-F.SilkS.svg date 2017/04/02 17:07:21 </title>
  <desc>Picture generated by PCBNEW </desc>
<g style="fill:#000000; fill-opacity:1;stroke:#000000; stroke-opacity:1;
stroke-linecap:round; stroke-linejoin:round; "
 transform="translate(0 0) scale(1 1)">
</g>
<g style="fill:#000000; fill-opacity:0.0; 
stroke:#000000; stroke-width:-0.000393701; stroke-opacity:1; 
stroke-linecap:round; stroke-linejoin:round;">
</g>
<g style="fill:#000000; fill-opacity:0.0; 
stroke:#000000; stroke-width:39.3701; stroke-opacity:1; 
stroke-linecap:round; stroke-linejoin:round;">
</g>
<g style="fill:#000000; fill-opacity:0.0; 
stroke:#000000; stroke-width:59.0551; stroke-opacity:1; 
stroke-linecap:round; stroke-linejoin:round;">
<rect x="118106" y="99607.2" width="42519.7" height="12598.4" rx="0" />
</g>
<g style="fill:#000000; fill-opacity:0.0; 
stroke:#000000; stroke-width:39.3701; stroke-opacity:1; 
stroke-linecap:round; stroke-linejoin:round;">
</g>
<g style="fill:#000000; fill-opacity:0.0; 
stroke:#000000; stroke-width:59.0551; stroke-opacity:1; 
stroke-linecap:round; stroke-linejoin:round;">
<rect x="3937.01" y="3937.01" width="157476" height="109056" rx="0" />
</g>
<g style="fill:#000000; fill-opacity:0.0; 
stroke:#000000; stroke-width:39.3701; stroke-opacity:1; 
stroke-linecap:round; stroke-linejoin:round;">
</g>
<g style="fill:#000000; fill-opacity:0.0; 
stroke:#000000; stroke-width:59.0551; stroke-opacity:1; 
stroke-linecap:round; stroke-linejoin:round;">
<rect x="4724.41" y="4724.41" width="155901" height="107481" rx="0" />
</g>
<g style="fill:#000000; fill-opacity:0.0; 
stroke:#000000; stroke-width:39.3701; stroke-opacity:1; 
stroke-linecap:round; stroke-linejoin:round;">
</g>
<g style="fill:#000000; fill-opacity:0.0; 
stroke:#000000; stroke-width:59.0551; stroke-opacity:1; 
stroke-linecap:round; stroke-linejoin:round;">
<path d="M23622 4724
L23622 3937
" />
</g>
<g style="fill:#000000; fill-opacity:0.0; 
stroke:#000000; stroke-width:39.3701; stroke-opacity:1; 
stroke-linecap:round; stroke-linejoin:round;">
</g>
<g style="fill:#000000; fill-opacity:0.0; 
stroke:#000000; stroke-width:59.0551; stroke-opacity:1; 
stroke-linecap:round; stroke-linejoin:round;">
<path d="M43307 4724
L43307 3937
" />
</g>
<g style="fill:#000000; fill-opacity:0.0; 
stroke:#000000; stroke-width:39.3701; stroke-opacity:1; 
stroke-linecap:round; stroke-linejoin:round;">
</g>
<g style="fill:#000000; fill-opacity:0.0; 
stroke:#000000; stroke-width:59.0551; stroke-opacity:1; 
stroke-linecap:round; stroke-linejoin:round;">
<path d="M62992 4724
L62992 3937
" />
</g>
<g style="fill:#000000; fill-opacity:0.0; 
stroke:#000000; stroke-width:39.3701; stroke-opacity:1; 
stroke-linecap:round; stroke-linejoin:round;">
</g>
<g style="fill:#000000; fill-opacity:0.0; 
stroke:#000000; stroke-width:59.0551; stroke-opacity:1; 
stroke-linecap:round; stroke-linejoin:round;">
<path d="M82677 4724
L82677 3937
" />
</g>
<g style="fill:#000000; fill-opacity:0.0; 
stroke:#000000; stroke-width:39.3701; stroke-opacity:1; 
stroke-linecap:round; stroke-linejoin:round;">
</g>
<g style="fill:#000000; fill-opacity:0.0; 
stroke:#000000; stroke-width:59.0551; stroke-opacity:1; 
stroke-linecap:round; stroke-linejoin:round;">
<path d="M102362 4724
L102362 3937
" />
</g>
<g style="fill:#000000; fill-opacity:0.0; 
stroke:#000000; stroke-width:39.3701; stroke-opacity:1; 
stroke-linecap:round; stroke-linejoin:round;">
</g>
<g style="fill:#000000; fill-opacity:0.0; 
stroke:#000000; stroke-width:59.0551; stroke-opacity:1; 
stroke-linecap:round; stroke-linejoin:round;">
<path d="M122047 4724
L122047 3937
" />
</g>
<g style="fill:#000000; fill-opacity:0.0; 
stroke:#000000; stroke-width:39.3701; stroke-opacity:1; 
stroke-linecap:round; stroke-linejoin:round;">
</g>
<g style="fill:#000000; fill-opacity:0.0; 
stroke:#000000; stroke-width:59.0551; stroke-opacity:1; 
stroke-linecap:round; stroke-linejoin:round;">
<path d="M141732 4724
L141732 3937
" />
</g>
<g style="fill:#000000; fill-opacity:0.0; 
stroke:#000000; stroke-width:39.3701; stroke-opacity:1; 
stroke-linecap:round; stroke-linejoin:round;">
</g>
<g style="fill:#000000; fill-opacity:0.0; 
stroke:#000000; stroke-width:59.0551; stroke-opacity:1; 
stroke-linecap:round; stroke-linejoin:round;">
<path d="M14169 4562
L13877 4562
" />
<path d="M14023 4562
L14023 4050
L13974 4123
L13925 4172
L13877 4196
" />
</g>
<g style="fill:#000000; fill-opacity:0.0; 
stroke:#000000; stroke-width:39.3701; stroke-opacity:1; 
stroke-linecap:round; stroke-linejoin:round;">
</g>
<g style="fill:#000000; fill-opacity:0.0; 
stroke:#000000; stroke-width:59.0551; stroke-opacity:1; 
stroke-linecap:round; stroke-linejoin:round;">
<path d="M33562 4099
L33586 4074
L33635 4050
L33757 4050
L33805 4074
L33830 4099
L33854 4147
L33854 4196
L33830 4269
L33537 4562
L33854 4562
" />
</g>
<g style="fill:#000000; fill-opacity:0.0; 
stroke:#000000; stroke-width:39.3701; stroke-opacity:1; 
stroke-linecap:round; stroke-linejoin:round;">
</g>
<g style="fill:#000000; fill-opacity:0.0; 
stroke:#000000; stroke-width:59.0551; stroke-opacity:1; 
stroke-linecap:round; stroke-linejoin:round;">
<path d="M53222 4050
L53539 4050
L53368 4245
L53442 4245
L53490 4269
L53515 4294
L53539 4342
L53539 4464
L53515 4513
L53490 4537
L53442 4562
L53295 4562
L53247 4537
L53222 4513
" />
</g>
<g style="fill:#000000; fill-opacity:0.0; 
stroke:#000000; stroke-width:39.3701; stroke-opacity:1; 
stroke-linecap:round; stroke-linejoin:round;">
</g>
<g style="fill:#000000; fill-opacity:0.0; 
stroke:#000000; stroke-width:59.0551; stroke-opacity:1; 
stroke-linecap:round; stroke-linejoin:round;">
<path d="M73175 4221
L73175 4562
" />
<path d="M73053 4026
L72932 4391
L73248 4391
" />
</g>
<g style="fill:#000000; fill-opacity:0.0; 
stroke:#000000; stroke-width:39.3701; stroke-opacity:1; 
stroke-linecap:round; stroke-linejoin:round;">
</g>
<g style="fill:#000000; fill-opacity:0.0; 
stroke:#000000; stroke-width:59.0551; stroke-opacity:1; 
stroke-linecap:round; stroke-linejoin:round;">
<path d="M92885 4050
L92641 4050
L92617 4294
L92641 4269
L92690 4245
L92812 4245
L92860 4269
L92885 4294
L92909 4342
L92909 4464
L92885 4513
L92860 4537
L92812 4562
L92690 4562
L92641 4537
L92617 4513
" />
</g>
<g style="fill:#000000; fill-opacity:0.0; 
stroke:#000000; stroke-width:39.3701; stroke-opacity:1; 
stroke-linecap:round; stroke-linejoin:round;">
</g>
<g style="fill:#000000; fill-opacity:0.0; 
stroke:#000000; stroke-width:59.0551; stroke-opacity:1; 
stroke-linecap:round; stroke-linejoin:round;">
<path d="M112545 4050
L112448 4050
L112399 4074
L112375 4099
L112326 4172
L112302 4269
L112302 4464
L112326 4513
L112350 4537
L112399 4562
L112497 4562
L112545 4537
L112570 4513
L112594 4464
L112594 4342
L112570 4294
L112545 4269
L112497 4245
L112399 4245
L112350 4269
L112326 4294
L112302 4342
" />
</g>
<g style="fill:#000000; fill-opacity:0.0; 
stroke:#000000; stroke-width:39.3701; stroke-opacity:1; 
stroke-linecap:round; stroke-linejoin:round;">
</g>
<g style="fill:#000000; fill-opacity:0.0; 
stroke:#000000; stroke-width:59.0551; stroke-opacity:1; 
stroke-linecap:round; stroke-linejoin:round;">
<path d="M131962 4050
L132304 4050
L132084 4562
" />
</g>
<g style="fill:#000000; fill-opacity:0.0; 
stroke:#000000; stroke-width:39.3701; stroke-opacity:1; 
stroke-linecap:round; stroke-linejoin:round;">
</g>
<g style="fill:#000000; fill-opacity:0.0; 
stroke:#000000; stroke-width:59.0551; stroke-opacity:1; 
stroke-linecap:round; stroke-linejoin:round;">
<path d="M151769 4269
L151721 4245
L151696 4221
L151672 4172
L151672 4147
L151696 4099
L151721 4074
L151769 4050
L151867 4050
L151916 4074
L151940 4099
L151964 4147
L151964 4172
L151940 4221
L151916 4245
L151867 4269
L151769 4269
L151721 4294
L151696 4318
L151672 4367
L151672 4464
L151696 4513
L151721 4537
L151769 4562
L151867 4562
L151916 4537
L151940 4513
L151964 4464
L151964 4367
L151940 4318
L151916 4294
L151867 4269
" />
</g>
<g style="fill:#000000; fill-opacity:0.0; 
stroke:#000000; stroke-width:39.3701; stroke-opacity:1; 
stroke-linecap:round; stroke-linejoin:round;">
</g>
<g style="fill:#000000; fill-opacity:0.0; 
stroke:#000000; stroke-width:59.0551; stroke-opacity:1; 
stroke-linecap:round; stroke-linejoin:round;">
<path d="M23622 112205
L23622 112992
" />
</g>
<g style="fill:#000000; fill-opacity:0.0; 
stroke:#000000; stroke-width:39.3701; stroke-opacity:1; 
stroke-linecap:round; stroke-linejoin:round;">
</g>
<g style="fill:#000000; fill-opacity:0.0; 
stroke:#000000; stroke-width:59.0551; stroke-opacity:1; 
stroke-linecap:round; stroke-linejoin:round;">
<path d="M43307 112205
L43307 112992
" />
</g>
<g style="fill:#000000; fill-opacity:0.0; 
stroke:#000000; stroke-width:39.3701; stroke-opacity:1; 
stroke-linecap:round; stroke-linejoin:round;">
</g>
<g style="fill:#000000; fill-opacity:0.0; 
stroke:#000000; stroke-width:59.0551; stroke-opacity:1; 
stroke-linecap:round; stroke-linejoin:round;">
<path d="M62992 112205
L62992 112992
" />
</g>
<g style="fill:#000000; fill-opacity:0.0; 
stroke:#000000; stroke-width:39.3701; stroke-opacity:1; 
stroke-linecap:round; stroke-linejoin:round;">
</g>
<g style="fill:#000000; fill-opacity:0.0; 
stroke:#000000; stroke-width:59.0551; stroke-opacity:1; 
stroke-linecap:round; stroke-linejoin:round;">
<path d="M82677 112205
L82677 112992
" />
</g>
<g style="fill:#000000; fill-opacity:0.0; 
stroke:#000000; stroke-width:39.3701; stroke-opacity:1; 
stroke-linecap:round; stroke-linejoin:round;">
</g>
<g style="fill:#000000; fill-opacity:0.0; 
stroke:#000000; stroke-width:59.0551; stroke-opacity:1; 
stroke-linecap:round; stroke-linejoin:round;">
<path d="M102362 112205
L102362 112992
" />
</g>
<g style="fill:#000000; fill-opacity:0.0; 
stroke:#000000; stroke-width:39.3701; stroke-opacity:1; 
stroke-linecap:round; stroke-linejoin:round;">
</g>
<g style="fill:#000000; fill-opacity:0.0; 
stroke:#000000; stroke-width:59.0551; stroke-opacity:1; 
stroke-linecap:round; stroke-linejoin:round;">
<path d="M122047 112205
L122047 112992
" />
</g>
<g style="fill:#000000; fill-opacity:0.0; 
stroke:#000000; stroke-width:39.3701; stroke-opacity:1; 
stroke-linecap:round; stroke-linejoin:round;">
</g>
<g style="fill:#000000; fill-opacity:0.0; 
stroke:#000000; stroke-width:59.0551; stroke-opacity:1; 
stroke-linecap:round; stroke-linejoin:round;">
<path d="M141732 112205
L141732 112992
" />
</g>
<g style="fill:#000000; fill-opacity:0.0; 
stroke:#000000; stroke-width:39.3701; stroke-opacity:1; 
stroke-linecap:round; stroke-linejoin:round;">
</g>
<g style="fill:#000000; fill-opacity:0.0; 
stroke:#000000; stroke-width:59.0551; stroke-opacity:1; 
stroke-linecap:round; stroke-linejoin:round;">
<path d="M14169 112830
L13877 112830
" />
<path d="M14023 112830
L14023 112319
L13974 112392
L13925 112440
L13877 112465
" />
</g>
<g style="fill:#000000; fill-opacity:0.0; 
stroke:#000000; stroke-width:39.3701; stroke-opacity:1; 
stroke-linecap:round; stroke-linejoin:round;">
</g>
<g style="fill:#000000; fill-opacity:0.0; 
stroke:#000000; stroke-width:59.0551; stroke-opacity:1; 
stroke-linecap:round; stroke-linejoin:round;">
<path d="M33562 112367
L33586 112343
L33635 112319
L33757 112319
L33805 112343
L33830 112367
L33854 112416
L33854 112465
L33830 112538
L33537 112830
L33854 112830
" />
</g>
<g style="fill:#000000; fill-opacity:0.0; 
stroke:#000000; stroke-width:39.3701; stroke-opacity:1; 
stroke-linecap:round; stroke-linejoin:round;">
</g>
<g style="fill:#000000; fill-opacity:0.0; 
stroke:#000000; stroke-width:59.0551; stroke-opacity:1; 
stroke-linecap:round; stroke-linejoin:round;">
<path d="M53222 112319
L53539 112319
L53368 112513
L53442 112513
L53490 112538
L53515 112562
L53539 112611
L53539 112733
L53515 112782
L53490 112806
L53442 112830
L53295 112830
L53247 112806
L53222 112782
" />
</g>
<g style="fill:#000000; fill-opacity:0.0; 
stroke:#000000; stroke-width:39.3701; stroke-opacity:1; 
stroke-linecap:round; stroke-linejoin:round;">
</g>
<g style="fill:#000000; fill-opacity:0.0; 
stroke:#000000; stroke-width:59.0551; stroke-opacity:1; 
stroke-linecap:round; stroke-linejoin:round;">
<path d="M73175 112489
L73175 112830
" />
<path d="M73053 112294
L72932 112660
L73248 112660
" />
</g>
<g style="fill:#000000; fill-opacity:0.0; 
stroke:#000000; stroke-width:39.3701; stroke-opacity:1; 
stroke-linecap:round; stroke-linejoin:round;">
</g>
<g style="fill:#000000; fill-opacity:0.0; 
stroke:#000000; stroke-width:59.0551; stroke-opacity:1; 
stroke-linecap:round; stroke-linejoin:round;">
<path d="M92885 112319
L92641 112319
L92617 112562
L92641 112538
L92690 112513
L92812 112513
L92860 112538
L92885 112562
L92909 112611
L92909 112733
L92885 112782
L92860 112806
L92812 112830
L92690 112830
L92641 112806
L92617 112782
" />
</g>
<g style="fill:#000000; fill-opacity:0.0; 
stroke:#000000; stroke-width:39.3701; stroke-opacity:1; 
stroke-linecap:round; stroke-linejoin:round;">
</g>
<g style="fill:#000000; fill-opacity:0.0; 
stroke:#000000; stroke-width:59.0551; stroke-opacity:1; 
stroke-linecap:round; stroke-linejoin:round;">
<path d="M112545 112319
L112448 112319
L112399 112343
L112375 112367
L112326 112440
L112302 112538
L112302 112733
L112326 112782
L112350 112806
L112399 112830
L112497 112830
L112545 112806
L112570 112782
L112594 112733
L112594 112611
L112570 112562
L112545 112538
L112497 112513
L112399 112513
L112350 112538
L112326 112562
L112302 112611
" />
</g>
<g style="fill:#000000; fill-opacity:0.0; 
stroke:#000000; stroke-width:39.3701; stroke-opacity:1; 
stroke-linecap:round; stroke-linejoin:round;">
</g>
<g style="fill:#000000; fill-opacity:0.0; 
stroke:#000000; stroke-width:59.0551; stroke-opacity:1; 
stroke-linecap:round; stroke-linejoin:round;">
<path d="M131962 112319
L132304 112319
L132084 112830
" />
</g>
<g style="fill:#000000; fill-opacity:0.0; 
stroke:#000000; stroke-width:39.3701; stroke-opacity:1; 
stroke-linecap:round; stroke-linejoin:round;">
</g>
<g style="fill:#000000; fill-opacity:0.0; 
stroke:#000000; stroke-width:59.0551; stroke-opacity:1; 
stroke-linecap:round; stroke-linejoin:round;">
<path d="M151769 112538
L151721 112513
L151696 112489
L151672 112440
L151672 112416
L151696 112367
L151721 112343
L151769 112319
L151867 112319
L151916 112343
L151940 112367
L151964 112416
L151964 112440
L151940 112489
L151916 112513
L151867 112538
L151769 112538
L151721 112562
L151696 112587
L151672 112635
L151672 112733
L151696 112782
L151721 112806
L151769 112830
L151867 112830
L151916 112806
L151940 112782
L151964 112733
L151964 112635
L151940 112587
L151916 112562
L151867 112538
" />
</g>
<g style="fill:#000000; fill-opacity:0.0; 
stroke:#000000; stroke-width:39.3701; stroke-opacity:1; 
stroke-linecap:round; stroke-linejoin:round;">
</g>
<g style="fill:#000000; fill-opacity:0.0; 
stroke:#000000; stroke-width:59.0551; stroke-opacity:1; 
stroke-linecap:round; stroke-linejoin:round;">
<path d="M3937 23622
L4724 23622
" />
</g>
<g style="fill:#000000; fill-opacity:0.0; 
stroke:#000000; stroke-width:39.3701; stroke-opacity:1; 
stroke-linecap:round; stroke-linejoin:round;">
</g>
<g style="fill:#000000; fill-opacity:0.0; 
stroke:#000000; stroke-width:59.0551; stroke-opacity:1; 
stroke-linecap:round; stroke-linejoin:round;">
<path d="M3937 43307
L4724 43307
" />
</g>
<g style="fill:#000000; fill-opacity:0.0; 
stroke:#000000; stroke-width:39.3701; stroke-opacity:1; 
stroke-linecap:round; stroke-linejoin:round;">
</g>
<g style="fill:#000000; fill-opacity:0.0; 
stroke:#000000; stroke-width:59.0551; stroke-opacity:1; 
stroke-linecap:round; stroke-linejoin:round;">
<path d="M3937 62992
L4724 62992
" />
</g>
<g style="fill:#000000; fill-opacity:0.0; 
stroke:#000000; stroke-width:39.3701; stroke-opacity:1; 
stroke-linecap:round; stroke-linejoin:round;">
</g>
<g style="fill:#000000; fill-opacity:0.0; 
stroke:#000000; stroke-width:59.0551; stroke-opacity:1; 
stroke-linecap:round; stroke-linejoin:round;">
<path d="M3937 82677
L4724 82677
" />
</g>
<g style="fill:#000000; fill-opacity:0.0; 
stroke:#000000; stroke-width:39.3701; stroke-opacity:1; 
stroke-linecap:round; stroke-linejoin:round;">
</g>
<g style="fill:#000000; fill-opacity:0.0; 
stroke:#000000; stroke-width:59.0551; stroke-opacity:1; 
stroke-linecap:round; stroke-linejoin:round;">
<path d="M3937 102362
L4724 102362
" />
</g>
<g style="fill:#000000; fill-opacity:0.0; 
stroke:#000000; stroke-width:39.3701; stroke-opacity:1; 
stroke-linecap:round; stroke-linejoin:round;">
</g>
<g style="fill:#000000; fill-opacity:0.0; 
stroke:#000000; stroke-width:59.0551; stroke-opacity:1; 
stroke-linecap:round; stroke-linejoin:round;">
<path d="M4208 13864
L4452 13864
" />
<path d="M4160 14011
L4330 13499
L4501 14011
" />
</g>
<g style="fill:#000000; fill-opacity:0.0; 
stroke:#000000; stroke-width:39.3701; stroke-opacity:1; 
stroke-linecap:round; stroke-linejoin:round;">
</g>
<g style="fill:#000000; fill-opacity:0.0; 
stroke:#000000; stroke-width:59.0551; stroke-opacity:1; 
stroke-linecap:round; stroke-linejoin:round;">
<path d="M4367 33428
L4440 33452
L4464 33476
L4489 33525
L4489 33598
L4464 33647
L4440 33671
L4391 33696
L4196 33696
L4196 33184
L4367 33184
L4416 33208
L4440 33233
L4464 33281
L4464 33330
L4440 33379
L4416 33403
L4367 33428
L4196 33428
" />
</g>
<g style="fill:#000000; fill-opacity:0.0; 
stroke:#000000; stroke-width:39.3701; stroke-opacity:1; 
stroke-linecap:round; stroke-linejoin:round;">
</g>
<g style="fill:#000000; fill-opacity:0.0; 
stroke:#000000; stroke-width:59.0551; stroke-opacity:1; 
stroke-linecap:round; stroke-linejoin:round;">
<path d="M4489 53332
L4464 53356
L4391 53381
L4342 53381
L4269 53356
L4221 53308
L4196 53259
L4172 53161
L4172 53088
L4196 52991
L4221 52942
L4269 52893
L4342 52869
L4391 52869
L4464 52893
L4489 52918
" />
</g>
<g style="fill:#000000; fill-opacity:0.0; 
stroke:#000000; stroke-width:39.3701; stroke-opacity:1; 
stroke-linecap:round; stroke-linejoin:round;">
</g>
<g style="fill:#000000; fill-opacity:0.0; 
stroke:#000000; stroke-width:59.0551; stroke-opacity:1; 
stroke-linecap:round; stroke-linejoin:round;">
<path d="M4196 73066
L4196 72554
L4318 72554
L4391 72578
L4440 72627
L4464 72676
L4489 72773
L4489 72846
L4464 72944
L4440 72993
L4391 73041
L4318 73066
L4196 73066
" />
</g>
<g style="fill:#000000; fill-opacity:0.0; 
stroke:#000000; stroke-width:39.3701; stroke-opacity:1; 
stroke-linecap:round; stroke-linejoin:round;">
</g>
<g style="fill:#000000; fill-opacity:0.0; 
stroke:#000000; stroke-width:59.0551; stroke-opacity:1; 
stroke-linecap:round; stroke-linejoin:round;">
<path d="M4221 92483
L4391 92483
" />
<path d="M4464 92751
L4221 92751
L4221 92239
L4464 92239
" />
</g>
<g style="fill:#000000; fill-opacity:0.0; 
stroke:#000000; stroke-width:39.3701; stroke-opacity:1; 
stroke-linecap:round; stroke-linejoin:round;">
</g>
<g style="fill:#000000; fill-opacity:0.0; 
stroke:#000000; stroke-width:59.0551; stroke-opacity:1; 
stroke-linecap:round; stroke-linejoin:round;">
<path d="M4403 112168
L4233 112168
" />
<path d="M4233 112436
L4233 111924
L4476 111924
" />
</g>
<g style="fill:#000000; fill-opacity:0.0; 
stroke:#000000; stroke-width:39.3701; stroke-opacity:1; 
stroke-linecap:round; stroke-linejoin:round;">
</g>
<g style="fill:#000000; fill-opacity:0.0; 
stroke:#000000; stroke-width:59.0551; stroke-opacity:1; 
stroke-linecap:round; stroke-linejoin:round;">
<path d="M161412 23622
L160625 23622
" />
</g>
<g style="fill:#000000; fill-opacity:0.0; 
stroke:#000000; stroke-width:39.3701; stroke-opacity:1; 
stroke-linecap:round; stroke-linejoin:round;">
</g>
<g style="fill:#000000; fill-opacity:0.0; 
stroke:#000000; stroke-width:59.0551; stroke-opacity:1; 
stroke-linecap:round; stroke-linejoin:round;">
<path d="M161412 43307
L160625 43307
" />
</g>
<g style="fill:#000000; fill-opacity:0.0; 
stroke:#000000; stroke-width:39.3701; stroke-opacity:1; 
stroke-linecap:round; stroke-linejoin:round;">
</g>
<g style="fill:#000000; fill-opacity:0.0; 
stroke:#000000; stroke-width:59.0551; stroke-opacity:1; 
stroke-linecap:round; stroke-linejoin:round;">
<path d="M161412 62992
L160625 62992
" />
</g>
<g style="fill:#000000; fill-opacity:0.0; 
stroke:#000000; stroke-width:39.3701; stroke-opacity:1; 
stroke-linecap:round; stroke-linejoin:round;">
</g>
<g style="fill:#000000; fill-opacity:0.0; 
stroke:#000000; stroke-width:59.0551; stroke-opacity:1; 
stroke-linecap:round; stroke-linejoin:round;">
<path d="M161412 82677
L160625 82677
" />
</g>
<g style="fill:#000000; fill-opacity:0.0; 
stroke:#000000; stroke-width:39.3701; stroke-opacity:1; 
stroke-linecap:round; stroke-linejoin:round;">
</g>
<g style="fill:#000000; fill-opacity:0.0; 
stroke:#000000; stroke-width:59.0551; stroke-opacity:1; 
stroke-linecap:round; stroke-linejoin:round;">
<path d="M161412 102362
L160625 102362
" />
</g>
<g style="fill:#000000; fill-opacity:0.0; 
stroke:#000000; stroke-width:39.3701; stroke-opacity:1; 
stroke-linecap:round; stroke-linejoin:round;">
</g>
<g style="fill:#000000; fill-opacity:0.0; 
stroke:#000000; stroke-width:59.0551; stroke-opacity:1; 
stroke-linecap:round; stroke-linejoin:round;">
<path d="M160897 13864
L161141 13864
" />
<path d="M160848 14011
L161019 13499
L161189 14011
" />
</g>
<g style="fill:#000000; fill-opacity:0.0; 
stroke:#000000; stroke-width:39.3701; stroke-opacity:1; 
stroke-linecap:round; stroke-linejoin:round;">
</g>
<g style="fill:#000000; fill-opacity:0.0; 
stroke:#000000; stroke-width:59.0551; stroke-opacity:1; 
stroke-linecap:round; stroke-linejoin:round;">
<path d="M161055 33428
L161128 33452
L161153 33476
L161177 33525
L161177 33598
L161153 33647
L161128 33671
L161080 33696
L160885 33696
L160885 33184
L161055 33184
L161104 33208
L161128 33233
L161153 33281
L161153 33330
L161128 33379
L161104 33403
L161055 33428
L160885 33428
" />
</g>
<g style="fill:#000000; fill-opacity:0.0; 
stroke:#000000; stroke-width:39.3701; stroke-opacity:1; 
stroke-linecap:round; stroke-linejoin:round;">
</g>
<g style="fill:#000000; fill-opacity:0.0; 
stroke:#000000; stroke-width:59.0551; stroke-opacity:1; 
stroke-linecap:round; stroke-linejoin:round;">
<path d="M161177 53332
L161153 53356
L161080 53381
L161031 53381
L160958 53356
L160909 53308
L160885 53259
L160860 53161
L160860 53088
L160885 52991
L160909 52942
L160958 52893
L161031 52869
L161080 52869
L161153 52893
L161177 52918
" />
</g>
<g style="fill:#000000; fill-opacity:0.0; 
stroke:#000000; stroke-width:39.3701; stroke-opacity:1; 
stroke-linecap:round; stroke-linejoin:round;">
</g>
<g style="fill:#000000; fill-opacity:0.0; 
stroke:#000000; stroke-width:59.0551; stroke-opacity:1; 
stroke-linecap:round; stroke-linejoin:round;">
<path d="M160885 73066
L160885 72554
L161007 72554
L161080 72578
L161128 72627
L161153 72676
L161177 72773
L161177 72846
L161153 72944
L161128 72993
L161080 73041
L161007 73066
L160885 73066
" />
</g>
<g style="fill:#000000; fill-opacity:0.0; 
stroke:#000000; stroke-width:39.3701; stroke-opacity:1; 
stroke-linecap:round; stroke-linejoin:round;">
</g>
<g style="fill:#000000; fill-opacity:0.0; 
stroke:#000000; stroke-width:59.0551; stroke-opacity:1; 
stroke-linecap:round; stroke-linejoin:round;">
<path d="M160909 92483
L161080 92483
" />
<path d="M161153 92751
L160909 92751
L160909 92239
L161153 92239
" />
</g>
<g style="fill:#000000; fill-opacity:0.0; 
stroke:#000000; stroke-width:39.3701; stroke-opacity:1; 
stroke-linecap:round; stroke-linejoin:round;">
</g>
<g style="fill:#000000; fill-opacity:0.0; 
stroke:#000000; stroke-width:59.0551; stroke-opacity:1; 
stroke-linecap:round; stroke-linejoin:round;">
<path d="M161092 112168
L160921 112168
" />
<path d="M160921 112436
L160921 111924
L161165 111924
" />
</g>
<g style="fill:#000000; fill-opacity:0.0; 
stroke:#000000; stroke-width:39.3701; stroke-opacity:1; 
stroke-linecap:round; stroke-linejoin:round;">
</g>
<g style="fill:#000000; fill-opacity:0.0; 
stroke:#000000; stroke-width:59.0551; stroke-opacity:1; 
stroke-linecap:round; stroke-linejoin:round;">
<path d="M127301 110543
L127301 109953
L127442 109953
L127526 109981
L127582 110037
L127610 110093
L127639 110206
L127639 110290
L127610 110403
L127582 110459
L127526 110515
L127442 110543
L127301 110543
" />
<path d="M128145 110543
L128145 110234
L128117 110178
L128060 110149
L127948 110149
L127892 110178
" />
<path d="M128145 110515
L128089 110543
L127948 110543
L127892 110515
L127864 110459
L127864 110403
L127892 110346
L127948 110318
L128089 110318
L128145 110290
" />
<path d="M128342 110149
L128567 110149
" />
<path d="M128426 109953
L128426 110459
L128454 110515
L128510 110543
L128567 110543
" />
<path d="M128988 110515
L128932 110543
L128820 110543
L128763 110515
L128735 110459
L128735 110234
L128763 110178
L128820 110149
L128932 110149
L128988 110178
L129017 110234
L129017 110290
L128735 110346
" />
<path d="M129270 110487
L129298 110515
L129270 110543
L129242 110515
L129270 110487
L129270 110543
" />
<path d="M129270 110178
L129298 110206
L129270 110234
L129242 110206
L129270 110178
L129270 110234
" />
<path d="M130310 110543
L129973 110543
" />
<path d="M130141 110543
L130141 109953
L130085 110037
L130029 110093
L129973 110121
" />
<path d="M130844 109953
L130563 109953
L130535 110234
L130563 110206
L130619 110178
L130760 110178
L130816 110206
L130844 110234
L130873 110290
L130873 110431
L130844 110487
L130816 110515
L130760 110543
L130619 110543
L130563 110515
L130535 110487
" />
<path d="M131576 110149
L131576 110543
" />
<path d="M131576 110206
L131604 110178
L131660 110149
L131744 110149
L131801 110178
L131829 110234
L131829 110543
" />
<path d="M132194 110543
L132138 110515
L132110 110487
L132082 110431
L132082 110262
L132110 110206
L132138 110178
L132194 110149
L132279 110149
L132335 110178
L132363 110206
L132391 110262
L132391 110431
L132363 110487
L132335 110515
L132279 110543
L132194 110543
" />
<path d="M132588 110149
L132729 110543
L132869 110149
" />
<path d="M133516 110009
L133544 109981
L133600 109953
L133741 109953
L133797 109981
L133825 110009
L133853 110065
L133853 110121
L133825 110206
L133488 110543
L133853 110543
" />
<path d="M134219 109953
L134275 109953
L134332 109981
L134360 110009
L134388 110065
L134416 110178
L134416 110318
L134388 110431
L134360 110487
L134332 110515
L134275 110543
L134219 110543
L134163 110515
L134135 110487
L134107 110431
L134078 110318
L134078 110178
L134107 110065
L134135 110009
L134163 109981
L134219 109953
" />
<path d="M134978 110543
L134641 110543
" />
<path d="M134810 110543
L134810 109953
L134753 110037
L134697 110093
L134641 110121
" />
<path d="M135203 110009
L135231 109981
L135288 109953
L135428 109953
L135484 109981
L135513 110009
L135541 110065
L135541 110121
L135513 110206
L135175 110543
L135541 110543
" />
</g>
<g style="fill:#000000; fill-opacity:0.0; 
stroke:#000000; stroke-width:39.3701; stroke-opacity:1; 
stroke-linecap:round; stroke-linejoin:round;">
</g>
<g style="fill:#000000; fill-opacity:0.0; 
stroke:#000000; stroke-width:59.0551; stroke-opacity:1; 
stroke-linecap:round; stroke-linejoin:round;">
<path d="M118105 110827
L160625 110827
" />
</g>
<g style="fill:#000000; fill-opacity:0.0; 
stroke:#000000; stroke-width:39.3701; stroke-opacity:1; 
stroke-linecap:round; stroke-linejoin:round;">
</g>
<g style="fill:#000000; fill-opacity:0.0; 
stroke:#000000; stroke-width:59.0551; stroke-opacity:1; 
stroke-linecap:round; stroke-linejoin:round;">
<path d="M118640 111645
L118640 111055
" />
<path d="M118977 111645
L118724 111308
" />
<path d="M118977 111055
L118640 111392
" />
<path d="M119230 111645
L119230 111252
" />
<path d="M119230 111055
L119202 111083
L119230 111111
L119258 111083
L119230 111055
L119230 111111
" />
<path d="M119849 111589
L119821 111617
L119736 111645
L119680 111645
L119596 111617
L119540 111561
L119511 111505
L119483 111392
L119483 111308
L119511 111196
L119540 111139
L119596 111083
L119680 111055
L119736 111055
L119821 111083
L119849 111111
" />
<path d="M120355 111645
L120355 111336
L120327 111280
L120271 111252
L120158 111252
L120102 111280
" />
<path d="M120355 111617
L120299 111645
L120158 111645
L120102 111617
L120074 111561
L120074 111505
L120102 111449
L120158 111421
L120299 111421
L120355 111392
" />
<path d="M120889 111645
L120889 111055
" />
<path d="M120889 111617
L120833 111645
L120721 111645
L120664 111617
L120636 111589
L120608 111533
L120608 111364
L120636 111308
L120664 111280
L120721 111252
L120833 111252
L120889 111280
" />
<path d="M121621 111336
L121817 111336
" />
<path d="M121902 111645
L121621 111645
L121621 111055
L121902 111055
" />
<path d="M122155 111589
L122183 111617
L122155 111645
L122127 111617
L122155 111589
L122155 111645
" />
<path d="M122436 111645
L122436 111055
L122577 111055
L122661 111083
L122717 111139
L122745 111196
L122774 111308
L122774 111392
L122745 111505
L122717 111561
L122661 111617
L122577 111645
L122436 111645
" />
<path d="M123027 111589
L123055 111617
L123027 111645
L122999 111617
L123027 111589
L123027 111645
" />
<path d="M123280 111477
L123561 111477
" />
<path d="M123224 111645
L123420 111055
L123617 111645
" />
<path d="M123814 111589
L123842 111617
L123814 111645
L123786 111617
L123814 111589
L123814 111645
" />
<path d="M124995 111645
L124995 111055
" />
<path d="M125051 111421
L125220 111645
" />
<path d="M125220 111252
L124995 111477
" />
<path d="M125473 111645
L125473 111252
" />
<path d="M125473 111055
L125445 111083
L125473 111111
L125501 111083
L125473 111055
L125473 111111
" />
<path d="M126008 111617
L125951 111645
L125839 111645
L125783 111617
L125754 111589
L125726 111533
L125726 111364
L125754 111308
L125783 111280
L125839 111252
L125951 111252
L126008 111280
" />
<path d="M126514 111645
L126514 111336
L126486 111280
L126429 111252
L126317 111252
L126261 111280
" />
<path d="M126514 111617
L126457 111645
L126317 111645
L126261 111617
L126233 111561
L126233 111505
L126261 111449
L126317 111421
L126457 111421
L126514 111392
" />
<path d="M127048 111645
L127048 111055
" />
<path d="M127048 111617
L126992 111645
L126879 111645
L126823 111617
L126795 111589
L126767 111533
L126767 111364
L126795 111308
L126823 111280
L126879 111252
L126992 111252
L127048 111280
" />
<path d="M128032 111252
L128032 111645
" />
<path d="M127892 111027
L127751 111449
L128117 111449
" />
<path d="M128342 111589
L128370 111617
L128342 111645
L128314 111617
L128342 111589
L128342 111645
" />
<path d="M128735 111055
L128792 111055
L128848 111083
L128876 111111
L128904 111167
L128932 111280
L128932 111421
L128904 111533
L128876 111589
L128848 111617
L128792 111645
L128735 111645
L128679 111617
L128651 111589
L128623 111533
L128595 111421
L128595 111280
L128623 111167
L128651 111111
L128679 111083
L128735 111055
" />
<path d="M129185 111589
L129213 111617
L129185 111645
L129157 111617
L129185 111589
L129185 111645
" />
<path d="M129720 111252
L129720 111645
" />
<path d="M129579 111027
L129438 111449
L129804 111449
" />
<path d="M130029 111421
L130479 111421
" />
<path d="M131069 111645
L130732 111645
" />
<path d="M130901 111645
L130901 111055
L130844 111139
L130788 111196
L130732 111224
" />
<path d="M131323 111589
L131351 111617
L131323 111645
L131294 111617
L131323 111589
L131323 111645
" />
<path d="M131519 111252
L131744 111252
" />
<path d="M131604 111645
L131604 111139
L131632 111083
L131688 111055
L131744 111055
" />
<path d="M132194 111617
L132138 111645
L132026 111645
L131969 111617
L131941 111589
L131913 111533
L131913 111364
L131941 111308
L131969 111280
L132026 111252
L132138 111252
L132194 111280
" />
<path d="M132419 111111
L132447 111083
L132504 111055
L132644 111055
L132700 111083
L132729 111111
L132757 111167
L132757 111224
L132729 111308
L132391 111645
L132757 111645
" />
<path d="M133291 111055
L133010 111055
L132982 111336
L133010 111308
L133066 111280
L133207 111280
L133263 111308
L133291 111336
L133319 111392
L133319 111533
L133291 111589
L133263 111617
L133207 111645
L133066 111645
L133010 111617
L132982 111589
" />
<path d="M133572 111421
L134022 111421
" />
<path d="M134303 111252
L134303 111842
" />
<path d="M134303 111280
L134360 111252
L134472 111252
L134528 111280
L134556 111308
L134585 111364
L134585 111533
L134556 111589
L134528 111617
L134472 111645
L134360 111645
L134303 111617
" />
<path d="M134838 111645
L134838 111252
" />
<path d="M134838 111364
L134866 111308
L134894 111280
L134950 111252
L135006 111252
" />
<path d="M135288 111645
L135231 111617
L135203 111589
L135175 111533
L135175 111364
L135203 111308
L135231 111280
L135288 111252
L135372 111252
L135428 111280
L135456 111308
L135484 111364
L135484 111533
L135456 111589
L135428 111617
L135372 111645
L135288 111645
" />
<path d="M135991 111645
L135991 111055
" />
<path d="M135991 111617
L135934 111645
L135822 111645
L135766 111617
L135738 111589
L135709 111533
L135709 111364
L135738 111308
L135766 111280
L135822 111252
L135934 111252
L135991 111280
" />
<path d="M136525 111252
L136525 111645
" />
<path d="M136272 111252
L136272 111561
L136300 111617
L136356 111645
L136441 111645
L136497 111617
L136525 111589
" />
<path d="M137059 111617
L137003 111645
L136891 111645
L136834 111617
L136806 111589
L136778 111533
L136778 111364
L136806 111308
L136834 111280
L136891 111252
L137003 111252
L137059 111280
" />
<path d="M137228 111252
L137453 111252
" />
<path d="M137312 111055
L137312 111561
L137341 111617
L137397 111645
L137453 111645
" />
</g>
<g style="fill:#000000; fill-opacity:0.0; 
stroke:#000000; stroke-width:39.3701; stroke-opacity:1; 
stroke-linecap:round; stroke-linejoin:round;">
</g>
<g style="fill:#000000; fill-opacity:0.0; 
stroke:#000000; stroke-width:59.0551; stroke-opacity:1; 
stroke-linecap:round; stroke-linejoin:round;">
<path d="M118105 109646
L160625 109646
" />
</g>
<g style="fill:#000000; fill-opacity:0.0; 
stroke:#000000; stroke-width:39.3701; stroke-opacity:1; 
stroke-linecap:round; stroke-linejoin:round;">
</g>
<g style="fill:#000000; fill-opacity:0.0; 
stroke:#000000; stroke-width:118.11; stroke-opacity:1; 
stroke-linecap:round; stroke-linejoin:round;">
<path d="M152442 110543
L152245 110262
" />
<path d="M152104 110543
L152104 109953
L152329 109953
L152385 109981
L152414 110009
L152442 110065
L152442 110149
L152414 110206
L152385 110234
L152329 110262
L152104 110262
" />
<path d="M152920 110515
L152864 110543
L152751 110543
L152695 110515
L152667 110459
L152667 110234
L152695 110178
L152751 110149
L152864 110149
L152920 110178
L152948 110234
L152948 110290
L152667 110346
" />
<path d="M153145 110149
L153285 110543
L153426 110149
" />
<path d="M153651 110487
L153679 110515
L153651 110543
L153623 110515
L153651 110487
L153651 110543
" />
<path d="M153651 110178
L153679 110206
L153651 110234
L153623 110206
L153651 110178
L153651 110234
" />
</g>
<g style="fill:#000000; fill-opacity:0.0; 
stroke:#000000; stroke-width:39.3701; stroke-opacity:1; 
stroke-linecap:round; stroke-linejoin:round;">
</g>
<g style="fill:#000000; fill-opacity:0.0; 
stroke:#000000; stroke-width:59.0551; stroke-opacity:1; 
stroke-linecap:round; stroke-linejoin:round;">
<path d="M118612 110515
L118696 110543
L118837 110543
L118893 110515
L118921 110487
L118949 110431
L118949 110374
L118921 110318
L118893 110290
L118837 110262
L118724 110234
L118668 110206
L118640 110178
L118612 110121
L118612 110065
L118640 110009
L118668 109981
L118724 109953
L118865 109953
L118949 109981
" />
<path d="M119202 110543
L119202 110149
" />
<path d="M119202 109953
L119174 109981
L119202 110009
L119230 109981
L119202 109953
L119202 110009
" />
<path d="M119427 110149
L119736 110149
L119427 110543
L119736 110543
" />
<path d="M120186 110515
L120130 110543
L120018 110543
L119961 110515
L119933 110459
L119933 110234
L119961 110178
L120018 110149
L120130 110149
L120186 110178
L120215 110234
L120215 110290
L119933 110346
" />
<path d="M120468 110487
L120496 110515
L120468 110543
L120439 110515
L120468 110487
L120468 110543
" />
<path d="M120468 110178
L120496 110206
L120468 110234
L120439 110206
L120468 110178
L120468 110234
" />
<path d="M121171 110374
L121452 110374
" />
<path d="M121114 110543
L121311 109953
L121508 110543
" />
<path d="M121649 109953
L122014 109953
L121817 110178
L121902 110178
L121958 110206
L121986 110234
L122014 110290
L122014 110431
L121986 110487
L121958 110515
L121902 110543
L121733 110543
L121677 110515
L121649 110487
" />
</g>
<g style="fill:#000000; fill-opacity:0.0; 
stroke:#000000; stroke-width:39.3701; stroke-opacity:1; 
stroke-linecap:round; stroke-linejoin:round;">
</g>
<g style="fill:#000000; fill-opacity:0.0; 
stroke:#000000; stroke-width:59.0551; stroke-opacity:1; 
stroke-linecap:round; stroke-linejoin:round;">
<path d="M152104 111645
L152104 111055
" />
<path d="M152639 111645
L152639 111055
" />
<path d="M152639 111617
L152582 111645
L152470 111645
L152414 111617
L152385 111589
L152357 111533
L152357 111364
L152385 111308
L152414 111280
L152470 111252
L152582 111252
L152639 111280
" />
<path d="M152920 111589
L152948 111617
L152920 111645
L152892 111617
L152920 111589
L152920 111645
" />
<path d="M152920 111280
L152948 111308
L152920 111336
L152892 111308
L152920 111280
L152920 111336
" />
<path d="M153960 111645
L153623 111645
" />
<path d="M153792 111645
L153792 111055
L153735 111139
L153679 111196
L153623 111224
" />
<path d="M154635 111027
L154129 111786
" />
<path d="M155141 111645
L154804 111645
" />
<path d="M154973 111645
L154973 111055
L154916 111139
L154860 111196
L154804 111224
" />
</g>
<g style="fill:#000000; fill-opacity:0.0; 
stroke:#000000; stroke-width:39.3701; stroke-opacity:1; 
stroke-linecap:round; stroke-linejoin:round;">
</g>
<g style="fill:#000000; fill-opacity:0.0; 
stroke:#000000; stroke-width:59.0551; stroke-opacity:1; 
stroke-linecap:round; stroke-linejoin:round;">
<path d="M118105 108071
L160625 108071
" />
</g>
<g style="fill:#000000; fill-opacity:0.0; 
stroke:#000000; stroke-width:39.3701; stroke-opacity:1; 
stroke-linecap:round; stroke-linejoin:round;">
</g>
<g style="fill:#000000; fill-opacity:0.0; 
stroke:#000000; stroke-width:157.48; stroke-opacity:1; 
stroke-linecap:round; stroke-linejoin:round;">
<path d="M118677 108349
L119127 108349
" />
<path d="M118804 109136
L118902 108349
" />
<path d="M119291 109136
L119357 108611
" />
<path d="M119390 108349
L119347 108386
L119380 108424
L119422 108386
L119390 108349
L119380 108424
" />
<path d="M119619 108611
L119919 108611
" />
<path d="M119765 108349
L119680 109024
L119708 109099
L119779 109136
L119854 109136
" />
<path d="M120229 109136
L120158 109099
L120130 109024
L120215 108349
" />
<path d="M120833 109099
L120754 109136
L120604 109136
L120533 109099
L120505 109024
L120543 108724
L120589 108649
L120669 108611
L120819 108611
L120889 108649
L120918 108724
L120908 108799
L120524 108874
" />
<path d="M121213 109061
L121246 109099
L121203 109136
L121171 109099
L121213 109061
L121203 109136
" />
<path d="M121264 108649
L121297 108686
L121255 108724
L121222 108686
L121264 108649
L121255 108724
" />
</g>
<g style="fill:#000000; fill-opacity:0.0; 
stroke:#000000; stroke-width:39.3701; stroke-opacity:1; 
stroke-linecap:round; stroke-linejoin:round;">
</g>
<g style="fill:#000000; fill-opacity:0.0; 
stroke:#000000; stroke-width:59.0551; stroke-opacity:1; 
stroke-linecap:round; stroke-linejoin:round;">
<path d="M118837 107320
L118640 107320
" />
<path d="M118640 107630
L118640 107039
L118921 107039
" />
<path d="M119146 107630
L119146 107236
" />
<path d="M119146 107039
L119118 107067
L119146 107095
L119174 107067
L119146 107039
L119146 107095
" />
<path d="M119511 107630
L119455 107602
L119427 107545
L119427 107039
" />
<path d="M119961 107602
L119905 107630
L119793 107630
L119736 107602
L119708 107545
L119708 107320
L119736 107264
L119793 107236
L119905 107236
L119961 107264
L119990 107320
L119990 107377
L119708 107433
" />
<path d="M120243 107573
L120271 107602
L120243 107630
L120215 107602
L120243 107573
L120243 107630
" />
<path d="M120243 107264
L120271 107292
L120243 107320
L120215 107292
L120243 107264
L120243 107320
" />
<path d="M120974 107236
L120974 107827
" />
<path d="M120974 107264
L121030 107236
L121143 107236
L121199 107264
L121227 107292
L121255 107349
L121255 107517
L121227 107573
L121199 107602
L121143 107630
L121030 107630
L120974 107602
" />
<path d="M121508 107630
L121508 107236
" />
<path d="M121508 107039
L121480 107067
L121508 107095
L121536 107067
L121508 107039
L121508 107095
" />
<path d="M121789 107630
L121789 107039
" />
<path d="M122042 107630
L122042 107320
L122014 107264
L121958 107236
L121874 107236
L121817 107264
L121789 107292
" />
<path d="M122577 107630
L122577 107320
L122549 107264
L122492 107236
L122380 107236
L122324 107264
" />
<path d="M122577 107602
L122520 107630
L122380 107630
L122324 107602
L122296 107545
L122296 107489
L122324 107433
L122380 107405
L122520 107405
L122577 107377
" />
<path d="M122774 107236
L122999 107236
" />
<path d="M122858 107039
L122858 107545
L122886 107602
L122942 107630
L122999 107630
" />
<path d="M123195 107573
L123224 107602
L123195 107630
L123167 107602
L123195 107573
L123195 107630
" />
<path d="M123477 107630
L123477 107039
" />
<path d="M123533 107405
L123702 107630
" />
<path d="M123702 107236
L123477 107461
" />
<path d="M123955 107630
L123955 107236
" />
<path d="M123955 107039
L123927 107067
L123955 107095
L123983 107067
L123955 107039
L123955 107095
" />
<path d="M124489 107602
L124433 107630
L124320 107630
L124264 107602
L124236 107573
L124208 107517
L124208 107349
L124236 107292
L124264 107264
L124320 107236
L124433 107236
L124489 107264
" />
<path d="M124995 107630
L124995 107320
L124967 107264
L124911 107236
L124798 107236
L124742 107264
" />
<path d="M124995 107602
L124939 107630
L124798 107630
L124742 107602
L124714 107545
L124714 107489
L124742 107433
L124798 107405
L124939 107405
L124995 107377
" />
<path d="M125529 107630
L125529 107039
" />
<path d="M125529 107602
L125473 107630
L125361 107630
L125305 107602
L125276 107573
L125248 107517
L125248 107349
L125276 107292
L125305 107264
L125361 107236
L125473 107236
L125529 107264
" />
<path d="M125670 107686
L126120 107686
" />
<path d="M126261 107236
L126261 107827
" />
<path d="M126261 107264
L126317 107236
L126429 107236
L126486 107264
L126514 107292
L126542 107349
L126542 107517
L126514 107573
L126486 107602
L126429 107630
L126317 107630
L126261 107602
" />
<path d="M127048 107602
L126992 107630
L126879 107630
L126823 107602
L126795 107573
L126767 107517
L126767 107349
L126795 107292
L126823 107264
L126879 107236
L126992 107236
L127048 107264
" />
<path d="M127301 107630
L127301 107039
" />
<path d="M127301 107264
L127357 107236
L127470 107236
L127526 107264
L127554 107292
L127582 107349
L127582 107517
L127554 107573
L127526 107602
L127470 107630
L127357 107630
L127301 107602
" />
</g>
<g style="fill:#000000; fill-opacity:0.0; 
stroke:#000000; stroke-width:39.3701; stroke-opacity:1; 
stroke-linecap:round; stroke-linejoin:round;">
</g>
<g style="fill:#000000; fill-opacity:0.0; 
stroke:#000000; stroke-width:59.0551; stroke-opacity:1; 
stroke-linecap:round; stroke-linejoin:round;">
<path d="M118105 105709
L160625 105709
" />
</g>
<g style="fill:#000000; fill-opacity:0.0; 
stroke:#000000; stroke-width:39.3701; stroke-opacity:1; 
stroke-linecap:round; stroke-linejoin:round;">
</g>
<g style="fill:#000000; fill-opacity:0.0; 
stroke:#000000; stroke-width:59.0551; stroke-opacity:1; 
stroke-linecap:round; stroke-linejoin:round;">
<path d="M118612 106539
L118696 106567
L118837 106567
L118893 106539
L118921 106510
L118949 106454
L118949 106398
L118921 106342
L118893 106314
L118837 106286
L118724 106257
L118668 106229
L118640 106201
L118612 106145
L118612 106089
L118640 106032
L118668 106004
L118724 105976
L118865 105976
L118949 106004
" />
<path d="M119202 106567
L119202 105976
" />
<path d="M119455 106567
L119455 106257
L119427 106201
L119371 106173
L119287 106173
L119230 106201
L119202 106229
" />
<path d="M119961 106539
L119905 106567
L119793 106567
L119736 106539
L119708 106482
L119708 106257
L119736 106201
L119793 106173
L119905 106173
L119961 106201
L119990 106257
L119990 106314
L119708 106370
" />
<path d="M120468 106539
L120411 106567
L120299 106567
L120243 106539
L120215 106482
L120215 106257
L120243 106201
L120299 106173
L120411 106173
L120468 106201
L120496 106257
L120496 106314
L120215 106370
" />
<path d="M120664 106173
L120889 106173
" />
<path d="M120749 105976
L120749 106482
L120777 106539
L120833 106567
L120889 106567
" />
<path d="M121086 106510
L121114 106539
L121086 106567
L121058 106539
L121086 106510
L121086 106567
" />
<path d="M121086 106201
L121114 106229
L121086 106257
L121058 106229
L121086 106201
L121086 106257
" />
</g>
<g style="fill:#000000; fill-opacity:0.0; 
stroke:#000000; stroke-width:39.3701; stroke-opacity:1; 
stroke-linecap:round; stroke-linejoin:round;">
</g>
<g style="fill:#000000; fill-opacity:0.0; 
stroke:#000000; stroke-width:59.0551; stroke-opacity:1; 
stroke-linecap:round; stroke-linejoin:round;">
<path d="M125979 109646
L125979 110827
" />
</g>
<g style="fill:#000000; fill-opacity:0.0; 
stroke:#000000; stroke-width:39.3701; stroke-opacity:1; 
stroke-linecap:round; stroke-linejoin:round;">
</g>
<g style="fill:#000000; fill-opacity:0.0; 
stroke:#000000; stroke-width:59.0551; stroke-opacity:1; 
stroke-linecap:round; stroke-linejoin:round;">
<path d="M151176 109646
L151176 112205
" />
</g>
<g style="fill:#C2C200; fill-opacity:0.0; 
stroke:#C2C200; stroke-width:59.0551; stroke-opacity:1; 
stroke-linecap:round; stroke-linejoin:round;">
<path d="M89960 55905
L89960 49212
" />
<path d="M85629 55905
L89960 55905
" />
<path d="M85629 61811
L85629 55905
" />
<path d="M89960 61811
L85629 61811
" />
<path d="M89960 71259
L89960 61811
" />
<path d="M89960 49212
L56496 49212
" />
<path d="M56496 71259
L89960 71259
" />
<path d="M56496 49212
L56496 71259
" />
<path d="M66392 62786
L66392 63105
L66411 63142
L66430 63161
L66467 63180
L66542 63180
L66580 63161
L66599 63142
L66617 63105
L66617 62786
" />
<path d="M66786 62823
L66805 62805
L66842 62786
L66936 62786
L66974 62805
L66992 62823
L67011 62861
L67011 62898
L66992 62955
L66767 63180
L67011 63180
" />
<path d="M56961 68683
L56943 68702
L56886 68721
L56849 68721
L56793 68702
L56755 68665
L56736 68627
L56718 68552
L56718 68496
L56736 68421
L56755 68383
L56793 68346
L56849 68327
L56886 68327
L56943 68346
L56961 68365
" />
<path d="M57336 68721
L57111 68721
" />
<path d="M57224 68721
L57224 68327
L57186 68383
L57149 68421
L57111 68440
" />
<path d="M57069 63451
L57088 63470
L57107 63526
L57107 63563
L57088 63620
L57050 63657
L57013 63676
L56938 63695
L56882 63695
L56807 63676
L56769 63657
L56732 63620
L56713 63563
L56713 63526
L56732 63470
L56751 63451
" />
<path d="M56751 63301
L56732 63282
L56713 63245
L56713 63151
L56732 63113
L56751 63095
L56788 63076
L56826 63076
L56882 63095
L57107 63320
L57107 63076
" />
<path d="M64431 62624
L64450 62643
L64469 62699
L64469 62737
L64450 62793
L64413 62830
L64375 62849
L64300 62868
L64244 62868
L64169 62849
L64131 62830
L64094 62793
L64075 62737
L64075 62699
L64094 62643
L64113 62624
" />
<path d="M64075 62493
L64075 62249
L64225 62380
L64225 62324
L64244 62287
L64263 62268
L64300 62249
L64394 62249
L64431 62268
L64450 62287
L64469 62324
L64469 62437
L64450 62474
L64431 62493
" />
<path d="M64501 60809
L64482 60828
L64426 60847
L64388 60847
L64332 60828
L64295 60791
L64276 60753
L64257 60678
L64257 60622
L64276 60547
L64295 60509
L64332 60472
L64388 60453
L64426 60453
L64482 60472
L64501 60491
" />
<path d="M64838 60584
L64838 60847
" />
<path d="M64745 60434
L64651 60716
L64895 60716
" />
<path d="M68683 60301
L68702 60320
L68721 60376
L68721 60414
L68702 60470
L68665 60508
L68627 60526
L68552 60545
L68496 60545
L68421 60526
L68383 60508
L68346 60470
L68327 60414
L68327 60376
L68346 60320
L68365 60301
" />
<path d="M68327 59945
L68327 60133
L68515 60151
L68496 60133
L68477 60095
L68477 60001
L68496 59964
L68515 59945
L68552 59926
L68646 59926
L68683 59945
L68702 59964
L68721 60001
L68721 60095
L68702 60133
L68683 60151
" />
<path d="M69028 59156
L69010 59175
L68953 59193
L68916 59193
L68860 59175
L68822 59137
L68803 59100
L68785 59025
L68785 58968
L68803 58893
L68822 58856
L68860 58818
L68916 58800
L68953 58800
L69010 58818
L69028 58837
" />
<path d="M69366 58800
L69291 58800
L69253 58818
L69235 58837
L69197 58893
L69178 58968
L69178 59118
L69197 59156
L69216 59175
L69253 59193
L69328 59193
L69366 59175
L69385 59156
L69403 59118
L69403 59025
L69385 58987
L69366 58968
L69328 58950
L69253 58950
L69216 58968
L69197 58987
L69178 59025
" />
<path d="M67660 58136
L67679 58155
L67697 58211
L67697 58248
L67679 58305
L67641 58342
L67604 58361
L67529 58380
L67472 58380
L67397 58361
L67360 58342
L67322 58305
L67304 58248
L67304 58211
L67322 58155
L67341 58136
" />
<path d="M67304 58005
L67304 57742
L67697 57911
" />
<path d="M64304 55809
L64285 55828
L64229 55847
L64191 55847
L64135 55828
L64098 55791
L64079 55753
L64060 55678
L64060 55622
L64079 55547
L64098 55509
L64135 55472
L64191 55453
L64229 55453
L64285 55472
L64304 55491
" />
<path d="M64529 55622
L64491 55603
L64473 55584
L64454 55547
L64454 55528
L64473 55491
L64491 55472
L64529 55453
L64604 55453
L64641 55472
L64660 55491
L64679 55528
L64679 55547
L64660 55584
L64641 55603
L64604 55622
L64529 55622
L64491 55641
L64473 55659
L64454 55697
L64454 55772
L64473 55809
L64491 55828
L64529 55847
L64604 55847
L64641 55828
L64660 55809
L64679 55772
L64679 55697
L64660 55659
L64641 55641
L64604 55622
" />
<path d="M65179 69632
L65198 69651
L65217 69707
L65217 69745
L65198 69801
L65161 69838
L65123 69857
L65048 69876
L64992 69876
L64917 69857
L64880 69838
L64842 69801
L64823 69745
L64823 69707
L64842 69651
L64861 69632
" />
<path d="M65217 69445
L65217 69370
L65198 69332
L65179 69313
L65123 69276
L65048 69257
L64898 69257
L64861 69276
L64842 69295
L64823 69332
L64823 69407
L64842 69445
L64861 69463
L64898 69482
L64992 69482
L65029 69463
L65048 69445
L65067 69407
L65067 69332
L65048 69295
L65029 69276
L64992 69257
" />
<path d="M70573 62772
L70592 62791
L70611 62847
L70611 62885
L70592 62941
L70554 62979
L70517 62997
L70442 63016
L70386 63016
L70311 62997
L70273 62979
L70236 62941
L70217 62885
L70217 62847
L70236 62791
L70254 62772
" />
<path d="M70611 62397
L70611 62622
" />
<path d="M70611 62510
L70217 62510
L70273 62547
L70311 62585
L70329 62622
" />
<path d="M70217 62154
L70217 62116
L70236 62079
L70254 62060
L70292 62041
L70367 62022
L70461 62022
L70536 62041
L70573 62060
L70592 62079
L70611 62116
L70611 62154
L70592 62191
L70573 62210
L70536 62229
L70461 62247
L70367 62247
L70292 62229
L70254 62210
L70236 62191
L70217 62154
" />
<path d="M68841 55764
L68860 55783
L68878 55839
L68878 55877
L68860 55933
L68822 55971
L68785 55989
L68710 56008
L68653 56008
L68578 55989
L68541 55971
L68503 55933
L68485 55877
L68485 55839
L68503 55783
L68522 55764
" />
<path d="M68878 55389
L68878 55614
" />
<path d="M68878 55502
L68485 55502
L68541 55539
L68578 55577
L68597 55614
" />
<path d="M68878 55014
L68878 55239
" />
<path d="M68878 55127
L68485 55127
L68541 55164
L68578 55202
L68597 55239
" />
<path d="M68526 69465
L68545 69484
L68563 69540
L68563 69578
L68545 69634
L68507 69671
L68470 69690
L68395 69709
L68338 69709
L68263 69690
L68226 69671
L68188 69634
L68170 69578
L68170 69540
L68188 69484
L68207 69465
" />
<path d="M68563 69090
L68563 69315
" />
<path d="M68563 69203
L68170 69203
L68226 69240
L68263 69278
L68282 69315
" />
<path d="M68207 68940
L68188 68922
L68170 68884
L68170 68790
L68188 68753
L68207 68734
L68245 68715
L68282 68715
L68338 68734
L68563 68959
L68563 68715
" />
<path d="M69471 62772
L69490 62791
L69508 62847
L69508 62885
L69490 62941
L69452 62979
L69415 62997
L69340 63016
L69283 63016
L69208 62997
L69171 62979
L69133 62941
L69115 62885
L69115 62847
L69133 62791
L69152 62772
" />
<path d="M69508 62397
L69508 62622
" />
<path d="M69508 62510
L69115 62510
L69171 62547
L69208 62585
L69227 62622
" />
<path d="M69115 62266
L69115 62022
L69265 62154
L69265 62097
L69283 62060
L69302 62041
L69340 62022
L69433 62022
L69471 62041
L69490 62060
L69508 62097
L69508 62210
L69490 62247
L69471 62266
" />
<path d="M71715 66636
L71696 66655
L71640 66674
L71602 66674
L71546 66655
L71509 66617
L71490 66580
L71471 66505
L71471 66449
L71490 66374
L71509 66336
L71546 66299
L71602 66280
L71640 66280
L71696 66299
L71715 66317
" />
<path d="M72090 66674
L71865 66674
" />
<path d="M71977 66674
L71977 66280
L71940 66336
L71902 66374
L71865 66392
" />
<path d="M72427 66411
L72427 66674
" />
<path d="M72334 66261
L72240 66542
L72484 66542
" />
<path d="M71715 65691
L71696 65710
L71640 65729
L71602 65729
L71546 65710
L71509 65673
L71490 65635
L71471 65560
L71471 65504
L71490 65429
L71509 65391
L71546 65354
L71602 65335
L71640 65335
L71696 65354
L71715 65373
" />
<path d="M72090 65729
L71865 65729
" />
<path d="M71977 65729
L71977 65335
L71940 65391
L71902 65429
L71865 65448
" />
<path d="M72446 65335
L72259 65335
L72240 65523
L72259 65504
L72296 65485
L72390 65485
L72427 65504
L72446 65523
L72465 65560
L72465 65654
L72446 65691
L72427 65710
L72390 65729
L72296 65729
L72259 65710
L72240 65691
" />
<path d="M61126 67697
L61126 67304
L61220 67304
L61276 67322
L61314 67360
L61332 67397
L61351 67472
L61351 67529
L61332 67604
L61314 67641
L61276 67679
L61220 67697
L61126 67697
" />
<path d="M61726 67697
L61501 67697
" />
<path d="M61614 67697
L61614 67304
L61576 67360
L61539 67397
L61501 67416
" />
<path d="M61166 68524
L61166 68130
L61259 68130
L61316 68149
L61353 68187
L61372 68224
L61391 68299
L61391 68355
L61372 68430
L61353 68468
L61316 68505
L61259 68524
L61166 68524
" />
<path d="M61541 68168
L61559 68149
L61597 68130
L61691 68130
L61728 68149
L61747 68168
L61766 68205
L61766 68243
L61747 68299
L61522 68524
L61766 68524
" />
<path d="M61166 65926
L61166 65532
L61259 65532
L61316 65551
L61353 65588
L61372 65626
L61391 65701
L61391 65757
L61372 65832
L61353 65869
L61316 65907
L61259 65926
L61166 65926
" />
<path d="M61522 65532
L61766 65532
L61634 65682
L61691 65682
L61728 65701
L61747 65719
L61766 65757
L61766 65851
L61747 65888
L61728 65907
L61691 65926
L61578 65926
L61541 65907
L61522 65888
" />
<path d="M66272 60847
L66085 60847
L66085 60453
" />
<path d="M66610 60847
L66385 60847
" />
<path d="M66497 60847
L66497 60453
L66460 60509
L66422 60547
L66385 60566
" />
<path d="M69705 58530
L69705 58717
L69311 58717
" />
<path d="M69349 58417
L69330 58398
L69311 58361
L69311 58267
L69330 58230
L69349 58211
L69386 58192
L69424 58192
L69480 58211
L69705 58436
L69705 58192
" />
<path d="M66076 57500
L65888 57500
L65888 57107
" />
<path d="M66169 57107
L66413 57107
L66282 57257
L66338 57257
L66376 57275
L66394 57294
L66413 57332
L66413 57425
L66394 57463
L66376 57482
L66338 57500
L66226 57500
L66188 57482
L66169 57463
" />
<path d="M70013 57500
L69825 57500
L69825 57107
" />
<path d="M70313 57238
L70313 57500
" />
<path d="M70219 57088
L70125 57369
L70369 57369
" />
<path d="M66981 65611
L66794 65611
L66794 65217
" />
<path d="M67300 65217
L67112 65217
L67094 65404
L67112 65386
L67150 65367
L67244 65367
L67281 65386
L67300 65404
L67319 65442
L67319 65536
L67300 65573
L67281 65592
L67244 65611
L67150 65611
L67112 65592
L67094 65573
" />
<path d="M72099 64311
L71912 64311
L71912 63918
" />
<path d="M72399 63918
L72324 63918
L72287 63937
L72268 63955
L72230 64011
L72212 64086
L72212 64236
L72230 64274
L72249 64293
L72287 64311
L72362 64311
L72399 64293
L72418 64274
L72437 64236
L72437 64143
L72418 64105
L72399 64086
L72362 64068
L72287 64068
L72249 64086
L72230 64105
L72212 64143
" />
<path d="M57977 70355
L57977 69961
L58127 69961
L58164 69980
L58183 69999
L58202 70036
L58202 70092
L58183 70130
L58164 70149
L58127 70167
L57977 70167
" />
<path d="M58352 69999
L58370 69980
L58408 69961
L58502 69961
L58539 69980
L58558 69999
L58577 70036
L58577 70074
L58558 70130
L58333 70355
L58577 70355
" />
<path d="M61835 65374
L61835 64981
L61985 64981
L62022 65000
L62041 65018
L62060 65056
L62060 65112
L62041 65149
L62022 65168
L61985 65187
L61835 65187
" />
<path d="M62191 64981
L62435 64981
L62304 65131
L62360 65131
L62397 65149
L62416 65168
L62435 65206
L62435 65299
L62416 65337
L62397 65356
L62360 65374
L62247 65374
L62210 65356
L62191 65337
" />
<path d="M62572 68485
L62440 68297
" />
<path d="M62347 68485
L62347 68091
L62497 68091
L62534 68110
L62553 68128
L62572 68166
L62572 68222
L62553 68260
L62534 68278
L62497 68297
L62347 68297
" />
<path d="M62947 68485
L62722 68485
" />
<path d="M62834 68485
L62834 68091
L62797 68147
L62759 68185
L62722 68203
" />
<path d="M62572 69469
L62440 69281
" />
<path d="M62347 69469
L62347 69075
L62497 69075
L62534 69094
L62553 69113
L62572 69150
L62572 69206
L62553 69244
L62534 69263
L62497 69281
L62347 69281
" />
<path d="M62722 69113
L62740 69094
L62778 69075
L62872 69075
L62909 69094
L62928 69113
L62947 69150
L62947 69188
L62928 69244
L62703 69469
L62947 69469
" />
<path d="M61154 66792
L61023 66604
" />
<path d="M60929 66792
L60929 66398
L61079 66398
L61117 66417
L61136 66436
L61154 66473
L61154 66529
L61136 66567
L61117 66586
L61079 66604
L60929 66604
" />
<path d="M61286 66398
L61529 66398
L61398 66548
L61454 66548
L61492 66567
L61511 66586
L61529 66623
L61529 66717
L61511 66754
L61492 66773
L61454 66792
L61342 66792
L61304 66773
L61286 66754
" />
<path d="M61272 64863
L61141 64675
" />
<path d="M61047 64863
L61047 64469
L61197 64469
L61235 64488
L61254 64506
L61272 64544
L61272 64600
L61254 64638
L61235 64656
L61197 64675
L61047 64675
" />
<path d="M61610 64600
L61610 64863
" />
<path d="M61516 64450
L61422 64731
L61666 64731
" />
<path d="M59705 65104
L59518 65236
" />
<path d="M59705 65329
L59311 65329
L59311 65179
L59330 65142
L59349 65123
L59386 65104
L59443 65104
L59480 65123
L59499 65142
L59518 65179
L59518 65329
" />
<path d="M59311 64748
L59311 64936
L59499 64955
L59480 64936
L59461 64898
L59461 64805
L59480 64767
L59499 64748
L59536 64730
L59630 64730
L59668 64748
L59686 64767
L59705 64805
L59705 64898
L59686 64936
L59668 64955
" />
<path d="M60131 62461
L60000 62274
" />
<path d="M59906 62461
L59906 62067
L60056 62067
L60093 62086
L60112 62105
L60131 62142
L60131 62199
L60112 62236
L60093 62255
L60056 62274
L59906 62274
" />
<path d="M60468 62067
L60393 62067
L60356 62086
L60337 62105
L60299 62161
L60281 62236
L60281 62386
L60299 62424
L60318 62442
L60356 62461
L60431 62461
L60468 62442
L60487 62424
L60506 62386
L60506 62292
L60487 62255
L60468 62236
L60431 62217
L60356 62217
L60318 62236
L60299 62255
L60281 62292
" />
<path d="M64934 64745
L64803 64557
" />
<path d="M64709 64745
L64709 64351
L64859 64351
L64896 64370
L64915 64388
L64934 64426
L64934 64482
L64915 64520
L64896 64538
L64859 64557
L64709 64557
" />
<path d="M65065 64351
L65328 64351
L65159 64745
" />
<path d="M63792 64745
L63661 64557
" />
<path d="M63567 64745
L63567 64351
L63717 64351
L63755 64370
L63773 64388
L63792 64426
L63792 64482
L63773 64520
L63755 64538
L63717 64557
L63567 64557
" />
<path d="M64017 64520
L63980 64501
L63961 64482
L63942 64445
L63942 64426
L63961 64388
L63980 64370
L64017 64351
L64092 64351
L64130 64370
L64148 64388
L64167 64426
L64167 64445
L64148 64482
L64130 64501
L64092 64520
L64017 64520
L63980 64538
L63961 64557
L63942 64595
L63942 64670
L63961 64707
L63980 64726
L64017 64745
L64092 64745
L64130 64726
L64148 64707
L64167 64670
L64167 64595
L64148 64557
L64130 64538
L64092 64520
" />
<path d="M63792 65571
L63661 65384
" />
<path d="M63567 65571
L63567 65178
L63717 65178
L63755 65196
L63773 65215
L63792 65253
L63792 65309
L63773 65346
L63755 65365
L63717 65384
L63567 65384
" />
<path d="M63980 65571
L64055 65571
L64092 65553
L64111 65534
L64148 65478
L64167 65403
L64167 65253
L64148 65215
L64130 65196
L64092 65178
L64017 65178
L63980 65196
L63961 65215
L63942 65253
L63942 65346
L63961 65384
L63980 65403
L64017 65421
L64092 65421
L64130 65403
L64148 65384
L64167 65346
" />
<path d="M66164 67422
L66032 67234
" />
<path d="M65939 67422
L65939 67028
L66089 67028
L66126 67047
L66145 67065
L66164 67103
L66164 67159
L66145 67197
L66126 67215
L66089 67234
L65939 67234
" />
<path d="M66539 67422
L66314 67422
" />
<path d="M66426 67422
L66426 67028
L66389 67084
L66351 67122
L66314 67140
" />
<path d="M66782 67028
L66820 67028
L66857 67047
L66876 67065
L66895 67103
L66914 67178
L66914 67272
L66895 67347
L66876 67384
L66857 67403
L66820 67422
L66782 67422
L66745 67403
L66726 67384
L66707 67347
L66689 67272
L66689 67178
L66707 67103
L66726 67065
L66745 67047
L66782 67028
" />
<path d="M67345 67422
L67214 67234
" />
<path d="M67120 67422
L67120 67028
L67270 67028
L67307 67047
L67326 67065
L67345 67103
L67345 67159
L67326 67197
L67307 67215
L67270 67234
L67120 67234
" />
<path d="M67720 67422
L67495 67422
" />
<path d="M67607 67422
L67607 67028
L67570 67084
L67532 67122
L67495 67140
" />
<path d="M68095 67422
L67870 67422
" />
<path d="M67982 67422
L67982 67028
L67945 67084
L67907 67122
L67870 67140
" />
<path d="M72241 70431
L72053 70562
" />
<path d="M72241 70656
L71847 70656
L71847 70506
L71866 70468
L71884 70449
L71922 70431
L71978 70431
L72016 70449
L72034 70468
L72053 70506
L72053 70656
" />
<path d="M71847 70318
L72241 70187
L71847 70056
" />
<path d="M72241 69718
L72241 69943
" />
<path d="M72241 69831
L71847 69831
L71903 69868
L71941 69906
L71959 69943
" />
<path d="M59769 62737
L59994 62737
" />
<path d="M59881 63130
L59881 62737
" />
<path d="M60125 63130
L60125 62737
" />
<path d="M60125 62924
L60350 62924
" />
<path d="M60350 63130
L60350 62737
" />
<path d="M60744 63130
L60519 63130
" />
<path d="M60631 63130
L60631 62737
L60594 62793
L60556 62830
L60519 62849
" />
<path d="M70763 61300
L70763 61618
L70781 61656
L70800 61675
L70838 61693
L70913 61693
L70950 61675
L70969 61656
L70988 61618
L70988 61300
" />
<path d="M71137 61300
L71381 61300
L71250 61450
L71306 61450
L71344 61468
L71362 61487
L71381 61525
L71381 61618
L71362 61656
L71344 61675
L71306 61693
L71194 61693
L71156 61675
L71137 61656
" />
<path d="M66209 54551
L66528 54551
L66565 54533
L66584 54514
L66603 54476
L66603 54401
L66584 54364
L66565 54345
L66528 54326
L66209 54326
" />
<path d="M66340 53970
L66603 53970
" />
<path d="M66190 54064
L66472 54158
L66472 53914
" />
<path d="M64287 55138
L64550 55532
" />
<path d="M64550 55138
L64287 55532
" />
<path d="M64906 55532
L64681 55532
" />
<path d="M64793 55532
L64793 55138
L64756 55194
L64718 55232
L64681 55251
" />
<path d="M59626 54512
L59945 54512
L59983 54493
L60001 54475
L60020 54437
L60020 54362
L60001 54325
L59983 54306
L59945 54287
L59626 54287
" />
<path d="M59626 53912
L59626 54100
L59814 54118
L59795 54100
L59776 54062
L59776 53968
L59795 53931
L59814 53912
L59851 53893
L59945 53893
L59983 53912
L60001 53931
L60020 53968
L60020 54062
L60001 54100
L59983 54118
" />
<path d="M59626 60024
L59945 60024
L59983 60005
L60001 59986
L60020 59949
L60020 59874
L60001 59836
L59983 59818
L59945 59799
L59626 59799
" />
<path d="M59626 59443
L59626 59518
L59645 59555
L59664 59574
L59720 59611
L59795 59630
L59945 59630
L59983 59611
L60001 59593
L60020 59555
L60020 59480
L60001 59443
L59983 59424
L59945 59405
L59851 59405
L59814 59424
L59795 59443
L59776 59480
L59776 59555
L59795 59593
L59814 59611
L59851 59630
" />
<path d="M56920 67189
L57238 67189
L57276 67170
L57295 67152
L57313 67114
L57313 67039
L57295 67002
L57276 66983
L57238 66964
L56920 66964
" />
<path d="M57313 66571
L57313 66796
" />
<path d="M57313 66683
L56920 66683
L56976 66721
L57013 66758
L57032 66796
" />
<path d="M55571 51629
L55178 51629
L55178 51479
L55196 51441
L55215 51422
L55253 51404
L55309 51404
L55346 51422
L55365 51441
L55384 51479
L55384 51629
" />
<path d="M55571 51029
L55571 51254
" />
<path d="M55571 51141
L55178 51141
L55234 51179
L55271 51216
L55290 51254
" />
</g>
<g style="fill:#008484; fill-opacity:0.0; 
stroke:#008484; stroke-width:59.0551; stroke-opacity:1; 
stroke-linecap:round; stroke-linejoin:round;">
<path d="M66210 64665
L67175 64665
" />
<path d="M65925 63366
L67175 63366
" />
<path d="M58346 68208
L57952 68208
" />
<path d="M57952 68877
L58346 68877
" />
<path d="M57421 63188
L57421 63582
" />
<path d="M58090 63582
L58090 63188
" />
<path d="M63799 62755
L63799 62362
" />
<path d="M63129 62362
L63129 62755
" />
<path d="M64370 60177
L64763 60177
" />
<path d="M64763 59507
L64370 59507
" />
<path d="M68051 60433
L68051 60039
" />
<path d="M67381 60039
L67381 60433
" />
<path d="M69291 59507
L68897 59507
" />
<path d="M68897 60177
L69291 60177
" />
<path d="M67854 57086
L67854 56692
" />
<path d="M67185 56692
L67185 57086
" />
<path d="M64566 56161
L64173 56161
" />
<path d="M64173 56830
L64566 56830
" />
<path d="M65374 68543
L65374 68149
" />
<path d="M64704 68149
L64704 68543
" />
<path d="M69940 62716
L69940 62322
" />
<path d="M69271 62322
L69271 62716
" />
<path d="M69035 57086
L69035 56692
" />
<path d="M68366 56692
L68366 57086
" />
<path d="M66600 70112
L67150 70112
" />
<path d="M66500 70062
L67200 70062
" />
<path d="M66350 70012
L67350 70012
" />
<path d="M67400 69962
L66300 69962
" />
<path d="M66250 69912
L67450 69912
" />
<path d="M67500 69862
L66200 69862
" />
<path d="M66150 69812
L67550 69812
" />
<path d="M65800 70262
L65800 68462
" />
<path d="M65800 68462
L66100 68162
" />
<path d="M66100 68162
L67600 68162
" />
<path d="M67600 68162
L67900 68462
" />
<path d="M67900 68462
L67900 70262
" />
<path d="M67900 70262
L65800 70262
" />
<path d="M66850 68362
L66850 68662
" />
<path d="M66700 68512
L67000 68512
" />
<circle cx="66850.4" cy="69212.6" r="950" /> 
<path d="M68838 62716
L68838 62322
" />
<path d="M68169 62322
L68169 62716
" />
<path d="M70748 66161
L70354 66161
" />
<path d="M70354 66830
L70748 66830
" />
<path d="M70748 65216
L70354 65216
" />
<path d="M70354 65885
L70748 65885
" />
<path d="M59645 67795
L60708 67795
" />
<path d="M59645 67204
L60708 67204
" />
<path d="M60236 67559
L60236 67460
" />
<path d="M60236 67460
L60177 67519
" />
<path d="M60137 67362
L60137 67637
" />
<path d="M60275 67500
L60413 67500
" />
<path d="M60137 67500
L60275 67362
" />
<path d="M60275 67362
L60275 67637
" />
<path d="M60275 67637
L60137 67500
" />
<path d="M59645 68641
L60708 68641
" />
<path d="M59645 68051
L60708 68051
" />
<path d="M60236 68405
L60236 68307
" />
<path d="M60236 68307
L60177 68366
" />
<path d="M60137 68208
L60137 68484
" />
<path d="M60275 68346
L60413 68346
" />
<path d="M60137 68346
L60275 68208
" />
<path d="M60275 68208
L60275 68484
" />
<path d="M60275 68484
L60137 68346
" />
<path d="M59645 66043
L60708 66043
" />
<path d="M59645 65452
L60708 65452
" />
<path d="M60236 65807
L60236 65708
" />
<path d="M60236 65708
L60177 65767
" />
<path d="M60137 65610
L60137 65885
" />
<path d="M60275 65748
L60413 65748
" />
<path d="M60137 65748
L60275 65610
" />
<path d="M60275 65610
L60275 65885
" />
<path d="M60275 65885
L60137 65748
" />
<path d="M66102 59498
L66574 59498
" />
<path d="M66574 60187
L66102 60187
" />
<path d="M68356 58700
L68356 58228
" />
<path d="M69045 58228
L69045 58700
" />
<path d="M65905 56151
L66377 56151
" />
<path d="M66377 56840
L65905 56840
" />
<path d="M69842 56151
L70314 56151
" />
<path d="M70314 56840
L69842 56840
" />
<path d="M68116 65433
L68416 65433
" />
<path d="M65966 65433
L65616 65433
" />
<path d="M68116 64933
L68116 65983
" />
<path d="M68116 65983
L65966 65983
" />
<path d="M65966 65983
L65966 64933
" />
<path d="M65966 64933
L68116 64933
" />
<path d="M73234 64094
L73534 64094
" />
<path d="M71084 64094
L70734 64094
" />
<path d="M73234 63594
L73234 64644
" />
<path d="M73234 64644
L71084 64644
" />
<path d="M71084 64644
L71084 63594
" />
<path d="M71084 63594
L73234 63594
" />
<path d="M56554 71680
L59979 71680
" />
<path d="M56554 69158
L59979 69158
" />
<path d="M59979 69158
L59979 71680
" />
<path d="M59979 71195
L56554 71195
" />
<path d="M56554 71680
L56554 69158
" />
<path d="M61625 62688
L61625 61688
" />
<path d="M61515 63799
L61515 63188
" />
<path d="M61625 62688
L62625 62688
" />
<path d="M62736 63188
L62736 63799
" />
<path d="M62736 63799
L61515 63799
" />
<path d="M62625 62688
L62625 61688
" />
<path d="M62625 61688
L61625 61688
" />
<path d="M62401 67135
L62874 67135
" />
<path d="M62874 67824
L62401 67824
" />
<path d="M62401 68120
L62874 68120
" />
<path d="M62874 68809
L62401 68809
" />
<path d="M60393 66958
L59921 66958
" />
<path d="M59921 66269
L60393 66269
" />
<path d="M60039 64379
L60511 64379
" />
<path d="M60511 65068
L60039 65068
" />
<path d="M58356 65275
L58356 64803
" />
<path d="M59045 64803
L59045 65275
" />
<path d="M60393 63297
L60000 63297
" />
<path d="M60000 62765
L60393 62765
" />
<path d="M64803 63553
L65196 63553
" />
<path d="M65196 64084
L64803 64084
" />
<path d="M63661 63553
L64055 63553
" />
<path d="M64055 64084
L63661 64084
" />
<path d="M63661 64379
L64055 64379
" />
<path d="M64055 64911
L63661 64911
" />
<path d="M66614 66840
L66220 66840
" />
<path d="M66220 66309
L66614 66309
" />
<path d="M67795 66840
L67401 66840
" />
<path d="M67401 66309
L67795 66309
" />
<path d="M76462 70996
L76462 70496
" />
<path d="M76152 70701
L76167 70801
" />
<path d="M76167 70801
L76237 70911
" />
<path d="M76237 70911
L76362 70996
" />
<path d="M76362 70996
L76537 71001
" />
<path d="M76537 71001
L76677 70921
" />
<path d="M76677 70921
L76747 70806
" />
<path d="M76747 70806
L76767 70681
" />
<path d="M76767 70681
L76727 70521
" />
<path d="M76727 70521
L76592 70421
" />
<path d="M76592 70421
L76522 70386
" />
<path d="M73162 69496
L76962 69496
" />
<path d="M76962 70696
L76962 71196
" />
<path d="M76962 71196
L73162 71196
" />
<path d="M73162 71196
L73162 69196
" />
<path d="M76962 69196
L76962 70196
" />
<path d="M76962 70196
L76962 70696
" />
<path d="M60511 64124
L60039 64124
" />
<path d="M60039 63435
L60511 63435
" />
<path d="M70836 62765
L71289 62765
" />
<path d="M70531 61879
L71289 61879
" />
<path d="M66889 53405
L67194 53405
" />
<path d="M68582 55098
L68277 55098
" />
<path d="M68582 53405
L68277 53405
" />
<path d="M66889 55098
L66889 54793
" />
<path d="M68582 55098
L68582 54793
" />
<path d="M68582 53405
L68582 53710
" />
<path d="M66889 53405
L66889 53710
" />
<path d="M65629 54094
L65905 54094
" />
<path d="M64881 53503
L64881 53307
" />
<path d="M64329 53503
L64881 53503
" />
<path d="M64882 54842
L64330 54842
" />
<path d="M63582 54094
L63582 54251
" />
<path d="M65629 54094
L65629 54251
" />
<path d="M58799 67372
L58799 66407
" />
<path d="M57500 67657
L57500 66407
" />
<path d="M56901 49838
L69901 49838
" />
<path d="M57901 51838
L69901 51838
" />
<path d="M69901 49838
L69901 51838
" />
<path d="M56901 49838
L56901 50838
" />
<path d="M56791 51338
L56791 51948
" />
<path d="M56901 50838
L57901 50838
" />
<path d="M57901 50838
L57901 51838
" />
<path d="M56791 51948
L57401 51948
" />
</g>
<g style="fill:#840000; fill-opacity:0.0; 
stroke:#840000; stroke-width:59.0551; stroke-opacity:1; 
stroke-linecap:round; stroke-linejoin:round;">
</g>
<g style="fill:#840000; fill-opacity:1.0; 
stroke:#840000; stroke-width:0; stroke-opacity:1; 
stroke-linecap:round; stroke-linejoin:round;">
<circle cx="69016.2" cy="65433.1" r="393.5" /> 
</g>
<g style="fill:#840000; fill-opacity:1.0; 
stroke:#840000; stroke-width:39.3701; stroke-opacity:1; 
stroke-linecap:round; stroke-linejoin:round;">
</g>
<g style="fill:#840000; fill-opacity:1.0; 
stroke:#840000; stroke-width:0; stroke-opacity:1; 
stroke-linecap:round; stroke-linejoin:round;">
<circle cx="65016.2" cy="65433.1" r="393.5" /> 
</g>
<g style="fill:#840000; fill-opacity:1.0; 
stroke:#840000; stroke-width:39.3701; stroke-opacity:1; 
stroke-linecap:round; stroke-linejoin:round;">
</g>
<g style="fill:#840000; fill-opacity:1.0; 
stroke:#840000; stroke-width:0; stroke-opacity:1; 
stroke-linecap:round; stroke-linejoin:round;">
<circle cx="74134.4" cy="64094.5" r="393.5" /> 
</g>
<g style="fill:#840000; fill-opacity:1.0; 
stroke:#840000; stroke-width:39.3701; stroke-opacity:1; 
stroke-linecap:round; stroke-linejoin:round;">
</g>
<g style="fill:#840000; fill-opacity:1.0; 
stroke:#840000; stroke-width:0; stroke-opacity:1; 
stroke-linecap:round; stroke-linejoin:round;">
<circle cx="70134.4" cy="64094.5" r="393.5" /> 
</g>
<g style="fill:#840000; fill-opacity:1.0; 
stroke:#840000; stroke-width:39.3701; stroke-opacity:1; 
stroke-linecap:round; stroke-linejoin:round;">
</g>
<g style="fill:#840000; fill-opacity:1.0; 
stroke:#840000; stroke-width:374.016; stroke-opacity:1; 
stroke-linecap:round; stroke-linejoin:round;">
</g>
<g style="fill:#840000; fill-opacity:0.0; 
stroke:#840000; stroke-width:374.016; stroke-opacity:1; 
stroke-linecap:round; stroke-linejoin:round;">
<path d="M57224 69561
L57342 69561
" />
<path d="M59192 69561
L59310 69561
" />
</g>
<g style="fill:#840000; fill-opacity:0.0; 
stroke:#840000; stroke-width:393.701; stroke-opacity:1; 
stroke-linecap:round; stroke-linejoin:round;">
<path d="M56889 70733
L56889 70516
" />
<path d="M59645 70733
L59645 70516
" />
</g>
<g style="fill:#840000; fill-opacity:0.0; 
stroke:#840000; stroke-width:0; stroke-opacity:1; 
stroke-linecap:round; stroke-linejoin:round;">
</g>
<g style="fill:#840000; fill-opacity:1.0; 
stroke:#840000; stroke-width:0; stroke-opacity:1; 
stroke-linecap:round; stroke-linejoin:round;">
<polyline style="fill-rule:evenodd;"
points="62525,62788
62525,63588
61725,63588
61725,62788
62525,62788
" /> 
</g>
<g style="fill:#840000; fill-opacity:1.0; 
stroke:#840000; stroke-width:800; stroke-opacity:1; 
stroke-linecap:round; stroke-linejoin:round;">
</g>
<g style="fill:#840000; fill-opacity:0.0; 
stroke:#840000; stroke-width:800; stroke-opacity:1; 
stroke-linecap:round; stroke-linejoin:round;">
<path d="M62125 62188
L62125 62188
" />
</g>
<g style="fill:#840000; fill-opacity:1.0; 
stroke:#840000; stroke-width:0; stroke-opacity:1; 
stroke-linecap:round; stroke-linejoin:round;">
<circle cx="75063" cy="70196.9" r="300" /> 
</g>
<g style="fill:#840000; fill-opacity:1.0; 
stroke:#840000; stroke-width:39.3701; stroke-opacity:1; 
stroke-linecap:round; stroke-linejoin:round;">
</g>
<g style="fill:#840000; fill-opacity:1.0; 
stroke:#840000; stroke-width:0; stroke-opacity:1; 
stroke-linecap:round; stroke-linejoin:round;">
<circle cx="74063" cy="70196.9" r="300" /> 
</g>
<g style="fill:#840000; fill-opacity:1.0; 
stroke:#840000; stroke-width:39.3701; stroke-opacity:1; 
stroke-linecap:round; stroke-linejoin:round;">
</g>
<g style="fill:#840000; fill-opacity:1.0; 
stroke:#840000; stroke-width:0; stroke-opacity:1; 
stroke-linecap:round; stroke-linejoin:round;">
<circle cx="76063" cy="70196.9" r="300" /> 
</g>
<g style="fill:#840000; fill-opacity:1.0; 
stroke:#840000; stroke-width:39.3701; stroke-opacity:1; 
stroke-linecap:round; stroke-linejoin:round;">
</g>
<g style="fill:#840000; fill-opacity:1.0; 
stroke:#840000; stroke-width:0; stroke-opacity:1; 
stroke-linecap:round; stroke-linejoin:round;">
<polyline style="fill-rule:evenodd;"
points="57741,51678
57061,51678
57061,50998
57741,50998
57741,51678
" /> 
</g>
<g style="fill:#840000; fill-opacity:1.0; 
stroke:#840000; stroke-width:680; stroke-opacity:1; 
stroke-linecap:round; stroke-linejoin:round;">
</g>
<g style="fill:#840000; fill-opacity:0.0; 
stroke:#840000; stroke-width:680; stroke-opacity:1; 
stroke-linecap:round; stroke-linejoin:round;">
<path d="M57401 50338
L57401 50338
" />
<path d="M58401 51338
L58401 51338
" />
<path d="M58401 50338
L58401 50338
" />
<path d="M59401 51338
L59401 51338
" />
<path d="M59401 50338
L59401 50338
" />
<path d="M60401 51338
L60401 51338
" />
<path d="M60401 50338
L60401 50338
" />
<path d="M61401 51338
L61401 51338
" />
<path d="M61401 50338
L61401 50338
" />
<path d="M62401 51338
L62401 51338
" />
<path d="M62401 50338
L62401 50338
" />
<path d="M63401 51338
L63401 51338
" />
<path d="M63401 50338
L63401 50338
" />
<path d="M64401 51338
L64401 51338
" />
<path d="M64401 50338
L64401 50338
" />
<path d="M65401 51338
L65401 51338
" />
<path d="M65401 50338
L65401 50338
" />
<path d="M66401 51338
L66401 51338
" />
<path d="M66401 50338
L66401 50338
" />
<path d="M67401 51338
L67401 51338
" />
<path d="M67401 50338
L67401 50338
" />
<path d="M68401 51338
L68401 51338
" />
<path d="M68401 50338
L68401 50338
" />
<path d="M69401 51338
L69401 51338
" />
<path d="M69401 50338
L69401 50338
" />
</g> 
</svg>
