G04 #@! TF.FileFunction,Legend,Bot*
%FSLAX46Y46*%
G04 Gerber Fmt 4.6, Leading zero omitted, Abs format (unit mm)*
G04 Created by KiCad (PCBNEW 4.0.6) date Wed Apr 19 01:03:26 2017*
%MOMM*%
%LPD*%
G01*
G04 APERTURE LIST*
%ADD10C,0.100000*%
%ADD11C,0.150000*%
G04 APERTURE END LIST*
D10*
D11*
X99000000Y-104250000D02*
X98000000Y-104250000D01*
X98000000Y-102550000D02*
X99000000Y-102550000D01*
X99100000Y-114550000D02*
X98100000Y-114550000D01*
X98100000Y-112850000D02*
X99100000Y-112850000D01*
X104999360Y-102750380D02*
X104999360Y-114449620D01*
X100000640Y-114449620D02*
X100000640Y-102750380D01*
X104999360Y-114449620D02*
X104151000Y-114449620D01*
X100000640Y-114449620D02*
X100849000Y-114449620D01*
X104999360Y-102750380D02*
X104151000Y-102750380D01*
X100000640Y-102750380D02*
X100849000Y-102750380D01*
X99142857Y-105857143D02*
X99190476Y-105904762D01*
X99333333Y-105952381D01*
X99428571Y-105952381D01*
X99571429Y-105904762D01*
X99666667Y-105809524D01*
X99714286Y-105714286D01*
X99761905Y-105523810D01*
X99761905Y-105380952D01*
X99714286Y-105190476D01*
X99666667Y-105095238D01*
X99571429Y-105000000D01*
X99428571Y-104952381D01*
X99333333Y-104952381D01*
X99190476Y-105000000D01*
X99142857Y-105047619D01*
X98190476Y-105952381D02*
X98761905Y-105952381D01*
X98476191Y-105952381D02*
X98476191Y-104952381D01*
X98571429Y-105095238D01*
X98666667Y-105190476D01*
X98761905Y-105238095D01*
X97571429Y-104952381D02*
X97476190Y-104952381D01*
X97380952Y-105000000D01*
X97333333Y-105047619D01*
X97285714Y-105142857D01*
X97238095Y-105333333D01*
X97238095Y-105571429D01*
X97285714Y-105761905D01*
X97333333Y-105857143D01*
X97380952Y-105904762D01*
X97476190Y-105952381D01*
X97571429Y-105952381D01*
X97666667Y-105904762D01*
X97714286Y-105857143D01*
X97761905Y-105761905D01*
X97809524Y-105571429D01*
X97809524Y-105333333D01*
X97761905Y-105142857D01*
X97714286Y-105047619D01*
X97666667Y-105000000D01*
X97571429Y-104952381D01*
X99242857Y-116157143D02*
X99290476Y-116204762D01*
X99433333Y-116252381D01*
X99528571Y-116252381D01*
X99671429Y-116204762D01*
X99766667Y-116109524D01*
X99814286Y-116014286D01*
X99861905Y-115823810D01*
X99861905Y-115680952D01*
X99814286Y-115490476D01*
X99766667Y-115395238D01*
X99671429Y-115300000D01*
X99528571Y-115252381D01*
X99433333Y-115252381D01*
X99290476Y-115300000D01*
X99242857Y-115347619D01*
X98290476Y-116252381D02*
X98861905Y-116252381D01*
X98576191Y-116252381D02*
X98576191Y-115252381D01*
X98671429Y-115395238D01*
X98766667Y-115490476D01*
X98861905Y-115538095D01*
X97957143Y-115252381D02*
X97338095Y-115252381D01*
X97671429Y-115633333D01*
X97528571Y-115633333D01*
X97433333Y-115680952D01*
X97385714Y-115728571D01*
X97338095Y-115823810D01*
X97338095Y-116061905D01*
X97385714Y-116157143D01*
X97433333Y-116204762D01*
X97528571Y-116252381D01*
X97814286Y-116252381D01*
X97909524Y-116204762D01*
X97957143Y-116157143D01*
X97396190Y-108123809D02*
X97872381Y-108123809D01*
X96872381Y-107790476D02*
X97396190Y-108123809D01*
X96872381Y-108457143D01*
X97872381Y-109314286D02*
X97872381Y-108742857D01*
X97872381Y-109028571D02*
X96872381Y-109028571D01*
X97015238Y-108933333D01*
X97110476Y-108838095D01*
X97158095Y-108742857D01*
M02*
