M48
;DRILL file {KiCad 4.0.6} date Wed Apr 19 01:03:34 2017
;FORMAT={-:-/ absolute / inch / decimal}
FMAT,2
INCH,TZ
T1C0.016
T2C0.020
T3C0.022
T4C0.028
T5C0.032
T6C0.040
%
G90
G05
M72
T1
X3.4409Y-4.9016
X3.4429Y-4.2992
X3.6102Y-5.3268
X3.625Y-4.4656
X3.6457Y-4.8858
X3.6457Y-4.9252
X3.6614Y-5.374
X3.7402Y-5.5118
X3.7402Y-5.5709
X3.7402Y-5.6299
X3.7402Y-5.689
X3.7402Y-5.7677
X3.7402Y-5.8268
X3.7421Y-4.0768
X3.7421Y-4.2165
X3.7598Y-5.4724
X3.7795Y-5.4331
X3.8189Y-5.3937
X3.8386Y-4.3386
X3.8425Y-4.1437
X3.8583Y-5.3543
X3.8799Y-4.2008
X3.8976Y-5.315
X3.8976Y-5.5315
X3.8976Y-5.5906
X3.8976Y-5.6496
X3.8976Y-5.7087
X3.8976Y-5.7677
X3.8976Y-5.8268
X3.9173Y-5.4921
X3.937Y-5.2756
X3.9567Y-5.4528
X3.9764Y-5.2362
X3.9961Y-5.4134
X4.0157Y-5.1969
X4.0354Y-5.374
X4.0394Y-4.2362
X4.0551Y-5.1575
X4.0748Y-4.6457
X4.0748Y-4.7047
X4.0748Y-4.7638
X4.0748Y-4.8228
X4.0748Y-5.3346
X4.0945Y-5.1181
X4.1142Y-4.6063
X4.1142Y-4.8425
X4.1142Y-5.2953
X4.1339Y-5.0591
X4.1496Y-4.3031
X4.1535Y-4.5472
X4.1535Y-5.2559
X4.1732Y-4.8425
X4.1732Y-5.0197
X4.1929Y-5.2165
X4.2047Y-4.4705
X4.2126Y-4.9803
X4.2323Y-4.7441
X4.2323Y-4.8031
X4.2323Y-4.8425
X4.2323Y-4.9016
X4.2323Y-4.9409
X4.2323Y-5.1772
X4.2717Y-5.1378
X4.311Y-5.0984
X4.311Y-5.7087
X4.311Y-5.7677
X4.311Y-5.8268
X4.3307Y-5.0591
X4.3307Y-5.1378
X4.3307Y-5.1969
X4.3307Y-5.2559
X4.3307Y-5.315
X4.3307Y-5.374
X4.3307Y-5.4331
X4.3307Y-5.4921
X4.3307Y-5.5512
X4.3307Y-5.6102
X4.3307Y-5.6693
X4.374Y-3.9724
X4.4685Y-4.626
X4.4685Y-4.685
X4.4685Y-4.7441
X4.4685Y-4.8031
X4.4685Y-4.8622
X4.4724Y-4.2579
X4.4882Y-4.5866
X4.4882Y-4.9016
X4.4882Y-5.0197
X4.4882Y-5.0787
X4.4882Y-5.1378
X4.4882Y-5.2756
X4.4882Y-5.3543
X4.4882Y-5.4134
X4.4882Y-5.4724
X4.4882Y-5.5315
X4.4882Y-5.5906
X4.4882Y-5.6496
X4.4882Y-5.7087
X4.4882Y-5.7677
X4.4882Y-5.8268
X4.5276Y-4.5217
X4.5472Y-4.5866
X4.5472Y-4.9016
X4.5472Y-4.9606
X4.5472Y-5.0197
X4.5472Y-5.1378
X4.5472Y-5.2165
X4.5472Y-5.2756
X4.6063Y-4.4685
X4.6063Y-4.5276
X4.6063Y-4.5866
X4.624Y-4.3169
X4.626Y-4.4291
T4
X3.6594Y-5.7264
X3.6594Y-5.8248
X3.9902Y-5.7264
X3.9902Y-5.8248
X4.2372Y-5.7244
X4.2372Y-5.8228
X4.5679Y-5.7244
X4.5679Y-5.8228
T5
X3.0472Y-4.122
X3.0472Y-4.222
X3.0472Y-4.322
T6
X3.272Y-3.7697
X3.272Y-3.8697
X3.372Y-3.7697
X3.372Y-3.8697
X3.472Y-3.7697
X3.472Y-3.8697
X3.572Y-3.7697
X3.572Y-3.8697
X3.672Y-3.7697
X3.672Y-3.8697
X3.6736Y-4.587
X3.6996Y-5.2079
X3.772Y-3.7697
X3.772Y-3.8697
X3.7736Y-4.587
X3.7996Y-5.2079
X3.872Y-3.7697
X3.872Y-3.8697
X3.972Y-3.7697
X3.972Y-3.8697
X4.072Y-3.7697
X4.072Y-3.8697
X4.172Y-3.7697
X4.172Y-3.8697
X4.272Y-3.7697
X4.272Y-3.8697
X4.372Y-3.7697
X4.372Y-3.8697
X4.472Y-3.7697
X4.472Y-3.8697
X4.572Y-3.7697
X4.572Y-3.8697
X4.672Y-3.7697
X4.672Y-3.8697
X4.772Y-3.7697
X4.772Y-3.8697
X4.872Y-3.7697
X4.872Y-3.8697
X4.972Y-3.7697
X4.972Y-3.8697
X5.072Y-3.7697
X5.072Y-3.8697
X5.172Y-3.7697
X5.172Y-3.8697
T2
X3.1842Y-4.6771G85X3.2097Y-4.6771
G05
X3.1842Y-4.9527G85X3.2097Y-4.9527
G05
T3
X3.3032Y-4.7106G85X3.3032Y-4.7224
G05
X3.3032Y-4.9074G85X3.3032Y-4.9193
G05
T0
M30
