G04 #@! TF.FileFunction,Legend,Top*
%FSLAX46Y46*%
G04 Gerber Fmt 4.6, Leading zero omitted, Abs format (unit mm)*
G04 Created by KiCad (PCBNEW 4.0.4-stable) date 04/06/17 21:17:55*
%MOMM*%
%LPD*%
G01*
G04 APERTURE LIST*
%ADD10C,0.100000*%
%ADD11C,0.300000*%
%ADD12C,0.150000*%
G04 APERTURE END LIST*
D10*
D11*
X97528572Y-114307143D02*
X98671429Y-114307143D01*
X98100000Y-114878571D02*
X98100000Y-113735714D01*
X98528572Y-132307143D02*
X99671429Y-132307143D01*
X99100000Y-132878571D02*
X99100000Y-131735714D01*
X79642858Y-102178571D02*
X80571429Y-102178571D01*
X80071429Y-102750000D01*
X80285715Y-102750000D01*
X80428572Y-102821429D01*
X80500001Y-102892857D01*
X80571429Y-103035714D01*
X80571429Y-103392857D01*
X80500001Y-103535714D01*
X80428572Y-103607143D01*
X80285715Y-103678571D01*
X79857143Y-103678571D01*
X79714286Y-103607143D01*
X79642858Y-103535714D01*
X81000000Y-102178571D02*
X81500000Y-103678571D01*
X82000000Y-102178571D01*
X82357143Y-102178571D02*
X83285714Y-102178571D01*
X82785714Y-102750000D01*
X83000000Y-102750000D01*
X83142857Y-102821429D01*
X83214286Y-102892857D01*
X83285714Y-103035714D01*
X83285714Y-103392857D01*
X83214286Y-103535714D01*
X83142857Y-103607143D01*
X83000000Y-103678571D01*
X82571428Y-103678571D01*
X82428571Y-103607143D01*
X82357143Y-103535714D01*
X82214287Y-100178571D02*
X81500001Y-100178571D01*
X81428572Y-100892857D01*
X81500001Y-100821429D01*
X81642858Y-100750000D01*
X82000001Y-100750000D01*
X82142858Y-100821429D01*
X82214287Y-100892857D01*
X82285715Y-101035714D01*
X82285715Y-101392857D01*
X82214287Y-101535714D01*
X82142858Y-101607143D01*
X82000001Y-101678571D01*
X81642858Y-101678571D01*
X81500001Y-101607143D01*
X81428572Y-101535714D01*
X82714286Y-100178571D02*
X83214286Y-101678571D01*
X83714286Y-100178571D01*
X88857143Y-104035714D02*
X88928571Y-103821428D01*
X88928571Y-103464285D01*
X88857143Y-103321428D01*
X88785714Y-103249999D01*
X88642857Y-103178571D01*
X88500000Y-103178571D01*
X88357143Y-103249999D01*
X88285714Y-103321428D01*
X88214286Y-103464285D01*
X88142857Y-103749999D01*
X88071429Y-103892857D01*
X88000000Y-103964285D01*
X87857143Y-104035714D01*
X87714286Y-104035714D01*
X87571429Y-103964285D01*
X87500000Y-103892857D01*
X87428571Y-103749999D01*
X87428571Y-103392857D01*
X87500000Y-103178571D01*
X88785714Y-101678571D02*
X88857143Y-101750000D01*
X88928571Y-101964286D01*
X88928571Y-102107143D01*
X88857143Y-102321428D01*
X88714286Y-102464286D01*
X88571429Y-102535714D01*
X88285714Y-102607143D01*
X88071429Y-102607143D01*
X87785714Y-102535714D01*
X87642857Y-102464286D01*
X87500000Y-102321428D01*
X87428571Y-102107143D01*
X87428571Y-101964286D01*
X87500000Y-101750000D01*
X87571429Y-101678571D01*
X88928571Y-100321428D02*
X88928571Y-101035714D01*
X87428571Y-101035714D01*
X86357143Y-103821428D02*
X86428571Y-103607142D01*
X86428571Y-103249999D01*
X86357143Y-103107142D01*
X86285714Y-103035713D01*
X86142857Y-102964285D01*
X86000000Y-102964285D01*
X85857143Y-103035713D01*
X85785714Y-103107142D01*
X85714286Y-103249999D01*
X85642857Y-103535713D01*
X85571429Y-103678571D01*
X85500000Y-103749999D01*
X85357143Y-103821428D01*
X85214286Y-103821428D01*
X85071429Y-103749999D01*
X85000000Y-103678571D01*
X84928571Y-103535713D01*
X84928571Y-103178571D01*
X85000000Y-102964285D01*
X86428571Y-102321428D02*
X84928571Y-102321428D01*
X84928571Y-101964285D01*
X85000000Y-101750000D01*
X85142857Y-101607142D01*
X85285714Y-101535714D01*
X85571429Y-101464285D01*
X85785714Y-101464285D01*
X86071429Y-101535714D01*
X86214286Y-101607142D01*
X86357143Y-101750000D01*
X86428571Y-101964285D01*
X86428571Y-102321428D01*
X86000000Y-100892857D02*
X86000000Y-100178571D01*
X86428571Y-101035714D02*
X84928571Y-100535714D01*
X86428571Y-100035714D01*
X128678571Y-104964286D02*
X129678571Y-104964286D01*
X128821429Y-104964286D02*
X128750000Y-104892858D01*
X128678571Y-104750000D01*
X128678571Y-104535715D01*
X128750000Y-104392858D01*
X128892857Y-104321429D01*
X129678571Y-104321429D01*
X129678571Y-103607143D02*
X128178571Y-103607143D01*
X129678571Y-102035714D02*
X128964286Y-102535714D01*
X129678571Y-102892857D02*
X128178571Y-102892857D01*
X128178571Y-102321429D01*
X128250000Y-102178571D01*
X128321429Y-102107143D01*
X128464286Y-102035714D01*
X128678571Y-102035714D01*
X128821429Y-102107143D01*
X128892857Y-102178571D01*
X128964286Y-102321429D01*
X128964286Y-102892857D01*
X129821429Y-100392857D02*
X129750000Y-100535714D01*
X129607143Y-100678571D01*
X129392857Y-100892857D01*
X129321429Y-101035714D01*
X129321429Y-101178571D01*
X129678571Y-101107143D02*
X129607143Y-101250000D01*
X129464286Y-101392857D01*
X129178571Y-101464286D01*
X128678571Y-101464286D01*
X128392857Y-101392857D01*
X128250000Y-101250000D01*
X128178571Y-101107143D01*
X128178571Y-100821429D01*
X128250000Y-100678571D01*
X128392857Y-100535714D01*
X128678571Y-100464286D01*
X129178571Y-100464286D01*
X129464286Y-100535714D01*
X129607143Y-100678571D01*
X129678571Y-100821429D01*
X129678571Y-101107143D01*
X126857143Y-105750000D02*
X126928571Y-105535714D01*
X126928571Y-105178571D01*
X126857143Y-105035714D01*
X126785714Y-104964285D01*
X126642857Y-104892857D01*
X126500000Y-104892857D01*
X126357143Y-104964285D01*
X126285714Y-105035714D01*
X126214286Y-105178571D01*
X126142857Y-105464285D01*
X126071429Y-105607143D01*
X126000000Y-105678571D01*
X125857143Y-105750000D01*
X125714286Y-105750000D01*
X125571429Y-105678571D01*
X125500000Y-105607143D01*
X125428571Y-105464285D01*
X125428571Y-105107143D01*
X125500000Y-104892857D01*
X126928571Y-104250000D02*
X125428571Y-104250000D01*
X126142857Y-104250000D02*
X126142857Y-103392857D01*
X126928571Y-103392857D02*
X125428571Y-103392857D01*
X126928571Y-102678571D02*
X125428571Y-102678571D01*
X125428571Y-102321428D01*
X125500000Y-102107143D01*
X125642857Y-101964285D01*
X125785714Y-101892857D01*
X126071429Y-101821428D01*
X126285714Y-101821428D01*
X126571429Y-101892857D01*
X126714286Y-101964285D01*
X126857143Y-102107143D01*
X126928571Y-102321428D01*
X126928571Y-102678571D01*
X126928571Y-101178571D02*
X125428571Y-101178571D01*
X126928571Y-100321428D01*
X125428571Y-100321428D01*
X109464286Y-104107143D02*
X109678572Y-104178571D01*
X110035715Y-104178571D01*
X110178572Y-104107143D01*
X110250001Y-104035714D01*
X110321429Y-103892857D01*
X110321429Y-103750000D01*
X110250001Y-103607143D01*
X110178572Y-103535714D01*
X110035715Y-103464286D01*
X109750001Y-103392857D01*
X109607143Y-103321429D01*
X109535715Y-103250000D01*
X109464286Y-103107143D01*
X109464286Y-102964286D01*
X109535715Y-102821429D01*
X109607143Y-102750000D01*
X109750001Y-102678571D01*
X110107143Y-102678571D01*
X110321429Y-102750000D01*
X111821429Y-104035714D02*
X111750000Y-104107143D01*
X111535714Y-104178571D01*
X111392857Y-104178571D01*
X111178572Y-104107143D01*
X111035714Y-103964286D01*
X110964286Y-103821429D01*
X110892857Y-103535714D01*
X110892857Y-103321429D01*
X110964286Y-103035714D01*
X111035714Y-102892857D01*
X111178572Y-102750000D01*
X111392857Y-102678571D01*
X111535714Y-102678571D01*
X111750000Y-102750000D01*
X111821429Y-102821429D01*
X113178572Y-104178571D02*
X112464286Y-104178571D01*
X112464286Y-102678571D01*
X113678572Y-104178571D02*
X113678572Y-102678571D01*
X114535715Y-104178571D02*
X113892858Y-103321429D01*
X114535715Y-102678571D02*
X113678572Y-103535714D01*
X109678572Y-100678571D02*
X109678572Y-101678571D01*
X109678572Y-100821429D02*
X109750000Y-100750000D01*
X109892858Y-100678571D01*
X110107143Y-100678571D01*
X110250000Y-100750000D01*
X110321429Y-100892857D01*
X110321429Y-101678571D01*
X110964286Y-101607143D02*
X111178572Y-101678571D01*
X111535715Y-101678571D01*
X111678572Y-101607143D01*
X111750001Y-101535714D01*
X111821429Y-101392857D01*
X111821429Y-101250000D01*
X111750001Y-101107143D01*
X111678572Y-101035714D01*
X111535715Y-100964286D01*
X111250001Y-100892857D01*
X111107143Y-100821429D01*
X111035715Y-100750000D01*
X110964286Y-100607143D01*
X110964286Y-100464286D01*
X111035715Y-100321429D01*
X111107143Y-100250000D01*
X111250001Y-100178571D01*
X111607143Y-100178571D01*
X111821429Y-100250000D01*
X112464286Y-100892857D02*
X112964286Y-100892857D01*
X113178572Y-101678571D02*
X112464286Y-101678571D01*
X112464286Y-100178571D01*
X113178572Y-100178571D01*
X114535715Y-101678571D02*
X113821429Y-101678571D01*
X113821429Y-100178571D01*
X108857143Y-103964286D02*
X108928571Y-103750000D01*
X108928571Y-103392857D01*
X108857143Y-103250000D01*
X108785714Y-103178571D01*
X108642857Y-103107143D01*
X108500000Y-103107143D01*
X108357143Y-103178571D01*
X108285714Y-103250000D01*
X108214286Y-103392857D01*
X108142857Y-103678571D01*
X108071429Y-103821429D01*
X108000000Y-103892857D01*
X107857143Y-103964286D01*
X107714286Y-103964286D01*
X107571429Y-103892857D01*
X107500000Y-103821429D01*
X107428571Y-103678571D01*
X107428571Y-103321429D01*
X107500000Y-103107143D01*
X108928571Y-102464286D02*
X107428571Y-102464286D01*
X107428571Y-102107143D01*
X107500000Y-101892858D01*
X107642857Y-101750000D01*
X107785714Y-101678572D01*
X108071429Y-101607143D01*
X108285714Y-101607143D01*
X108571429Y-101678572D01*
X108714286Y-101750000D01*
X108857143Y-101892858D01*
X108928571Y-102107143D01*
X108928571Y-102464286D01*
X107428571Y-100678572D02*
X107428571Y-100392858D01*
X107500000Y-100250000D01*
X107642857Y-100107143D01*
X107928571Y-100035715D01*
X108428571Y-100035715D01*
X108714286Y-100107143D01*
X108857143Y-100250000D01*
X108928571Y-100392858D01*
X108928571Y-100678572D01*
X108857143Y-100821429D01*
X108714286Y-100964286D01*
X108428571Y-101035715D01*
X107928571Y-101035715D01*
X107642857Y-100964286D01*
X107500000Y-100821429D01*
X107428571Y-100678572D01*
X106607143Y-103535714D02*
X106678571Y-103321428D01*
X106678571Y-102964285D01*
X106607143Y-102821428D01*
X106535714Y-102749999D01*
X106392857Y-102678571D01*
X106250000Y-102678571D01*
X106107143Y-102749999D01*
X106035714Y-102821428D01*
X105964286Y-102964285D01*
X105892857Y-103249999D01*
X105821429Y-103392857D01*
X105750000Y-103464285D01*
X105607143Y-103535714D01*
X105464286Y-103535714D01*
X105321429Y-103464285D01*
X105250000Y-103392857D01*
X105178571Y-103249999D01*
X105178571Y-102892857D01*
X105250000Y-102678571D01*
X106678571Y-102035714D02*
X105178571Y-102035714D01*
X105178571Y-101678571D01*
X105250000Y-101464286D01*
X105392857Y-101321428D01*
X105535714Y-101250000D01*
X105821429Y-101178571D01*
X106035714Y-101178571D01*
X106321429Y-101250000D01*
X106464286Y-101321428D01*
X106607143Y-101464286D01*
X106678571Y-101678571D01*
X106678571Y-102035714D01*
X106678571Y-100535714D02*
X105178571Y-100535714D01*
X100392858Y-100178571D02*
X101321429Y-100178571D01*
X100821429Y-100750000D01*
X101035715Y-100750000D01*
X101178572Y-100821429D01*
X101250001Y-100892857D01*
X101321429Y-101035714D01*
X101321429Y-101392857D01*
X101250001Y-101535714D01*
X101178572Y-101607143D01*
X101035715Y-101678571D01*
X100607143Y-101678571D01*
X100464286Y-101607143D01*
X100392858Y-101535714D01*
X101750000Y-100178571D02*
X102250000Y-101678571D01*
X102750000Y-100178571D01*
X103107143Y-100178571D02*
X104035714Y-100178571D01*
X103535714Y-100750000D01*
X103750000Y-100750000D01*
X103892857Y-100821429D01*
X103964286Y-100892857D01*
X104035714Y-101035714D01*
X104035714Y-101392857D01*
X103964286Y-101535714D01*
X103892857Y-101607143D01*
X103750000Y-101678571D01*
X103321428Y-101678571D01*
X103178571Y-101607143D01*
X103107143Y-101535714D01*
X110607143Y-140928571D02*
X111464286Y-140928571D01*
X111035715Y-142428571D02*
X111035715Y-140928571D01*
X111821429Y-140928571D02*
X112821429Y-142428571D01*
X112821429Y-140928571D02*
X111821429Y-142428571D01*
X96750001Y-142428571D02*
X96250001Y-141714286D01*
X95892858Y-142428571D02*
X95892858Y-140928571D01*
X96464286Y-140928571D01*
X96607144Y-141000000D01*
X96678572Y-141071429D01*
X96750001Y-141214286D01*
X96750001Y-141428571D01*
X96678572Y-141571429D01*
X96607144Y-141642857D01*
X96464286Y-141714286D01*
X95892858Y-141714286D01*
X97250001Y-140928571D02*
X98250001Y-142428571D01*
X98250001Y-140928571D02*
X97250001Y-142428571D01*
X96750000Y-128178571D02*
X97607143Y-128178571D01*
X97178572Y-129678571D02*
X97178572Y-128178571D01*
X98107143Y-129678571D02*
X98107143Y-128178571D01*
X98107143Y-128892857D02*
X98964286Y-128892857D01*
X98964286Y-129678571D02*
X98964286Y-128178571D01*
X99678572Y-128892857D02*
X100178572Y-128892857D01*
X100392858Y-129678571D02*
X99678572Y-129678571D01*
X99678572Y-128178571D01*
X100392858Y-128178571D01*
X101892858Y-129678571D02*
X101392858Y-128964286D01*
X101035715Y-129678571D02*
X101035715Y-128178571D01*
X101607143Y-128178571D01*
X101750001Y-128250000D01*
X101821429Y-128321429D01*
X101892858Y-128464286D01*
X101892858Y-128678571D01*
X101821429Y-128821429D01*
X101750001Y-128892857D01*
X101607143Y-128964286D01*
X101035715Y-128964286D01*
X102535715Y-129678571D02*
X102535715Y-128178571D01*
X103035715Y-129250000D01*
X103535715Y-128178571D01*
X103535715Y-129678571D01*
X97892858Y-119392857D02*
X98107144Y-119464286D01*
X98178572Y-119535714D01*
X98250001Y-119678571D01*
X98250001Y-119892857D01*
X98178572Y-120035714D01*
X98107144Y-120107143D01*
X97964286Y-120178571D01*
X97392858Y-120178571D01*
X97392858Y-118678571D01*
X97892858Y-118678571D01*
X98035715Y-118750000D01*
X98107144Y-118821429D01*
X98178572Y-118964286D01*
X98178572Y-119107143D01*
X98107144Y-119250000D01*
X98035715Y-119321429D01*
X97892858Y-119392857D01*
X97392858Y-119392857D01*
X98821429Y-119750000D02*
X99535715Y-119750000D01*
X98678572Y-120178571D02*
X99178572Y-118678571D01*
X99678572Y-120178571D01*
X99964286Y-118678571D02*
X100821429Y-118678571D01*
X100392858Y-120178571D02*
X100392858Y-118678571D01*
X79678571Y-111142857D02*
X81178571Y-110642857D01*
X79678571Y-110142857D01*
X79678571Y-109357143D02*
X79678571Y-109071429D01*
X79750000Y-108928571D01*
X79892857Y-108785714D01*
X80178571Y-108714286D01*
X80678571Y-108714286D01*
X80964286Y-108785714D01*
X81107143Y-108928571D01*
X81178571Y-109071429D01*
X81178571Y-109357143D01*
X81107143Y-109500000D01*
X80964286Y-109642857D01*
X80678571Y-109714286D01*
X80178571Y-109714286D01*
X79892857Y-109642857D01*
X79750000Y-109500000D01*
X79678571Y-109357143D01*
X81178571Y-107357142D02*
X81178571Y-108071428D01*
X79678571Y-108071428D01*
X85678571Y-128642857D02*
X86892857Y-128642857D01*
X87035714Y-128571429D01*
X87107143Y-128500000D01*
X87178571Y-128357143D01*
X87178571Y-128071429D01*
X87107143Y-127928571D01*
X87035714Y-127857143D01*
X86892857Y-127785714D01*
X85678571Y-127785714D01*
X87107143Y-127142857D02*
X87178571Y-126928571D01*
X87178571Y-126571428D01*
X87107143Y-126428571D01*
X87035714Y-126357142D01*
X86892857Y-126285714D01*
X86750000Y-126285714D01*
X86607143Y-126357142D01*
X86535714Y-126428571D01*
X86464286Y-126571428D01*
X86392857Y-126857142D01*
X86321429Y-127000000D01*
X86250000Y-127071428D01*
X86107143Y-127142857D01*
X85964286Y-127142857D01*
X85821429Y-127071428D01*
X85750000Y-127000000D01*
X85678571Y-126857142D01*
X85678571Y-126500000D01*
X85750000Y-126285714D01*
X86392857Y-125142857D02*
X86464286Y-124928571D01*
X86535714Y-124857143D01*
X86678571Y-124785714D01*
X86892857Y-124785714D01*
X87035714Y-124857143D01*
X87107143Y-124928571D01*
X87178571Y-125071429D01*
X87178571Y-125642857D01*
X85678571Y-125642857D01*
X85678571Y-125142857D01*
X85750000Y-125000000D01*
X85821429Y-124928571D01*
X85964286Y-124857143D01*
X86107143Y-124857143D01*
X86250000Y-124928571D01*
X86321429Y-125000000D01*
X86392857Y-125142857D01*
X86392857Y-125642857D01*
D12*
X88975000Y-112600000D02*
X91425000Y-112600000D01*
X88250000Y-109300000D02*
X91425000Y-109300000D01*
X132640000Y-94480000D02*
X81840000Y-94480000D01*
X84380000Y-99560000D02*
X132640000Y-99560000D01*
X132640000Y-94480000D02*
X132640000Y-99560000D01*
X81840000Y-94480000D02*
X81840000Y-97020000D01*
X81560000Y-98290000D02*
X81560000Y-99840000D01*
X81840000Y-97020000D02*
X84380000Y-97020000D01*
X84380000Y-97020000D02*
X84380000Y-99560000D01*
X81560000Y-99840000D02*
X83110000Y-99840000D01*
X88350000Y-122500000D02*
X88350000Y-121500000D01*
X86650000Y-121500000D02*
X86650000Y-122500000D01*
X134323333Y-44125000D02*
X133323333Y-44125000D01*
X133323333Y-45825000D02*
X134323333Y-45825000D01*
X100810000Y-115630000D02*
X99810000Y-115630000D01*
X99810000Y-117330000D02*
X100810000Y-117330000D01*
X112675000Y-136375000D02*
X112675000Y-135375000D01*
X110975000Y-135375000D02*
X110975000Y-136375000D01*
X113350000Y-131425000D02*
X112350000Y-131425000D01*
X112350000Y-133125000D02*
X113350000Y-133125000D01*
X113500000Y-125150000D02*
X112500000Y-125150000D01*
X112500000Y-126850000D02*
X113500000Y-126850000D01*
X110200000Y-122050000D02*
X110200000Y-121050000D01*
X108500000Y-121050000D02*
X108500000Y-122050000D01*
X104600000Y-119525000D02*
X104600000Y-120525000D01*
X106300000Y-120525000D02*
X106300000Y-119525000D01*
X82050000Y-115200000D02*
X82050000Y-114200000D01*
X80350000Y-114200000D02*
X80350000Y-115200000D01*
X112850000Y-119000000D02*
X112850000Y-118000000D01*
X111150000Y-118000000D02*
X111150000Y-119000000D01*
X95136000Y-105885000D02*
X95136000Y-104488000D01*
X95009000Y-106139000D02*
X95009000Y-104361000D01*
X94882000Y-106520000D02*
X94882000Y-103980000D01*
X94755000Y-103853000D02*
X94755000Y-106647000D01*
X94628000Y-106774000D02*
X94628000Y-103726000D01*
X94501000Y-103599000D02*
X94501000Y-106901000D01*
X94374000Y-107028000D02*
X94374000Y-103472000D01*
X95517000Y-107917000D02*
X90945000Y-107917000D01*
X90945000Y-107917000D02*
X90183000Y-107155000D01*
X90183000Y-107155000D02*
X90183000Y-103345000D01*
X90183000Y-103345000D02*
X90945000Y-102583000D01*
X90945000Y-102583000D02*
X95517000Y-102583000D01*
X95517000Y-102583000D02*
X95517000Y-107917000D01*
X90691000Y-105250000D02*
X91453000Y-105250000D01*
X91072000Y-105631000D02*
X91072000Y-104869000D01*
X95263000Y-105250000D02*
G75*
G03X95263000Y-105250000I-2413000J0D01*
G01*
X114250000Y-110500000D02*
X115250000Y-110500000D01*
X115250000Y-108800000D02*
X114250000Y-108800000D01*
X114250000Y-113200000D02*
X115250000Y-113200000D01*
X115250000Y-111500000D02*
X114250000Y-111500000D01*
X79100000Y-134250000D02*
X76400000Y-134250000D01*
X79100000Y-135750000D02*
X76400000Y-135750000D01*
X77600000Y-134850000D02*
X77600000Y-135100000D01*
X77600000Y-135100000D02*
X77750000Y-134950000D01*
X77850000Y-135350000D02*
X77850000Y-134650000D01*
X77500000Y-135000000D02*
X77150000Y-135000000D01*
X77850000Y-135000000D02*
X77500000Y-135350000D01*
X77500000Y-135350000D02*
X77500000Y-134650000D01*
X77500000Y-134650000D02*
X77850000Y-135000000D01*
X79100000Y-131000000D02*
X76400000Y-131000000D01*
X79100000Y-132500000D02*
X76400000Y-132500000D01*
X77600000Y-131600000D02*
X77600000Y-131850000D01*
X77600000Y-131850000D02*
X77750000Y-131700000D01*
X77850000Y-132100000D02*
X77850000Y-131400000D01*
X77500000Y-131750000D02*
X77150000Y-131750000D01*
X77850000Y-131750000D02*
X77500000Y-132100000D01*
X77500000Y-132100000D02*
X77500000Y-131400000D01*
X77500000Y-131400000D02*
X77850000Y-131750000D01*
X79100000Y-137750000D02*
X76400000Y-137750000D01*
X79100000Y-139250000D02*
X76400000Y-139250000D01*
X77600000Y-138350000D02*
X77600000Y-138600000D01*
X77600000Y-138600000D02*
X77750000Y-138450000D01*
X77850000Y-138850000D02*
X77850000Y-138150000D01*
X77500000Y-138500000D02*
X77150000Y-138500000D01*
X77850000Y-138500000D02*
X77500000Y-138850000D01*
X77500000Y-138850000D02*
X77500000Y-138150000D01*
X77500000Y-138150000D02*
X77850000Y-138500000D01*
X110975000Y-129675000D02*
X110975000Y-128475000D01*
X112725000Y-128475000D02*
X112725000Y-129675000D01*
X111125000Y-123100000D02*
X111125000Y-121900000D01*
X112875000Y-121900000D02*
X112875000Y-123100000D01*
X107800000Y-115850000D02*
X109000000Y-115850000D01*
X109000000Y-117600000D02*
X107800000Y-117600000D01*
X112200000Y-114125000D02*
X113400000Y-114125000D01*
X113400000Y-115875000D02*
X112200000Y-115875000D01*
X78522540Y-117949100D02*
X78522540Y-126649100D01*
X84927540Y-117949100D02*
X84927540Y-126649100D01*
X84927540Y-126649100D02*
X78522540Y-126649100D01*
X79752540Y-126649100D02*
X79752540Y-117949100D01*
X78522540Y-117949100D02*
X84927540Y-117949100D01*
X94580000Y-115240000D02*
X97120000Y-115240000D01*
X91760000Y-114960000D02*
X93310000Y-114960000D01*
X94580000Y-115240000D02*
X94580000Y-117780000D01*
X93310000Y-118060000D02*
X91760000Y-118060000D01*
X91760000Y-118060000D02*
X91760000Y-114960000D01*
X94580000Y-117780000D02*
X97120000Y-117780000D01*
X97120000Y-117780000D02*
X97120000Y-115240000D01*
X82850000Y-135875000D02*
X81650000Y-135875000D01*
X81650000Y-134125000D02*
X82850000Y-134125000D01*
X82850000Y-132625000D02*
X81650000Y-132625000D01*
X81650000Y-130875000D02*
X82850000Y-130875000D01*
X94310000Y-124245000D02*
X95510000Y-124245000D01*
X95510000Y-125995000D02*
X94310000Y-125995000D01*
X82850000Y-139375000D02*
X81650000Y-139375000D01*
X81650000Y-137625000D02*
X82850000Y-137625000D01*
X95430000Y-129795000D02*
X94230000Y-129795000D01*
X94230000Y-128045000D02*
X95430000Y-128045000D01*
X93250000Y-134575000D02*
X94250000Y-134575000D01*
X94250000Y-135925000D02*
X93250000Y-135925000D01*
X85475000Y-111700000D02*
X85475000Y-110700000D01*
X86825000Y-110700000D02*
X86825000Y-111700000D01*
X85475000Y-114900000D02*
X85475000Y-113900000D01*
X86825000Y-113900000D02*
X86825000Y-114900000D01*
X84825000Y-110700000D02*
X84825000Y-111700000D01*
X83475000Y-111700000D02*
X83475000Y-110700000D01*
X99225000Y-111300000D02*
X99225000Y-112300000D01*
X97875000Y-112300000D02*
X97875000Y-111300000D01*
X99225000Y-108075000D02*
X99225000Y-109075000D01*
X97875000Y-109075000D02*
X97875000Y-108075000D01*
X75368000Y-110796000D02*
X76638000Y-110796000D01*
X76117300Y-110008600D02*
X75863300Y-110046700D01*
X75863300Y-110046700D02*
X75583900Y-110224500D01*
X75583900Y-110224500D02*
X75368000Y-110542000D01*
X75368000Y-110542000D02*
X75355300Y-110986500D01*
X75355300Y-110986500D02*
X75558500Y-111342100D01*
X75558500Y-111342100D02*
X75850600Y-111519900D01*
X75850600Y-111519900D02*
X76168100Y-111570700D01*
X76168100Y-111570700D02*
X76574500Y-111469100D01*
X76574500Y-111469100D02*
X76828500Y-111126200D01*
X76828500Y-111126200D02*
X76917400Y-110948400D01*
X79178000Y-102414000D02*
X79178000Y-112066000D01*
X76130000Y-112066000D02*
X74860000Y-112066000D01*
X74860000Y-112066000D02*
X74860000Y-102414000D01*
X74860000Y-102414000D02*
X79940000Y-102414000D01*
X79940000Y-112066000D02*
X77400000Y-112066000D01*
X77400000Y-112066000D02*
X76130000Y-112066000D01*
X93085000Y-123650000D02*
X95535000Y-123650000D01*
X92360000Y-120350000D02*
X95535000Y-120350000D01*
X107200000Y-108100000D02*
X107975000Y-108100000D01*
X111500000Y-112400000D02*
X110725000Y-112400000D01*
X111500000Y-108100000D02*
X110725000Y-108100000D01*
X107200000Y-112400000D02*
X107200000Y-111625000D01*
X111500000Y-112400000D02*
X111500000Y-111625000D01*
X111500000Y-108100000D02*
X111500000Y-108875000D01*
X107200000Y-108100000D02*
X107200000Y-108875000D01*
X102800000Y-104900000D02*
X102800000Y-104200000D01*
X101300000Y-106800000D02*
X100800000Y-106800000D01*
X101300000Y-108202080D02*
X101300000Y-106800000D01*
X104700000Y-106798960D02*
X104700000Y-108201040D01*
X102800000Y-110100000D02*
X103200000Y-110100000D01*
X102800000Y-104900000D02*
X103200000Y-104900000D01*
X83760000Y-103940000D02*
G75*
G03X83760000Y-103940000I-100000J0D01*
G01*
X84210000Y-104190000D02*
X83710000Y-104190000D01*
X84210000Y-107090000D02*
X84210000Y-104190000D01*
X83710000Y-107090000D02*
X84210000Y-107090000D01*
X83710000Y-104190000D02*
X83710000Y-107090000D01*
X95240000Y-131010000D02*
X97780000Y-131010000D01*
X92420000Y-130730000D02*
X93970000Y-130730000D01*
X95240000Y-131010000D02*
X95240000Y-133550000D01*
X93970000Y-133830000D02*
X92420000Y-133830000D01*
X92420000Y-133830000D02*
X92420000Y-130730000D01*
X95240000Y-133550000D02*
X97780000Y-133550000D01*
X97780000Y-133550000D02*
X97780000Y-131010000D01*
X89438095Y-107827381D02*
X89438095Y-108636905D01*
X89485714Y-108732143D01*
X89533333Y-108779762D01*
X89628571Y-108827381D01*
X89819048Y-108827381D01*
X89914286Y-108779762D01*
X89961905Y-108732143D01*
X90009524Y-108636905D01*
X90009524Y-107827381D01*
X90914286Y-108160714D02*
X90914286Y-108827381D01*
X90676190Y-107779762D02*
X90438095Y-108494048D01*
X91057143Y-108494048D01*
X82562381Y-101544333D02*
X83276667Y-101544333D01*
X83419524Y-101591953D01*
X83514762Y-101687191D01*
X83562381Y-101830048D01*
X83562381Y-101925286D01*
X82657619Y-101115762D02*
X82610000Y-101068143D01*
X82562381Y-100972905D01*
X82562381Y-100734809D01*
X82610000Y-100639571D01*
X82657619Y-100591952D01*
X82752857Y-100544333D01*
X82848095Y-100544333D01*
X82990952Y-100591952D01*
X83562381Y-101163381D01*
X83562381Y-100544333D01*
X89957143Y-122166666D02*
X90004762Y-122214285D01*
X90052381Y-122357142D01*
X90052381Y-122452380D01*
X90004762Y-122595238D01*
X89909524Y-122690476D01*
X89814286Y-122738095D01*
X89623810Y-122785714D01*
X89480952Y-122785714D01*
X89290476Y-122738095D01*
X89195238Y-122690476D01*
X89100000Y-122595238D01*
X89052381Y-122452380D01*
X89052381Y-122357142D01*
X89100000Y-122214285D01*
X89147619Y-122166666D01*
X90052381Y-121214285D02*
X90052381Y-121785714D01*
X90052381Y-121500000D02*
X89052381Y-121500000D01*
X89195238Y-121595238D01*
X89290476Y-121690476D01*
X89338095Y-121785714D01*
X133656667Y-43232143D02*
X133609048Y-43279762D01*
X133466191Y-43327381D01*
X133370953Y-43327381D01*
X133228095Y-43279762D01*
X133132857Y-43184524D01*
X133085238Y-43089286D01*
X133037619Y-42898810D01*
X133037619Y-42755952D01*
X133085238Y-42565476D01*
X133132857Y-42470238D01*
X133228095Y-42375000D01*
X133370953Y-42327381D01*
X133466191Y-42327381D01*
X133609048Y-42375000D01*
X133656667Y-42422619D01*
X134037619Y-42422619D02*
X134085238Y-42375000D01*
X134180476Y-42327381D01*
X134418572Y-42327381D01*
X134513810Y-42375000D01*
X134561429Y-42422619D01*
X134609048Y-42517857D01*
X134609048Y-42613095D01*
X134561429Y-42755952D01*
X133990000Y-43327381D01*
X134609048Y-43327381D01*
X102933334Y-115257143D02*
X102885715Y-115304762D01*
X102742858Y-115352381D01*
X102647620Y-115352381D01*
X102504762Y-115304762D01*
X102409524Y-115209524D01*
X102361905Y-115114286D01*
X102314286Y-114923810D01*
X102314286Y-114780952D01*
X102361905Y-114590476D01*
X102409524Y-114495238D01*
X102504762Y-114400000D01*
X102647620Y-114352381D01*
X102742858Y-114352381D01*
X102885715Y-114400000D01*
X102933334Y-114447619D01*
X103266667Y-114352381D02*
X103885715Y-114352381D01*
X103552381Y-114733333D01*
X103695239Y-114733333D01*
X103790477Y-114780952D01*
X103838096Y-114828571D01*
X103885715Y-114923810D01*
X103885715Y-115161905D01*
X103838096Y-115257143D01*
X103790477Y-115304762D01*
X103695239Y-115352381D01*
X103409524Y-115352381D01*
X103314286Y-115304762D01*
X103266667Y-115257143D01*
X114282143Y-136041666D02*
X114329762Y-136089285D01*
X114377381Y-136232142D01*
X114377381Y-136327380D01*
X114329762Y-136470238D01*
X114234524Y-136565476D01*
X114139286Y-136613095D01*
X113948810Y-136660714D01*
X113805952Y-136660714D01*
X113615476Y-136613095D01*
X113520238Y-136565476D01*
X113425000Y-136470238D01*
X113377381Y-136327380D01*
X113377381Y-136232142D01*
X113425000Y-136089285D01*
X113472619Y-136041666D01*
X113710714Y-135184523D02*
X114377381Y-135184523D01*
X113329762Y-135422619D02*
X114044048Y-135660714D01*
X114044048Y-135041666D01*
X117333334Y-132557143D02*
X117285715Y-132604762D01*
X117142858Y-132652381D01*
X117047620Y-132652381D01*
X116904762Y-132604762D01*
X116809524Y-132509524D01*
X116761905Y-132414286D01*
X116714286Y-132223810D01*
X116714286Y-132080952D01*
X116761905Y-131890476D01*
X116809524Y-131795238D01*
X116904762Y-131700000D01*
X117047620Y-131652381D01*
X117142858Y-131652381D01*
X117285715Y-131700000D01*
X117333334Y-131747619D01*
X118238096Y-131652381D02*
X117761905Y-131652381D01*
X117714286Y-132128571D01*
X117761905Y-132080952D01*
X117857143Y-132033333D01*
X118095239Y-132033333D01*
X118190477Y-132080952D01*
X118238096Y-132128571D01*
X118285715Y-132223810D01*
X118285715Y-132461905D01*
X118238096Y-132557143D01*
X118190477Y-132604762D01*
X118095239Y-132652381D01*
X117857143Y-132652381D01*
X117761905Y-132604762D01*
X117714286Y-132557143D01*
X117033334Y-126357143D02*
X116985715Y-126404762D01*
X116842858Y-126452381D01*
X116747620Y-126452381D01*
X116604762Y-126404762D01*
X116509524Y-126309524D01*
X116461905Y-126214286D01*
X116414286Y-126023810D01*
X116414286Y-125880952D01*
X116461905Y-125690476D01*
X116509524Y-125595238D01*
X116604762Y-125500000D01*
X116747620Y-125452381D01*
X116842858Y-125452381D01*
X116985715Y-125500000D01*
X117033334Y-125547619D01*
X117890477Y-125452381D02*
X117700000Y-125452381D01*
X117604762Y-125500000D01*
X117557143Y-125547619D01*
X117461905Y-125690476D01*
X117414286Y-125880952D01*
X117414286Y-126261905D01*
X117461905Y-126357143D01*
X117509524Y-126404762D01*
X117604762Y-126452381D01*
X117795239Y-126452381D01*
X117890477Y-126404762D01*
X117938096Y-126357143D01*
X117985715Y-126261905D01*
X117985715Y-126023810D01*
X117938096Y-125928571D01*
X117890477Y-125880952D01*
X117795239Y-125833333D01*
X117604762Y-125833333D01*
X117509524Y-125880952D01*
X117461905Y-125928571D01*
X117414286Y-126023810D01*
X109557143Y-124766666D02*
X109604762Y-124814285D01*
X109652381Y-124957142D01*
X109652381Y-125052380D01*
X109604762Y-125195238D01*
X109509524Y-125290476D01*
X109414286Y-125338095D01*
X109223810Y-125385714D01*
X109080952Y-125385714D01*
X108890476Y-125338095D01*
X108795238Y-125290476D01*
X108700000Y-125195238D01*
X108652381Y-125052380D01*
X108652381Y-124957142D01*
X108700000Y-124814285D01*
X108747619Y-124766666D01*
X108652381Y-124433333D02*
X108652381Y-123766666D01*
X109652381Y-124195238D01*
X103707143Y-120191666D02*
X103754762Y-120239285D01*
X103802381Y-120382142D01*
X103802381Y-120477380D01*
X103754762Y-120620238D01*
X103659524Y-120715476D01*
X103564286Y-120763095D01*
X103373810Y-120810714D01*
X103230952Y-120810714D01*
X103040476Y-120763095D01*
X102945238Y-120715476D01*
X102850000Y-120620238D01*
X102802381Y-120477380D01*
X102802381Y-120382142D01*
X102850000Y-120239285D01*
X102897619Y-120191666D01*
X103230952Y-119620238D02*
X103183333Y-119715476D01*
X103135714Y-119763095D01*
X103040476Y-119810714D01*
X102992857Y-119810714D01*
X102897619Y-119763095D01*
X102850000Y-119715476D01*
X102802381Y-119620238D01*
X102802381Y-119429761D01*
X102850000Y-119334523D01*
X102897619Y-119286904D01*
X102992857Y-119239285D01*
X103040476Y-119239285D01*
X103135714Y-119286904D01*
X103183333Y-119334523D01*
X103230952Y-119429761D01*
X103230952Y-119620238D01*
X103278571Y-119715476D01*
X103326190Y-119763095D01*
X103421429Y-119810714D01*
X103611905Y-119810714D01*
X103707143Y-119763095D01*
X103754762Y-119715476D01*
X103802381Y-119620238D01*
X103802381Y-119429761D01*
X103754762Y-119334523D01*
X103707143Y-119286904D01*
X103611905Y-119239285D01*
X103421429Y-119239285D01*
X103326190Y-119286904D01*
X103278571Y-119334523D01*
X103230952Y-119429761D01*
X84257143Y-114866666D02*
X84304762Y-114914285D01*
X84352381Y-115057142D01*
X84352381Y-115152380D01*
X84304762Y-115295238D01*
X84209524Y-115390476D01*
X84114286Y-115438095D01*
X83923810Y-115485714D01*
X83780952Y-115485714D01*
X83590476Y-115438095D01*
X83495238Y-115390476D01*
X83400000Y-115295238D01*
X83352381Y-115152380D01*
X83352381Y-115057142D01*
X83400000Y-114914285D01*
X83447619Y-114866666D01*
X84352381Y-114390476D02*
X84352381Y-114200000D01*
X84304762Y-114104761D01*
X84257143Y-114057142D01*
X84114286Y-113961904D01*
X83923810Y-113914285D01*
X83542857Y-113914285D01*
X83447619Y-113961904D01*
X83400000Y-114009523D01*
X83352381Y-114104761D01*
X83352381Y-114295238D01*
X83400000Y-114390476D01*
X83447619Y-114438095D01*
X83542857Y-114485714D01*
X83780952Y-114485714D01*
X83876190Y-114438095D01*
X83923810Y-114390476D01*
X83971429Y-114295238D01*
X83971429Y-114104761D01*
X83923810Y-114009523D01*
X83876190Y-113961904D01*
X83780952Y-113914285D01*
X115757143Y-119242857D02*
X115804762Y-119290476D01*
X115852381Y-119433333D01*
X115852381Y-119528571D01*
X115804762Y-119671429D01*
X115709524Y-119766667D01*
X115614286Y-119814286D01*
X115423810Y-119861905D01*
X115280952Y-119861905D01*
X115090476Y-119814286D01*
X114995238Y-119766667D01*
X114900000Y-119671429D01*
X114852381Y-119528571D01*
X114852381Y-119433333D01*
X114900000Y-119290476D01*
X114947619Y-119242857D01*
X115852381Y-118290476D02*
X115852381Y-118861905D01*
X115852381Y-118576191D02*
X114852381Y-118576191D01*
X114995238Y-118671429D01*
X115090476Y-118766667D01*
X115138095Y-118861905D01*
X115852381Y-117338095D02*
X115852381Y-117909524D01*
X115852381Y-117623810D02*
X114852381Y-117623810D01*
X114995238Y-117719048D01*
X115090476Y-117814286D01*
X115138095Y-117909524D01*
X92257143Y-103057143D02*
X92209524Y-103104762D01*
X92066667Y-103152381D01*
X91971429Y-103152381D01*
X91828571Y-103104762D01*
X91733333Y-103009524D01*
X91685714Y-102914286D01*
X91638095Y-102723810D01*
X91638095Y-102580952D01*
X91685714Y-102390476D01*
X91733333Y-102295238D01*
X91828571Y-102200000D01*
X91971429Y-102152381D01*
X92066667Y-102152381D01*
X92209524Y-102200000D01*
X92257143Y-102247619D01*
X93209524Y-103152381D02*
X92638095Y-103152381D01*
X92923809Y-103152381D02*
X92923809Y-102152381D01*
X92828571Y-102295238D01*
X92733333Y-102390476D01*
X92638095Y-102438095D01*
X93590476Y-102247619D02*
X93638095Y-102200000D01*
X93733333Y-102152381D01*
X93971429Y-102152381D01*
X94066667Y-102200000D01*
X94114286Y-102247619D01*
X94161905Y-102342857D01*
X94161905Y-102438095D01*
X94114286Y-102580952D01*
X93542857Y-103152381D01*
X94161905Y-103152381D01*
X119057143Y-109957143D02*
X119009524Y-110004762D01*
X118866667Y-110052381D01*
X118771429Y-110052381D01*
X118628571Y-110004762D01*
X118533333Y-109909524D01*
X118485714Y-109814286D01*
X118438095Y-109623810D01*
X118438095Y-109480952D01*
X118485714Y-109290476D01*
X118533333Y-109195238D01*
X118628571Y-109100000D01*
X118771429Y-109052381D01*
X118866667Y-109052381D01*
X119009524Y-109100000D01*
X119057143Y-109147619D01*
X120009524Y-110052381D02*
X119438095Y-110052381D01*
X119723809Y-110052381D02*
X119723809Y-109052381D01*
X119628571Y-109195238D01*
X119533333Y-109290476D01*
X119438095Y-109338095D01*
X120866667Y-109385714D02*
X120866667Y-110052381D01*
X120628571Y-109004762D02*
X120390476Y-109719048D01*
X121009524Y-109719048D01*
X118757143Y-112657143D02*
X118709524Y-112704762D01*
X118566667Y-112752381D01*
X118471429Y-112752381D01*
X118328571Y-112704762D01*
X118233333Y-112609524D01*
X118185714Y-112514286D01*
X118138095Y-112323810D01*
X118138095Y-112180952D01*
X118185714Y-111990476D01*
X118233333Y-111895238D01*
X118328571Y-111800000D01*
X118471429Y-111752381D01*
X118566667Y-111752381D01*
X118709524Y-111800000D01*
X118757143Y-111847619D01*
X119709524Y-112752381D02*
X119138095Y-112752381D01*
X119423809Y-112752381D02*
X119423809Y-111752381D01*
X119328571Y-111895238D01*
X119233333Y-111990476D01*
X119138095Y-112038095D01*
X120614286Y-111752381D02*
X120138095Y-111752381D01*
X120090476Y-112228571D01*
X120138095Y-112180952D01*
X120233333Y-112133333D01*
X120471429Y-112133333D01*
X120566667Y-112180952D01*
X120614286Y-112228571D01*
X120661905Y-112323810D01*
X120661905Y-112561905D01*
X120614286Y-112657143D01*
X120566667Y-112704762D01*
X120471429Y-112752381D01*
X120233333Y-112752381D01*
X120138095Y-112704762D01*
X120090476Y-112657143D01*
X76761905Y-137202381D02*
X76761905Y-136202381D01*
X77000000Y-136202381D01*
X77142858Y-136250000D01*
X77238096Y-136345238D01*
X77285715Y-136440476D01*
X77333334Y-136630952D01*
X77333334Y-136773810D01*
X77285715Y-136964286D01*
X77238096Y-137059524D01*
X77142858Y-137154762D01*
X77000000Y-137202381D01*
X76761905Y-137202381D01*
X78285715Y-137202381D02*
X77714286Y-137202381D01*
X78000000Y-137202381D02*
X78000000Y-136202381D01*
X77904762Y-136345238D01*
X77809524Y-136440476D01*
X77714286Y-136488095D01*
X76761905Y-133752381D02*
X76761905Y-132752381D01*
X77000000Y-132752381D01*
X77142858Y-132800000D01*
X77238096Y-132895238D01*
X77285715Y-132990476D01*
X77333334Y-133180952D01*
X77333334Y-133323810D01*
X77285715Y-133514286D01*
X77238096Y-133609524D01*
X77142858Y-133704762D01*
X77000000Y-133752381D01*
X76761905Y-133752381D01*
X77714286Y-132847619D02*
X77761905Y-132800000D01*
X77857143Y-132752381D01*
X78095239Y-132752381D01*
X78190477Y-132800000D01*
X78238096Y-132847619D01*
X78285715Y-132942857D01*
X78285715Y-133038095D01*
X78238096Y-133180952D01*
X77666667Y-133752381D01*
X78285715Y-133752381D01*
X76761905Y-140702381D02*
X76761905Y-139702381D01*
X77000000Y-139702381D01*
X77142858Y-139750000D01*
X77238096Y-139845238D01*
X77285715Y-139940476D01*
X77333334Y-140130952D01*
X77333334Y-140273810D01*
X77285715Y-140464286D01*
X77238096Y-140559524D01*
X77142858Y-140654762D01*
X77000000Y-140702381D01*
X76761905Y-140702381D01*
X77666667Y-139702381D02*
X78285715Y-139702381D01*
X77952381Y-140083333D01*
X78095239Y-140083333D01*
X78190477Y-140130952D01*
X78238096Y-140178571D01*
X78285715Y-140273810D01*
X78285715Y-140511905D01*
X78238096Y-140607143D01*
X78190477Y-140654762D01*
X78095239Y-140702381D01*
X77809524Y-140702381D01*
X77714286Y-140654762D01*
X77666667Y-140607143D01*
X114402381Y-129241666D02*
X114402381Y-129717857D01*
X113402381Y-129717857D01*
X114402381Y-128384523D02*
X114402381Y-128955952D01*
X114402381Y-128670238D02*
X113402381Y-128670238D01*
X113545238Y-128765476D01*
X113640476Y-128860714D01*
X113688095Y-128955952D01*
X114552381Y-122666666D02*
X114552381Y-123142857D01*
X113552381Y-123142857D01*
X113647619Y-122380952D02*
X113600000Y-122333333D01*
X113552381Y-122238095D01*
X113552381Y-121999999D01*
X113600000Y-121904761D01*
X113647619Y-121857142D01*
X113742857Y-121809523D01*
X113838095Y-121809523D01*
X113980952Y-121857142D01*
X114552381Y-122428571D01*
X114552381Y-121809523D01*
X108233334Y-119277381D02*
X107757143Y-119277381D01*
X107757143Y-118277381D01*
X108471429Y-118277381D02*
X109090477Y-118277381D01*
X108757143Y-118658333D01*
X108900001Y-118658333D01*
X108995239Y-118705952D01*
X109042858Y-118753571D01*
X109090477Y-118848810D01*
X109090477Y-119086905D01*
X109042858Y-119182143D01*
X108995239Y-119229762D01*
X108900001Y-119277381D01*
X108614286Y-119277381D01*
X108519048Y-119229762D01*
X108471429Y-119182143D01*
X115833334Y-115452381D02*
X115357143Y-115452381D01*
X115357143Y-114452381D01*
X116595239Y-114785714D02*
X116595239Y-115452381D01*
X116357143Y-114404762D02*
X116119048Y-115119048D01*
X116738096Y-115119048D01*
X94933334Y-111752381D02*
X94457143Y-111752381D01*
X94457143Y-110752381D01*
X95742858Y-110752381D02*
X95266667Y-110752381D01*
X95219048Y-111228571D01*
X95266667Y-111180952D01*
X95361905Y-111133333D01*
X95600001Y-111133333D01*
X95695239Y-111180952D01*
X95742858Y-111228571D01*
X95790477Y-111323810D01*
X95790477Y-111561905D01*
X95742858Y-111657143D01*
X95695239Y-111704762D01*
X95600001Y-111752381D01*
X95361905Y-111752381D01*
X95266667Y-111704762D01*
X95219048Y-111657143D01*
X82702381Y-122988095D02*
X81702381Y-122988095D01*
X81702381Y-122607142D01*
X81750000Y-122511904D01*
X81797619Y-122464285D01*
X81892857Y-122416666D01*
X82035714Y-122416666D01*
X82130952Y-122464285D01*
X82178571Y-122511904D01*
X82226190Y-122607142D01*
X82226190Y-122988095D01*
X82702381Y-121464285D02*
X82702381Y-122035714D01*
X82702381Y-121750000D02*
X81702381Y-121750000D01*
X81845238Y-121845238D01*
X81940476Y-121940476D01*
X81988095Y-122035714D01*
X90952381Y-117238095D02*
X89952381Y-117238095D01*
X89952381Y-116857142D01*
X90000000Y-116761904D01*
X90047619Y-116714285D01*
X90142857Y-116666666D01*
X90285714Y-116666666D01*
X90380952Y-116714285D01*
X90428571Y-116761904D01*
X90476190Y-116857142D01*
X90476190Y-117238095D01*
X90047619Y-116285714D02*
X90000000Y-116238095D01*
X89952381Y-116142857D01*
X89952381Y-115904761D01*
X90000000Y-115809523D01*
X90047619Y-115761904D01*
X90142857Y-115714285D01*
X90238095Y-115714285D01*
X90380952Y-115761904D01*
X90952381Y-116333333D01*
X90952381Y-115714285D01*
X82133334Y-137152381D02*
X81800000Y-136676190D01*
X81561905Y-137152381D02*
X81561905Y-136152381D01*
X81942858Y-136152381D01*
X82038096Y-136200000D01*
X82085715Y-136247619D01*
X82133334Y-136342857D01*
X82133334Y-136485714D01*
X82085715Y-136580952D01*
X82038096Y-136628571D01*
X81942858Y-136676190D01*
X81561905Y-136676190D01*
X83085715Y-137152381D02*
X82514286Y-137152381D01*
X82800000Y-137152381D02*
X82800000Y-136152381D01*
X82704762Y-136295238D01*
X82609524Y-136390476D01*
X82514286Y-136438095D01*
X82033334Y-133852381D02*
X81700000Y-133376190D01*
X81461905Y-133852381D02*
X81461905Y-132852381D01*
X81842858Y-132852381D01*
X81938096Y-132900000D01*
X81985715Y-132947619D01*
X82033334Y-133042857D01*
X82033334Y-133185714D01*
X81985715Y-133280952D01*
X81938096Y-133328571D01*
X81842858Y-133376190D01*
X81461905Y-133376190D01*
X82414286Y-132947619D02*
X82461905Y-132900000D01*
X82557143Y-132852381D01*
X82795239Y-132852381D01*
X82890477Y-132900000D01*
X82938096Y-132947619D01*
X82985715Y-133042857D01*
X82985715Y-133138095D01*
X82938096Y-133280952D01*
X82366667Y-133852381D01*
X82985715Y-133852381D01*
X94743334Y-127672381D02*
X94410000Y-127196190D01*
X94171905Y-127672381D02*
X94171905Y-126672381D01*
X94552858Y-126672381D01*
X94648096Y-126720000D01*
X94695715Y-126767619D01*
X94743334Y-126862857D01*
X94743334Y-127005714D01*
X94695715Y-127100952D01*
X94648096Y-127148571D01*
X94552858Y-127196190D01*
X94171905Y-127196190D01*
X95076667Y-126672381D02*
X95695715Y-126672381D01*
X95362381Y-127053333D01*
X95505239Y-127053333D01*
X95600477Y-127100952D01*
X95648096Y-127148571D01*
X95695715Y-127243810D01*
X95695715Y-127481905D01*
X95648096Y-127577143D01*
X95600477Y-127624762D01*
X95505239Y-127672381D01*
X95219524Y-127672381D01*
X95124286Y-127624762D01*
X95076667Y-127577143D01*
X82133334Y-140952381D02*
X81800000Y-140476190D01*
X81561905Y-140952381D02*
X81561905Y-139952381D01*
X81942858Y-139952381D01*
X82038096Y-140000000D01*
X82085715Y-140047619D01*
X82133334Y-140142857D01*
X82133334Y-140285714D01*
X82085715Y-140380952D01*
X82038096Y-140428571D01*
X81942858Y-140476190D01*
X81561905Y-140476190D01*
X82990477Y-140285714D02*
X82990477Y-140952381D01*
X82752381Y-139904762D02*
X82514286Y-140619048D01*
X83133334Y-140619048D01*
X94663334Y-127272381D02*
X94330000Y-126796190D01*
X94091905Y-127272381D02*
X94091905Y-126272381D01*
X94472858Y-126272381D01*
X94568096Y-126320000D01*
X94615715Y-126367619D01*
X94663334Y-126462857D01*
X94663334Y-126605714D01*
X94615715Y-126700952D01*
X94568096Y-126748571D01*
X94472858Y-126796190D01*
X94091905Y-126796190D01*
X95568096Y-126272381D02*
X95091905Y-126272381D01*
X95044286Y-126748571D01*
X95091905Y-126700952D01*
X95187143Y-126653333D01*
X95425239Y-126653333D01*
X95520477Y-126700952D01*
X95568096Y-126748571D01*
X95615715Y-126843810D01*
X95615715Y-127081905D01*
X95568096Y-127177143D01*
X95520477Y-127224762D01*
X95425239Y-127272381D01*
X95187143Y-127272381D01*
X95091905Y-127224762D01*
X95044286Y-127177143D01*
X93583334Y-137602381D02*
X93250000Y-137126190D01*
X93011905Y-137602381D02*
X93011905Y-136602381D01*
X93392858Y-136602381D01*
X93488096Y-136650000D01*
X93535715Y-136697619D01*
X93583334Y-136792857D01*
X93583334Y-136935714D01*
X93535715Y-137030952D01*
X93488096Y-137078571D01*
X93392858Y-137126190D01*
X93011905Y-137126190D01*
X94440477Y-136602381D02*
X94250000Y-136602381D01*
X94154762Y-136650000D01*
X94107143Y-136697619D01*
X94011905Y-136840476D01*
X93964286Y-137030952D01*
X93964286Y-137411905D01*
X94011905Y-137507143D01*
X94059524Y-137554762D01*
X94154762Y-137602381D01*
X94345239Y-137602381D01*
X94440477Y-137554762D01*
X94488096Y-137507143D01*
X94535715Y-137411905D01*
X94535715Y-137173810D01*
X94488096Y-137078571D01*
X94440477Y-137030952D01*
X94345239Y-136983333D01*
X94154762Y-136983333D01*
X94059524Y-137030952D01*
X94011905Y-137078571D01*
X93964286Y-137173810D01*
X86652381Y-108866666D02*
X86176190Y-109200000D01*
X86652381Y-109438095D02*
X85652381Y-109438095D01*
X85652381Y-109057142D01*
X85700000Y-108961904D01*
X85747619Y-108914285D01*
X85842857Y-108866666D01*
X85985714Y-108866666D01*
X86080952Y-108914285D01*
X86128571Y-108961904D01*
X86176190Y-109057142D01*
X86176190Y-109438095D01*
X85652381Y-108533333D02*
X85652381Y-107866666D01*
X86652381Y-108295238D01*
X88502381Y-114566666D02*
X88026190Y-114900000D01*
X88502381Y-115138095D02*
X87502381Y-115138095D01*
X87502381Y-114757142D01*
X87550000Y-114661904D01*
X87597619Y-114614285D01*
X87692857Y-114566666D01*
X87835714Y-114566666D01*
X87930952Y-114614285D01*
X87978571Y-114661904D01*
X88026190Y-114757142D01*
X88026190Y-115138095D01*
X87930952Y-113995238D02*
X87883333Y-114090476D01*
X87835714Y-114138095D01*
X87740476Y-114185714D01*
X87692857Y-114185714D01*
X87597619Y-114138095D01*
X87550000Y-114090476D01*
X87502381Y-113995238D01*
X87502381Y-113804761D01*
X87550000Y-113709523D01*
X87597619Y-113661904D01*
X87692857Y-113614285D01*
X87740476Y-113614285D01*
X87835714Y-113661904D01*
X87883333Y-113709523D01*
X87930952Y-113804761D01*
X87930952Y-113995238D01*
X87978571Y-114090476D01*
X88026190Y-114138095D01*
X88121429Y-114185714D01*
X88311905Y-114185714D01*
X88407143Y-114138095D01*
X88454762Y-114090476D01*
X88502381Y-113995238D01*
X88502381Y-113804761D01*
X88454762Y-113709523D01*
X88407143Y-113661904D01*
X88311905Y-113614285D01*
X88121429Y-113614285D01*
X88026190Y-113661904D01*
X87978571Y-113709523D01*
X87930952Y-113804761D01*
X82702381Y-111366666D02*
X82226190Y-111700000D01*
X82702381Y-111938095D02*
X81702381Y-111938095D01*
X81702381Y-111557142D01*
X81750000Y-111461904D01*
X81797619Y-111414285D01*
X81892857Y-111366666D01*
X82035714Y-111366666D01*
X82130952Y-111414285D01*
X82178571Y-111461904D01*
X82226190Y-111557142D01*
X82226190Y-111938095D01*
X82702381Y-110890476D02*
X82702381Y-110700000D01*
X82654762Y-110604761D01*
X82607143Y-110557142D01*
X82464286Y-110461904D01*
X82273810Y-110414285D01*
X81892857Y-110414285D01*
X81797619Y-110461904D01*
X81750000Y-110509523D01*
X81702381Y-110604761D01*
X81702381Y-110795238D01*
X81750000Y-110890476D01*
X81797619Y-110938095D01*
X81892857Y-110985714D01*
X82130952Y-110985714D01*
X82226190Y-110938095D01*
X82273810Y-110890476D01*
X82321429Y-110795238D01*
X82321429Y-110604761D01*
X82273810Y-110509523D01*
X82226190Y-110461904D01*
X82130952Y-110414285D01*
X97102381Y-112442857D02*
X96626190Y-112776191D01*
X97102381Y-113014286D02*
X96102381Y-113014286D01*
X96102381Y-112633333D01*
X96150000Y-112538095D01*
X96197619Y-112490476D01*
X96292857Y-112442857D01*
X96435714Y-112442857D01*
X96530952Y-112490476D01*
X96578571Y-112538095D01*
X96626190Y-112633333D01*
X96626190Y-113014286D01*
X97102381Y-111490476D02*
X97102381Y-112061905D01*
X97102381Y-111776191D02*
X96102381Y-111776191D01*
X96245238Y-111871429D01*
X96340476Y-111966667D01*
X96388095Y-112061905D01*
X96102381Y-110871429D02*
X96102381Y-110776190D01*
X96150000Y-110680952D01*
X96197619Y-110633333D01*
X96292857Y-110585714D01*
X96483333Y-110538095D01*
X96721429Y-110538095D01*
X96911905Y-110585714D01*
X97007143Y-110633333D01*
X97054762Y-110680952D01*
X97102381Y-110776190D01*
X97102381Y-110871429D01*
X97054762Y-110966667D01*
X97007143Y-111014286D01*
X96911905Y-111061905D01*
X96721429Y-111109524D01*
X96483333Y-111109524D01*
X96292857Y-111061905D01*
X96197619Y-111014286D01*
X96150000Y-110966667D01*
X96102381Y-110871429D01*
X97102381Y-109217857D02*
X96626190Y-109551191D01*
X97102381Y-109789286D02*
X96102381Y-109789286D01*
X96102381Y-109408333D01*
X96150000Y-109313095D01*
X96197619Y-109265476D01*
X96292857Y-109217857D01*
X96435714Y-109217857D01*
X96530952Y-109265476D01*
X96578571Y-109313095D01*
X96626190Y-109408333D01*
X96626190Y-109789286D01*
X97102381Y-108265476D02*
X97102381Y-108836905D01*
X97102381Y-108551191D02*
X96102381Y-108551191D01*
X96245238Y-108646429D01*
X96340476Y-108741667D01*
X96388095Y-108836905D01*
X97102381Y-107313095D02*
X97102381Y-107884524D01*
X97102381Y-107598810D02*
X96102381Y-107598810D01*
X96245238Y-107694048D01*
X96340476Y-107789286D01*
X96388095Y-107884524D01*
X76804762Y-100072381D02*
X76471428Y-99596190D01*
X76233333Y-100072381D02*
X76233333Y-99072381D01*
X76614286Y-99072381D01*
X76709524Y-99120000D01*
X76757143Y-99167619D01*
X76804762Y-99262857D01*
X76804762Y-99405714D01*
X76757143Y-99500952D01*
X76709524Y-99548571D01*
X76614286Y-99596190D01*
X76233333Y-99596190D01*
X77090476Y-99072381D02*
X77423809Y-100072381D01*
X77757143Y-99072381D01*
X78614286Y-100072381D02*
X78042857Y-100072381D01*
X78328571Y-100072381D02*
X78328571Y-99072381D01*
X78233333Y-99215238D01*
X78138095Y-99310476D01*
X78042857Y-99358095D01*
X93548095Y-118877381D02*
X93548095Y-119686905D01*
X93595714Y-119782143D01*
X93643333Y-119829762D01*
X93738571Y-119877381D01*
X93929048Y-119877381D01*
X94024286Y-119829762D01*
X94071905Y-119782143D01*
X94119524Y-119686905D01*
X94119524Y-118877381D01*
X95119524Y-119877381D02*
X94548095Y-119877381D01*
X94833809Y-119877381D02*
X94833809Y-118877381D01*
X94738571Y-119020238D01*
X94643333Y-119115476D01*
X94548095Y-119163095D01*
X100738095Y-141952381D02*
X100738095Y-142761905D01*
X100785714Y-142857143D01*
X100833333Y-142904762D01*
X100928571Y-142952381D01*
X101119048Y-142952381D01*
X101214286Y-142904762D01*
X101261905Y-142857143D01*
X101309524Y-142761905D01*
X101309524Y-141952381D01*
X101738095Y-142047619D02*
X101785714Y-142000000D01*
X101880952Y-141952381D01*
X102119048Y-141952381D01*
X102214286Y-142000000D01*
X102261905Y-142047619D01*
X102309524Y-142142857D01*
X102309524Y-142238095D01*
X102261905Y-142380952D01*
X101690476Y-142952381D01*
X102309524Y-142952381D01*
X114988095Y-142202381D02*
X114988095Y-143011905D01*
X115035714Y-143107143D01*
X115083333Y-143154762D01*
X115178571Y-143202381D01*
X115369048Y-143202381D01*
X115464286Y-143154762D01*
X115511905Y-143107143D01*
X115559524Y-143011905D01*
X115559524Y-142202381D01*
X115940476Y-142202381D02*
X116559524Y-142202381D01*
X116226190Y-142583333D01*
X116369048Y-142583333D01*
X116464286Y-142630952D01*
X116511905Y-142678571D01*
X116559524Y-142773810D01*
X116559524Y-143011905D01*
X116511905Y-143107143D01*
X116464286Y-143154762D01*
X116369048Y-143202381D01*
X116083333Y-143202381D01*
X115988095Y-143154762D01*
X115940476Y-143107143D01*
X108952381Y-107461905D02*
X109761905Y-107461905D01*
X109857143Y-107414286D01*
X109904762Y-107366667D01*
X109952381Y-107271429D01*
X109952381Y-107080952D01*
X109904762Y-106985714D01*
X109857143Y-106938095D01*
X109761905Y-106890476D01*
X108952381Y-106890476D01*
X108952381Y-105985714D02*
X108952381Y-106176191D01*
X109000000Y-106271429D01*
X109047619Y-106319048D01*
X109190476Y-106414286D01*
X109380952Y-106461905D01*
X109761905Y-106461905D01*
X109857143Y-106414286D01*
X109904762Y-106366667D01*
X109952381Y-106271429D01*
X109952381Y-106080952D01*
X109904762Y-105985714D01*
X109857143Y-105938095D01*
X109761905Y-105890476D01*
X109523810Y-105890476D01*
X109428571Y-105938095D01*
X109380952Y-105985714D01*
X109333333Y-106080952D01*
X109333333Y-106271429D01*
X109380952Y-106366667D01*
X109428571Y-106414286D01*
X109523810Y-106461905D01*
X102452381Y-113009524D02*
X103452381Y-112342857D01*
X102452381Y-112342857D02*
X103452381Y-113009524D01*
X103452381Y-111438095D02*
X103452381Y-112009524D01*
X103452381Y-111723810D02*
X102452381Y-111723810D01*
X102595238Y-111819048D01*
X102690476Y-111914286D01*
X102738095Y-112009524D01*
X85938095Y-105052381D02*
X85938095Y-105861905D01*
X85985714Y-105957143D01*
X86033333Y-106004762D01*
X86128571Y-106052381D01*
X86319048Y-106052381D01*
X86414286Y-106004762D01*
X86461905Y-105957143D01*
X86509524Y-105861905D01*
X86509524Y-105052381D01*
X87461905Y-105052381D02*
X86985714Y-105052381D01*
X86938095Y-105528571D01*
X86985714Y-105480952D01*
X87080952Y-105433333D01*
X87319048Y-105433333D01*
X87414286Y-105480952D01*
X87461905Y-105528571D01*
X87509524Y-105623810D01*
X87509524Y-105861905D01*
X87461905Y-105957143D01*
X87414286Y-106004762D01*
X87319048Y-106052381D01*
X87080952Y-106052381D01*
X86985714Y-106004762D01*
X86938095Y-105957143D01*
X89322381Y-133018095D02*
X88322381Y-133018095D01*
X88322381Y-132637142D01*
X88370000Y-132541904D01*
X88417619Y-132494285D01*
X88512857Y-132446666D01*
X88655714Y-132446666D01*
X88750952Y-132494285D01*
X88798571Y-132541904D01*
X88846190Y-132637142D01*
X88846190Y-133018095D01*
X88322381Y-132113333D02*
X88322381Y-131494285D01*
X88703333Y-131827619D01*
X88703333Y-131684761D01*
X88750952Y-131589523D01*
X88798571Y-131541904D01*
X88893810Y-131494285D01*
X89131905Y-131494285D01*
X89227143Y-131541904D01*
X89274762Y-131589523D01*
X89322381Y-131684761D01*
X89322381Y-131970476D01*
X89274762Y-132065714D01*
X89227143Y-132113333D01*
M02*
