G04 #@! TF.FileFunction,Soldermask,Bot*
%FSLAX46Y46*%
G04 Gerber Fmt 4.6, Leading zero omitted, Abs format (unit mm)*
G04 Created by KiCad (PCBNEW 4.0.6) date Wed Apr 19 01:03:26 2017*
%MOMM*%
%LPD*%
G01*
G04 APERTURE LIST*
%ADD10C,0.100000*%
%ADD11R,1.727200X1.727200*%
%ADD12O,1.727200X1.727200*%
%ADD13C,6.200000*%
%ADD14O,0.950000X1.250000*%
%ADD15O,1.550000X1.000000*%
%ADD16R,2.032000X2.032000*%
%ADD17O,2.032000X2.032000*%
%ADD18C,1.524000*%
%ADD19R,1.600000X2.500000*%
%ADD20R,1.000000X1.250000*%
%ADD21R,2.100580X5.600700*%
G04 APERTURE END LIST*
D10*
D11*
X83110000Y-98290000D03*
D12*
X83110000Y-95750000D03*
X85650000Y-98290000D03*
X85650000Y-95750000D03*
X88190000Y-98290000D03*
X88190000Y-95750000D03*
X90730000Y-98290000D03*
X90730000Y-95750000D03*
X93270000Y-98290000D03*
X93270000Y-95750000D03*
X95810000Y-98290000D03*
X95810000Y-95750000D03*
X98350000Y-98290000D03*
X98350000Y-95750000D03*
X100890000Y-98290000D03*
X100890000Y-95750000D03*
X103430000Y-98290000D03*
X103430000Y-95750000D03*
X105970000Y-98290000D03*
X105970000Y-95750000D03*
X108510000Y-98290000D03*
X108510000Y-95750000D03*
X111050000Y-98290000D03*
X111050000Y-95750000D03*
X113590000Y-98290000D03*
X113590000Y-95750000D03*
X116130000Y-98290000D03*
X116130000Y-95750000D03*
X118670000Y-98290000D03*
X118670000Y-95750000D03*
X121210000Y-98290000D03*
X121210000Y-95750000D03*
X123750000Y-98290000D03*
X123750000Y-95750000D03*
X126290000Y-98290000D03*
X126290000Y-95750000D03*
X128830000Y-98290000D03*
X128830000Y-95750000D03*
X131370000Y-98290000D03*
X131370000Y-95750000D03*
D13*
X136240000Y-97020000D03*
X136240000Y-146020000D03*
X78240000Y-146020000D03*
X78240000Y-97020000D03*
D14*
X83902540Y-119799100D03*
X83902540Y-124799100D03*
D15*
X81202540Y-118799100D03*
X81202540Y-125799100D03*
D16*
X93310000Y-116510000D03*
D17*
X95850000Y-116510000D03*
D18*
X77400000Y-107240000D03*
X77400000Y-104700000D03*
X77400000Y-109780000D03*
D19*
X101350000Y-145450000D03*
X101350000Y-147950000D03*
X92950000Y-145450000D03*
X92950000Y-147950000D03*
X116025000Y-145400000D03*
X116025000Y-147900000D03*
X107625000Y-145400000D03*
X107625000Y-147900000D03*
D16*
X93970000Y-132280000D03*
D17*
X96510000Y-132280000D03*
D20*
X97500000Y-103400000D03*
X99500000Y-103400000D03*
X97600000Y-113700000D03*
X99600000Y-113700000D03*
D21*
X102500000Y-103751140D03*
X102500000Y-113448860D03*
M02*
