G04 #@! TF.FileFunction,Soldermask,Bot*
%FSLAX46Y46*%
G04 Gerber Fmt 4.6, Leading zero omitted, Abs format (unit mm)*
G04 Created by KiCad (PCBNEW 4.0.4-stable) date 04/26/17 16:15:40*
%MOMM*%
%LPD*%
G01*
G04 APERTURE LIST*
%ADD10C,0.100000*%
%ADD11R,1.727200X1.727200*%
%ADD12O,1.727200X1.727200*%
%ADD13O,0.950000X1.250000*%
%ADD14O,1.550000X1.000000*%
%ADD15R,2.032000X2.032000*%
%ADD16O,2.032000X2.032000*%
%ADD17C,1.524000*%
%ADD18R,1.600000X2.500000*%
G04 APERTURE END LIST*
D10*
D11*
X83110000Y-98290000D03*
D12*
X83110000Y-95750000D03*
X85650000Y-98290000D03*
X85650000Y-95750000D03*
X88190000Y-98290000D03*
X88190000Y-95750000D03*
X90730000Y-98290000D03*
X90730000Y-95750000D03*
X93270000Y-98290000D03*
X93270000Y-95750000D03*
X95810000Y-98290000D03*
X95810000Y-95750000D03*
X98350000Y-98290000D03*
X98350000Y-95750000D03*
X100890000Y-98290000D03*
X100890000Y-95750000D03*
X103430000Y-98290000D03*
X103430000Y-95750000D03*
X105970000Y-98290000D03*
X105970000Y-95750000D03*
X108510000Y-98290000D03*
X108510000Y-95750000D03*
X111050000Y-98290000D03*
X111050000Y-95750000D03*
X113590000Y-98290000D03*
X113590000Y-95750000D03*
X116130000Y-98290000D03*
X116130000Y-95750000D03*
X118670000Y-98290000D03*
X118670000Y-95750000D03*
X121210000Y-98290000D03*
X121210000Y-95750000D03*
X123750000Y-98290000D03*
X123750000Y-95750000D03*
X126290000Y-98290000D03*
X126290000Y-95750000D03*
X128830000Y-98290000D03*
X128830000Y-95750000D03*
X131370000Y-98290000D03*
X131370000Y-95750000D03*
D13*
X83902540Y-119799100D03*
X83902540Y-124799100D03*
D14*
X81202540Y-118799100D03*
X81202540Y-125799100D03*
D15*
X93310000Y-116510000D03*
D16*
X95850000Y-116510000D03*
D17*
X77400000Y-107240000D03*
X77400000Y-104700000D03*
X77400000Y-109780000D03*
D18*
X107950000Y-145340000D03*
X107950000Y-147840000D03*
X99550000Y-145340000D03*
X99550000Y-147840000D03*
X129660000Y-145380000D03*
X129660000Y-147880000D03*
X121260000Y-145380000D03*
X121260000Y-147880000D03*
D15*
X93970000Y-132280000D03*
D16*
X96510000Y-132280000D03*
M02*
