M48
;DRILL file {KiCad 4.0.4-stable} date 04/26/17 16:15:50
;FORMAT={-:-/ absolute / inch / decimal}
FMAT,2
INCH,TZ
T1C0.016
T2C0.020
T3C0.022
T4C0.028
T5C0.032
T6C0.040
%
G90
G05
M72
T1
X3.4409Y-4.9016
X3.4429Y-4.2992
X3.6102Y-5.3268
X3.625Y-4.4656
X3.6457Y-4.8858
X3.6457Y-4.9252
X3.6614Y-5.374
X3.7421Y-4.0768
X3.7421Y-4.2165
X3.8386Y-4.3386
X3.8425Y-4.1437
X3.8799Y-4.2008
X3.9559Y-5.5091
X4.0445Y-4.585
X4.0543Y-5.4016
X4.1331Y-4.4248
X4.1453Y-4.2736
X4.1504Y-5.3055
X4.2343Y-4.6055
X4.2343Y-4.7264
X4.237Y-4.8323
X4.2409Y-5.2094
X4.2575Y-5.6047
X4.2799Y-4.9126
X4.3185Y-5.5079
X4.3248Y-4.348
X4.3295Y-5.124
X4.3465Y-4.5594
X4.3492Y-4.9323
X4.3909Y-5.413
X4.3957Y-5.0591
X4.4067Y-4.9469
X4.4587Y-4.5453
X4.4642Y-5.3406
X4.5287Y-4.2512
X4.5287Y-5.2799
X4.5795Y-4.3886
X4.5969Y-5.202
X4.6323Y-5.0083
X4.6323Y-5.113
X4.6327Y-4.8988
X4.6331Y-4.8205
X4.6575Y-4.7492
X4.6646Y-4.0969
X4.7118Y-4.713
X4.7614Y-4.6575
X4.7898Y-4.6087
X4.8138Y-5.6276
X4.8197Y-5.4272
X4.8209Y-5.2933
X4.8209Y-5.5457
X4.8224Y-4.9512
X4.8256Y-5.052
X4.8283Y-5.1689
X4.8343Y-4.8008
X4.8465Y-4.6071
X4.8496Y-4.6906
X4.8941Y-4.213
X5.0382Y-4.4894
X5.0535Y-4.7232
X5.0543Y-4.3055
X5.0543Y-4.4327
X5.072Y-4.6232
X5.0728Y-5.2169
X5.0744Y-5.1134
X5.0866Y-4.8673
X5.0992Y-5.4744
X5.1063Y-5.6
X5.1118Y-4.9929
X5.1118Y-5.3654
X5.1169Y-5.2909
X5.1236Y-4.5287
T4
X3.9193Y-5.722
X3.9193Y-5.8205
X4.25Y-5.722
X4.25Y-5.8205
X4.774Y-5.7236
X4.774Y-5.822
X5.1047Y-5.7236
X5.1047Y-5.822
T5
X3.0472Y-4.122
X3.0472Y-4.222
X3.0472Y-4.322
T6
X3.272Y-3.7697
X3.272Y-3.8697
X3.372Y-3.7697
X3.372Y-3.8697
X3.472Y-3.7697
X3.472Y-3.8697
X3.572Y-3.7697
X3.572Y-3.8697
X3.672Y-3.7697
X3.672Y-3.8697
X3.6736Y-4.587
X3.6996Y-5.2079
X3.772Y-3.7697
X3.772Y-3.8697
X3.7736Y-4.587
X3.7996Y-5.2079
X3.872Y-3.7697
X3.872Y-3.8697
X3.972Y-3.7697
X3.972Y-3.8697
X4.072Y-3.7697
X4.072Y-3.8697
X4.172Y-3.7697
X4.172Y-3.8697
X4.272Y-3.7697
X4.272Y-3.8697
X4.372Y-3.7697
X4.372Y-3.8697
X4.472Y-3.7697
X4.472Y-3.8697
X4.572Y-3.7697
X4.572Y-3.8697
X4.672Y-3.7697
X4.672Y-3.8697
X4.772Y-3.7697
X4.772Y-3.8697
X4.872Y-3.7697
X4.872Y-3.8697
X4.972Y-3.7697
X4.972Y-3.8697
X5.072Y-3.7697
X5.072Y-3.8697
X5.172Y-3.7697
X5.172Y-3.8697
T2
X3.1842Y-4.6771G85X3.2097Y-4.6771
G05
X3.1842Y-4.9527G85X3.2097Y-4.9527
G05
T3
X3.3032Y-4.7106G85X3.3032Y-4.7224
G05
X3.3032Y-4.9074G85X3.3032Y-4.9193
G05
T0
M30
