G04 #@! TF.FileFunction,Soldermask,Top*
%FSLAX46Y46*%
G04 Gerber Fmt 4.6, Leading zero omitted, Abs format (unit mm)*
G04 Created by KiCad (PCBNEW 4.0.6) date Wed Apr 19 01:03:26 2017*
%MOMM*%
%LPD*%
G01*
G04 APERTURE LIST*
%ADD10C,0.100000*%
%ADD11R,0.650000X0.300000*%
%ADD12R,0.775000X1.240000*%
%ADD13R,1.727200X1.727200*%
%ADD14O,1.727200X1.727200*%
%ADD15C,6.200000*%
%ADD16R,1.250000X1.000000*%
%ADD17R,1.000000X1.250000*%
%ADD18R,2.999740X1.600200*%
%ADD19R,1.198880X1.198880*%
%ADD20R,1.300000X0.700000*%
%ADD21R,0.700000X1.300000*%
%ADD22R,3.600000X1.500000*%
%ADD23R,1.350000X0.400000*%
%ADD24O,0.950000X1.250000*%
%ADD25O,1.550000X1.000000*%
%ADD26R,2.032000X2.032000*%
%ADD27O,2.032000X2.032000*%
%ADD28R,0.500000X0.900000*%
%ADD29R,0.900000X0.500000*%
%ADD30C,1.524000*%
%ADD31R,1.600000X2.500000*%
%ADD32R,1.500000X5.600000*%
%ADD33R,0.300000X0.730000*%
%ADD34R,0.730000X0.300000*%
%ADD35R,1.250000X1.250000*%
%ADD36R,1.060000X0.650000*%
G04 APERTURE END LIST*
D10*
D11*
X88650000Y-109950000D03*
X88650000Y-110450000D03*
X88650000Y-110950000D03*
X88650000Y-111450000D03*
X88650000Y-111950000D03*
X91750000Y-111950000D03*
X91750000Y-111450000D03*
X91750000Y-110950000D03*
X91750000Y-110450000D03*
X91750000Y-109950000D03*
D12*
X90587500Y-111570000D03*
X90587500Y-110330000D03*
X89812500Y-111570000D03*
X89812500Y-110330000D03*
D13*
X83110000Y-98290000D03*
D14*
X83110000Y-95750000D03*
X85650000Y-98290000D03*
X85650000Y-95750000D03*
X88190000Y-98290000D03*
X88190000Y-95750000D03*
X90730000Y-98290000D03*
X90730000Y-95750000D03*
X93270000Y-98290000D03*
X93270000Y-95750000D03*
X95810000Y-98290000D03*
X95810000Y-95750000D03*
X98350000Y-98290000D03*
X98350000Y-95750000D03*
X100890000Y-98290000D03*
X100890000Y-95750000D03*
X103430000Y-98290000D03*
X103430000Y-95750000D03*
X105970000Y-98290000D03*
X105970000Y-95750000D03*
X108510000Y-98290000D03*
X108510000Y-95750000D03*
X111050000Y-98290000D03*
X111050000Y-95750000D03*
X113590000Y-98290000D03*
X113590000Y-95750000D03*
X116130000Y-98290000D03*
X116130000Y-95750000D03*
X118670000Y-98290000D03*
X118670000Y-95750000D03*
X121210000Y-98290000D03*
X121210000Y-95750000D03*
X123750000Y-98290000D03*
X123750000Y-95750000D03*
X126290000Y-98290000D03*
X126290000Y-95750000D03*
X128830000Y-98290000D03*
X128830000Y-95750000D03*
X131370000Y-98290000D03*
X131370000Y-95750000D03*
D15*
X136240000Y-97020000D03*
X136240000Y-146020000D03*
X78240000Y-146020000D03*
X78240000Y-97020000D03*
D16*
X87500000Y-121000000D03*
X87500000Y-123000000D03*
D17*
X99310000Y-116480000D03*
X101310000Y-116480000D03*
D16*
X111825000Y-134875000D03*
X111825000Y-136875000D03*
D17*
X111850000Y-132275000D03*
X113850000Y-132275000D03*
X112000000Y-126000000D03*
X114000000Y-126000000D03*
D16*
X109350000Y-120550000D03*
X109350000Y-122550000D03*
X105450000Y-121025000D03*
X105450000Y-119025000D03*
X81200000Y-113700000D03*
X81200000Y-115700000D03*
X112000000Y-117500000D03*
X112000000Y-119500000D03*
D18*
X90650360Y-105250000D03*
X95049640Y-105250000D03*
D17*
X115750000Y-109650000D03*
X113750000Y-109650000D03*
X115750000Y-112350000D03*
X113750000Y-112350000D03*
D19*
X76450980Y-135000000D03*
X78549020Y-135000000D03*
X76450980Y-131750000D03*
X78549020Y-131750000D03*
X76450980Y-138500000D03*
X78549020Y-138500000D03*
D20*
X111850000Y-128125000D03*
X111850000Y-130025000D03*
X112000000Y-121550000D03*
X112000000Y-123450000D03*
D21*
X109350000Y-116725000D03*
X107450000Y-116725000D03*
X113750000Y-115000000D03*
X111850000Y-115000000D03*
D22*
X94950000Y-109725000D03*
X94950000Y-112775000D03*
D23*
X83902540Y-120999100D03*
X83902540Y-121649100D03*
X83902540Y-122299100D03*
X83902540Y-122949100D03*
X83902540Y-123599100D03*
D24*
X83902540Y-119799100D03*
X83902540Y-124799100D03*
D25*
X81202540Y-118799100D03*
X81202540Y-125799100D03*
D26*
X93310000Y-116510000D03*
D27*
X95850000Y-116510000D03*
D21*
X81300000Y-135000000D03*
X83200000Y-135000000D03*
X81300000Y-131750000D03*
X83200000Y-131750000D03*
X95860000Y-125120000D03*
X93960000Y-125120000D03*
X81300000Y-138500000D03*
X83200000Y-138500000D03*
X93880000Y-128920000D03*
X95780000Y-128920000D03*
D28*
X94500000Y-135250000D03*
X93000000Y-135250000D03*
D29*
X86150000Y-110450000D03*
X86150000Y-111950000D03*
X86150000Y-113650000D03*
X86150000Y-115150000D03*
X84150000Y-111950000D03*
X84150000Y-110450000D03*
X98550000Y-112550000D03*
X98550000Y-111050000D03*
X98550000Y-109325000D03*
X98550000Y-107825000D03*
D30*
X77400000Y-107240000D03*
X77400000Y-104700000D03*
X77400000Y-109780000D03*
D11*
X92760000Y-121000000D03*
X92760000Y-121500000D03*
X92760000Y-122000000D03*
X92760000Y-122500000D03*
X92760000Y-123000000D03*
X95860000Y-123000000D03*
X95860000Y-122500000D03*
X95860000Y-122000000D03*
X95860000Y-121500000D03*
X95860000Y-121000000D03*
D12*
X94697500Y-122620000D03*
X94697500Y-121380000D03*
X93922500Y-122620000D03*
X93922500Y-121380000D03*
D31*
X101350000Y-145450000D03*
X101350000Y-147950000D03*
X92950000Y-145450000D03*
X92950000Y-147950000D03*
D32*
X97150000Y-146450000D03*
D31*
X116025000Y-145400000D03*
X116025000Y-147900000D03*
X107625000Y-145400000D03*
X107625000Y-147900000D03*
D32*
X111825000Y-146400000D03*
D33*
X108350000Y-112215000D03*
X108850000Y-112215000D03*
X109350000Y-112215000D03*
X109850000Y-112215000D03*
X110350000Y-112215000D03*
D34*
X111315000Y-111250000D03*
X111315000Y-110750000D03*
X111315000Y-110250000D03*
X111315000Y-109750000D03*
X111315000Y-109250000D03*
D33*
X110350000Y-108285000D03*
X109850000Y-108285000D03*
X109350000Y-108285000D03*
X108850000Y-108285000D03*
X108350000Y-108285000D03*
D34*
X107385000Y-109250000D03*
X107385000Y-109750000D03*
X107385000Y-110250000D03*
X107385000Y-110750000D03*
X107385000Y-111250000D03*
D35*
X109975000Y-109625000D03*
X108725000Y-109625000D03*
X109975000Y-110875000D03*
X108725000Y-110875000D03*
D36*
X82860000Y-104690000D03*
X82860000Y-105640000D03*
X82860000Y-106590000D03*
X85060000Y-106590000D03*
X85060000Y-104690000D03*
D26*
X93970000Y-132280000D03*
D27*
X96510000Y-132280000D03*
M02*
