G04 #@! TF.FileFunction,Paste,Top*
%FSLAX46Y46*%
G04 Gerber Fmt 4.6, Leading zero omitted, Abs format (unit mm)*
G04 Created by KiCad (PCBNEW 4.0.4-stable) date 04/26/17 16:15:40*
%MOMM*%
%LPD*%
G01*
G04 APERTURE LIST*
%ADD10C,0.100000*%
%ADD11R,0.650000X0.300000*%
%ADD12R,0.465000X0.744000*%
%ADD13R,1.250000X1.000000*%
%ADD14R,1.000000X1.250000*%
%ADD15R,2.999740X1.600200*%
%ADD16R,1.198880X1.198880*%
%ADD17R,1.300000X0.700000*%
%ADD18R,0.700000X1.300000*%
%ADD19R,3.600000X1.500000*%
%ADD20R,1.350000X0.400000*%
%ADD21R,0.500000X0.900000*%
%ADD22R,0.900000X0.500000*%
%ADD23R,1.500000X5.600000*%
%ADD24R,0.300000X0.730000*%
%ADD25R,0.730000X0.300000*%
%ADD26R,0.750000X0.750000*%
%ADD27R,1.060000X0.650000*%
%ADD28R,1.300000X1.600000*%
G04 APERTURE END LIST*
D10*
D11*
X88650000Y-109950000D03*
X88650000Y-110450000D03*
X88650000Y-110950000D03*
X88650000Y-111450000D03*
X88650000Y-111950000D03*
X91750000Y-111950000D03*
X91750000Y-111450000D03*
X91750000Y-110950000D03*
X91750000Y-110450000D03*
X91750000Y-109950000D03*
D12*
X90587500Y-111570000D03*
X90587500Y-110330000D03*
X89812500Y-111570000D03*
X89812500Y-110330000D03*
D13*
X87500000Y-121000000D03*
X87500000Y-123000000D03*
D14*
X99310000Y-116480000D03*
X101310000Y-116480000D03*
D13*
X125450000Y-137500000D03*
X125450000Y-139500000D03*
D14*
X126430000Y-134410000D03*
X128430000Y-134410000D03*
X126490000Y-126820000D03*
X128490000Y-126820000D03*
D13*
X114500000Y-121320000D03*
X114500000Y-123320000D03*
X110220000Y-123410000D03*
X110220000Y-121410000D03*
X81200000Y-113700000D03*
X81200000Y-115700000D03*
X125480000Y-118250000D03*
X125480000Y-120250000D03*
D15*
X90650360Y-105250000D03*
X95049640Y-105250000D03*
D14*
X126290000Y-109330000D03*
X124290000Y-109330000D03*
X126300000Y-112590000D03*
X124300000Y-112590000D03*
D16*
X76450980Y-135000000D03*
X78549020Y-135000000D03*
X76450980Y-131750000D03*
X78549020Y-131750000D03*
X76450980Y-138500000D03*
X78549020Y-138500000D03*
D17*
X125475000Y-129400000D03*
X125475000Y-131300000D03*
X125460000Y-122420000D03*
X125460000Y-124320000D03*
D18*
X113520000Y-118660000D03*
X111620000Y-118660000D03*
X127970000Y-115590000D03*
X126070000Y-115590000D03*
D19*
X94950000Y-109725000D03*
X94950000Y-112775000D03*
D20*
X83902540Y-120999100D03*
X83902540Y-121649100D03*
X83902540Y-122299100D03*
X83902540Y-122949100D03*
X83902540Y-123599100D03*
D18*
X81300000Y-135000000D03*
X83200000Y-135000000D03*
X81300000Y-131750000D03*
X83200000Y-131750000D03*
X95860000Y-125120000D03*
X93960000Y-125120000D03*
X81300000Y-138500000D03*
X83200000Y-138500000D03*
X93880000Y-128920000D03*
X95780000Y-128920000D03*
D21*
X94500000Y-135250000D03*
X93000000Y-135250000D03*
D22*
X86150000Y-110450000D03*
X86150000Y-111950000D03*
X86150000Y-113650000D03*
X86150000Y-115150000D03*
X84150000Y-111950000D03*
X84150000Y-110450000D03*
X98550000Y-112550000D03*
X98550000Y-111050000D03*
X98550000Y-109325000D03*
X98550000Y-107825000D03*
D11*
X92760000Y-121000000D03*
X92760000Y-121500000D03*
X92760000Y-122000000D03*
X92760000Y-122500000D03*
X92760000Y-123000000D03*
X95860000Y-123000000D03*
X95860000Y-122500000D03*
X95860000Y-122000000D03*
X95860000Y-121500000D03*
X95860000Y-121000000D03*
D12*
X94697500Y-122620000D03*
X94697500Y-121380000D03*
X93922500Y-122620000D03*
X93922500Y-121380000D03*
D23*
X103750000Y-146340000D03*
X125460000Y-146380000D03*
D24*
X118750000Y-112945000D03*
X119250000Y-112945000D03*
X119750000Y-112945000D03*
X120250000Y-112945000D03*
X120750000Y-112945000D03*
D25*
X121715000Y-111980000D03*
X121715000Y-111480000D03*
X121715000Y-110980000D03*
X121715000Y-110480000D03*
X121715000Y-109980000D03*
D24*
X120750000Y-109015000D03*
X120250000Y-109015000D03*
X119750000Y-109015000D03*
X119250000Y-109015000D03*
X118750000Y-109015000D03*
D25*
X117785000Y-109980000D03*
X117785000Y-110480000D03*
X117785000Y-110980000D03*
X117785000Y-111480000D03*
X117785000Y-111980000D03*
D26*
X120375000Y-110355000D03*
X119125000Y-110355000D03*
X120375000Y-111605000D03*
X119125000Y-111605000D03*
D27*
X82860000Y-104690000D03*
X82860000Y-105640000D03*
X82860000Y-106590000D03*
X85060000Y-106590000D03*
X85060000Y-104690000D03*
D14*
X106560000Y-112360000D03*
X108560000Y-112360000D03*
X106560000Y-108550000D03*
X108560000Y-108550000D03*
D18*
X115130000Y-115470000D03*
X117030000Y-115470000D03*
D28*
X111220000Y-108500000D03*
X111220000Y-112300000D03*
X113520000Y-112300000D03*
X113520000Y-108500000D03*
M02*
