M48
;DRILL file {KiCad 4.0.6} date Wed Apr 26 18:55:21 2017
;FORMAT={-:-/ absolute / inch / decimal}
FMAT,2
INCH,TZ
T1C0.016
T2C0.020
T3C0.022
T4C0.028
T5C0.032
T6C0.040
%
G90
G05
M72
T1
X3.1618Y-4.1689
X3.4429Y-4.2992
X3.4445Y-4.9063
X3.6102Y-5.3268
X3.6142Y-4.8854
X3.625Y-4.4656
X3.6457Y-4.9252
X3.6614Y-5.374
X3.7421Y-4.0768
X3.7421Y-4.2165
X3.8425Y-4.1437
X3.8799Y-4.2008
X3.9339Y-5.5264
X3.9862Y-5.3965
X4.0445Y-4.585
X4.0705Y-5.3201
X4.1331Y-4.4248
X4.1453Y-4.2736
X4.1811Y-4.5563
X4.1858Y-5.2185
X4.2063Y-4.7287
X4.2185Y-4.8323
X4.2197Y-4.6409
X4.2673Y-4.9201
X4.2736Y-5.152
X4.2835Y-5.5724
X4.3248Y-4.348
X4.3394Y-4.563
X4.3504Y-5.0646
X4.3835Y-5.4724
X4.3854Y-4.9315
X4.4587Y-4.5453
X4.4661Y-5.3921
X4.5287Y-4.2512
X4.5429Y-5.3087
X4.5795Y-4.3886
X4.6268Y-5.2272
X4.6646Y-4.0969
X4.6791Y-4.8846
X4.6795Y-5.0272
X4.6795Y-5.1303
X4.6807Y-4.7673
X4.7535Y-4.6815
X4.8134Y-4.6319
X4.8193Y-5.4713
X4.8193Y-5.5913
X4.8272Y-5.3319
X4.828Y-5.2047
X4.8358Y-4.9228
X4.8358Y-5.0236
X4.8374Y-4.7161
X4.8374Y-4.8106
X4.8941Y-4.213
X5.0382Y-4.4894
X5.0543Y-4.3055
X5.0543Y-4.4327
X5.0634Y-4.8665
X5.0673Y-5.4079
X5.0705Y-5.1256
X5.0736Y-4.6906
X5.076Y-5.5472
X5.1118Y-4.5976
X5.1118Y-4.9929
X5.1169Y-5.2909
X5.1287Y-4.4921
T4
X3.9193Y-5.722
X3.9193Y-5.8205
X4.25Y-5.722
X4.25Y-5.8205
X4.774Y-5.7236
X4.774Y-5.822
X5.1047Y-5.7236
X5.1047Y-5.822
T5
X3.0472Y-4.122
X3.0472Y-4.222
X3.0472Y-4.322
T6
X3.272Y-3.7697
X3.272Y-3.8697
X3.372Y-3.7697
X3.372Y-3.8697
X3.472Y-3.7697
X3.472Y-3.8697
X3.572Y-3.7697
X3.572Y-3.8697
X3.672Y-3.7697
X3.672Y-3.8697
X3.6736Y-4.587
X3.6996Y-5.2079
X3.772Y-3.7697
X3.772Y-3.8697
X3.7736Y-4.587
X3.7996Y-5.2079
X3.872Y-3.7697
X3.872Y-3.8697
X3.972Y-3.7697
X3.972Y-3.8697
X4.072Y-3.7697
X4.072Y-3.8697
X4.172Y-3.7697
X4.172Y-3.8697
X4.272Y-3.7697
X4.272Y-3.8697
X4.372Y-3.7697
X4.372Y-3.8697
X4.472Y-3.7697
X4.472Y-3.8697
X4.572Y-3.7697
X4.572Y-3.8697
X4.672Y-3.7697
X4.672Y-3.8697
X4.772Y-3.7697
X4.772Y-3.8697
X4.872Y-3.7697
X4.872Y-3.8697
X4.972Y-3.7697
X4.972Y-3.8697
X5.072Y-3.7697
X5.072Y-3.8697
X5.172Y-3.7697
X5.172Y-3.8697
T2
X3.1842Y-4.6771G85X3.2097Y-4.6771
G05
X3.1842Y-4.9527G85X3.2097Y-4.9527
G05
T3
X3.3032Y-4.7106G85X3.3032Y-4.7224
G05
X3.3032Y-4.9074G85X3.3032Y-4.9193
G05
T0
M30
