G04 #@! TF.FileFunction,Copper,L2,Bot,Signal*
%FSLAX46Y46*%
G04 Gerber Fmt 4.6, Leading zero omitted, Abs format (unit mm)*
G04 Created by KiCad (PCBNEW 4.0.6) date Wed Apr 26 19:17:41 2017*
%MOMM*%
%LPD*%
G01*
G04 APERTURE LIST*
%ADD10C,0.100000*%
%ADD11R,1.727200X1.727200*%
%ADD12O,1.727200X1.727200*%
%ADD13O,0.950000X1.250000*%
%ADD14O,1.550000X1.000000*%
%ADD15R,2.032000X2.032000*%
%ADD16O,2.032000X2.032000*%
%ADD17C,1.524000*%
%ADD18R,1.600000X2.500000*%
%ADD19C,0.762000*%
%ADD20C,0.600000*%
%ADD21C,0.500000*%
%ADD22C,0.200000*%
%ADD23C,0.250000*%
%ADD24C,0.254000*%
G04 APERTURE END LIST*
D10*
D11*
X83110000Y-98290000D03*
D12*
X83110000Y-95750000D03*
X85650000Y-98290000D03*
X85650000Y-95750000D03*
X88190000Y-98290000D03*
X88190000Y-95750000D03*
X90730000Y-98290000D03*
X90730000Y-95750000D03*
X93270000Y-98290000D03*
X93270000Y-95750000D03*
X95810000Y-98290000D03*
X95810000Y-95750000D03*
X98350000Y-98290000D03*
X98350000Y-95750000D03*
X100890000Y-98290000D03*
X100890000Y-95750000D03*
X103430000Y-98290000D03*
X103430000Y-95750000D03*
X105970000Y-98290000D03*
X105970000Y-95750000D03*
X108510000Y-98290000D03*
X108510000Y-95750000D03*
X111050000Y-98290000D03*
X111050000Y-95750000D03*
X113590000Y-98290000D03*
X113590000Y-95750000D03*
X116130000Y-98290000D03*
X116130000Y-95750000D03*
X118670000Y-98290000D03*
X118670000Y-95750000D03*
X121210000Y-98290000D03*
X121210000Y-95750000D03*
X123750000Y-98290000D03*
X123750000Y-95750000D03*
X126290000Y-98290000D03*
X126290000Y-95750000D03*
X128830000Y-98290000D03*
X128830000Y-95750000D03*
X131370000Y-98290000D03*
X131370000Y-95750000D03*
D13*
X83902540Y-119799100D03*
X83902540Y-124799100D03*
D14*
X81202540Y-118799100D03*
X81202540Y-125799100D03*
D15*
X93310000Y-116510000D03*
D16*
X95850000Y-116510000D03*
D17*
X77400000Y-107240000D03*
X77400000Y-104700000D03*
X77400000Y-109780000D03*
D18*
X107950000Y-145340000D03*
X107950000Y-147840000D03*
X99550000Y-145340000D03*
X99550000Y-147840000D03*
X129660000Y-145380000D03*
X129660000Y-147880000D03*
X121260000Y-145380000D03*
X121260000Y-147880000D03*
D15*
X93970000Y-132280000D03*
D16*
X96510000Y-132280000D03*
D19*
X108390000Y-124970000D03*
D20*
X87490000Y-124620000D03*
D19*
X80310000Y-105890000D03*
D20*
X91800000Y-124090000D03*
D19*
X101250000Y-137070000D03*
X104980000Y-112390000D03*
X106200000Y-115730000D03*
X110220000Y-115900000D03*
X107180000Y-117880000D03*
X106840000Y-120110000D03*
X107150000Y-122740000D03*
X111390000Y-125260000D03*
X110500000Y-128640000D03*
X108550000Y-130860000D03*
X106320000Y-132550000D03*
X103390000Y-135130000D03*
X99920000Y-140370000D03*
X128380000Y-112590000D03*
X130270000Y-114100000D03*
X129840000Y-116780000D03*
X128870000Y-119140000D03*
X128610000Y-123610000D03*
X128790000Y-130190000D03*
X128710000Y-137360000D03*
X128930000Y-140900000D03*
X122410000Y-142020000D03*
X122410000Y-138970000D03*
X122610000Y-135430000D03*
X122630000Y-132200000D03*
X122830000Y-127600000D03*
X122830000Y-125040000D03*
X122870000Y-122190000D03*
X122870000Y-119790000D03*
X122260000Y-117650000D03*
X120740000Y-118910000D03*
X118890000Y-121090000D03*
X118850000Y-124070000D03*
X118860000Y-127690000D03*
X118860000Y-130310000D03*
X117520000Y-132770000D03*
X115390000Y-134840000D03*
X113440000Y-136960000D03*
X111340000Y-139000000D03*
X108800000Y-141540000D03*
X129840000Y-126820000D03*
X129970000Y-134390000D03*
X116320000Y-111470000D03*
X109850000Y-110440000D03*
X114920000Y-108010000D03*
X105290000Y-108550000D03*
X102730000Y-116460000D03*
X128380000Y-109360000D03*
X95050000Y-103550000D03*
X95050000Y-107100000D03*
X97600000Y-105250000D03*
X98550000Y-106700000D03*
D20*
X92600000Y-125100000D03*
D19*
X91700000Y-135300000D03*
X93000000Y-136500000D03*
X87450000Y-109200000D03*
X92075000Y-113425000D03*
X113250000Y-115450000D03*
X127970000Y-114030000D03*
X124310000Y-107010000D03*
X118220000Y-103810000D03*
D21*
X77400000Y-104700000D02*
X77680000Y-104700000D01*
X77680000Y-104700000D02*
X79630000Y-102750000D01*
X81040000Y-95750000D02*
X83110000Y-95750000D01*
X79630000Y-97160000D02*
X81040000Y-95750000D01*
X79630000Y-102750000D02*
X79630000Y-97160000D01*
X99920000Y-140370000D02*
X99920000Y-138400000D01*
X99920000Y-138400000D02*
X101250000Y-137070000D01*
X104980000Y-114510000D02*
X104980000Y-112390000D01*
X106200000Y-115730000D02*
X104980000Y-114510000D01*
X109160000Y-115900000D02*
X110220000Y-115900000D01*
X107180000Y-117880000D02*
X109160000Y-115900000D01*
X106840000Y-122430000D02*
X106840000Y-120110000D01*
X107150000Y-122740000D02*
X106840000Y-122430000D01*
X111390000Y-127750000D02*
X111390000Y-125260000D01*
X110500000Y-128640000D02*
X111390000Y-127750000D01*
X108010000Y-130860000D02*
X108550000Y-130860000D01*
X106320000Y-132550000D02*
X108010000Y-130860000D01*
X100100000Y-138420000D02*
X103390000Y-135130000D01*
X100100000Y-140190000D02*
X100100000Y-138420000D01*
X99920000Y-140370000D02*
X100100000Y-140190000D01*
X129660000Y-145380000D02*
X129660000Y-141630000D01*
X130270000Y-116350000D02*
X130270000Y-114100000D01*
X129840000Y-116780000D02*
X130270000Y-116350000D01*
X128870000Y-123350000D02*
X128870000Y-119140000D01*
X128610000Y-123610000D02*
X128870000Y-123350000D01*
X129970000Y-131370000D02*
X128790000Y-130190000D01*
X129970000Y-136100000D02*
X129970000Y-131370000D01*
X128710000Y-137360000D02*
X129970000Y-136100000D01*
X129660000Y-141630000D02*
X128930000Y-140900000D01*
X121260000Y-143170000D02*
X121260000Y-145380000D01*
X122410000Y-142020000D02*
X121260000Y-143170000D01*
X122410000Y-135630000D02*
X122410000Y-138970000D01*
X122610000Y-135430000D02*
X122410000Y-135630000D01*
X122630000Y-127800000D02*
X122630000Y-132200000D01*
X122830000Y-127600000D02*
X122630000Y-127800000D01*
X122830000Y-122230000D02*
X122830000Y-125040000D01*
X122870000Y-122190000D02*
X122830000Y-122230000D01*
X122870000Y-118260000D02*
X122870000Y-119790000D01*
X122260000Y-117650000D02*
X122870000Y-118260000D01*
X120740000Y-119240000D02*
X120740000Y-118910000D01*
X118890000Y-121090000D02*
X120740000Y-119240000D01*
X118850000Y-127680000D02*
X118850000Y-124070000D01*
X118860000Y-127690000D02*
X118850000Y-127680000D01*
X118860000Y-131430000D02*
X118860000Y-130310000D01*
X117520000Y-132770000D02*
X118860000Y-131430000D01*
X115390000Y-135010000D02*
X115390000Y-134840000D01*
X113440000Y-136960000D02*
X115390000Y-135010000D01*
X108800000Y-141540000D02*
X111340000Y-139000000D01*
D22*
X87450000Y-109200000D02*
X87800000Y-108850000D01*
X87800000Y-108850000D02*
X92350000Y-108850000D01*
X92350000Y-108850000D02*
X92700000Y-109200000D01*
X92700000Y-109200000D02*
X92700000Y-112800000D01*
X92700000Y-112800000D02*
X92075000Y-113425000D01*
D21*
X112185000Y-114385000D02*
X108345000Y-114385000D01*
X108860000Y-104180000D02*
X112175000Y-104180000D01*
X107530000Y-105510000D02*
X108860000Y-104180000D01*
X107530000Y-113570000D02*
X107530000Y-105510000D01*
X108345000Y-114385000D02*
X107530000Y-113570000D01*
X112175000Y-114375000D02*
X112185000Y-114385000D01*
X112185000Y-114385000D02*
X113250000Y-115450000D01*
X124310000Y-107010000D02*
X124100000Y-107010000D01*
X123740000Y-114030000D02*
X127970000Y-114030000D01*
X123220000Y-113510000D02*
X123740000Y-114030000D01*
X123220000Y-107890000D02*
X123220000Y-113510000D01*
X124100000Y-107010000D02*
X123220000Y-107890000D01*
X112310000Y-104180000D02*
X113850000Y-105720000D01*
X112310000Y-104180000D02*
X112175000Y-104180000D01*
X123020000Y-105720000D02*
X124310000Y-107010000D01*
X113850000Y-105720000D02*
X123020000Y-105720000D01*
X112175000Y-100325000D02*
X112175000Y-104180000D01*
D23*
X103430000Y-98290000D02*
X103380000Y-98290000D01*
D21*
X103430000Y-98290000D02*
X103430000Y-99280000D01*
X111900000Y-100050000D02*
X112175000Y-100325000D01*
X112175000Y-100325000D02*
X112200000Y-100350000D01*
X104200000Y-100050000D02*
X111900000Y-100050000D01*
X103430000Y-99280000D02*
X104200000Y-100050000D01*
D23*
X112400000Y-96990000D02*
X117120000Y-96990000D01*
X117120000Y-96990000D02*
X117390000Y-97260000D01*
X117390000Y-97260000D02*
X117390000Y-102970000D01*
X117390000Y-102970000D02*
X118220000Y-103810000D01*
X112400000Y-96990000D02*
X111160000Y-95750000D01*
X111050000Y-95750000D02*
X111160000Y-95750000D01*
D24*
G36*
X138591024Y-94395630D02*
X138831748Y-94636354D01*
X138975888Y-94804517D01*
X139046288Y-94898384D01*
X139055000Y-94911452D01*
X139055000Y-146530000D01*
X139055995Y-146535000D01*
X139055000Y-146540000D01*
X139055000Y-148126048D01*
X139021288Y-148176616D01*
X138949582Y-148272224D01*
X138855230Y-148390164D01*
X138639263Y-148606131D01*
X138496202Y-148725348D01*
X138401616Y-148796288D01*
X138343548Y-148835000D01*
X131095000Y-148835000D01*
X131095000Y-148165750D01*
X130936250Y-148007000D01*
X129787000Y-148007000D01*
X129787000Y-148027000D01*
X129533000Y-148027000D01*
X129533000Y-148007000D01*
X128383750Y-148007000D01*
X128225000Y-148165750D01*
X128225000Y-148835000D01*
X122695000Y-148835000D01*
X122695000Y-148165750D01*
X122536250Y-148007000D01*
X121387000Y-148007000D01*
X121387000Y-148027000D01*
X121133000Y-148027000D01*
X121133000Y-148007000D01*
X119983750Y-148007000D01*
X119825000Y-148165750D01*
X119825000Y-148835000D01*
X109385000Y-148835000D01*
X109385000Y-148125750D01*
X109226250Y-147967000D01*
X108077000Y-147967000D01*
X108077000Y-147987000D01*
X107823000Y-147987000D01*
X107823000Y-147967000D01*
X106673750Y-147967000D01*
X106515000Y-148125750D01*
X106515000Y-148835000D01*
X100985000Y-148835000D01*
X100985000Y-148125750D01*
X100826250Y-147967000D01*
X99677000Y-147967000D01*
X99677000Y-147987000D01*
X99423000Y-147987000D01*
X99423000Y-147967000D01*
X98273750Y-147967000D01*
X98115000Y-148125750D01*
X98115000Y-148835000D01*
X76131452Y-148835000D01*
X76075031Y-148797386D01*
X75956526Y-148702582D01*
X75761822Y-148532216D01*
X75718252Y-148488646D01*
X75572806Y-148318959D01*
X75475418Y-148197224D01*
X75425000Y-148130000D01*
X75425000Y-145625750D01*
X98115000Y-145625750D01*
X98115000Y-147554250D01*
X98273750Y-147713000D01*
X99423000Y-147713000D01*
X99423000Y-145467000D01*
X99677000Y-145467000D01*
X99677000Y-147713000D01*
X100826250Y-147713000D01*
X100985000Y-147554250D01*
X100985000Y-145625750D01*
X106515000Y-145625750D01*
X106515000Y-147554250D01*
X106673750Y-147713000D01*
X107823000Y-147713000D01*
X107823000Y-145467000D01*
X108077000Y-145467000D01*
X108077000Y-147713000D01*
X109226250Y-147713000D01*
X109385000Y-147554250D01*
X109385000Y-145665750D01*
X119825000Y-145665750D01*
X119825000Y-147594250D01*
X119983750Y-147753000D01*
X121133000Y-147753000D01*
X121133000Y-145507000D01*
X121387000Y-145507000D01*
X121387000Y-147753000D01*
X122536250Y-147753000D01*
X122695000Y-147594250D01*
X122695000Y-145665750D01*
X128225000Y-145665750D01*
X128225000Y-147594250D01*
X128383750Y-147753000D01*
X129533000Y-147753000D01*
X129533000Y-145507000D01*
X129787000Y-145507000D01*
X129787000Y-147753000D01*
X130936250Y-147753000D01*
X131095000Y-147594250D01*
X131095000Y-145665750D01*
X130936250Y-145507000D01*
X129787000Y-145507000D01*
X129533000Y-145507000D01*
X128383750Y-145507000D01*
X128225000Y-145665750D01*
X122695000Y-145665750D01*
X122536250Y-145507000D01*
X121387000Y-145507000D01*
X121133000Y-145507000D01*
X119983750Y-145507000D01*
X119825000Y-145665750D01*
X109385000Y-145665750D01*
X109385000Y-145625750D01*
X109226250Y-145467000D01*
X108077000Y-145467000D01*
X107823000Y-145467000D01*
X106673750Y-145467000D01*
X106515000Y-145625750D01*
X100985000Y-145625750D01*
X100826250Y-145467000D01*
X99677000Y-145467000D01*
X99423000Y-145467000D01*
X98273750Y-145467000D01*
X98115000Y-145625750D01*
X75425000Y-145625750D01*
X75425000Y-143963690D01*
X98115000Y-143963690D01*
X98115000Y-145054250D01*
X98273750Y-145213000D01*
X99423000Y-145213000D01*
X99423000Y-143613750D01*
X99677000Y-143613750D01*
X99677000Y-145213000D01*
X100826250Y-145213000D01*
X100985000Y-145054250D01*
X100985000Y-143963690D01*
X106515000Y-143963690D01*
X106515000Y-145054250D01*
X106673750Y-145213000D01*
X107823000Y-145213000D01*
X107823000Y-143613750D01*
X108077000Y-143613750D01*
X108077000Y-145213000D01*
X109226250Y-145213000D01*
X109385000Y-145054250D01*
X109385000Y-144003690D01*
X119825000Y-144003690D01*
X119825000Y-145094250D01*
X119983750Y-145253000D01*
X121133000Y-145253000D01*
X121133000Y-143653750D01*
X121387000Y-143653750D01*
X121387000Y-145253000D01*
X122536250Y-145253000D01*
X122695000Y-145094250D01*
X122695000Y-144003690D01*
X128225000Y-144003690D01*
X128225000Y-145094250D01*
X128383750Y-145253000D01*
X129533000Y-145253000D01*
X129533000Y-143653750D01*
X129787000Y-143653750D01*
X129787000Y-145253000D01*
X130936250Y-145253000D01*
X131095000Y-145094250D01*
X131095000Y-144003690D01*
X130998327Y-143770301D01*
X130819698Y-143591673D01*
X130586309Y-143495000D01*
X129945750Y-143495000D01*
X129787000Y-143653750D01*
X129533000Y-143653750D01*
X129374250Y-143495000D01*
X128733691Y-143495000D01*
X128500302Y-143591673D01*
X128321673Y-143770301D01*
X128225000Y-144003690D01*
X122695000Y-144003690D01*
X122598327Y-143770301D01*
X122419698Y-143591673D01*
X122186309Y-143495000D01*
X121545750Y-143495000D01*
X121387000Y-143653750D01*
X121133000Y-143653750D01*
X120974250Y-143495000D01*
X120333691Y-143495000D01*
X120100302Y-143591673D01*
X119921673Y-143770301D01*
X119825000Y-144003690D01*
X109385000Y-144003690D01*
X109385000Y-143963690D01*
X109288327Y-143730301D01*
X109109698Y-143551673D01*
X108876309Y-143455000D01*
X108235750Y-143455000D01*
X108077000Y-143613750D01*
X107823000Y-143613750D01*
X107664250Y-143455000D01*
X107023691Y-143455000D01*
X106790302Y-143551673D01*
X106611673Y-143730301D01*
X106515000Y-143963690D01*
X100985000Y-143963690D01*
X100888327Y-143730301D01*
X100709698Y-143551673D01*
X100476309Y-143455000D01*
X99835750Y-143455000D01*
X99677000Y-143613750D01*
X99423000Y-143613750D01*
X99264250Y-143455000D01*
X98623691Y-143455000D01*
X98390302Y-143551673D01*
X98211673Y-143730301D01*
X98115000Y-143963690D01*
X75425000Y-143963690D01*
X75425000Y-132565750D01*
X92319000Y-132565750D01*
X92319000Y-133422309D01*
X92415673Y-133655698D01*
X92594301Y-133834327D01*
X92827690Y-133931000D01*
X93684250Y-133931000D01*
X93843000Y-133772250D01*
X93843000Y-132407000D01*
X92477750Y-132407000D01*
X92319000Y-132565750D01*
X75425000Y-132565750D01*
X75425000Y-131137691D01*
X92319000Y-131137691D01*
X92319000Y-131994250D01*
X92477750Y-132153000D01*
X93843000Y-132153000D01*
X93843000Y-130787750D01*
X94097000Y-130787750D01*
X94097000Y-132153000D01*
X94117000Y-132153000D01*
X94117000Y-132407000D01*
X94097000Y-132407000D01*
X94097000Y-133772250D01*
X94255750Y-133931000D01*
X95112310Y-133931000D01*
X95345699Y-133834327D01*
X95524327Y-133655698D01*
X95541999Y-133613034D01*
X95878190Y-133837670D01*
X96510000Y-133963345D01*
X97141810Y-133837670D01*
X97677433Y-133479778D01*
X98035325Y-132944155D01*
X98161000Y-132312345D01*
X98161000Y-132247655D01*
X98035325Y-131615845D01*
X97677433Y-131080222D01*
X97141810Y-130722330D01*
X96510000Y-130596655D01*
X95878190Y-130722330D01*
X95541999Y-130946966D01*
X95524327Y-130904302D01*
X95345699Y-130725673D01*
X95112310Y-130629000D01*
X94255750Y-130629000D01*
X94097000Y-130787750D01*
X93843000Y-130787750D01*
X93684250Y-130629000D01*
X92827690Y-130629000D01*
X92594301Y-130725673D01*
X92415673Y-130904302D01*
X92319000Y-131137691D01*
X75425000Y-131137691D01*
X75425000Y-130585155D01*
X75755605Y-130227000D01*
X79850000Y-130227000D01*
X79899410Y-130216994D01*
X79941035Y-130188553D01*
X79968315Y-130146159D01*
X79977000Y-130100000D01*
X79977000Y-126421550D01*
X80097350Y-126601666D01*
X80465570Y-126847703D01*
X80899916Y-126934100D01*
X81505164Y-126934100D01*
X81939510Y-126847703D01*
X82307730Y-126601666D01*
X82553767Y-126233446D01*
X82640164Y-125799100D01*
X82553767Y-125364754D01*
X82307730Y-124996534D01*
X81939510Y-124750497D01*
X81505164Y-124664100D01*
X80899916Y-124664100D01*
X80465570Y-124750497D01*
X80097350Y-124996534D01*
X79977000Y-125176650D01*
X79977000Y-124624415D01*
X82792540Y-124624415D01*
X82792540Y-124973785D01*
X82877034Y-125398564D01*
X83117651Y-125758674D01*
X83477761Y-125999291D01*
X83902540Y-126083785D01*
X84327319Y-125999291D01*
X84687429Y-125758674D01*
X84928046Y-125398564D01*
X85012540Y-124973785D01*
X85012540Y-124624415D01*
X84928046Y-124199636D01*
X84687429Y-123839526D01*
X84327319Y-123598909D01*
X83902540Y-123514415D01*
X83477761Y-123598909D01*
X83117651Y-123839526D01*
X82877034Y-124199636D01*
X82792540Y-124624415D01*
X79977000Y-124624415D01*
X79977000Y-119421550D01*
X80097350Y-119601666D01*
X80465570Y-119847703D01*
X80899916Y-119934100D01*
X81505164Y-119934100D01*
X81939510Y-119847703D01*
X82273683Y-119624415D01*
X82792540Y-119624415D01*
X82792540Y-119973785D01*
X82877034Y-120398564D01*
X83117651Y-120758674D01*
X83477761Y-120999291D01*
X83902540Y-121083785D01*
X84327319Y-120999291D01*
X84687429Y-120758674D01*
X84928046Y-120398564D01*
X85012540Y-119973785D01*
X85012540Y-119624415D01*
X84928046Y-119199636D01*
X84687429Y-118839526D01*
X84327319Y-118598909D01*
X83902540Y-118514415D01*
X83477761Y-118598909D01*
X83117651Y-118839526D01*
X82877034Y-119199636D01*
X82792540Y-119624415D01*
X82273683Y-119624415D01*
X82307730Y-119601666D01*
X82553767Y-119233446D01*
X82640164Y-118799100D01*
X82553767Y-118364754D01*
X82307730Y-117996534D01*
X81939510Y-117750497D01*
X81505164Y-117664100D01*
X80899916Y-117664100D01*
X80465570Y-117750497D01*
X80097350Y-117996534D01*
X79977000Y-118176650D01*
X79977000Y-116795750D01*
X91659000Y-116795750D01*
X91659000Y-117652309D01*
X91755673Y-117885698D01*
X91934301Y-118064327D01*
X92167690Y-118161000D01*
X93024250Y-118161000D01*
X93183000Y-118002250D01*
X93183000Y-116637000D01*
X91817750Y-116637000D01*
X91659000Y-116795750D01*
X79977000Y-116795750D01*
X79977000Y-115367691D01*
X91659000Y-115367691D01*
X91659000Y-116224250D01*
X91817750Y-116383000D01*
X93183000Y-116383000D01*
X93183000Y-115017750D01*
X93437000Y-115017750D01*
X93437000Y-116383000D01*
X93457000Y-116383000D01*
X93457000Y-116637000D01*
X93437000Y-116637000D01*
X93437000Y-118002250D01*
X93595750Y-118161000D01*
X94452310Y-118161000D01*
X94685699Y-118064327D01*
X94864327Y-117885698D01*
X94881999Y-117843034D01*
X95218190Y-118067670D01*
X95850000Y-118193345D01*
X96481810Y-118067670D01*
X97017433Y-117709778D01*
X97375325Y-117174155D01*
X97501000Y-116542345D01*
X97501000Y-116477655D01*
X97375325Y-115845845D01*
X97017433Y-115310222D01*
X96481810Y-114952330D01*
X95850000Y-114826655D01*
X95218190Y-114952330D01*
X94881999Y-115176966D01*
X94864327Y-115134302D01*
X94685699Y-114955673D01*
X94452310Y-114859000D01*
X93595750Y-114859000D01*
X93437000Y-115017750D01*
X93183000Y-115017750D01*
X93024250Y-114859000D01*
X92167690Y-114859000D01*
X91934301Y-114955673D01*
X91755673Y-115134302D01*
X91659000Y-115367691D01*
X79977000Y-115367691D01*
X79977000Y-112925000D01*
X79966994Y-112875590D01*
X79938553Y-112833965D01*
X79896159Y-112806685D01*
X79850000Y-112798000D01*
X75725431Y-112798000D01*
X75425000Y-112514736D01*
X75425000Y-112040000D01*
X75424005Y-112035000D01*
X75425000Y-112030000D01*
X75425000Y-104976661D01*
X76002758Y-104976661D01*
X76214990Y-105490303D01*
X76607630Y-105883629D01*
X76815512Y-105969949D01*
X76609697Y-106054990D01*
X76216371Y-106447630D01*
X76003243Y-106960900D01*
X76002758Y-107516661D01*
X76214990Y-108030303D01*
X76607630Y-108423629D01*
X76815512Y-108509949D01*
X76609697Y-108594990D01*
X76216371Y-108987630D01*
X76003243Y-109500900D01*
X76002758Y-110056661D01*
X76214990Y-110570303D01*
X76607630Y-110963629D01*
X77120900Y-111176757D01*
X77676661Y-111177242D01*
X78190303Y-110965010D01*
X78583629Y-110572370D01*
X78796757Y-110059100D01*
X78797242Y-109503339D01*
X78755043Y-109401208D01*
X86433824Y-109401208D01*
X86588175Y-109774766D01*
X86873731Y-110060821D01*
X87247018Y-110215824D01*
X87651208Y-110216176D01*
X88024766Y-110061825D01*
X88310821Y-109776269D01*
X88390243Y-109585000D01*
X91965000Y-109585000D01*
X91965000Y-112408903D01*
X91873792Y-112408824D01*
X91500234Y-112563175D01*
X91214179Y-112848731D01*
X91059176Y-113222018D01*
X91058824Y-113626208D01*
X91213175Y-113999766D01*
X91498731Y-114285821D01*
X91872018Y-114440824D01*
X92276208Y-114441176D01*
X92649766Y-114286825D01*
X92935821Y-114001269D01*
X93090824Y-113627982D01*
X93090980Y-113448466D01*
X93219723Y-113319724D01*
X93379051Y-113081273D01*
X93388333Y-113034606D01*
X93435000Y-112800000D01*
X93435000Y-109200000D01*
X93379051Y-108918728D01*
X93219724Y-108680277D01*
X92869723Y-108330277D01*
X92631272Y-108170949D01*
X92350000Y-108115000D01*
X87800000Y-108115000D01*
X87518728Y-108170949D01*
X87499133Y-108184042D01*
X87248792Y-108183824D01*
X86875234Y-108338175D01*
X86589179Y-108623731D01*
X86434176Y-108997018D01*
X86433824Y-109401208D01*
X78755043Y-109401208D01*
X78585010Y-108989697D01*
X78192370Y-108596371D01*
X77984488Y-108510051D01*
X78190303Y-108425010D01*
X78583629Y-108032370D01*
X78796757Y-107519100D01*
X78797242Y-106963339D01*
X78585010Y-106449697D01*
X78192370Y-106056371D01*
X77984488Y-105970051D01*
X78190303Y-105885010D01*
X78583629Y-105492370D01*
X78796757Y-104979100D01*
X78796883Y-104834697D01*
X80255787Y-103375792D01*
X80255790Y-103375790D01*
X80447633Y-103088675D01*
X80515000Y-102750000D01*
X80515000Y-97526580D01*
X81406579Y-96635000D01*
X81914002Y-96635000D01*
X82036574Y-96818442D01*
X82011083Y-96823238D01*
X81794959Y-96962310D01*
X81649969Y-97174510D01*
X81598960Y-97426400D01*
X81598960Y-99153600D01*
X81643238Y-99388917D01*
X81782310Y-99605041D01*
X81994510Y-99750031D01*
X82246400Y-99801040D01*
X83973600Y-99801040D01*
X84208917Y-99756762D01*
X84425041Y-99617690D01*
X84570031Y-99405490D01*
X84578864Y-99361869D01*
X84590330Y-99379029D01*
X85076511Y-99703885D01*
X85650000Y-99817959D01*
X86223489Y-99703885D01*
X86709670Y-99379029D01*
X86920000Y-99064248D01*
X87130330Y-99379029D01*
X87616511Y-99703885D01*
X88190000Y-99817959D01*
X88763489Y-99703885D01*
X89249670Y-99379029D01*
X89460000Y-99064248D01*
X89670330Y-99379029D01*
X90156511Y-99703885D01*
X90730000Y-99817959D01*
X91303489Y-99703885D01*
X91789670Y-99379029D01*
X92005664Y-99055772D01*
X92063179Y-99178490D01*
X92495053Y-99572688D01*
X92910974Y-99744958D01*
X93143000Y-99623817D01*
X93143000Y-98417000D01*
X93123000Y-98417000D01*
X93123000Y-98163000D01*
X93143000Y-98163000D01*
X93143000Y-98143000D01*
X93397000Y-98143000D01*
X93397000Y-98163000D01*
X93417000Y-98163000D01*
X93417000Y-98417000D01*
X93397000Y-98417000D01*
X93397000Y-99623817D01*
X93629026Y-99744958D01*
X94044947Y-99572688D01*
X94476821Y-99178490D01*
X94534336Y-99055772D01*
X94750330Y-99379029D01*
X95236511Y-99703885D01*
X95810000Y-99817959D01*
X96383489Y-99703885D01*
X96869670Y-99379029D01*
X97080000Y-99064248D01*
X97290330Y-99379029D01*
X97776511Y-99703885D01*
X98350000Y-99817959D01*
X98923489Y-99703885D01*
X99409670Y-99379029D01*
X99620000Y-99064248D01*
X99830330Y-99379029D01*
X100316511Y-99703885D01*
X100890000Y-99817959D01*
X101463489Y-99703885D01*
X101949670Y-99379029D01*
X102160000Y-99064248D01*
X102370330Y-99379029D01*
X102594491Y-99528809D01*
X102612367Y-99618675D01*
X102734219Y-99801040D01*
X102804210Y-99905790D01*
X103574208Y-100675787D01*
X103574210Y-100675790D01*
X103861325Y-100867633D01*
X104200000Y-100935000D01*
X111290000Y-100935000D01*
X111290000Y-103295000D01*
X108860005Y-103295000D01*
X108860000Y-103294999D01*
X108577516Y-103351190D01*
X108521325Y-103362367D01*
X108234210Y-103554210D01*
X108234208Y-103554213D01*
X106904210Y-104884210D01*
X106712367Y-105171325D01*
X106712367Y-105171326D01*
X106644999Y-105510000D01*
X106645000Y-105510005D01*
X106645000Y-113569995D01*
X106644999Y-113570000D01*
X106656533Y-113627982D01*
X106712367Y-113908675D01*
X106864120Y-114135790D01*
X106904210Y-114195790D01*
X107719208Y-115010787D01*
X107719210Y-115010790D01*
X108006325Y-115202633D01*
X108062516Y-115213810D01*
X108345000Y-115270001D01*
X108345005Y-115270000D01*
X111818420Y-115270000D01*
X112257902Y-115709481D01*
X112388175Y-116024766D01*
X112673731Y-116310821D01*
X113047018Y-116465824D01*
X113451208Y-116466176D01*
X113824766Y-116311825D01*
X114110821Y-116026269D01*
X114265824Y-115652982D01*
X114266176Y-115248792D01*
X114111825Y-114875234D01*
X113826269Y-114589179D01*
X113509028Y-114457448D01*
X112810790Y-113759210D01*
X112810787Y-113759208D01*
X112800790Y-113749210D01*
X112513674Y-113557367D01*
X112175000Y-113489999D01*
X112124723Y-113500000D01*
X108711579Y-113500000D01*
X108415000Y-113203420D01*
X108415000Y-105876580D01*
X109226579Y-105065000D01*
X111943420Y-105065000D01*
X113224208Y-106345787D01*
X113224210Y-106345790D01*
X113511325Y-106537633D01*
X113567516Y-106548810D01*
X113850000Y-106605001D01*
X113850005Y-106605000D01*
X122653420Y-106605000D01*
X122953420Y-106905000D01*
X122594210Y-107264210D01*
X122402367Y-107551325D01*
X122402367Y-107551326D01*
X122334999Y-107890000D01*
X122335000Y-107890005D01*
X122335000Y-113509995D01*
X122334999Y-113510000D01*
X122358115Y-113626208D01*
X122402367Y-113848675D01*
X122573003Y-114104051D01*
X122594210Y-114135790D01*
X123114208Y-114655787D01*
X123114210Y-114655790D01*
X123401325Y-114847633D01*
X123457516Y-114858810D01*
X123740000Y-114915001D01*
X123740005Y-114915000D01*
X127663178Y-114915000D01*
X127783201Y-114964838D01*
X128155167Y-114965162D01*
X128498943Y-114823117D01*
X128762192Y-114560327D01*
X128904838Y-114216799D01*
X128905162Y-113844833D01*
X128763117Y-113501057D01*
X128500327Y-113237808D01*
X128156799Y-113095162D01*
X127784833Y-113094838D01*
X127663431Y-113145000D01*
X124106579Y-113145000D01*
X124105000Y-113143420D01*
X124105000Y-108256580D01*
X124416486Y-107945093D01*
X124495167Y-107945162D01*
X124838943Y-107803117D01*
X125102192Y-107540327D01*
X125244838Y-107196799D01*
X125245162Y-106824833D01*
X125103117Y-106481057D01*
X124840327Y-106217808D01*
X124719013Y-106167434D01*
X123645790Y-105094210D01*
X123602074Y-105065000D01*
X123358675Y-104902367D01*
X123302484Y-104891190D01*
X123020000Y-104834999D01*
X123019995Y-104835000D01*
X114216579Y-104835000D01*
X113060000Y-103678420D01*
X113060000Y-100475682D01*
X113085000Y-100350000D01*
X113017633Y-100011325D01*
X112825789Y-99724210D01*
X112800790Y-99699210D01*
X112800787Y-99699208D01*
X112525790Y-99424210D01*
X112458171Y-99379029D01*
X112238675Y-99232367D01*
X112211304Y-99226923D01*
X112325664Y-99055772D01*
X112383179Y-99178490D01*
X112815053Y-99572688D01*
X113230974Y-99744958D01*
X113463000Y-99623817D01*
X113463000Y-98417000D01*
X113443000Y-98417000D01*
X113443000Y-98163000D01*
X113463000Y-98163000D01*
X113463000Y-98143000D01*
X113717000Y-98143000D01*
X113717000Y-98163000D01*
X113737000Y-98163000D01*
X113737000Y-98417000D01*
X113717000Y-98417000D01*
X113717000Y-99623817D01*
X113949026Y-99744958D01*
X114364947Y-99572688D01*
X114796821Y-99178490D01*
X114854336Y-99055772D01*
X115070330Y-99379029D01*
X115556511Y-99703885D01*
X116130000Y-99817959D01*
X116630000Y-99718503D01*
X116630000Y-102970000D01*
X116658494Y-103113249D01*
X116686123Y-103256630D01*
X116687400Y-103258566D01*
X116687852Y-103260839D01*
X116768964Y-103382232D01*
X116849391Y-103504174D01*
X117284882Y-103944912D01*
X117284838Y-103995167D01*
X117426883Y-104338943D01*
X117689673Y-104602192D01*
X118033201Y-104744838D01*
X118405167Y-104745162D01*
X118748943Y-104603117D01*
X119012192Y-104340327D01*
X119154838Y-103996799D01*
X119155162Y-103624833D01*
X119013117Y-103281057D01*
X118750327Y-103017808D01*
X118406799Y-102875162D01*
X118364679Y-102875125D01*
X118150000Y-102657860D01*
X118150000Y-99714525D01*
X118670000Y-99817959D01*
X119243489Y-99703885D01*
X119729670Y-99379029D01*
X119940000Y-99064248D01*
X120150330Y-99379029D01*
X120636511Y-99703885D01*
X121210000Y-99817959D01*
X121783489Y-99703885D01*
X122269670Y-99379029D01*
X122480000Y-99064248D01*
X122690330Y-99379029D01*
X123176511Y-99703885D01*
X123750000Y-99817959D01*
X124323489Y-99703885D01*
X124809670Y-99379029D01*
X125020000Y-99064248D01*
X125230330Y-99379029D01*
X125716511Y-99703885D01*
X126290000Y-99817959D01*
X126863489Y-99703885D01*
X127349670Y-99379029D01*
X127560000Y-99064248D01*
X127770330Y-99379029D01*
X128256511Y-99703885D01*
X128830000Y-99817959D01*
X129403489Y-99703885D01*
X129889670Y-99379029D01*
X130105664Y-99055772D01*
X130163179Y-99178490D01*
X130595053Y-99572688D01*
X131010974Y-99744958D01*
X131243000Y-99623817D01*
X131243000Y-98417000D01*
X131497000Y-98417000D01*
X131497000Y-99623817D01*
X131729026Y-99744958D01*
X132144947Y-99572688D01*
X132576821Y-99178490D01*
X132824968Y-98649027D01*
X132704469Y-98417000D01*
X131497000Y-98417000D01*
X131243000Y-98417000D01*
X131223000Y-98417000D01*
X131223000Y-98163000D01*
X131243000Y-98163000D01*
X131243000Y-98143000D01*
X131497000Y-98143000D01*
X131497000Y-98163000D01*
X132704469Y-98163000D01*
X132824968Y-97930973D01*
X132576821Y-97401510D01*
X132158839Y-97019992D01*
X132429670Y-96839029D01*
X132754526Y-96352848D01*
X132868600Y-95779359D01*
X132868600Y-95720641D01*
X132754526Y-95147152D01*
X132429670Y-94660971D01*
X131943489Y-94336115D01*
X131370000Y-94222041D01*
X130796511Y-94336115D01*
X130310330Y-94660971D01*
X130100000Y-94975752D01*
X129889670Y-94660971D01*
X129403489Y-94336115D01*
X128830000Y-94222041D01*
X128256511Y-94336115D01*
X127770330Y-94660971D01*
X127560000Y-94975752D01*
X127349670Y-94660971D01*
X126863489Y-94336115D01*
X126290000Y-94222041D01*
X125716511Y-94336115D01*
X125230330Y-94660971D01*
X125014336Y-94984228D01*
X124956821Y-94861510D01*
X124524947Y-94467312D01*
X124109026Y-94295042D01*
X123877000Y-94416183D01*
X123877000Y-95623000D01*
X123897000Y-95623000D01*
X123897000Y-95877000D01*
X123877000Y-95877000D01*
X123877000Y-95897000D01*
X123623000Y-95897000D01*
X123623000Y-95877000D01*
X123603000Y-95877000D01*
X123603000Y-95623000D01*
X123623000Y-95623000D01*
X123623000Y-94416183D01*
X123390974Y-94295042D01*
X122975053Y-94467312D01*
X122543179Y-94861510D01*
X122485664Y-94984228D01*
X122269670Y-94660971D01*
X121783489Y-94336115D01*
X121210000Y-94222041D01*
X120636511Y-94336115D01*
X120150330Y-94660971D01*
X119934336Y-94984228D01*
X119876821Y-94861510D01*
X119444947Y-94467312D01*
X119029026Y-94295042D01*
X118797000Y-94416183D01*
X118797000Y-95623000D01*
X118817000Y-95623000D01*
X118817000Y-95877000D01*
X118797000Y-95877000D01*
X118797000Y-95897000D01*
X118543000Y-95897000D01*
X118543000Y-95877000D01*
X118523000Y-95877000D01*
X118523000Y-95623000D01*
X118543000Y-95623000D01*
X118543000Y-94416183D01*
X118310974Y-94295042D01*
X117895053Y-94467312D01*
X117463179Y-94861510D01*
X117405664Y-94984228D01*
X117189670Y-94660971D01*
X116703489Y-94336115D01*
X116130000Y-94222041D01*
X115556511Y-94336115D01*
X115070330Y-94660971D01*
X114860000Y-94975752D01*
X114649670Y-94660971D01*
X114163489Y-94336115D01*
X113590000Y-94222041D01*
X113016511Y-94336115D01*
X112530330Y-94660971D01*
X112320000Y-94975752D01*
X112109670Y-94660971D01*
X111623489Y-94336115D01*
X111050000Y-94222041D01*
X110476511Y-94336115D01*
X109990330Y-94660971D01*
X109780000Y-94975752D01*
X109569670Y-94660971D01*
X109083489Y-94336115D01*
X108510000Y-94222041D01*
X107936511Y-94336115D01*
X107450330Y-94660971D01*
X107234336Y-94984228D01*
X107176821Y-94861510D01*
X106744947Y-94467312D01*
X106329026Y-94295042D01*
X106097000Y-94416183D01*
X106097000Y-95623000D01*
X106117000Y-95623000D01*
X106117000Y-95877000D01*
X106097000Y-95877000D01*
X106097000Y-95897000D01*
X105843000Y-95897000D01*
X105843000Y-95877000D01*
X105823000Y-95877000D01*
X105823000Y-95623000D01*
X105843000Y-95623000D01*
X105843000Y-94416183D01*
X105610974Y-94295042D01*
X105195053Y-94467312D01*
X104763179Y-94861510D01*
X104705664Y-94984228D01*
X104489670Y-94660971D01*
X104003489Y-94336115D01*
X103430000Y-94222041D01*
X102856511Y-94336115D01*
X102370330Y-94660971D01*
X102160000Y-94975752D01*
X101949670Y-94660971D01*
X101463489Y-94336115D01*
X100890000Y-94222041D01*
X100316511Y-94336115D01*
X99830330Y-94660971D01*
X99614336Y-94984228D01*
X99556821Y-94861510D01*
X99124947Y-94467312D01*
X98709026Y-94295042D01*
X98477000Y-94416183D01*
X98477000Y-95623000D01*
X98497000Y-95623000D01*
X98497000Y-95877000D01*
X98477000Y-95877000D01*
X98477000Y-95897000D01*
X98223000Y-95897000D01*
X98223000Y-95877000D01*
X98203000Y-95877000D01*
X98203000Y-95623000D01*
X98223000Y-95623000D01*
X98223000Y-94416183D01*
X97990974Y-94295042D01*
X97575053Y-94467312D01*
X97143179Y-94861510D01*
X97085664Y-94984228D01*
X96869670Y-94660971D01*
X96383489Y-94336115D01*
X95810000Y-94222041D01*
X95236511Y-94336115D01*
X94750330Y-94660971D01*
X94540000Y-94975752D01*
X94329670Y-94660971D01*
X93843489Y-94336115D01*
X93270000Y-94222041D01*
X92696511Y-94336115D01*
X92210330Y-94660971D01*
X92000000Y-94975752D01*
X91789670Y-94660971D01*
X91303489Y-94336115D01*
X90730000Y-94222041D01*
X90156511Y-94336115D01*
X89670330Y-94660971D01*
X89454336Y-94984228D01*
X89396821Y-94861510D01*
X88964947Y-94467312D01*
X88549026Y-94295042D01*
X88317000Y-94416183D01*
X88317000Y-95623000D01*
X88337000Y-95623000D01*
X88337000Y-95877000D01*
X88317000Y-95877000D01*
X88317000Y-95897000D01*
X88063000Y-95897000D01*
X88063000Y-95877000D01*
X88043000Y-95877000D01*
X88043000Y-95623000D01*
X88063000Y-95623000D01*
X88063000Y-94416183D01*
X87830974Y-94295042D01*
X87415053Y-94467312D01*
X86983179Y-94861510D01*
X86925664Y-94984228D01*
X86709670Y-94660971D01*
X86223489Y-94336115D01*
X85650000Y-94222041D01*
X85076511Y-94336115D01*
X84590330Y-94660971D01*
X84380000Y-94975752D01*
X84169670Y-94660971D01*
X83683489Y-94336115D01*
X83110000Y-94222041D01*
X82536511Y-94336115D01*
X82050330Y-94660971D01*
X81914002Y-94865000D01*
X81040005Y-94865000D01*
X81040000Y-94864999D01*
X80701325Y-94932367D01*
X80414210Y-95124210D01*
X80414208Y-95124213D01*
X79004210Y-96534210D01*
X78812367Y-96821325D01*
X78801469Y-96876115D01*
X78744999Y-97160000D01*
X78745000Y-97160005D01*
X78745000Y-102383421D01*
X77782318Y-103346103D01*
X77679100Y-103303243D01*
X77123339Y-103302758D01*
X76609697Y-103514990D01*
X76216371Y-103907630D01*
X76003243Y-104420900D01*
X76002758Y-104976661D01*
X75425000Y-104976661D01*
X75425000Y-94916452D01*
X75453712Y-94873384D01*
X75521182Y-94783424D01*
X75539803Y-94764803D01*
X75549170Y-94754336D01*
X75644770Y-94634836D01*
X75884836Y-94394770D01*
X76000031Y-94302614D01*
X76070447Y-94255670D01*
X76089803Y-94239803D01*
X76105914Y-94223692D01*
X76133952Y-94205000D01*
X138343205Y-94205000D01*
X138591024Y-94395630D01*
X138591024Y-94395630D01*
G37*
X138591024Y-94395630D02*
X138831748Y-94636354D01*
X138975888Y-94804517D01*
X139046288Y-94898384D01*
X139055000Y-94911452D01*
X139055000Y-146530000D01*
X139055995Y-146535000D01*
X139055000Y-146540000D01*
X139055000Y-148126048D01*
X139021288Y-148176616D01*
X138949582Y-148272224D01*
X138855230Y-148390164D01*
X138639263Y-148606131D01*
X138496202Y-148725348D01*
X138401616Y-148796288D01*
X138343548Y-148835000D01*
X131095000Y-148835000D01*
X131095000Y-148165750D01*
X130936250Y-148007000D01*
X129787000Y-148007000D01*
X129787000Y-148027000D01*
X129533000Y-148027000D01*
X129533000Y-148007000D01*
X128383750Y-148007000D01*
X128225000Y-148165750D01*
X128225000Y-148835000D01*
X122695000Y-148835000D01*
X122695000Y-148165750D01*
X122536250Y-148007000D01*
X121387000Y-148007000D01*
X121387000Y-148027000D01*
X121133000Y-148027000D01*
X121133000Y-148007000D01*
X119983750Y-148007000D01*
X119825000Y-148165750D01*
X119825000Y-148835000D01*
X109385000Y-148835000D01*
X109385000Y-148125750D01*
X109226250Y-147967000D01*
X108077000Y-147967000D01*
X108077000Y-147987000D01*
X107823000Y-147987000D01*
X107823000Y-147967000D01*
X106673750Y-147967000D01*
X106515000Y-148125750D01*
X106515000Y-148835000D01*
X100985000Y-148835000D01*
X100985000Y-148125750D01*
X100826250Y-147967000D01*
X99677000Y-147967000D01*
X99677000Y-147987000D01*
X99423000Y-147987000D01*
X99423000Y-147967000D01*
X98273750Y-147967000D01*
X98115000Y-148125750D01*
X98115000Y-148835000D01*
X76131452Y-148835000D01*
X76075031Y-148797386D01*
X75956526Y-148702582D01*
X75761822Y-148532216D01*
X75718252Y-148488646D01*
X75572806Y-148318959D01*
X75475418Y-148197224D01*
X75425000Y-148130000D01*
X75425000Y-145625750D01*
X98115000Y-145625750D01*
X98115000Y-147554250D01*
X98273750Y-147713000D01*
X99423000Y-147713000D01*
X99423000Y-145467000D01*
X99677000Y-145467000D01*
X99677000Y-147713000D01*
X100826250Y-147713000D01*
X100985000Y-147554250D01*
X100985000Y-145625750D01*
X106515000Y-145625750D01*
X106515000Y-147554250D01*
X106673750Y-147713000D01*
X107823000Y-147713000D01*
X107823000Y-145467000D01*
X108077000Y-145467000D01*
X108077000Y-147713000D01*
X109226250Y-147713000D01*
X109385000Y-147554250D01*
X109385000Y-145665750D01*
X119825000Y-145665750D01*
X119825000Y-147594250D01*
X119983750Y-147753000D01*
X121133000Y-147753000D01*
X121133000Y-145507000D01*
X121387000Y-145507000D01*
X121387000Y-147753000D01*
X122536250Y-147753000D01*
X122695000Y-147594250D01*
X122695000Y-145665750D01*
X128225000Y-145665750D01*
X128225000Y-147594250D01*
X128383750Y-147753000D01*
X129533000Y-147753000D01*
X129533000Y-145507000D01*
X129787000Y-145507000D01*
X129787000Y-147753000D01*
X130936250Y-147753000D01*
X131095000Y-147594250D01*
X131095000Y-145665750D01*
X130936250Y-145507000D01*
X129787000Y-145507000D01*
X129533000Y-145507000D01*
X128383750Y-145507000D01*
X128225000Y-145665750D01*
X122695000Y-145665750D01*
X122536250Y-145507000D01*
X121387000Y-145507000D01*
X121133000Y-145507000D01*
X119983750Y-145507000D01*
X119825000Y-145665750D01*
X109385000Y-145665750D01*
X109385000Y-145625750D01*
X109226250Y-145467000D01*
X108077000Y-145467000D01*
X107823000Y-145467000D01*
X106673750Y-145467000D01*
X106515000Y-145625750D01*
X100985000Y-145625750D01*
X100826250Y-145467000D01*
X99677000Y-145467000D01*
X99423000Y-145467000D01*
X98273750Y-145467000D01*
X98115000Y-145625750D01*
X75425000Y-145625750D01*
X75425000Y-143963690D01*
X98115000Y-143963690D01*
X98115000Y-145054250D01*
X98273750Y-145213000D01*
X99423000Y-145213000D01*
X99423000Y-143613750D01*
X99677000Y-143613750D01*
X99677000Y-145213000D01*
X100826250Y-145213000D01*
X100985000Y-145054250D01*
X100985000Y-143963690D01*
X106515000Y-143963690D01*
X106515000Y-145054250D01*
X106673750Y-145213000D01*
X107823000Y-145213000D01*
X107823000Y-143613750D01*
X108077000Y-143613750D01*
X108077000Y-145213000D01*
X109226250Y-145213000D01*
X109385000Y-145054250D01*
X109385000Y-144003690D01*
X119825000Y-144003690D01*
X119825000Y-145094250D01*
X119983750Y-145253000D01*
X121133000Y-145253000D01*
X121133000Y-143653750D01*
X121387000Y-143653750D01*
X121387000Y-145253000D01*
X122536250Y-145253000D01*
X122695000Y-145094250D01*
X122695000Y-144003690D01*
X128225000Y-144003690D01*
X128225000Y-145094250D01*
X128383750Y-145253000D01*
X129533000Y-145253000D01*
X129533000Y-143653750D01*
X129787000Y-143653750D01*
X129787000Y-145253000D01*
X130936250Y-145253000D01*
X131095000Y-145094250D01*
X131095000Y-144003690D01*
X130998327Y-143770301D01*
X130819698Y-143591673D01*
X130586309Y-143495000D01*
X129945750Y-143495000D01*
X129787000Y-143653750D01*
X129533000Y-143653750D01*
X129374250Y-143495000D01*
X128733691Y-143495000D01*
X128500302Y-143591673D01*
X128321673Y-143770301D01*
X128225000Y-144003690D01*
X122695000Y-144003690D01*
X122598327Y-143770301D01*
X122419698Y-143591673D01*
X122186309Y-143495000D01*
X121545750Y-143495000D01*
X121387000Y-143653750D01*
X121133000Y-143653750D01*
X120974250Y-143495000D01*
X120333691Y-143495000D01*
X120100302Y-143591673D01*
X119921673Y-143770301D01*
X119825000Y-144003690D01*
X109385000Y-144003690D01*
X109385000Y-143963690D01*
X109288327Y-143730301D01*
X109109698Y-143551673D01*
X108876309Y-143455000D01*
X108235750Y-143455000D01*
X108077000Y-143613750D01*
X107823000Y-143613750D01*
X107664250Y-143455000D01*
X107023691Y-143455000D01*
X106790302Y-143551673D01*
X106611673Y-143730301D01*
X106515000Y-143963690D01*
X100985000Y-143963690D01*
X100888327Y-143730301D01*
X100709698Y-143551673D01*
X100476309Y-143455000D01*
X99835750Y-143455000D01*
X99677000Y-143613750D01*
X99423000Y-143613750D01*
X99264250Y-143455000D01*
X98623691Y-143455000D01*
X98390302Y-143551673D01*
X98211673Y-143730301D01*
X98115000Y-143963690D01*
X75425000Y-143963690D01*
X75425000Y-132565750D01*
X92319000Y-132565750D01*
X92319000Y-133422309D01*
X92415673Y-133655698D01*
X92594301Y-133834327D01*
X92827690Y-133931000D01*
X93684250Y-133931000D01*
X93843000Y-133772250D01*
X93843000Y-132407000D01*
X92477750Y-132407000D01*
X92319000Y-132565750D01*
X75425000Y-132565750D01*
X75425000Y-131137691D01*
X92319000Y-131137691D01*
X92319000Y-131994250D01*
X92477750Y-132153000D01*
X93843000Y-132153000D01*
X93843000Y-130787750D01*
X94097000Y-130787750D01*
X94097000Y-132153000D01*
X94117000Y-132153000D01*
X94117000Y-132407000D01*
X94097000Y-132407000D01*
X94097000Y-133772250D01*
X94255750Y-133931000D01*
X95112310Y-133931000D01*
X95345699Y-133834327D01*
X95524327Y-133655698D01*
X95541999Y-133613034D01*
X95878190Y-133837670D01*
X96510000Y-133963345D01*
X97141810Y-133837670D01*
X97677433Y-133479778D01*
X98035325Y-132944155D01*
X98161000Y-132312345D01*
X98161000Y-132247655D01*
X98035325Y-131615845D01*
X97677433Y-131080222D01*
X97141810Y-130722330D01*
X96510000Y-130596655D01*
X95878190Y-130722330D01*
X95541999Y-130946966D01*
X95524327Y-130904302D01*
X95345699Y-130725673D01*
X95112310Y-130629000D01*
X94255750Y-130629000D01*
X94097000Y-130787750D01*
X93843000Y-130787750D01*
X93684250Y-130629000D01*
X92827690Y-130629000D01*
X92594301Y-130725673D01*
X92415673Y-130904302D01*
X92319000Y-131137691D01*
X75425000Y-131137691D01*
X75425000Y-130585155D01*
X75755605Y-130227000D01*
X79850000Y-130227000D01*
X79899410Y-130216994D01*
X79941035Y-130188553D01*
X79968315Y-130146159D01*
X79977000Y-130100000D01*
X79977000Y-126421550D01*
X80097350Y-126601666D01*
X80465570Y-126847703D01*
X80899916Y-126934100D01*
X81505164Y-126934100D01*
X81939510Y-126847703D01*
X82307730Y-126601666D01*
X82553767Y-126233446D01*
X82640164Y-125799100D01*
X82553767Y-125364754D01*
X82307730Y-124996534D01*
X81939510Y-124750497D01*
X81505164Y-124664100D01*
X80899916Y-124664100D01*
X80465570Y-124750497D01*
X80097350Y-124996534D01*
X79977000Y-125176650D01*
X79977000Y-124624415D01*
X82792540Y-124624415D01*
X82792540Y-124973785D01*
X82877034Y-125398564D01*
X83117651Y-125758674D01*
X83477761Y-125999291D01*
X83902540Y-126083785D01*
X84327319Y-125999291D01*
X84687429Y-125758674D01*
X84928046Y-125398564D01*
X85012540Y-124973785D01*
X85012540Y-124624415D01*
X84928046Y-124199636D01*
X84687429Y-123839526D01*
X84327319Y-123598909D01*
X83902540Y-123514415D01*
X83477761Y-123598909D01*
X83117651Y-123839526D01*
X82877034Y-124199636D01*
X82792540Y-124624415D01*
X79977000Y-124624415D01*
X79977000Y-119421550D01*
X80097350Y-119601666D01*
X80465570Y-119847703D01*
X80899916Y-119934100D01*
X81505164Y-119934100D01*
X81939510Y-119847703D01*
X82273683Y-119624415D01*
X82792540Y-119624415D01*
X82792540Y-119973785D01*
X82877034Y-120398564D01*
X83117651Y-120758674D01*
X83477761Y-120999291D01*
X83902540Y-121083785D01*
X84327319Y-120999291D01*
X84687429Y-120758674D01*
X84928046Y-120398564D01*
X85012540Y-119973785D01*
X85012540Y-119624415D01*
X84928046Y-119199636D01*
X84687429Y-118839526D01*
X84327319Y-118598909D01*
X83902540Y-118514415D01*
X83477761Y-118598909D01*
X83117651Y-118839526D01*
X82877034Y-119199636D01*
X82792540Y-119624415D01*
X82273683Y-119624415D01*
X82307730Y-119601666D01*
X82553767Y-119233446D01*
X82640164Y-118799100D01*
X82553767Y-118364754D01*
X82307730Y-117996534D01*
X81939510Y-117750497D01*
X81505164Y-117664100D01*
X80899916Y-117664100D01*
X80465570Y-117750497D01*
X80097350Y-117996534D01*
X79977000Y-118176650D01*
X79977000Y-116795750D01*
X91659000Y-116795750D01*
X91659000Y-117652309D01*
X91755673Y-117885698D01*
X91934301Y-118064327D01*
X92167690Y-118161000D01*
X93024250Y-118161000D01*
X93183000Y-118002250D01*
X93183000Y-116637000D01*
X91817750Y-116637000D01*
X91659000Y-116795750D01*
X79977000Y-116795750D01*
X79977000Y-115367691D01*
X91659000Y-115367691D01*
X91659000Y-116224250D01*
X91817750Y-116383000D01*
X93183000Y-116383000D01*
X93183000Y-115017750D01*
X93437000Y-115017750D01*
X93437000Y-116383000D01*
X93457000Y-116383000D01*
X93457000Y-116637000D01*
X93437000Y-116637000D01*
X93437000Y-118002250D01*
X93595750Y-118161000D01*
X94452310Y-118161000D01*
X94685699Y-118064327D01*
X94864327Y-117885698D01*
X94881999Y-117843034D01*
X95218190Y-118067670D01*
X95850000Y-118193345D01*
X96481810Y-118067670D01*
X97017433Y-117709778D01*
X97375325Y-117174155D01*
X97501000Y-116542345D01*
X97501000Y-116477655D01*
X97375325Y-115845845D01*
X97017433Y-115310222D01*
X96481810Y-114952330D01*
X95850000Y-114826655D01*
X95218190Y-114952330D01*
X94881999Y-115176966D01*
X94864327Y-115134302D01*
X94685699Y-114955673D01*
X94452310Y-114859000D01*
X93595750Y-114859000D01*
X93437000Y-115017750D01*
X93183000Y-115017750D01*
X93024250Y-114859000D01*
X92167690Y-114859000D01*
X91934301Y-114955673D01*
X91755673Y-115134302D01*
X91659000Y-115367691D01*
X79977000Y-115367691D01*
X79977000Y-112925000D01*
X79966994Y-112875590D01*
X79938553Y-112833965D01*
X79896159Y-112806685D01*
X79850000Y-112798000D01*
X75725431Y-112798000D01*
X75425000Y-112514736D01*
X75425000Y-112040000D01*
X75424005Y-112035000D01*
X75425000Y-112030000D01*
X75425000Y-104976661D01*
X76002758Y-104976661D01*
X76214990Y-105490303D01*
X76607630Y-105883629D01*
X76815512Y-105969949D01*
X76609697Y-106054990D01*
X76216371Y-106447630D01*
X76003243Y-106960900D01*
X76002758Y-107516661D01*
X76214990Y-108030303D01*
X76607630Y-108423629D01*
X76815512Y-108509949D01*
X76609697Y-108594990D01*
X76216371Y-108987630D01*
X76003243Y-109500900D01*
X76002758Y-110056661D01*
X76214990Y-110570303D01*
X76607630Y-110963629D01*
X77120900Y-111176757D01*
X77676661Y-111177242D01*
X78190303Y-110965010D01*
X78583629Y-110572370D01*
X78796757Y-110059100D01*
X78797242Y-109503339D01*
X78755043Y-109401208D01*
X86433824Y-109401208D01*
X86588175Y-109774766D01*
X86873731Y-110060821D01*
X87247018Y-110215824D01*
X87651208Y-110216176D01*
X88024766Y-110061825D01*
X88310821Y-109776269D01*
X88390243Y-109585000D01*
X91965000Y-109585000D01*
X91965000Y-112408903D01*
X91873792Y-112408824D01*
X91500234Y-112563175D01*
X91214179Y-112848731D01*
X91059176Y-113222018D01*
X91058824Y-113626208D01*
X91213175Y-113999766D01*
X91498731Y-114285821D01*
X91872018Y-114440824D01*
X92276208Y-114441176D01*
X92649766Y-114286825D01*
X92935821Y-114001269D01*
X93090824Y-113627982D01*
X93090980Y-113448466D01*
X93219723Y-113319724D01*
X93379051Y-113081273D01*
X93388333Y-113034606D01*
X93435000Y-112800000D01*
X93435000Y-109200000D01*
X93379051Y-108918728D01*
X93219724Y-108680277D01*
X92869723Y-108330277D01*
X92631272Y-108170949D01*
X92350000Y-108115000D01*
X87800000Y-108115000D01*
X87518728Y-108170949D01*
X87499133Y-108184042D01*
X87248792Y-108183824D01*
X86875234Y-108338175D01*
X86589179Y-108623731D01*
X86434176Y-108997018D01*
X86433824Y-109401208D01*
X78755043Y-109401208D01*
X78585010Y-108989697D01*
X78192370Y-108596371D01*
X77984488Y-108510051D01*
X78190303Y-108425010D01*
X78583629Y-108032370D01*
X78796757Y-107519100D01*
X78797242Y-106963339D01*
X78585010Y-106449697D01*
X78192370Y-106056371D01*
X77984488Y-105970051D01*
X78190303Y-105885010D01*
X78583629Y-105492370D01*
X78796757Y-104979100D01*
X78796883Y-104834697D01*
X80255787Y-103375792D01*
X80255790Y-103375790D01*
X80447633Y-103088675D01*
X80515000Y-102750000D01*
X80515000Y-97526580D01*
X81406579Y-96635000D01*
X81914002Y-96635000D01*
X82036574Y-96818442D01*
X82011083Y-96823238D01*
X81794959Y-96962310D01*
X81649969Y-97174510D01*
X81598960Y-97426400D01*
X81598960Y-99153600D01*
X81643238Y-99388917D01*
X81782310Y-99605041D01*
X81994510Y-99750031D01*
X82246400Y-99801040D01*
X83973600Y-99801040D01*
X84208917Y-99756762D01*
X84425041Y-99617690D01*
X84570031Y-99405490D01*
X84578864Y-99361869D01*
X84590330Y-99379029D01*
X85076511Y-99703885D01*
X85650000Y-99817959D01*
X86223489Y-99703885D01*
X86709670Y-99379029D01*
X86920000Y-99064248D01*
X87130330Y-99379029D01*
X87616511Y-99703885D01*
X88190000Y-99817959D01*
X88763489Y-99703885D01*
X89249670Y-99379029D01*
X89460000Y-99064248D01*
X89670330Y-99379029D01*
X90156511Y-99703885D01*
X90730000Y-99817959D01*
X91303489Y-99703885D01*
X91789670Y-99379029D01*
X92005664Y-99055772D01*
X92063179Y-99178490D01*
X92495053Y-99572688D01*
X92910974Y-99744958D01*
X93143000Y-99623817D01*
X93143000Y-98417000D01*
X93123000Y-98417000D01*
X93123000Y-98163000D01*
X93143000Y-98163000D01*
X93143000Y-98143000D01*
X93397000Y-98143000D01*
X93397000Y-98163000D01*
X93417000Y-98163000D01*
X93417000Y-98417000D01*
X93397000Y-98417000D01*
X93397000Y-99623817D01*
X93629026Y-99744958D01*
X94044947Y-99572688D01*
X94476821Y-99178490D01*
X94534336Y-99055772D01*
X94750330Y-99379029D01*
X95236511Y-99703885D01*
X95810000Y-99817959D01*
X96383489Y-99703885D01*
X96869670Y-99379029D01*
X97080000Y-99064248D01*
X97290330Y-99379029D01*
X97776511Y-99703885D01*
X98350000Y-99817959D01*
X98923489Y-99703885D01*
X99409670Y-99379029D01*
X99620000Y-99064248D01*
X99830330Y-99379029D01*
X100316511Y-99703885D01*
X100890000Y-99817959D01*
X101463489Y-99703885D01*
X101949670Y-99379029D01*
X102160000Y-99064248D01*
X102370330Y-99379029D01*
X102594491Y-99528809D01*
X102612367Y-99618675D01*
X102734219Y-99801040D01*
X102804210Y-99905790D01*
X103574208Y-100675787D01*
X103574210Y-100675790D01*
X103861325Y-100867633D01*
X104200000Y-100935000D01*
X111290000Y-100935000D01*
X111290000Y-103295000D01*
X108860005Y-103295000D01*
X108860000Y-103294999D01*
X108577516Y-103351190D01*
X108521325Y-103362367D01*
X108234210Y-103554210D01*
X108234208Y-103554213D01*
X106904210Y-104884210D01*
X106712367Y-105171325D01*
X106712367Y-105171326D01*
X106644999Y-105510000D01*
X106645000Y-105510005D01*
X106645000Y-113569995D01*
X106644999Y-113570000D01*
X106656533Y-113627982D01*
X106712367Y-113908675D01*
X106864120Y-114135790D01*
X106904210Y-114195790D01*
X107719208Y-115010787D01*
X107719210Y-115010790D01*
X108006325Y-115202633D01*
X108062516Y-115213810D01*
X108345000Y-115270001D01*
X108345005Y-115270000D01*
X111818420Y-115270000D01*
X112257902Y-115709481D01*
X112388175Y-116024766D01*
X112673731Y-116310821D01*
X113047018Y-116465824D01*
X113451208Y-116466176D01*
X113824766Y-116311825D01*
X114110821Y-116026269D01*
X114265824Y-115652982D01*
X114266176Y-115248792D01*
X114111825Y-114875234D01*
X113826269Y-114589179D01*
X113509028Y-114457448D01*
X112810790Y-113759210D01*
X112810787Y-113759208D01*
X112800790Y-113749210D01*
X112513674Y-113557367D01*
X112175000Y-113489999D01*
X112124723Y-113500000D01*
X108711579Y-113500000D01*
X108415000Y-113203420D01*
X108415000Y-105876580D01*
X109226579Y-105065000D01*
X111943420Y-105065000D01*
X113224208Y-106345787D01*
X113224210Y-106345790D01*
X113511325Y-106537633D01*
X113567516Y-106548810D01*
X113850000Y-106605001D01*
X113850005Y-106605000D01*
X122653420Y-106605000D01*
X122953420Y-106905000D01*
X122594210Y-107264210D01*
X122402367Y-107551325D01*
X122402367Y-107551326D01*
X122334999Y-107890000D01*
X122335000Y-107890005D01*
X122335000Y-113509995D01*
X122334999Y-113510000D01*
X122358115Y-113626208D01*
X122402367Y-113848675D01*
X122573003Y-114104051D01*
X122594210Y-114135790D01*
X123114208Y-114655787D01*
X123114210Y-114655790D01*
X123401325Y-114847633D01*
X123457516Y-114858810D01*
X123740000Y-114915001D01*
X123740005Y-114915000D01*
X127663178Y-114915000D01*
X127783201Y-114964838D01*
X128155167Y-114965162D01*
X128498943Y-114823117D01*
X128762192Y-114560327D01*
X128904838Y-114216799D01*
X128905162Y-113844833D01*
X128763117Y-113501057D01*
X128500327Y-113237808D01*
X128156799Y-113095162D01*
X127784833Y-113094838D01*
X127663431Y-113145000D01*
X124106579Y-113145000D01*
X124105000Y-113143420D01*
X124105000Y-108256580D01*
X124416486Y-107945093D01*
X124495167Y-107945162D01*
X124838943Y-107803117D01*
X125102192Y-107540327D01*
X125244838Y-107196799D01*
X125245162Y-106824833D01*
X125103117Y-106481057D01*
X124840327Y-106217808D01*
X124719013Y-106167434D01*
X123645790Y-105094210D01*
X123602074Y-105065000D01*
X123358675Y-104902367D01*
X123302484Y-104891190D01*
X123020000Y-104834999D01*
X123019995Y-104835000D01*
X114216579Y-104835000D01*
X113060000Y-103678420D01*
X113060000Y-100475682D01*
X113085000Y-100350000D01*
X113017633Y-100011325D01*
X112825789Y-99724210D01*
X112800790Y-99699210D01*
X112800787Y-99699208D01*
X112525790Y-99424210D01*
X112458171Y-99379029D01*
X112238675Y-99232367D01*
X112211304Y-99226923D01*
X112325664Y-99055772D01*
X112383179Y-99178490D01*
X112815053Y-99572688D01*
X113230974Y-99744958D01*
X113463000Y-99623817D01*
X113463000Y-98417000D01*
X113443000Y-98417000D01*
X113443000Y-98163000D01*
X113463000Y-98163000D01*
X113463000Y-98143000D01*
X113717000Y-98143000D01*
X113717000Y-98163000D01*
X113737000Y-98163000D01*
X113737000Y-98417000D01*
X113717000Y-98417000D01*
X113717000Y-99623817D01*
X113949026Y-99744958D01*
X114364947Y-99572688D01*
X114796821Y-99178490D01*
X114854336Y-99055772D01*
X115070330Y-99379029D01*
X115556511Y-99703885D01*
X116130000Y-99817959D01*
X116630000Y-99718503D01*
X116630000Y-102970000D01*
X116658494Y-103113249D01*
X116686123Y-103256630D01*
X116687400Y-103258566D01*
X116687852Y-103260839D01*
X116768964Y-103382232D01*
X116849391Y-103504174D01*
X117284882Y-103944912D01*
X117284838Y-103995167D01*
X117426883Y-104338943D01*
X117689673Y-104602192D01*
X118033201Y-104744838D01*
X118405167Y-104745162D01*
X118748943Y-104603117D01*
X119012192Y-104340327D01*
X119154838Y-103996799D01*
X119155162Y-103624833D01*
X119013117Y-103281057D01*
X118750327Y-103017808D01*
X118406799Y-102875162D01*
X118364679Y-102875125D01*
X118150000Y-102657860D01*
X118150000Y-99714525D01*
X118670000Y-99817959D01*
X119243489Y-99703885D01*
X119729670Y-99379029D01*
X119940000Y-99064248D01*
X120150330Y-99379029D01*
X120636511Y-99703885D01*
X121210000Y-99817959D01*
X121783489Y-99703885D01*
X122269670Y-99379029D01*
X122480000Y-99064248D01*
X122690330Y-99379029D01*
X123176511Y-99703885D01*
X123750000Y-99817959D01*
X124323489Y-99703885D01*
X124809670Y-99379029D01*
X125020000Y-99064248D01*
X125230330Y-99379029D01*
X125716511Y-99703885D01*
X126290000Y-99817959D01*
X126863489Y-99703885D01*
X127349670Y-99379029D01*
X127560000Y-99064248D01*
X127770330Y-99379029D01*
X128256511Y-99703885D01*
X128830000Y-99817959D01*
X129403489Y-99703885D01*
X129889670Y-99379029D01*
X130105664Y-99055772D01*
X130163179Y-99178490D01*
X130595053Y-99572688D01*
X131010974Y-99744958D01*
X131243000Y-99623817D01*
X131243000Y-98417000D01*
X131497000Y-98417000D01*
X131497000Y-99623817D01*
X131729026Y-99744958D01*
X132144947Y-99572688D01*
X132576821Y-99178490D01*
X132824968Y-98649027D01*
X132704469Y-98417000D01*
X131497000Y-98417000D01*
X131243000Y-98417000D01*
X131223000Y-98417000D01*
X131223000Y-98163000D01*
X131243000Y-98163000D01*
X131243000Y-98143000D01*
X131497000Y-98143000D01*
X131497000Y-98163000D01*
X132704469Y-98163000D01*
X132824968Y-97930973D01*
X132576821Y-97401510D01*
X132158839Y-97019992D01*
X132429670Y-96839029D01*
X132754526Y-96352848D01*
X132868600Y-95779359D01*
X132868600Y-95720641D01*
X132754526Y-95147152D01*
X132429670Y-94660971D01*
X131943489Y-94336115D01*
X131370000Y-94222041D01*
X130796511Y-94336115D01*
X130310330Y-94660971D01*
X130100000Y-94975752D01*
X129889670Y-94660971D01*
X129403489Y-94336115D01*
X128830000Y-94222041D01*
X128256511Y-94336115D01*
X127770330Y-94660971D01*
X127560000Y-94975752D01*
X127349670Y-94660971D01*
X126863489Y-94336115D01*
X126290000Y-94222041D01*
X125716511Y-94336115D01*
X125230330Y-94660971D01*
X125014336Y-94984228D01*
X124956821Y-94861510D01*
X124524947Y-94467312D01*
X124109026Y-94295042D01*
X123877000Y-94416183D01*
X123877000Y-95623000D01*
X123897000Y-95623000D01*
X123897000Y-95877000D01*
X123877000Y-95877000D01*
X123877000Y-95897000D01*
X123623000Y-95897000D01*
X123623000Y-95877000D01*
X123603000Y-95877000D01*
X123603000Y-95623000D01*
X123623000Y-95623000D01*
X123623000Y-94416183D01*
X123390974Y-94295042D01*
X122975053Y-94467312D01*
X122543179Y-94861510D01*
X122485664Y-94984228D01*
X122269670Y-94660971D01*
X121783489Y-94336115D01*
X121210000Y-94222041D01*
X120636511Y-94336115D01*
X120150330Y-94660971D01*
X119934336Y-94984228D01*
X119876821Y-94861510D01*
X119444947Y-94467312D01*
X119029026Y-94295042D01*
X118797000Y-94416183D01*
X118797000Y-95623000D01*
X118817000Y-95623000D01*
X118817000Y-95877000D01*
X118797000Y-95877000D01*
X118797000Y-95897000D01*
X118543000Y-95897000D01*
X118543000Y-95877000D01*
X118523000Y-95877000D01*
X118523000Y-95623000D01*
X118543000Y-95623000D01*
X118543000Y-94416183D01*
X118310974Y-94295042D01*
X117895053Y-94467312D01*
X117463179Y-94861510D01*
X117405664Y-94984228D01*
X117189670Y-94660971D01*
X116703489Y-94336115D01*
X116130000Y-94222041D01*
X115556511Y-94336115D01*
X115070330Y-94660971D01*
X114860000Y-94975752D01*
X114649670Y-94660971D01*
X114163489Y-94336115D01*
X113590000Y-94222041D01*
X113016511Y-94336115D01*
X112530330Y-94660971D01*
X112320000Y-94975752D01*
X112109670Y-94660971D01*
X111623489Y-94336115D01*
X111050000Y-94222041D01*
X110476511Y-94336115D01*
X109990330Y-94660971D01*
X109780000Y-94975752D01*
X109569670Y-94660971D01*
X109083489Y-94336115D01*
X108510000Y-94222041D01*
X107936511Y-94336115D01*
X107450330Y-94660971D01*
X107234336Y-94984228D01*
X107176821Y-94861510D01*
X106744947Y-94467312D01*
X106329026Y-94295042D01*
X106097000Y-94416183D01*
X106097000Y-95623000D01*
X106117000Y-95623000D01*
X106117000Y-95877000D01*
X106097000Y-95877000D01*
X106097000Y-95897000D01*
X105843000Y-95897000D01*
X105843000Y-95877000D01*
X105823000Y-95877000D01*
X105823000Y-95623000D01*
X105843000Y-95623000D01*
X105843000Y-94416183D01*
X105610974Y-94295042D01*
X105195053Y-94467312D01*
X104763179Y-94861510D01*
X104705664Y-94984228D01*
X104489670Y-94660971D01*
X104003489Y-94336115D01*
X103430000Y-94222041D01*
X102856511Y-94336115D01*
X102370330Y-94660971D01*
X102160000Y-94975752D01*
X101949670Y-94660971D01*
X101463489Y-94336115D01*
X100890000Y-94222041D01*
X100316511Y-94336115D01*
X99830330Y-94660971D01*
X99614336Y-94984228D01*
X99556821Y-94861510D01*
X99124947Y-94467312D01*
X98709026Y-94295042D01*
X98477000Y-94416183D01*
X98477000Y-95623000D01*
X98497000Y-95623000D01*
X98497000Y-95877000D01*
X98477000Y-95877000D01*
X98477000Y-95897000D01*
X98223000Y-95897000D01*
X98223000Y-95877000D01*
X98203000Y-95877000D01*
X98203000Y-95623000D01*
X98223000Y-95623000D01*
X98223000Y-94416183D01*
X97990974Y-94295042D01*
X97575053Y-94467312D01*
X97143179Y-94861510D01*
X97085664Y-94984228D01*
X96869670Y-94660971D01*
X96383489Y-94336115D01*
X95810000Y-94222041D01*
X95236511Y-94336115D01*
X94750330Y-94660971D01*
X94540000Y-94975752D01*
X94329670Y-94660971D01*
X93843489Y-94336115D01*
X93270000Y-94222041D01*
X92696511Y-94336115D01*
X92210330Y-94660971D01*
X92000000Y-94975752D01*
X91789670Y-94660971D01*
X91303489Y-94336115D01*
X90730000Y-94222041D01*
X90156511Y-94336115D01*
X89670330Y-94660971D01*
X89454336Y-94984228D01*
X89396821Y-94861510D01*
X88964947Y-94467312D01*
X88549026Y-94295042D01*
X88317000Y-94416183D01*
X88317000Y-95623000D01*
X88337000Y-95623000D01*
X88337000Y-95877000D01*
X88317000Y-95877000D01*
X88317000Y-95897000D01*
X88063000Y-95897000D01*
X88063000Y-95877000D01*
X88043000Y-95877000D01*
X88043000Y-95623000D01*
X88063000Y-95623000D01*
X88063000Y-94416183D01*
X87830974Y-94295042D01*
X87415053Y-94467312D01*
X86983179Y-94861510D01*
X86925664Y-94984228D01*
X86709670Y-94660971D01*
X86223489Y-94336115D01*
X85650000Y-94222041D01*
X85076511Y-94336115D01*
X84590330Y-94660971D01*
X84380000Y-94975752D01*
X84169670Y-94660971D01*
X83683489Y-94336115D01*
X83110000Y-94222041D01*
X82536511Y-94336115D01*
X82050330Y-94660971D01*
X81914002Y-94865000D01*
X81040005Y-94865000D01*
X81040000Y-94864999D01*
X80701325Y-94932367D01*
X80414210Y-95124210D01*
X80414208Y-95124213D01*
X79004210Y-96534210D01*
X78812367Y-96821325D01*
X78801469Y-96876115D01*
X78744999Y-97160000D01*
X78745000Y-97160005D01*
X78745000Y-102383421D01*
X77782318Y-103346103D01*
X77679100Y-103303243D01*
X77123339Y-103302758D01*
X76609697Y-103514990D01*
X76216371Y-103907630D01*
X76003243Y-104420900D01*
X76002758Y-104976661D01*
X75425000Y-104976661D01*
X75425000Y-94916452D01*
X75453712Y-94873384D01*
X75521182Y-94783424D01*
X75539803Y-94764803D01*
X75549170Y-94754336D01*
X75644770Y-94634836D01*
X75884836Y-94394770D01*
X76000031Y-94302614D01*
X76070447Y-94255670D01*
X76089803Y-94239803D01*
X76105914Y-94223692D01*
X76133952Y-94205000D01*
X138343205Y-94205000D01*
X138591024Y-94395630D01*
M02*
