G04 #@! TF.FileFunction,Copper,L1,Top,Signal*
%FSLAX46Y46*%
G04 Gerber Fmt 4.6, Leading zero omitted, Abs format (unit mm)*
G04 Created by KiCad (PCBNEW 4.0.6) date Wed Apr 26 17:26:02 2017*
%MOMM*%
%LPD*%
G01*
G04 APERTURE LIST*
%ADD10C,0.100000*%
%ADD11R,0.650000X0.300000*%
%ADD12R,0.775000X1.240000*%
%ADD13R,1.727200X1.727200*%
%ADD14O,1.727200X1.727200*%
%ADD15R,1.250000X1.000000*%
%ADD16R,1.000000X1.250000*%
%ADD17R,2.999740X1.600200*%
%ADD18R,1.198880X1.198880*%
%ADD19R,1.300000X0.700000*%
%ADD20R,0.700000X1.300000*%
%ADD21R,3.600000X1.500000*%
%ADD22R,1.350000X0.400000*%
%ADD23O,0.950000X1.250000*%
%ADD24O,1.550000X1.000000*%
%ADD25R,2.032000X2.032000*%
%ADD26O,2.032000X2.032000*%
%ADD27R,0.500000X0.900000*%
%ADD28R,0.900000X0.500000*%
%ADD29C,1.524000*%
%ADD30R,1.600000X2.500000*%
%ADD31R,1.500000X5.600000*%
%ADD32R,0.300000X0.730000*%
%ADD33R,0.730000X0.300000*%
%ADD34R,1.250000X1.250000*%
%ADD35R,1.060000X0.650000*%
%ADD36R,1.300000X1.600000*%
%ADD37C,0.600000*%
%ADD38C,0.250000*%
%ADD39C,0.500000*%
%ADD40C,1.100000*%
%ADD41C,0.200000*%
%ADD42C,2.970000*%
%ADD43C,0.254000*%
G04 APERTURE END LIST*
D10*
D11*
X88650000Y-109950000D03*
X88650000Y-110450000D03*
X88650000Y-110950000D03*
X88650000Y-111450000D03*
X88650000Y-111950000D03*
X91750000Y-111950000D03*
X91750000Y-111450000D03*
X91750000Y-110950000D03*
X91750000Y-110450000D03*
X91750000Y-109950000D03*
D12*
X90587500Y-111570000D03*
X90587500Y-110330000D03*
X89812500Y-111570000D03*
X89812500Y-110330000D03*
D13*
X83110000Y-98290000D03*
D14*
X83110000Y-95750000D03*
X85650000Y-98290000D03*
X85650000Y-95750000D03*
X88190000Y-98290000D03*
X88190000Y-95750000D03*
X90730000Y-98290000D03*
X90730000Y-95750000D03*
X93270000Y-98290000D03*
X93270000Y-95750000D03*
X95810000Y-98290000D03*
X95810000Y-95750000D03*
X98350000Y-98290000D03*
X98350000Y-95750000D03*
X100890000Y-98290000D03*
X100890000Y-95750000D03*
X103430000Y-98290000D03*
X103430000Y-95750000D03*
X105970000Y-98290000D03*
X105970000Y-95750000D03*
X108510000Y-98290000D03*
X108510000Y-95750000D03*
X111050000Y-98290000D03*
X111050000Y-95750000D03*
X113590000Y-98290000D03*
X113590000Y-95750000D03*
X116130000Y-98290000D03*
X116130000Y-95750000D03*
X118670000Y-98290000D03*
X118670000Y-95750000D03*
X121210000Y-98290000D03*
X121210000Y-95750000D03*
X123750000Y-98290000D03*
X123750000Y-95750000D03*
X126290000Y-98290000D03*
X126290000Y-95750000D03*
X128830000Y-98290000D03*
X128830000Y-95750000D03*
X131370000Y-98290000D03*
X131370000Y-95750000D03*
D15*
X87500000Y-121000000D03*
X87500000Y-123000000D03*
D16*
X99310000Y-116480000D03*
X101310000Y-116480000D03*
D15*
X125450000Y-137500000D03*
X125450000Y-139500000D03*
D16*
X126430000Y-134410000D03*
X128430000Y-134410000D03*
X126490000Y-126820000D03*
X128490000Y-126820000D03*
D15*
X114500000Y-121320000D03*
X114500000Y-123320000D03*
X110220000Y-123410000D03*
X110220000Y-121410000D03*
X81200000Y-113700000D03*
X81200000Y-115700000D03*
X125480000Y-118250000D03*
X125480000Y-120250000D03*
D17*
X90650360Y-105250000D03*
X95049640Y-105250000D03*
D16*
X126290000Y-109330000D03*
X124290000Y-109330000D03*
X126300000Y-112590000D03*
X124300000Y-112590000D03*
D18*
X76450980Y-135000000D03*
X78549020Y-135000000D03*
X76450980Y-131750000D03*
X78549020Y-131750000D03*
X76450980Y-138500000D03*
X78549020Y-138500000D03*
D19*
X125475000Y-129400000D03*
X125475000Y-131300000D03*
X125460000Y-122420000D03*
X125460000Y-124320000D03*
D20*
X113520000Y-118660000D03*
X111620000Y-118660000D03*
X127970000Y-115590000D03*
X126070000Y-115590000D03*
D21*
X94950000Y-109725000D03*
X94950000Y-112775000D03*
D22*
X83902540Y-120999100D03*
X83902540Y-121649100D03*
X83902540Y-122299100D03*
X83902540Y-122949100D03*
X83902540Y-123599100D03*
D23*
X83902540Y-119799100D03*
X83902540Y-124799100D03*
D24*
X81202540Y-118799100D03*
X81202540Y-125799100D03*
D25*
X93310000Y-116510000D03*
D26*
X95850000Y-116510000D03*
D20*
X81300000Y-135000000D03*
X83200000Y-135000000D03*
X81300000Y-131750000D03*
X83200000Y-131750000D03*
X95860000Y-125120000D03*
X93960000Y-125120000D03*
X81300000Y-138500000D03*
X83200000Y-138500000D03*
X93880000Y-128920000D03*
X95780000Y-128920000D03*
D27*
X94500000Y-135250000D03*
X93000000Y-135250000D03*
D28*
X86150000Y-110450000D03*
X86150000Y-111950000D03*
X86150000Y-113650000D03*
X86150000Y-115150000D03*
X84150000Y-111950000D03*
X84150000Y-110450000D03*
X98550000Y-112550000D03*
X98550000Y-111050000D03*
X98550000Y-109325000D03*
X98550000Y-107825000D03*
D29*
X77400000Y-107240000D03*
X77400000Y-104700000D03*
X77400000Y-109780000D03*
D11*
X92760000Y-121000000D03*
X92760000Y-121500000D03*
X92760000Y-122000000D03*
X92760000Y-122500000D03*
X92760000Y-123000000D03*
X95860000Y-123000000D03*
X95860000Y-122500000D03*
X95860000Y-122000000D03*
X95860000Y-121500000D03*
X95860000Y-121000000D03*
D12*
X94697500Y-122620000D03*
X94697500Y-121380000D03*
X93922500Y-122620000D03*
X93922500Y-121380000D03*
D30*
X107950000Y-145340000D03*
X107950000Y-147840000D03*
X99550000Y-145340000D03*
X99550000Y-147840000D03*
D31*
X103750000Y-146340000D03*
D30*
X129660000Y-145380000D03*
X129660000Y-147880000D03*
X121260000Y-145380000D03*
X121260000Y-147880000D03*
D31*
X125460000Y-146380000D03*
D32*
X118750000Y-112945000D03*
X119250000Y-112945000D03*
X119750000Y-112945000D03*
X120250000Y-112945000D03*
X120750000Y-112945000D03*
D33*
X121715000Y-111980000D03*
X121715000Y-111480000D03*
X121715000Y-110980000D03*
X121715000Y-110480000D03*
X121715000Y-109980000D03*
D32*
X120750000Y-109015000D03*
X120250000Y-109015000D03*
X119750000Y-109015000D03*
X119250000Y-109015000D03*
X118750000Y-109015000D03*
D33*
X117785000Y-109980000D03*
X117785000Y-110480000D03*
X117785000Y-110980000D03*
X117785000Y-111480000D03*
X117785000Y-111980000D03*
D34*
X120375000Y-110355000D03*
X119125000Y-110355000D03*
X120375000Y-111605000D03*
X119125000Y-111605000D03*
D35*
X82860000Y-104690000D03*
X82860000Y-105640000D03*
X82860000Y-106590000D03*
X85060000Y-106590000D03*
X85060000Y-104690000D03*
D25*
X93970000Y-132280000D03*
D26*
X96510000Y-132280000D03*
D16*
X106560000Y-112360000D03*
X108560000Y-112360000D03*
X106560000Y-108550000D03*
X108560000Y-108550000D03*
D20*
X115130000Y-115470000D03*
X117030000Y-115470000D03*
D36*
X111220000Y-108500000D03*
X111220000Y-112300000D03*
X113520000Y-112300000D03*
X113520000Y-108500000D03*
D37*
X92600000Y-124100000D03*
X87400000Y-124500000D03*
X110400000Y-115810000D03*
X107550000Y-116980000D03*
X107550000Y-120050000D03*
X107620000Y-122740000D03*
X108710000Y-124780000D03*
X110470000Y-125280000D03*
X111930000Y-125650000D03*
X111650000Y-128500000D03*
X109970000Y-130150000D03*
X107720000Y-132320000D03*
X105420000Y-134760000D03*
X102980000Y-137200000D03*
X100480000Y-139930000D03*
X130140000Y-115030000D03*
X128830000Y-117430000D03*
X128360000Y-119970000D03*
X129200000Y-123630000D03*
X128890000Y-129880000D03*
X128850000Y-132510000D03*
X129840000Y-136280000D03*
X129520000Y-139050000D03*
X129700000Y-142240000D03*
X122270000Y-142940000D03*
X122450000Y-140860000D03*
X122420000Y-137850000D03*
X122450000Y-134450000D03*
X122640000Y-131290000D03*
X122570000Y-128320000D03*
X122490000Y-125760000D03*
X122790000Y-121940000D03*
X123180000Y-119140000D03*
X123100000Y-117020000D03*
X121660000Y-117060000D03*
X120940000Y-118300000D03*
X119680000Y-119710000D03*
X118300000Y-120630000D03*
X117680000Y-122440000D03*
X117670000Y-124430000D03*
X117660000Y-127210000D03*
X117660000Y-129870000D03*
X116760000Y-132130000D03*
X115030000Y-134110000D03*
X113390000Y-135650000D03*
X111530000Y-137490000D03*
X109690000Y-139900000D03*
X108140000Y-142360000D03*
X128380000Y-112590000D03*
X129840000Y-126820000D03*
X129970000Y-134390000D03*
X116320000Y-111470000D03*
X109850000Y-110440000D03*
X115030000Y-107980000D03*
X105290000Y-108550000D03*
X104980000Y-112390000D03*
X102730000Y-116460000D03*
X128380000Y-109360000D03*
X95050000Y-103550000D03*
X95050000Y-107100000D03*
X97600000Y-105250000D03*
X98550000Y-106700000D03*
X97500000Y-110200000D03*
X92600000Y-125100000D03*
X91700000Y-135300000D03*
X93000000Y-136500000D03*
X87450000Y-109200000D03*
X92075000Y-113425000D03*
X127970000Y-114030000D03*
X124310000Y-107010000D03*
X113250000Y-115450000D03*
X118480000Y-104060000D03*
D38*
X107620000Y-122740000D02*
X107550000Y-122670000D01*
X109890000Y-130150000D02*
X109970000Y-130150000D01*
X122450000Y-134450000D02*
X122420000Y-134480000D01*
X122570000Y-128320000D02*
X122640000Y-128390000D01*
X123100000Y-117020000D02*
X123180000Y-117100000D01*
X117670000Y-124430000D02*
X117680000Y-124420000D01*
X113370000Y-135650000D02*
X113390000Y-135650000D01*
X76450980Y-131750000D02*
X76450980Y-131399020D01*
X76450980Y-131399020D02*
X77300000Y-130550000D01*
X81950000Y-113700000D02*
X81200000Y-113700000D01*
X82600000Y-114350000D02*
X81950000Y-113700000D01*
X82600000Y-119400000D02*
X82600000Y-114350000D01*
X82150000Y-119850000D02*
X82600000Y-119400000D01*
X82150000Y-124850000D02*
X82150000Y-119850000D01*
X82900000Y-125600000D02*
X82150000Y-124850000D01*
X82900000Y-127900000D02*
X82900000Y-125600000D01*
X80250000Y-130550000D02*
X82900000Y-127900000D01*
X77300000Y-130550000D02*
X80250000Y-130550000D01*
X76450980Y-131750000D02*
X76450980Y-135000000D01*
X76450980Y-138500000D02*
X76450980Y-135000000D01*
D39*
X81200000Y-113700000D02*
X81200000Y-111650000D01*
X81200000Y-111650000D02*
X81350000Y-111650000D01*
X82550000Y-110450000D02*
X82550000Y-109450000D01*
X76450000Y-104700000D02*
X75600000Y-105550000D01*
X75600000Y-105550000D02*
X75600000Y-111050000D01*
X75600000Y-111050000D02*
X76200000Y-111650000D01*
X76200000Y-111650000D02*
X81350000Y-111650000D01*
X81350000Y-111650000D02*
X82550000Y-110450000D01*
X77400000Y-104700000D02*
X76450000Y-104700000D01*
X87900000Y-105250000D02*
X90650360Y-105250000D01*
X87100000Y-106050000D02*
X87900000Y-105250000D01*
X87100000Y-106750000D02*
X87100000Y-106050000D01*
X85500000Y-108350000D02*
X87100000Y-106750000D01*
X83650000Y-108350000D02*
X85500000Y-108350000D01*
X82550000Y-109450000D02*
X83650000Y-108350000D01*
X86150000Y-110450000D02*
X86150000Y-109150000D01*
X86150000Y-109150000D02*
X87650000Y-107650000D01*
X87650000Y-107650000D02*
X90200000Y-107650000D01*
X90200000Y-107650000D02*
X90650360Y-107199640D01*
X90650360Y-107199640D02*
X90650360Y-105250000D01*
D38*
X81450000Y-99900000D02*
X81450000Y-98050000D01*
D39*
X79250000Y-104700000D02*
X81450000Y-102500000D01*
X81450000Y-102500000D02*
X81450000Y-99900000D01*
X77400000Y-104700000D02*
X79250000Y-104700000D01*
X81700000Y-95750000D02*
X81500000Y-95950000D01*
X81700000Y-95750000D02*
X83110000Y-95750000D01*
D38*
X81650000Y-96100000D02*
X81500000Y-95950000D01*
X81650000Y-97850000D02*
X81650000Y-96100000D01*
X81450000Y-98050000D02*
X81650000Y-97850000D01*
D39*
X84150000Y-110450000D02*
X86150000Y-110450000D01*
D38*
X86150000Y-110450000D02*
X88650000Y-110450000D01*
D39*
X87500000Y-121000000D02*
X90930000Y-121000000D01*
D38*
X92760000Y-121500000D02*
X91430000Y-121500000D01*
X91430000Y-121500000D02*
X90930000Y-121000000D01*
X92760000Y-121000000D02*
X90930000Y-121000000D01*
X90930000Y-121000000D02*
X90910000Y-120980000D01*
D39*
X85420000Y-120999100D02*
X85069100Y-120999100D01*
X85050000Y-120980000D02*
X85050000Y-120999100D01*
X85069100Y-120999100D02*
X85050000Y-120980000D01*
D38*
X83902540Y-120999100D02*
X85050000Y-120999100D01*
X85420000Y-120999100D02*
X85469100Y-120999100D01*
X85469100Y-120999100D02*
X85470000Y-121000000D01*
D39*
X87500000Y-121000000D02*
X85470000Y-121000000D01*
X85470000Y-121000000D02*
X85430000Y-121000000D01*
X79450000Y-104700000D02*
X82850000Y-104700000D01*
D38*
X82850000Y-104700000D02*
X82860000Y-104690000D01*
D39*
X83110000Y-95750000D02*
X85650000Y-95750000D01*
D38*
X79440000Y-104700000D02*
X79450000Y-104700000D01*
D39*
X79440000Y-104700000D02*
X77400000Y-104700000D01*
D40*
X128380000Y-112590000D02*
X126300000Y-112590000D01*
D38*
X128490000Y-126820000D02*
X129840000Y-126820000D01*
X128430000Y-134410000D02*
X129950000Y-134410000D01*
X129950000Y-134410000D02*
X129970000Y-134390000D01*
X117785000Y-110980000D02*
X116810000Y-110980000D01*
X116810000Y-110980000D02*
X116320000Y-111470000D01*
X111220000Y-112300000D02*
X111220000Y-111010000D01*
X110650000Y-110440000D02*
X109850000Y-110440000D01*
X111220000Y-111010000D02*
X110650000Y-110440000D01*
X113520000Y-108500000D02*
X114510000Y-108500000D01*
X114510000Y-108500000D02*
X115030000Y-107980000D01*
X106560000Y-108550000D02*
X105290000Y-108550000D01*
X106560000Y-112360000D02*
X105010000Y-112360000D01*
X105010000Y-112360000D02*
X104980000Y-112390000D01*
X101310000Y-116480000D02*
X102710000Y-116480000D01*
X102710000Y-116480000D02*
X102730000Y-116460000D01*
D40*
X128350000Y-109330000D02*
X128380000Y-109360000D01*
X126290000Y-109330000D02*
X128350000Y-109330000D01*
D38*
X95049640Y-105250000D02*
X95049640Y-103550360D01*
X95049640Y-103550360D02*
X95050000Y-103550000D01*
X95049640Y-105250000D02*
X95049640Y-107099640D01*
X95049640Y-107099640D02*
X95050000Y-107100000D01*
X95049640Y-105250000D02*
X97600000Y-105250000D01*
X98550000Y-107825000D02*
X98550000Y-106700000D01*
D41*
X92800000Y-110950000D02*
X92900000Y-111050000D01*
X92900000Y-111050000D02*
X97125000Y-111050000D01*
X97125000Y-111050000D02*
X97500000Y-110675000D01*
X97500000Y-110200000D02*
X97500000Y-110675000D01*
X92800000Y-110950000D02*
X91750000Y-110950000D01*
D38*
X93960000Y-125120000D02*
X92620000Y-125120000D01*
X92620000Y-125120000D02*
X92600000Y-125100000D01*
X93000000Y-135250000D02*
X91750000Y-135250000D01*
X91750000Y-135250000D02*
X91700000Y-135300000D01*
X93000000Y-135250000D02*
X93000000Y-136500000D01*
D41*
X91750000Y-109950000D02*
X91750000Y-109000000D01*
X91750000Y-109000000D02*
X92275000Y-108475000D01*
D38*
X92075000Y-113425000D02*
X92075000Y-112975000D01*
D41*
X88200000Y-109950000D02*
X87450000Y-109200000D01*
X88650000Y-109950000D02*
X88200000Y-109950000D01*
D38*
X92075000Y-112975000D02*
X91875000Y-112775000D01*
X91750000Y-111950000D02*
X91750000Y-112650000D01*
X91875000Y-112775000D02*
X94950000Y-112775000D01*
X91750000Y-112650000D02*
X91875000Y-112775000D01*
D39*
X94950000Y-112775000D02*
X96350000Y-112775000D01*
X96350000Y-112775000D02*
X98550000Y-114975000D01*
X98550000Y-112550000D02*
X98550000Y-114975000D01*
X98550000Y-114975000D02*
X98550000Y-115720000D01*
X98550000Y-115720000D02*
X99310000Y-116480000D01*
X99310000Y-116480000D02*
X95880000Y-116480000D01*
X95880000Y-116480000D02*
X95850000Y-116510000D01*
D38*
X95900000Y-116460000D02*
X95850000Y-116510000D01*
D39*
X97760000Y-120640000D02*
X97400000Y-121000000D01*
X97760000Y-120640000D02*
X97760000Y-117060000D01*
X97210000Y-116510000D02*
X95850000Y-116510000D01*
X97760000Y-117060000D02*
X97210000Y-116510000D01*
D38*
X95860000Y-121500000D02*
X96900000Y-121500000D01*
X96900000Y-121500000D02*
X97400000Y-121000000D01*
X95860000Y-121000000D02*
X97400000Y-121000000D01*
D42*
X125475000Y-133905000D02*
X125475000Y-136615000D01*
X125475000Y-136615000D02*
X125450000Y-136640000D01*
X125475000Y-132150000D02*
X125475000Y-133905000D01*
D39*
X125990000Y-134390000D02*
X125990000Y-134420000D01*
X125990000Y-134420000D02*
X125460000Y-134950000D01*
X125990000Y-134390000D02*
X125960000Y-134390000D01*
X125960000Y-134390000D02*
X125470000Y-133900000D01*
X125475000Y-131300000D02*
X125475000Y-132150000D01*
X125475000Y-132150000D02*
X125475000Y-132155000D01*
X125475000Y-132155000D02*
X125460000Y-132170000D01*
X125450000Y-137500000D02*
X125450000Y-136640000D01*
X125450000Y-136640000D02*
X125460000Y-136630000D01*
D42*
X125450000Y-140730000D02*
X125450000Y-142700000D01*
D39*
X125460000Y-142710000D02*
X125460000Y-146380000D01*
D42*
X125450000Y-142700000D02*
X125460000Y-142710000D01*
D39*
X125450000Y-139500000D02*
X125450000Y-140730000D01*
X125450000Y-140730000D02*
X125460000Y-140740000D01*
D42*
X125475000Y-128415000D02*
X125475000Y-126395000D01*
X125475000Y-126395000D02*
X125590000Y-126280000D01*
X125590000Y-125280000D02*
X125590000Y-126280000D01*
D39*
X125460000Y-124320000D02*
X125460000Y-125150000D01*
X125460000Y-125150000D02*
X125590000Y-125280000D01*
X125500000Y-126370000D02*
X125950000Y-126820000D01*
D42*
X125590000Y-126280000D02*
X125500000Y-126370000D01*
D39*
X125475000Y-129400000D02*
X125475000Y-128415000D01*
X125475000Y-128415000D02*
X125470000Y-128410000D01*
X125950000Y-126820000D02*
X125950000Y-126940000D01*
X125950000Y-126940000D02*
X125510000Y-127380000D01*
X126490000Y-126820000D02*
X125950000Y-126820000D01*
D40*
X114560000Y-119240000D02*
X117730000Y-119240000D01*
X118170000Y-118800000D02*
X119750000Y-117220000D01*
D38*
X119750000Y-117220000D02*
X119750000Y-112945000D01*
D40*
X117730000Y-119240000D02*
X118170000Y-118800000D01*
D42*
X114560000Y-119240000D02*
X114560000Y-120360000D01*
D39*
X113980000Y-118660000D02*
X114560000Y-119240000D01*
X113520000Y-118660000D02*
X113980000Y-118660000D01*
X114500000Y-120420000D02*
X114500000Y-121320000D01*
D42*
X114560000Y-120360000D02*
X114500000Y-120420000D01*
X114610000Y-124360000D02*
X114610000Y-126200000D01*
X103750000Y-140610000D02*
X114610000Y-129750000D01*
X114610000Y-129750000D02*
X114610000Y-126200000D01*
X103750000Y-140610000D02*
X103750000Y-146340000D01*
D38*
X118300000Y-116920000D02*
X112030000Y-116920000D01*
X118300000Y-116920000D02*
X119250000Y-115970000D01*
X119250000Y-112945000D02*
X119250000Y-115970000D01*
X111620000Y-117330000D02*
X111620000Y-118660000D01*
X112030000Y-116920000D02*
X111620000Y-117330000D01*
D42*
X110220000Y-120540000D02*
X110220000Y-118950000D01*
X110220000Y-118950000D02*
X110380000Y-118790000D01*
D39*
X110220000Y-121410000D02*
X110220000Y-120540000D01*
X110220000Y-120540000D02*
X110280000Y-120480000D01*
X111620000Y-118660000D02*
X111140000Y-118660000D01*
X111140000Y-118660000D02*
X110600000Y-119200000D01*
X110220000Y-121410000D02*
X110220000Y-121280000D01*
D42*
X125480000Y-117460000D02*
X125480000Y-116350000D01*
D39*
X125400000Y-116270000D02*
X126070000Y-115600000D01*
D42*
X125480000Y-116350000D02*
X125400000Y-116270000D01*
D39*
X126070000Y-115590000D02*
X126070000Y-115600000D01*
X126070000Y-115590000D02*
X124640000Y-115590000D01*
D38*
X120250000Y-114600000D02*
X121190000Y-115540000D01*
X124490000Y-115540000D02*
X124590000Y-115540000D01*
D40*
X121190000Y-115540000D02*
X124490000Y-115540000D01*
D38*
X120250000Y-114600000D02*
X120250000Y-112945000D01*
D39*
X124640000Y-115590000D02*
X124590000Y-115540000D01*
X125480000Y-118250000D02*
X125480000Y-117460000D01*
X125480000Y-117460000D02*
X125470000Y-117450000D01*
D42*
X125460000Y-121720000D02*
X125460000Y-121000000D01*
X125460000Y-121000000D02*
X125480000Y-120980000D01*
D39*
X125460000Y-122420000D02*
X125460000Y-121720000D01*
X125460000Y-121720000D02*
X125470000Y-121710000D01*
X125480000Y-120250000D02*
X125480000Y-120980000D01*
X125480000Y-120980000D02*
X125460000Y-121000000D01*
X127970000Y-114030000D02*
X127970000Y-115590000D01*
X124310000Y-109310000D02*
X124310000Y-107010000D01*
X124310000Y-109310000D02*
X124290000Y-109330000D01*
X113250000Y-115450000D02*
X113270000Y-115470000D01*
X113270000Y-115470000D02*
X115130000Y-115470000D01*
D38*
X124290000Y-109330000D02*
X124290000Y-112390000D01*
X124290000Y-112390000D02*
X124120000Y-112560000D01*
X121715000Y-110980000D02*
X122660000Y-110980000D01*
X123130000Y-109330000D02*
X124290000Y-109330000D01*
X122990000Y-109470000D02*
X123130000Y-109330000D01*
X122990000Y-110650000D02*
X122990000Y-109470000D01*
X122660000Y-110980000D02*
X122990000Y-110650000D01*
X124120000Y-112560000D02*
X123260000Y-112560000D01*
X122680000Y-111980000D02*
X121715000Y-111980000D01*
X123260000Y-112560000D02*
X122680000Y-111980000D01*
X78549020Y-135000000D02*
X81300000Y-135000000D01*
X78549020Y-131750000D02*
X81300000Y-131750000D01*
X78549020Y-138500000D02*
X81300000Y-138500000D01*
X91750000Y-110450000D02*
X94225000Y-110450000D01*
X94225000Y-110450000D02*
X94950000Y-109725000D01*
X95860000Y-123000000D02*
X97000000Y-123000000D01*
X97060000Y-125120000D02*
X95860000Y-125120000D01*
X97310000Y-124870000D02*
X97060000Y-125120000D01*
X97310000Y-123310000D02*
X97310000Y-124870000D01*
X97000000Y-123000000D02*
X97310000Y-123310000D01*
X95860000Y-122500000D02*
X97220000Y-122500000D01*
X86030000Y-138500000D02*
X83200000Y-138500000D01*
X86640000Y-137890000D02*
X86030000Y-138500000D01*
X86640000Y-132710000D02*
X86640000Y-137890000D01*
X90450000Y-128900000D02*
X86640000Y-132710000D01*
X90450000Y-127440000D02*
X90450000Y-128900000D01*
X91410000Y-126480000D02*
X90450000Y-127440000D01*
X96950000Y-126480000D02*
X91410000Y-126480000D01*
X97870000Y-125560000D02*
X96950000Y-126480000D01*
X97870000Y-123150000D02*
X97870000Y-125560000D01*
X97220000Y-122500000D02*
X97870000Y-123150000D01*
X95860000Y-122000000D02*
X97400000Y-122000000D01*
X96940000Y-128920000D02*
X95780000Y-128920000D01*
X98360000Y-127500000D02*
X96940000Y-128920000D01*
X98360000Y-122960000D02*
X98360000Y-127500000D01*
X97400000Y-122000000D02*
X98360000Y-122960000D01*
X86150000Y-111950000D02*
X86150000Y-113650000D01*
X86150000Y-111950000D02*
X86150000Y-111750000D01*
X86150000Y-111750000D02*
X86550000Y-111350000D01*
X86550000Y-111350000D02*
X86950000Y-111350000D01*
X86950000Y-111350000D02*
X87350000Y-110950000D01*
X87350000Y-110950000D02*
X88650000Y-110950000D01*
D41*
X87150000Y-112500000D02*
X87150000Y-114200000D01*
D38*
X84150000Y-112600000D02*
X84150000Y-111950000D01*
D41*
X84350000Y-112800000D02*
X84150000Y-112600000D01*
X84900000Y-112800000D02*
X84350000Y-112800000D01*
X85150000Y-113050000D02*
X84900000Y-112800000D01*
X85150000Y-114250000D02*
X85150000Y-113050000D01*
X85350000Y-114450000D02*
X85150000Y-114250000D01*
X86900000Y-114450000D02*
X85350000Y-114450000D01*
X87150000Y-114200000D02*
X86900000Y-114450000D01*
D38*
X88650000Y-111450000D02*
X87550000Y-111450000D01*
X87550000Y-111450000D02*
X87150000Y-111850000D01*
X87150000Y-111850000D02*
X87150000Y-112500000D01*
X87150000Y-112500000D02*
X87150000Y-112550000D01*
D41*
X91750000Y-111450000D02*
X92500000Y-111450000D01*
X98550000Y-111350000D02*
X98550000Y-111050000D01*
X98425000Y-111475000D02*
X98550000Y-111350000D01*
X92525000Y-111475000D02*
X98425000Y-111475000D01*
X92500000Y-111450000D02*
X92525000Y-111475000D01*
D39*
X98550000Y-109325000D02*
X98550000Y-111050000D01*
D38*
X77400000Y-107240000D02*
X80640000Y-107240000D01*
X81290000Y-106590000D02*
X82860000Y-106590000D01*
X80640000Y-107240000D02*
X81290000Y-106590000D01*
X120750000Y-109015000D02*
X120750000Y-106610000D01*
X128830000Y-104160000D02*
X128830000Y-98290000D01*
X127670000Y-105320000D02*
X128830000Y-104160000D01*
X122040000Y-105320000D02*
X127670000Y-105320000D01*
X120750000Y-106610000D02*
X122040000Y-105320000D01*
X111050000Y-98290000D02*
X111050000Y-99080000D01*
X111050000Y-99080000D02*
X112310000Y-100340000D01*
X112310000Y-100340000D02*
X119040000Y-100340000D01*
X119040000Y-100340000D02*
X120250000Y-101550000D01*
X120250000Y-101550000D02*
X120250000Y-109015000D01*
X119750000Y-109015000D02*
X119750000Y-102260000D01*
X108510000Y-100240000D02*
X108510000Y-98290000D01*
X109270000Y-101000000D02*
X108510000Y-100240000D01*
X118490000Y-101000000D02*
X109270000Y-101000000D01*
X119750000Y-102260000D02*
X118490000Y-101000000D01*
X105970000Y-98290000D02*
X105970000Y-100090000D01*
X119250000Y-102570000D02*
X119250000Y-109015000D01*
X118300000Y-101620000D02*
X119250000Y-102570000D01*
X107500000Y-101620000D02*
X118300000Y-101620000D01*
X105970000Y-100090000D02*
X107500000Y-101620000D01*
X106450000Y-98770000D02*
X105970000Y-98290000D01*
D41*
X106450000Y-98770000D02*
X105970000Y-98290000D01*
D38*
X118750000Y-104330000D02*
X118750000Y-104530000D01*
X118750000Y-109015000D02*
X118750000Y-104530000D01*
X118480000Y-104060000D02*
X118750000Y-104330000D01*
X85060000Y-106590000D02*
X84650000Y-106590000D01*
X84650000Y-106590000D02*
X83960000Y-105900000D01*
X83960000Y-105900000D02*
X83960000Y-103680000D01*
X83960000Y-103680000D02*
X85650000Y-101990000D01*
X85650000Y-101990000D02*
X85650000Y-98290000D01*
X85060000Y-104690000D02*
X86610000Y-104690000D01*
X88190000Y-103110000D02*
X88190000Y-98290000D01*
X86610000Y-104690000D02*
X88190000Y-103110000D01*
X92760000Y-122500000D02*
X90430000Y-122500000D01*
X85740000Y-135000000D02*
X83200000Y-135000000D01*
X86150000Y-134590000D02*
X85740000Y-135000000D01*
X86150000Y-132520000D02*
X86150000Y-134590000D01*
X89980000Y-128690000D02*
X86150000Y-132520000D01*
X89980000Y-122950000D02*
X89980000Y-128690000D01*
X90430000Y-122500000D02*
X89980000Y-122950000D01*
X83200000Y-131750000D02*
X86250000Y-131750000D01*
X90250000Y-122000000D02*
X92760000Y-122000000D01*
X89500000Y-122750000D02*
X90250000Y-122000000D01*
X89500000Y-128500000D02*
X89500000Y-122750000D01*
X86250000Y-131750000D02*
X89500000Y-128500000D01*
X94500000Y-135250000D02*
X95600000Y-135250000D01*
X95600000Y-135250000D02*
X96530000Y-134320000D01*
X96530000Y-134320000D02*
X96530000Y-132300000D01*
X96530000Y-132300000D02*
X96510000Y-132280000D01*
X96510000Y-132280000D02*
X96510000Y-130870000D01*
X93880000Y-130030000D02*
X93880000Y-128920000D01*
X94140000Y-130290000D02*
X93880000Y-130030000D01*
X95930000Y-130290000D02*
X94140000Y-130290000D01*
X96510000Y-130870000D02*
X95930000Y-130290000D01*
X108560000Y-112360000D02*
X108560000Y-113180000D01*
X113520000Y-113470000D02*
X113520000Y-112300000D01*
X112960000Y-114030000D02*
X113520000Y-113470000D01*
X109410000Y-114030000D02*
X112960000Y-114030000D01*
X108560000Y-113180000D02*
X109410000Y-114030000D01*
X113520000Y-112300000D02*
X114840000Y-112300000D01*
X115560000Y-110480000D02*
X117785000Y-110480000D01*
X115280000Y-110760000D02*
X115560000Y-110480000D01*
X115280000Y-111860000D02*
X115280000Y-110760000D01*
X114840000Y-112300000D02*
X115280000Y-111860000D01*
X108560000Y-108550000D02*
X111170000Y-108550000D01*
X111170000Y-108550000D02*
X111220000Y-108500000D01*
X111220000Y-108500000D02*
X111220000Y-106970000D01*
X116320000Y-109980000D02*
X117785000Y-109980000D01*
X115910000Y-109570000D02*
X116320000Y-109980000D01*
X115910000Y-106930000D02*
X115910000Y-109570000D01*
X115150000Y-106170000D02*
X115910000Y-106930000D01*
X112020000Y-106170000D02*
X115150000Y-106170000D01*
X111220000Y-106970000D02*
X112020000Y-106170000D01*
X117030000Y-115470000D02*
X117540000Y-115470000D01*
X118750000Y-114260000D02*
X118750000Y-112945000D01*
X117540000Y-115470000D02*
X118750000Y-114260000D01*
D43*
G36*
X93397000Y-98163000D02*
X93417000Y-98163000D01*
X93417000Y-98417000D01*
X93397000Y-98417000D01*
X93397000Y-99623817D01*
X93629026Y-99744958D01*
X94044947Y-99572688D01*
X94476821Y-99178490D01*
X94534336Y-99055772D01*
X94750330Y-99379029D01*
X95236511Y-99703885D01*
X95810000Y-99817959D01*
X96383489Y-99703885D01*
X96869670Y-99379029D01*
X97080000Y-99064248D01*
X97290330Y-99379029D01*
X97776511Y-99703885D01*
X98350000Y-99817959D01*
X98923489Y-99703885D01*
X99409670Y-99379029D01*
X99620000Y-99064248D01*
X99830330Y-99379029D01*
X100316511Y-99703885D01*
X100890000Y-99817959D01*
X101463489Y-99703885D01*
X101949670Y-99379029D01*
X102160000Y-99064248D01*
X102370330Y-99379029D01*
X102856511Y-99703885D01*
X103430000Y-99817959D01*
X104003489Y-99703885D01*
X104489670Y-99379029D01*
X104700000Y-99064248D01*
X104910330Y-99379029D01*
X105210000Y-99579262D01*
X105210000Y-100090000D01*
X105267852Y-100380839D01*
X105432599Y-100627401D01*
X106962599Y-102157401D01*
X107209161Y-102322148D01*
X107500000Y-102380000D01*
X117985198Y-102380000D01*
X118490000Y-102884802D01*
X118490000Y-103125008D01*
X118294833Y-103124838D01*
X117951057Y-103266883D01*
X117687808Y-103529673D01*
X117545162Y-103873201D01*
X117544838Y-104245167D01*
X117686883Y-104588943D01*
X117949673Y-104852192D01*
X117990000Y-104868937D01*
X117990000Y-108465116D01*
X117952560Y-108650000D01*
X117952560Y-109182560D01*
X117420000Y-109182560D01*
X117221024Y-109220000D01*
X116670000Y-109220000D01*
X116670000Y-106930000D01*
X116637179Y-106765000D01*
X116612148Y-106639160D01*
X116447401Y-106392599D01*
X115687401Y-105632599D01*
X115440839Y-105467852D01*
X115150000Y-105410000D01*
X112020000Y-105410000D01*
X111729161Y-105467852D01*
X111482599Y-105632599D01*
X110682599Y-106432599D01*
X110517852Y-106679161D01*
X110460000Y-106970000D01*
X110460000Y-107073258D01*
X110334683Y-107096838D01*
X110118559Y-107235910D01*
X109973569Y-107448110D01*
X109922560Y-107700000D01*
X109922560Y-107790000D01*
X109682038Y-107790000D01*
X109663162Y-107689683D01*
X109524090Y-107473559D01*
X109311890Y-107328569D01*
X109060000Y-107277560D01*
X108060000Y-107277560D01*
X107824683Y-107321838D01*
X107608559Y-107460910D01*
X107562031Y-107529006D01*
X107419698Y-107386673D01*
X107186309Y-107290000D01*
X106845750Y-107290000D01*
X106687000Y-107448750D01*
X106687000Y-108423000D01*
X106707000Y-108423000D01*
X106707000Y-108677000D01*
X106687000Y-108677000D01*
X106687000Y-109651250D01*
X106845750Y-109810000D01*
X107186309Y-109810000D01*
X107419698Y-109713327D01*
X107560936Y-109572090D01*
X107595910Y-109626441D01*
X107808110Y-109771431D01*
X108060000Y-109822440D01*
X109060000Y-109822440D01*
X109295317Y-109778162D01*
X109511441Y-109639090D01*
X109656431Y-109426890D01*
X109680102Y-109310000D01*
X109924442Y-109310000D01*
X109966838Y-109535317D01*
X110105910Y-109751441D01*
X110318110Y-109896431D01*
X110570000Y-109947440D01*
X111870000Y-109947440D01*
X112105317Y-109903162D01*
X112321441Y-109764090D01*
X112367969Y-109695994D01*
X112510301Y-109838327D01*
X112743690Y-109935000D01*
X113234250Y-109935000D01*
X113393000Y-109776250D01*
X113393000Y-108627000D01*
X113647000Y-108627000D01*
X113647000Y-109776250D01*
X113805750Y-109935000D01*
X114296310Y-109935000D01*
X114529699Y-109838327D01*
X114708327Y-109659698D01*
X114805000Y-109426309D01*
X114805000Y-108785750D01*
X114646250Y-108627000D01*
X113647000Y-108627000D01*
X113393000Y-108627000D01*
X113373000Y-108627000D01*
X113373000Y-108373000D01*
X113393000Y-108373000D01*
X113393000Y-107223750D01*
X113647000Y-107223750D01*
X113647000Y-108373000D01*
X114646250Y-108373000D01*
X114805000Y-108214250D01*
X114805000Y-107573691D01*
X114708327Y-107340302D01*
X114529699Y-107161673D01*
X114296310Y-107065000D01*
X113805750Y-107065000D01*
X113647000Y-107223750D01*
X113393000Y-107223750D01*
X113234250Y-107065000D01*
X112743690Y-107065000D01*
X112510301Y-107161673D01*
X112369064Y-107302911D01*
X112334090Y-107248559D01*
X112145263Y-107119539D01*
X112334802Y-106930000D01*
X114835198Y-106930000D01*
X115150000Y-107244802D01*
X115150000Y-109570000D01*
X115200474Y-109823747D01*
X115022599Y-109942599D01*
X114742599Y-110222599D01*
X114577852Y-110469161D01*
X114520000Y-110760000D01*
X114520000Y-110970605D01*
X114421890Y-110903569D01*
X114170000Y-110852560D01*
X112870000Y-110852560D01*
X112634683Y-110896838D01*
X112418559Y-111035910D01*
X112372031Y-111104006D01*
X112229699Y-110961673D01*
X111996310Y-110865000D01*
X111505750Y-110865000D01*
X111347000Y-111023750D01*
X111347000Y-112173000D01*
X111367000Y-112173000D01*
X111367000Y-112427000D01*
X111347000Y-112427000D01*
X111347000Y-112447000D01*
X111093000Y-112447000D01*
X111093000Y-112427000D01*
X110093750Y-112427000D01*
X109935000Y-112585750D01*
X109935000Y-113226309D01*
X109953097Y-113270000D01*
X109724802Y-113270000D01*
X109662369Y-113207567D01*
X109707440Y-112985000D01*
X109707440Y-111735000D01*
X109663162Y-111499683D01*
X109582089Y-111373691D01*
X109935000Y-111373691D01*
X109935000Y-112014250D01*
X110093750Y-112173000D01*
X111093000Y-112173000D01*
X111093000Y-111023750D01*
X110934250Y-110865000D01*
X110443690Y-110865000D01*
X110210301Y-110961673D01*
X110031673Y-111140302D01*
X109935000Y-111373691D01*
X109582089Y-111373691D01*
X109524090Y-111283559D01*
X109311890Y-111138569D01*
X109060000Y-111087560D01*
X108060000Y-111087560D01*
X107824683Y-111131838D01*
X107608559Y-111270910D01*
X107562031Y-111339006D01*
X107419698Y-111196673D01*
X107186309Y-111100000D01*
X106845750Y-111100000D01*
X106687000Y-111258750D01*
X106687000Y-112233000D01*
X106707000Y-112233000D01*
X106707000Y-112487000D01*
X106687000Y-112487000D01*
X106687000Y-113461250D01*
X106845750Y-113620000D01*
X107186309Y-113620000D01*
X107419698Y-113523327D01*
X107560936Y-113382090D01*
X107595910Y-113436441D01*
X107808110Y-113581431D01*
X107951094Y-113610386D01*
X108022599Y-113717401D01*
X108872599Y-114567401D01*
X109119161Y-114732148D01*
X109410000Y-114790000D01*
X112587707Y-114790000D01*
X112457808Y-114919673D01*
X112315162Y-115263201D01*
X112314838Y-115635167D01*
X112456883Y-115978943D01*
X112637624Y-116160000D01*
X112030000Y-116160000D01*
X111739161Y-116217852D01*
X111492599Y-116382599D01*
X111082599Y-116792599D01*
X111072480Y-116807743D01*
X110641287Y-116721974D01*
X110928943Y-116603117D01*
X111192192Y-116340327D01*
X111334838Y-115996799D01*
X111335162Y-115624833D01*
X111193117Y-115281057D01*
X110930327Y-115017808D01*
X110586799Y-114875162D01*
X110214833Y-114874838D01*
X109871057Y-115016883D01*
X109607808Y-115279673D01*
X109465162Y-115623201D01*
X109464838Y-115995167D01*
X109606883Y-116338943D01*
X109869673Y-116602192D01*
X110145369Y-116716672D01*
X109568711Y-116831375D01*
X108880934Y-117290934D01*
X108720934Y-117450934D01*
X108261375Y-118138711D01*
X108100000Y-118950000D01*
X108100000Y-119277515D01*
X108080327Y-119257808D01*
X107736799Y-119115162D01*
X107364833Y-119114838D01*
X107021057Y-119256883D01*
X106757808Y-119519673D01*
X106615162Y-119863201D01*
X106614838Y-120235167D01*
X106756883Y-120578943D01*
X107019673Y-120842192D01*
X107363201Y-120984838D01*
X107735167Y-120985162D01*
X108078943Y-120843117D01*
X108146816Y-120775362D01*
X108261375Y-121351289D01*
X108720934Y-122039066D01*
X109076232Y-122276469D01*
X109130910Y-122361441D01*
X109199006Y-122407969D01*
X109056673Y-122550302D01*
X108960000Y-122783691D01*
X108960000Y-123124250D01*
X109118750Y-123283000D01*
X110093000Y-123283000D01*
X110093000Y-123263000D01*
X110347000Y-123263000D01*
X110347000Y-123283000D01*
X111321250Y-123283000D01*
X111480000Y-123124250D01*
X111480000Y-122783691D01*
X111383327Y-122550302D01*
X111242090Y-122409064D01*
X111296441Y-122374090D01*
X111362617Y-122277238D01*
X111719066Y-122039066D01*
X112178625Y-121351289D01*
X112340000Y-120540000D01*
X112340000Y-119826496D01*
X112421441Y-119774090D01*
X112440000Y-119746928D01*
X112440000Y-120118362D01*
X112380001Y-120420000D01*
X112541375Y-121231289D01*
X113000934Y-121919066D01*
X113322367Y-122133841D01*
X113410910Y-122271441D01*
X113480711Y-122319134D01*
X113423559Y-122355910D01*
X113278569Y-122568110D01*
X113236224Y-122777218D01*
X113110934Y-122860934D01*
X112651375Y-123548711D01*
X112490000Y-124360000D01*
X112490000Y-124887533D01*
X112460327Y-124857808D01*
X112116799Y-124715162D01*
X111744833Y-124714838D01*
X111401057Y-124856883D01*
X111334356Y-124923468D01*
X111263117Y-124751057D01*
X111032230Y-124519766D01*
X111204699Y-124448327D01*
X111383327Y-124269698D01*
X111480000Y-124036309D01*
X111480000Y-123695750D01*
X111321250Y-123537000D01*
X110347000Y-123537000D01*
X110347000Y-123557000D01*
X110093000Y-123557000D01*
X110093000Y-123537000D01*
X109118750Y-123537000D01*
X108960000Y-123695750D01*
X108960000Y-123871405D01*
X108896799Y-123845162D01*
X108524833Y-123844838D01*
X108181057Y-123986883D01*
X107917808Y-124249673D01*
X107775162Y-124593201D01*
X107774838Y-124965167D01*
X107916883Y-125308943D01*
X108179673Y-125572192D01*
X108523201Y-125714838D01*
X108895167Y-125715162D01*
X109238943Y-125573117D01*
X109502192Y-125310327D01*
X109535042Y-125231216D01*
X109534838Y-125465167D01*
X109676883Y-125808943D01*
X109939673Y-126072192D01*
X110283201Y-126214838D01*
X110655167Y-126215162D01*
X110998943Y-126073117D01*
X111065644Y-126006532D01*
X111136883Y-126178943D01*
X111399673Y-126442192D01*
X111743201Y-126584838D01*
X112115167Y-126585162D01*
X112458943Y-126443117D01*
X112490000Y-126412114D01*
X112490000Y-128084523D01*
X112443117Y-127971057D01*
X112180327Y-127707808D01*
X111836799Y-127565162D01*
X111464833Y-127564838D01*
X111121057Y-127706883D01*
X110857808Y-127969673D01*
X110715162Y-128313201D01*
X110714838Y-128685167D01*
X110856883Y-129028943D01*
X111119673Y-129292192D01*
X111463201Y-129434838D01*
X111835167Y-129435162D01*
X111991160Y-129370707D01*
X110819463Y-130542404D01*
X110904838Y-130336799D01*
X110905162Y-129964833D01*
X110763117Y-129621057D01*
X110500327Y-129357808D01*
X110156799Y-129215162D01*
X109784833Y-129214838D01*
X109441057Y-129356883D01*
X109177808Y-129619673D01*
X109035162Y-129963201D01*
X109034838Y-130335167D01*
X109176883Y-130678943D01*
X109439673Y-130942192D01*
X109783201Y-131084838D01*
X110155167Y-131085162D01*
X110362284Y-130999583D01*
X108512655Y-132849213D01*
X108654838Y-132506799D01*
X108655162Y-132134833D01*
X108513117Y-131791057D01*
X108250327Y-131527808D01*
X107906799Y-131385162D01*
X107534833Y-131384838D01*
X107191057Y-131526883D01*
X106927808Y-131789673D01*
X106785162Y-132133201D01*
X106784838Y-132505167D01*
X106926883Y-132848943D01*
X107189673Y-133112192D01*
X107533201Y-133254838D01*
X107905167Y-133255162D01*
X108248615Y-133113253D01*
X106312068Y-135049799D01*
X106354838Y-134946799D01*
X106355162Y-134574833D01*
X106213117Y-134231057D01*
X105950327Y-133967808D01*
X105606799Y-133825162D01*
X105234833Y-133824838D01*
X104891057Y-133966883D01*
X104627808Y-134229673D01*
X104485162Y-134573201D01*
X104484838Y-134945167D01*
X104626883Y-135288943D01*
X104889673Y-135552192D01*
X105233201Y-135694838D01*
X105605167Y-135695162D01*
X105710037Y-135651831D01*
X103872068Y-137489800D01*
X103914838Y-137386799D01*
X103915162Y-137014833D01*
X103773117Y-136671057D01*
X103510327Y-136407808D01*
X103166799Y-136265162D01*
X102794833Y-136264838D01*
X102451057Y-136406883D01*
X102187808Y-136669673D01*
X102045162Y-137013201D01*
X102044838Y-137385167D01*
X102186883Y-137728943D01*
X102449673Y-137992192D01*
X102793201Y-138134838D01*
X103165167Y-138135162D01*
X103270037Y-138091831D01*
X102250934Y-139110934D01*
X101791375Y-139798711D01*
X101630000Y-140610000D01*
X101630000Y-146340000D01*
X101791375Y-147151289D01*
X102250934Y-147839066D01*
X102352560Y-147906970D01*
X102352560Y-148835000D01*
X100985000Y-148835000D01*
X100985000Y-148125750D01*
X100826250Y-147967000D01*
X99677000Y-147967000D01*
X99677000Y-147987000D01*
X99423000Y-147987000D01*
X99423000Y-147967000D01*
X98273750Y-147967000D01*
X98115000Y-148125750D01*
X98115000Y-148835000D01*
X77807467Y-148835000D01*
X76859225Y-148646383D01*
X76112537Y-148147463D01*
X75613617Y-147400777D01*
X75425000Y-146452533D01*
X75425000Y-145625750D01*
X98115000Y-145625750D01*
X98115000Y-147554250D01*
X98273750Y-147713000D01*
X99423000Y-147713000D01*
X99423000Y-145467000D01*
X99677000Y-145467000D01*
X99677000Y-147713000D01*
X100826250Y-147713000D01*
X100985000Y-147554250D01*
X100985000Y-145625750D01*
X100826250Y-145467000D01*
X99677000Y-145467000D01*
X99423000Y-145467000D01*
X98273750Y-145467000D01*
X98115000Y-145625750D01*
X75425000Y-145625750D01*
X75425000Y-143963690D01*
X98115000Y-143963690D01*
X98115000Y-145054250D01*
X98273750Y-145213000D01*
X99423000Y-145213000D01*
X99423000Y-143613750D01*
X99677000Y-143613750D01*
X99677000Y-145213000D01*
X100826250Y-145213000D01*
X100985000Y-145054250D01*
X100985000Y-143963690D01*
X100888327Y-143730301D01*
X100709698Y-143551673D01*
X100476309Y-143455000D01*
X99835750Y-143455000D01*
X99677000Y-143613750D01*
X99423000Y-143613750D01*
X99264250Y-143455000D01*
X98623691Y-143455000D01*
X98390302Y-143551673D01*
X98211673Y-143730301D01*
X98115000Y-143963690D01*
X75425000Y-143963690D01*
X75425000Y-140115167D01*
X99544838Y-140115167D01*
X99686883Y-140458943D01*
X99949673Y-140722192D01*
X100293201Y-140864838D01*
X100665167Y-140865162D01*
X101008943Y-140723117D01*
X101272192Y-140460327D01*
X101414838Y-140116799D01*
X101415162Y-139744833D01*
X101273117Y-139401057D01*
X101010327Y-139137808D01*
X100666799Y-138995162D01*
X100294833Y-138994838D01*
X99951057Y-139136883D01*
X99687808Y-139399673D01*
X99545162Y-139743201D01*
X99544838Y-140115167D01*
X75425000Y-140115167D01*
X75425000Y-139576538D01*
X75599650Y-139695871D01*
X75851540Y-139746880D01*
X77050420Y-139746880D01*
X77285737Y-139702602D01*
X77501861Y-139563530D01*
X77502543Y-139562533D01*
X77697690Y-139695871D01*
X77949580Y-139746880D01*
X79148460Y-139746880D01*
X79383777Y-139702602D01*
X79599901Y-139563530D01*
X79744891Y-139351330D01*
X79763386Y-139260000D01*
X80323258Y-139260000D01*
X80346838Y-139385317D01*
X80485910Y-139601441D01*
X80698110Y-139746431D01*
X80950000Y-139797440D01*
X81650000Y-139797440D01*
X81885317Y-139753162D01*
X82101441Y-139614090D01*
X82246431Y-139401890D01*
X82249081Y-139388803D01*
X82385910Y-139601441D01*
X82598110Y-139746431D01*
X82850000Y-139797440D01*
X83550000Y-139797440D01*
X83785317Y-139753162D01*
X84001441Y-139614090D01*
X84146431Y-139401890D01*
X84175164Y-139260000D01*
X86030000Y-139260000D01*
X86320839Y-139202148D01*
X86567401Y-139037401D01*
X87177401Y-138427401D01*
X87342148Y-138180840D01*
X87400000Y-137890000D01*
X87400000Y-135535750D01*
X92115000Y-135535750D01*
X92115000Y-135826310D01*
X92211673Y-136059699D01*
X92390302Y-136238327D01*
X92623691Y-136335000D01*
X92716250Y-136335000D01*
X92875000Y-136176250D01*
X92875000Y-135377000D01*
X92273750Y-135377000D01*
X92115000Y-135535750D01*
X87400000Y-135535750D01*
X87400000Y-134673690D01*
X92115000Y-134673690D01*
X92115000Y-134964250D01*
X92273750Y-135123000D01*
X92875000Y-135123000D01*
X92875000Y-134323750D01*
X92716250Y-134165000D01*
X92623691Y-134165000D01*
X92390302Y-134261673D01*
X92211673Y-134440301D01*
X92115000Y-134673690D01*
X87400000Y-134673690D01*
X87400000Y-133024802D01*
X87859052Y-132565750D01*
X92319000Y-132565750D01*
X92319000Y-133422309D01*
X92415673Y-133655698D01*
X92594301Y-133834327D01*
X92827690Y-133931000D01*
X93684250Y-133931000D01*
X93843000Y-133772250D01*
X93843000Y-132407000D01*
X92477750Y-132407000D01*
X92319000Y-132565750D01*
X87859052Y-132565750D01*
X90987401Y-129437401D01*
X91152148Y-129190839D01*
X91210000Y-128900000D01*
X91210000Y-127754802D01*
X91724802Y-127240000D01*
X96950000Y-127240000D01*
X97240839Y-127182148D01*
X97487401Y-127017401D01*
X97600000Y-126904802D01*
X97600000Y-127185198D01*
X96735910Y-128049288D01*
X96733162Y-128034683D01*
X96594090Y-127818559D01*
X96381890Y-127673569D01*
X96130000Y-127622560D01*
X95430000Y-127622560D01*
X95194683Y-127666838D01*
X94978559Y-127805910D01*
X94833569Y-128018110D01*
X94830919Y-128031197D01*
X94694090Y-127818559D01*
X94481890Y-127673569D01*
X94230000Y-127622560D01*
X93530000Y-127622560D01*
X93294683Y-127666838D01*
X93078559Y-127805910D01*
X92933569Y-128018110D01*
X92882560Y-128270000D01*
X92882560Y-129570000D01*
X92926838Y-129805317D01*
X93065910Y-130021441D01*
X93126538Y-130062866D01*
X93177852Y-130320839D01*
X93342599Y-130567401D01*
X93404198Y-130629000D01*
X92827690Y-130629000D01*
X92594301Y-130725673D01*
X92415673Y-130904302D01*
X92319000Y-131137691D01*
X92319000Y-131994250D01*
X92477750Y-132153000D01*
X93843000Y-132153000D01*
X93843000Y-132133000D01*
X94097000Y-132133000D01*
X94097000Y-132153000D01*
X94117000Y-132153000D01*
X94117000Y-132407000D01*
X94097000Y-132407000D01*
X94097000Y-133772250D01*
X94255750Y-133931000D01*
X95112310Y-133931000D01*
X95345699Y-133834327D01*
X95524327Y-133655698D01*
X95541999Y-133613034D01*
X95770000Y-133765380D01*
X95770000Y-134005198D01*
X95297311Y-134477887D01*
X95214090Y-134348559D01*
X95001890Y-134203569D01*
X94750000Y-134152560D01*
X94250000Y-134152560D01*
X94014683Y-134196838D01*
X93798559Y-134335910D01*
X93752031Y-134404006D01*
X93609698Y-134261673D01*
X93376309Y-134165000D01*
X93283750Y-134165000D01*
X93125000Y-134323750D01*
X93125000Y-135123000D01*
X93147000Y-135123000D01*
X93147000Y-135377000D01*
X93125000Y-135377000D01*
X93125000Y-136176250D01*
X93283750Y-136335000D01*
X93376309Y-136335000D01*
X93609698Y-136238327D01*
X93750936Y-136097090D01*
X93785910Y-136151441D01*
X93998110Y-136296431D01*
X94250000Y-136347440D01*
X94750000Y-136347440D01*
X94985317Y-136303162D01*
X95201441Y-136164090D01*
X95306726Y-136010000D01*
X95600000Y-136010000D01*
X95890839Y-135952148D01*
X96137401Y-135787401D01*
X97067401Y-134857401D01*
X97232148Y-134610839D01*
X97290000Y-134320000D01*
X97290000Y-133738653D01*
X97677433Y-133479778D01*
X98035325Y-132944155D01*
X98161000Y-132312345D01*
X98161000Y-132247655D01*
X98035325Y-131615845D01*
X97677433Y-131080222D01*
X97255773Y-130798478D01*
X97212148Y-130579161D01*
X97047401Y-130332599D01*
X96649412Y-129934610D01*
X96726431Y-129821890D01*
X96755164Y-129680000D01*
X96940000Y-129680000D01*
X97230839Y-129622148D01*
X97477401Y-129457401D01*
X98897401Y-128037401D01*
X99062148Y-127790840D01*
X99120000Y-127500000D01*
X99120000Y-122960000D01*
X99113072Y-122925167D01*
X106684838Y-122925167D01*
X106826883Y-123268943D01*
X107089673Y-123532192D01*
X107433201Y-123674838D01*
X107805167Y-123675162D01*
X108148943Y-123533117D01*
X108412192Y-123270327D01*
X108554838Y-122926799D01*
X108555162Y-122554833D01*
X108413117Y-122211057D01*
X108150327Y-121947808D01*
X107806799Y-121805162D01*
X107434833Y-121804838D01*
X107091057Y-121946883D01*
X106827808Y-122209673D01*
X106685162Y-122553201D01*
X106684838Y-122925167D01*
X99113072Y-122925167D01*
X99062148Y-122669161D01*
X98897401Y-122422599D01*
X98063191Y-121588389D01*
X98385787Y-121265792D01*
X98385790Y-121265790D01*
X98577633Y-120978675D01*
X98597525Y-120878674D01*
X98645001Y-120640000D01*
X98645000Y-120639995D01*
X98645000Y-117719027D01*
X98810000Y-117752440D01*
X99810000Y-117752440D01*
X100045317Y-117708162D01*
X100261441Y-117569090D01*
X100307969Y-117500994D01*
X100450302Y-117643327D01*
X100683691Y-117740000D01*
X101024250Y-117740000D01*
X101183000Y-117581250D01*
X101183000Y-116607000D01*
X101437000Y-116607000D01*
X101437000Y-117581250D01*
X101595750Y-117740000D01*
X101936309Y-117740000D01*
X102169698Y-117643327D01*
X102348327Y-117464699D01*
X102445000Y-117231310D01*
X102445000Y-117165167D01*
X106614838Y-117165167D01*
X106756883Y-117508943D01*
X107019673Y-117772192D01*
X107363201Y-117914838D01*
X107735167Y-117915162D01*
X108078943Y-117773117D01*
X108342192Y-117510327D01*
X108484838Y-117166799D01*
X108485162Y-116794833D01*
X108343117Y-116451057D01*
X108080327Y-116187808D01*
X107736799Y-116045162D01*
X107364833Y-116044838D01*
X107021057Y-116186883D01*
X106757808Y-116449673D01*
X106615162Y-116793201D01*
X106614838Y-117165167D01*
X102445000Y-117165167D01*
X102445000Y-116765750D01*
X102286250Y-116607000D01*
X101437000Y-116607000D01*
X101183000Y-116607000D01*
X101163000Y-116607000D01*
X101163000Y-116353000D01*
X101183000Y-116353000D01*
X101183000Y-115378750D01*
X101437000Y-115378750D01*
X101437000Y-116353000D01*
X102286250Y-116353000D01*
X102445000Y-116194250D01*
X102445000Y-115728690D01*
X102348327Y-115495301D01*
X102169698Y-115316673D01*
X101936309Y-115220000D01*
X101595750Y-115220000D01*
X101437000Y-115378750D01*
X101183000Y-115378750D01*
X101024250Y-115220000D01*
X100683691Y-115220000D01*
X100450302Y-115316673D01*
X100309064Y-115457910D01*
X100274090Y-115403559D01*
X100061890Y-115258569D01*
X99810000Y-115207560D01*
X99435000Y-115207560D01*
X99435000Y-114975005D01*
X99435001Y-114975000D01*
X99435000Y-114974995D01*
X99435000Y-113274669D01*
X99451441Y-113264090D01*
X99596431Y-113051890D01*
X99647440Y-112800000D01*
X99647440Y-112645750D01*
X105425000Y-112645750D01*
X105425000Y-113111310D01*
X105521673Y-113344699D01*
X105700302Y-113523327D01*
X105933691Y-113620000D01*
X106274250Y-113620000D01*
X106433000Y-113461250D01*
X106433000Y-112487000D01*
X105583750Y-112487000D01*
X105425000Y-112645750D01*
X99647440Y-112645750D01*
X99647440Y-112300000D01*
X99603162Y-112064683D01*
X99464090Y-111848559D01*
X99394289Y-111800866D01*
X99451441Y-111764090D01*
X99557621Y-111608690D01*
X105425000Y-111608690D01*
X105425000Y-112074250D01*
X105583750Y-112233000D01*
X106433000Y-112233000D01*
X106433000Y-111258750D01*
X106274250Y-111100000D01*
X105933691Y-111100000D01*
X105700302Y-111196673D01*
X105521673Y-111375301D01*
X105425000Y-111608690D01*
X99557621Y-111608690D01*
X99596431Y-111551890D01*
X99647440Y-111300000D01*
X99647440Y-110800000D01*
X99603162Y-110564683D01*
X99464090Y-110348559D01*
X99435000Y-110328683D01*
X99435000Y-110049669D01*
X99451441Y-110039090D01*
X99596431Y-109826890D01*
X99647440Y-109575000D01*
X99647440Y-109075000D01*
X99603162Y-108839683D01*
X99600632Y-108835750D01*
X105425000Y-108835750D01*
X105425000Y-109301310D01*
X105521673Y-109534699D01*
X105700302Y-109713327D01*
X105933691Y-109810000D01*
X106274250Y-109810000D01*
X106433000Y-109651250D01*
X106433000Y-108677000D01*
X105583750Y-108677000D01*
X105425000Y-108835750D01*
X99600632Y-108835750D01*
X99464090Y-108623559D01*
X99395994Y-108577031D01*
X99538327Y-108434698D01*
X99635000Y-108201309D01*
X99635000Y-108108750D01*
X99476250Y-107950000D01*
X98677000Y-107950000D01*
X98677000Y-107972000D01*
X98423000Y-107972000D01*
X98423000Y-107950000D01*
X97623750Y-107950000D01*
X97465000Y-108108750D01*
X97465000Y-108201309D01*
X97561673Y-108434698D01*
X97702910Y-108575936D01*
X97648559Y-108610910D01*
X97503569Y-108823110D01*
X97452560Y-109075000D01*
X97452560Y-109575000D01*
X97496838Y-109810317D01*
X97635910Y-110026441D01*
X97665000Y-110046317D01*
X97665000Y-110325331D01*
X97648559Y-110335910D01*
X97503569Y-110548110D01*
X97464710Y-110740000D01*
X97337473Y-110740000D01*
X97346431Y-110726890D01*
X97397440Y-110475000D01*
X97397440Y-108975000D01*
X97353162Y-108739683D01*
X97214090Y-108523559D01*
X97001890Y-108378569D01*
X96750000Y-108327560D01*
X93150000Y-108327560D01*
X92914683Y-108371838D01*
X92698559Y-108510910D01*
X92553569Y-108723110D01*
X92502560Y-108975000D01*
X92502560Y-109329535D01*
X92434698Y-109261673D01*
X92201309Y-109165000D01*
X92035750Y-109165000D01*
X91877000Y-109323750D01*
X91877000Y-109652560D01*
X91623000Y-109652560D01*
X91623000Y-109323750D01*
X91464250Y-109165000D01*
X91302162Y-109165000D01*
X91226890Y-109113569D01*
X90975000Y-109062560D01*
X89425000Y-109062560D01*
X89189683Y-109106838D01*
X89084248Y-109174683D01*
X88975000Y-109152560D01*
X88442007Y-109152560D01*
X88385092Y-109095645D01*
X88385162Y-109014833D01*
X88243117Y-108671057D01*
X88107297Y-108535000D01*
X90199995Y-108535000D01*
X90200000Y-108535001D01*
X90517535Y-108471838D01*
X90538675Y-108467633D01*
X90825790Y-108275790D01*
X91276147Y-107825432D01*
X91276150Y-107825430D01*
X91294016Y-107798690D01*
X105425000Y-107798690D01*
X105425000Y-108264250D01*
X105583750Y-108423000D01*
X106433000Y-108423000D01*
X106433000Y-107448750D01*
X106274250Y-107290000D01*
X105933691Y-107290000D01*
X105700302Y-107386673D01*
X105521673Y-107565301D01*
X105425000Y-107798690D01*
X91294016Y-107798690D01*
X91467993Y-107538315D01*
X91482099Y-107467401D01*
X91485820Y-107448691D01*
X97465000Y-107448691D01*
X97465000Y-107541250D01*
X97623750Y-107700000D01*
X98423000Y-107700000D01*
X98423000Y-107098750D01*
X98677000Y-107098750D01*
X98677000Y-107700000D01*
X99476250Y-107700000D01*
X99635000Y-107541250D01*
X99635000Y-107448691D01*
X99538327Y-107215302D01*
X99359699Y-107036673D01*
X99126310Y-106940000D01*
X98835750Y-106940000D01*
X98677000Y-107098750D01*
X98423000Y-107098750D01*
X98264250Y-106940000D01*
X97973690Y-106940000D01*
X97740301Y-107036673D01*
X97561673Y-107215302D01*
X97465000Y-107448691D01*
X91485820Y-107448691D01*
X91535361Y-107199640D01*
X91535360Y-107199635D01*
X91535360Y-106697540D01*
X92150230Y-106697540D01*
X92385547Y-106653262D01*
X92601671Y-106514190D01*
X92746661Y-106301990D01*
X92797670Y-106050100D01*
X92797670Y-105535750D01*
X92914770Y-105535750D01*
X92914770Y-106176410D01*
X93011443Y-106409799D01*
X93190072Y-106588427D01*
X93423461Y-106685100D01*
X94763890Y-106685100D01*
X94922640Y-106526350D01*
X94922640Y-105377000D01*
X95176640Y-105377000D01*
X95176640Y-106526350D01*
X95335390Y-106685100D01*
X96675819Y-106685100D01*
X96909208Y-106588427D01*
X97087837Y-106409799D01*
X97184510Y-106176410D01*
X97184510Y-105535750D01*
X97025760Y-105377000D01*
X95176640Y-105377000D01*
X94922640Y-105377000D01*
X93073520Y-105377000D01*
X92914770Y-105535750D01*
X92797670Y-105535750D01*
X92797670Y-104449900D01*
X92773904Y-104323590D01*
X92914770Y-104323590D01*
X92914770Y-104964250D01*
X93073520Y-105123000D01*
X94922640Y-105123000D01*
X94922640Y-103973650D01*
X95176640Y-103973650D01*
X95176640Y-105123000D01*
X97025760Y-105123000D01*
X97184510Y-104964250D01*
X97184510Y-104323590D01*
X97087837Y-104090201D01*
X96909208Y-103911573D01*
X96675819Y-103814900D01*
X95335390Y-103814900D01*
X95176640Y-103973650D01*
X94922640Y-103973650D01*
X94763890Y-103814900D01*
X93423461Y-103814900D01*
X93190072Y-103911573D01*
X93011443Y-104090201D01*
X92914770Y-104323590D01*
X92773904Y-104323590D01*
X92753392Y-104214583D01*
X92614320Y-103998459D01*
X92402120Y-103853469D01*
X92150230Y-103802460D01*
X89150490Y-103802460D01*
X88915173Y-103846738D01*
X88699049Y-103985810D01*
X88554059Y-104198010D01*
X88520243Y-104365000D01*
X88009802Y-104365000D01*
X88727401Y-103647401D01*
X88892148Y-103400840D01*
X88911561Y-103303243D01*
X88950000Y-103110000D01*
X88950000Y-99579262D01*
X89249670Y-99379029D01*
X89460000Y-99064248D01*
X89670330Y-99379029D01*
X90156511Y-99703885D01*
X90730000Y-99817959D01*
X91303489Y-99703885D01*
X91789670Y-99379029D01*
X92005664Y-99055772D01*
X92063179Y-99178490D01*
X92495053Y-99572688D01*
X92910974Y-99744958D01*
X93143000Y-99623817D01*
X93143000Y-98417000D01*
X93123000Y-98417000D01*
X93123000Y-98163000D01*
X93143000Y-98163000D01*
X93143000Y-98143000D01*
X93397000Y-98143000D01*
X93397000Y-98163000D01*
X93397000Y-98163000D01*
G37*
X93397000Y-98163000D02*
X93417000Y-98163000D01*
X93417000Y-98417000D01*
X93397000Y-98417000D01*
X93397000Y-99623817D01*
X93629026Y-99744958D01*
X94044947Y-99572688D01*
X94476821Y-99178490D01*
X94534336Y-99055772D01*
X94750330Y-99379029D01*
X95236511Y-99703885D01*
X95810000Y-99817959D01*
X96383489Y-99703885D01*
X96869670Y-99379029D01*
X97080000Y-99064248D01*
X97290330Y-99379029D01*
X97776511Y-99703885D01*
X98350000Y-99817959D01*
X98923489Y-99703885D01*
X99409670Y-99379029D01*
X99620000Y-99064248D01*
X99830330Y-99379029D01*
X100316511Y-99703885D01*
X100890000Y-99817959D01*
X101463489Y-99703885D01*
X101949670Y-99379029D01*
X102160000Y-99064248D01*
X102370330Y-99379029D01*
X102856511Y-99703885D01*
X103430000Y-99817959D01*
X104003489Y-99703885D01*
X104489670Y-99379029D01*
X104700000Y-99064248D01*
X104910330Y-99379029D01*
X105210000Y-99579262D01*
X105210000Y-100090000D01*
X105267852Y-100380839D01*
X105432599Y-100627401D01*
X106962599Y-102157401D01*
X107209161Y-102322148D01*
X107500000Y-102380000D01*
X117985198Y-102380000D01*
X118490000Y-102884802D01*
X118490000Y-103125008D01*
X118294833Y-103124838D01*
X117951057Y-103266883D01*
X117687808Y-103529673D01*
X117545162Y-103873201D01*
X117544838Y-104245167D01*
X117686883Y-104588943D01*
X117949673Y-104852192D01*
X117990000Y-104868937D01*
X117990000Y-108465116D01*
X117952560Y-108650000D01*
X117952560Y-109182560D01*
X117420000Y-109182560D01*
X117221024Y-109220000D01*
X116670000Y-109220000D01*
X116670000Y-106930000D01*
X116637179Y-106765000D01*
X116612148Y-106639160D01*
X116447401Y-106392599D01*
X115687401Y-105632599D01*
X115440839Y-105467852D01*
X115150000Y-105410000D01*
X112020000Y-105410000D01*
X111729161Y-105467852D01*
X111482599Y-105632599D01*
X110682599Y-106432599D01*
X110517852Y-106679161D01*
X110460000Y-106970000D01*
X110460000Y-107073258D01*
X110334683Y-107096838D01*
X110118559Y-107235910D01*
X109973569Y-107448110D01*
X109922560Y-107700000D01*
X109922560Y-107790000D01*
X109682038Y-107790000D01*
X109663162Y-107689683D01*
X109524090Y-107473559D01*
X109311890Y-107328569D01*
X109060000Y-107277560D01*
X108060000Y-107277560D01*
X107824683Y-107321838D01*
X107608559Y-107460910D01*
X107562031Y-107529006D01*
X107419698Y-107386673D01*
X107186309Y-107290000D01*
X106845750Y-107290000D01*
X106687000Y-107448750D01*
X106687000Y-108423000D01*
X106707000Y-108423000D01*
X106707000Y-108677000D01*
X106687000Y-108677000D01*
X106687000Y-109651250D01*
X106845750Y-109810000D01*
X107186309Y-109810000D01*
X107419698Y-109713327D01*
X107560936Y-109572090D01*
X107595910Y-109626441D01*
X107808110Y-109771431D01*
X108060000Y-109822440D01*
X109060000Y-109822440D01*
X109295317Y-109778162D01*
X109511441Y-109639090D01*
X109656431Y-109426890D01*
X109680102Y-109310000D01*
X109924442Y-109310000D01*
X109966838Y-109535317D01*
X110105910Y-109751441D01*
X110318110Y-109896431D01*
X110570000Y-109947440D01*
X111870000Y-109947440D01*
X112105317Y-109903162D01*
X112321441Y-109764090D01*
X112367969Y-109695994D01*
X112510301Y-109838327D01*
X112743690Y-109935000D01*
X113234250Y-109935000D01*
X113393000Y-109776250D01*
X113393000Y-108627000D01*
X113647000Y-108627000D01*
X113647000Y-109776250D01*
X113805750Y-109935000D01*
X114296310Y-109935000D01*
X114529699Y-109838327D01*
X114708327Y-109659698D01*
X114805000Y-109426309D01*
X114805000Y-108785750D01*
X114646250Y-108627000D01*
X113647000Y-108627000D01*
X113393000Y-108627000D01*
X113373000Y-108627000D01*
X113373000Y-108373000D01*
X113393000Y-108373000D01*
X113393000Y-107223750D01*
X113647000Y-107223750D01*
X113647000Y-108373000D01*
X114646250Y-108373000D01*
X114805000Y-108214250D01*
X114805000Y-107573691D01*
X114708327Y-107340302D01*
X114529699Y-107161673D01*
X114296310Y-107065000D01*
X113805750Y-107065000D01*
X113647000Y-107223750D01*
X113393000Y-107223750D01*
X113234250Y-107065000D01*
X112743690Y-107065000D01*
X112510301Y-107161673D01*
X112369064Y-107302911D01*
X112334090Y-107248559D01*
X112145263Y-107119539D01*
X112334802Y-106930000D01*
X114835198Y-106930000D01*
X115150000Y-107244802D01*
X115150000Y-109570000D01*
X115200474Y-109823747D01*
X115022599Y-109942599D01*
X114742599Y-110222599D01*
X114577852Y-110469161D01*
X114520000Y-110760000D01*
X114520000Y-110970605D01*
X114421890Y-110903569D01*
X114170000Y-110852560D01*
X112870000Y-110852560D01*
X112634683Y-110896838D01*
X112418559Y-111035910D01*
X112372031Y-111104006D01*
X112229699Y-110961673D01*
X111996310Y-110865000D01*
X111505750Y-110865000D01*
X111347000Y-111023750D01*
X111347000Y-112173000D01*
X111367000Y-112173000D01*
X111367000Y-112427000D01*
X111347000Y-112427000D01*
X111347000Y-112447000D01*
X111093000Y-112447000D01*
X111093000Y-112427000D01*
X110093750Y-112427000D01*
X109935000Y-112585750D01*
X109935000Y-113226309D01*
X109953097Y-113270000D01*
X109724802Y-113270000D01*
X109662369Y-113207567D01*
X109707440Y-112985000D01*
X109707440Y-111735000D01*
X109663162Y-111499683D01*
X109582089Y-111373691D01*
X109935000Y-111373691D01*
X109935000Y-112014250D01*
X110093750Y-112173000D01*
X111093000Y-112173000D01*
X111093000Y-111023750D01*
X110934250Y-110865000D01*
X110443690Y-110865000D01*
X110210301Y-110961673D01*
X110031673Y-111140302D01*
X109935000Y-111373691D01*
X109582089Y-111373691D01*
X109524090Y-111283559D01*
X109311890Y-111138569D01*
X109060000Y-111087560D01*
X108060000Y-111087560D01*
X107824683Y-111131838D01*
X107608559Y-111270910D01*
X107562031Y-111339006D01*
X107419698Y-111196673D01*
X107186309Y-111100000D01*
X106845750Y-111100000D01*
X106687000Y-111258750D01*
X106687000Y-112233000D01*
X106707000Y-112233000D01*
X106707000Y-112487000D01*
X106687000Y-112487000D01*
X106687000Y-113461250D01*
X106845750Y-113620000D01*
X107186309Y-113620000D01*
X107419698Y-113523327D01*
X107560936Y-113382090D01*
X107595910Y-113436441D01*
X107808110Y-113581431D01*
X107951094Y-113610386D01*
X108022599Y-113717401D01*
X108872599Y-114567401D01*
X109119161Y-114732148D01*
X109410000Y-114790000D01*
X112587707Y-114790000D01*
X112457808Y-114919673D01*
X112315162Y-115263201D01*
X112314838Y-115635167D01*
X112456883Y-115978943D01*
X112637624Y-116160000D01*
X112030000Y-116160000D01*
X111739161Y-116217852D01*
X111492599Y-116382599D01*
X111082599Y-116792599D01*
X111072480Y-116807743D01*
X110641287Y-116721974D01*
X110928943Y-116603117D01*
X111192192Y-116340327D01*
X111334838Y-115996799D01*
X111335162Y-115624833D01*
X111193117Y-115281057D01*
X110930327Y-115017808D01*
X110586799Y-114875162D01*
X110214833Y-114874838D01*
X109871057Y-115016883D01*
X109607808Y-115279673D01*
X109465162Y-115623201D01*
X109464838Y-115995167D01*
X109606883Y-116338943D01*
X109869673Y-116602192D01*
X110145369Y-116716672D01*
X109568711Y-116831375D01*
X108880934Y-117290934D01*
X108720934Y-117450934D01*
X108261375Y-118138711D01*
X108100000Y-118950000D01*
X108100000Y-119277515D01*
X108080327Y-119257808D01*
X107736799Y-119115162D01*
X107364833Y-119114838D01*
X107021057Y-119256883D01*
X106757808Y-119519673D01*
X106615162Y-119863201D01*
X106614838Y-120235167D01*
X106756883Y-120578943D01*
X107019673Y-120842192D01*
X107363201Y-120984838D01*
X107735167Y-120985162D01*
X108078943Y-120843117D01*
X108146816Y-120775362D01*
X108261375Y-121351289D01*
X108720934Y-122039066D01*
X109076232Y-122276469D01*
X109130910Y-122361441D01*
X109199006Y-122407969D01*
X109056673Y-122550302D01*
X108960000Y-122783691D01*
X108960000Y-123124250D01*
X109118750Y-123283000D01*
X110093000Y-123283000D01*
X110093000Y-123263000D01*
X110347000Y-123263000D01*
X110347000Y-123283000D01*
X111321250Y-123283000D01*
X111480000Y-123124250D01*
X111480000Y-122783691D01*
X111383327Y-122550302D01*
X111242090Y-122409064D01*
X111296441Y-122374090D01*
X111362617Y-122277238D01*
X111719066Y-122039066D01*
X112178625Y-121351289D01*
X112340000Y-120540000D01*
X112340000Y-119826496D01*
X112421441Y-119774090D01*
X112440000Y-119746928D01*
X112440000Y-120118362D01*
X112380001Y-120420000D01*
X112541375Y-121231289D01*
X113000934Y-121919066D01*
X113322367Y-122133841D01*
X113410910Y-122271441D01*
X113480711Y-122319134D01*
X113423559Y-122355910D01*
X113278569Y-122568110D01*
X113236224Y-122777218D01*
X113110934Y-122860934D01*
X112651375Y-123548711D01*
X112490000Y-124360000D01*
X112490000Y-124887533D01*
X112460327Y-124857808D01*
X112116799Y-124715162D01*
X111744833Y-124714838D01*
X111401057Y-124856883D01*
X111334356Y-124923468D01*
X111263117Y-124751057D01*
X111032230Y-124519766D01*
X111204699Y-124448327D01*
X111383327Y-124269698D01*
X111480000Y-124036309D01*
X111480000Y-123695750D01*
X111321250Y-123537000D01*
X110347000Y-123537000D01*
X110347000Y-123557000D01*
X110093000Y-123557000D01*
X110093000Y-123537000D01*
X109118750Y-123537000D01*
X108960000Y-123695750D01*
X108960000Y-123871405D01*
X108896799Y-123845162D01*
X108524833Y-123844838D01*
X108181057Y-123986883D01*
X107917808Y-124249673D01*
X107775162Y-124593201D01*
X107774838Y-124965167D01*
X107916883Y-125308943D01*
X108179673Y-125572192D01*
X108523201Y-125714838D01*
X108895167Y-125715162D01*
X109238943Y-125573117D01*
X109502192Y-125310327D01*
X109535042Y-125231216D01*
X109534838Y-125465167D01*
X109676883Y-125808943D01*
X109939673Y-126072192D01*
X110283201Y-126214838D01*
X110655167Y-126215162D01*
X110998943Y-126073117D01*
X111065644Y-126006532D01*
X111136883Y-126178943D01*
X111399673Y-126442192D01*
X111743201Y-126584838D01*
X112115167Y-126585162D01*
X112458943Y-126443117D01*
X112490000Y-126412114D01*
X112490000Y-128084523D01*
X112443117Y-127971057D01*
X112180327Y-127707808D01*
X111836799Y-127565162D01*
X111464833Y-127564838D01*
X111121057Y-127706883D01*
X110857808Y-127969673D01*
X110715162Y-128313201D01*
X110714838Y-128685167D01*
X110856883Y-129028943D01*
X111119673Y-129292192D01*
X111463201Y-129434838D01*
X111835167Y-129435162D01*
X111991160Y-129370707D01*
X110819463Y-130542404D01*
X110904838Y-130336799D01*
X110905162Y-129964833D01*
X110763117Y-129621057D01*
X110500327Y-129357808D01*
X110156799Y-129215162D01*
X109784833Y-129214838D01*
X109441057Y-129356883D01*
X109177808Y-129619673D01*
X109035162Y-129963201D01*
X109034838Y-130335167D01*
X109176883Y-130678943D01*
X109439673Y-130942192D01*
X109783201Y-131084838D01*
X110155167Y-131085162D01*
X110362284Y-130999583D01*
X108512655Y-132849213D01*
X108654838Y-132506799D01*
X108655162Y-132134833D01*
X108513117Y-131791057D01*
X108250327Y-131527808D01*
X107906799Y-131385162D01*
X107534833Y-131384838D01*
X107191057Y-131526883D01*
X106927808Y-131789673D01*
X106785162Y-132133201D01*
X106784838Y-132505167D01*
X106926883Y-132848943D01*
X107189673Y-133112192D01*
X107533201Y-133254838D01*
X107905167Y-133255162D01*
X108248615Y-133113253D01*
X106312068Y-135049799D01*
X106354838Y-134946799D01*
X106355162Y-134574833D01*
X106213117Y-134231057D01*
X105950327Y-133967808D01*
X105606799Y-133825162D01*
X105234833Y-133824838D01*
X104891057Y-133966883D01*
X104627808Y-134229673D01*
X104485162Y-134573201D01*
X104484838Y-134945167D01*
X104626883Y-135288943D01*
X104889673Y-135552192D01*
X105233201Y-135694838D01*
X105605167Y-135695162D01*
X105710037Y-135651831D01*
X103872068Y-137489800D01*
X103914838Y-137386799D01*
X103915162Y-137014833D01*
X103773117Y-136671057D01*
X103510327Y-136407808D01*
X103166799Y-136265162D01*
X102794833Y-136264838D01*
X102451057Y-136406883D01*
X102187808Y-136669673D01*
X102045162Y-137013201D01*
X102044838Y-137385167D01*
X102186883Y-137728943D01*
X102449673Y-137992192D01*
X102793201Y-138134838D01*
X103165167Y-138135162D01*
X103270037Y-138091831D01*
X102250934Y-139110934D01*
X101791375Y-139798711D01*
X101630000Y-140610000D01*
X101630000Y-146340000D01*
X101791375Y-147151289D01*
X102250934Y-147839066D01*
X102352560Y-147906970D01*
X102352560Y-148835000D01*
X100985000Y-148835000D01*
X100985000Y-148125750D01*
X100826250Y-147967000D01*
X99677000Y-147967000D01*
X99677000Y-147987000D01*
X99423000Y-147987000D01*
X99423000Y-147967000D01*
X98273750Y-147967000D01*
X98115000Y-148125750D01*
X98115000Y-148835000D01*
X77807467Y-148835000D01*
X76859225Y-148646383D01*
X76112537Y-148147463D01*
X75613617Y-147400777D01*
X75425000Y-146452533D01*
X75425000Y-145625750D01*
X98115000Y-145625750D01*
X98115000Y-147554250D01*
X98273750Y-147713000D01*
X99423000Y-147713000D01*
X99423000Y-145467000D01*
X99677000Y-145467000D01*
X99677000Y-147713000D01*
X100826250Y-147713000D01*
X100985000Y-147554250D01*
X100985000Y-145625750D01*
X100826250Y-145467000D01*
X99677000Y-145467000D01*
X99423000Y-145467000D01*
X98273750Y-145467000D01*
X98115000Y-145625750D01*
X75425000Y-145625750D01*
X75425000Y-143963690D01*
X98115000Y-143963690D01*
X98115000Y-145054250D01*
X98273750Y-145213000D01*
X99423000Y-145213000D01*
X99423000Y-143613750D01*
X99677000Y-143613750D01*
X99677000Y-145213000D01*
X100826250Y-145213000D01*
X100985000Y-145054250D01*
X100985000Y-143963690D01*
X100888327Y-143730301D01*
X100709698Y-143551673D01*
X100476309Y-143455000D01*
X99835750Y-143455000D01*
X99677000Y-143613750D01*
X99423000Y-143613750D01*
X99264250Y-143455000D01*
X98623691Y-143455000D01*
X98390302Y-143551673D01*
X98211673Y-143730301D01*
X98115000Y-143963690D01*
X75425000Y-143963690D01*
X75425000Y-140115167D01*
X99544838Y-140115167D01*
X99686883Y-140458943D01*
X99949673Y-140722192D01*
X100293201Y-140864838D01*
X100665167Y-140865162D01*
X101008943Y-140723117D01*
X101272192Y-140460327D01*
X101414838Y-140116799D01*
X101415162Y-139744833D01*
X101273117Y-139401057D01*
X101010327Y-139137808D01*
X100666799Y-138995162D01*
X100294833Y-138994838D01*
X99951057Y-139136883D01*
X99687808Y-139399673D01*
X99545162Y-139743201D01*
X99544838Y-140115167D01*
X75425000Y-140115167D01*
X75425000Y-139576538D01*
X75599650Y-139695871D01*
X75851540Y-139746880D01*
X77050420Y-139746880D01*
X77285737Y-139702602D01*
X77501861Y-139563530D01*
X77502543Y-139562533D01*
X77697690Y-139695871D01*
X77949580Y-139746880D01*
X79148460Y-139746880D01*
X79383777Y-139702602D01*
X79599901Y-139563530D01*
X79744891Y-139351330D01*
X79763386Y-139260000D01*
X80323258Y-139260000D01*
X80346838Y-139385317D01*
X80485910Y-139601441D01*
X80698110Y-139746431D01*
X80950000Y-139797440D01*
X81650000Y-139797440D01*
X81885317Y-139753162D01*
X82101441Y-139614090D01*
X82246431Y-139401890D01*
X82249081Y-139388803D01*
X82385910Y-139601441D01*
X82598110Y-139746431D01*
X82850000Y-139797440D01*
X83550000Y-139797440D01*
X83785317Y-139753162D01*
X84001441Y-139614090D01*
X84146431Y-139401890D01*
X84175164Y-139260000D01*
X86030000Y-139260000D01*
X86320839Y-139202148D01*
X86567401Y-139037401D01*
X87177401Y-138427401D01*
X87342148Y-138180840D01*
X87400000Y-137890000D01*
X87400000Y-135535750D01*
X92115000Y-135535750D01*
X92115000Y-135826310D01*
X92211673Y-136059699D01*
X92390302Y-136238327D01*
X92623691Y-136335000D01*
X92716250Y-136335000D01*
X92875000Y-136176250D01*
X92875000Y-135377000D01*
X92273750Y-135377000D01*
X92115000Y-135535750D01*
X87400000Y-135535750D01*
X87400000Y-134673690D01*
X92115000Y-134673690D01*
X92115000Y-134964250D01*
X92273750Y-135123000D01*
X92875000Y-135123000D01*
X92875000Y-134323750D01*
X92716250Y-134165000D01*
X92623691Y-134165000D01*
X92390302Y-134261673D01*
X92211673Y-134440301D01*
X92115000Y-134673690D01*
X87400000Y-134673690D01*
X87400000Y-133024802D01*
X87859052Y-132565750D01*
X92319000Y-132565750D01*
X92319000Y-133422309D01*
X92415673Y-133655698D01*
X92594301Y-133834327D01*
X92827690Y-133931000D01*
X93684250Y-133931000D01*
X93843000Y-133772250D01*
X93843000Y-132407000D01*
X92477750Y-132407000D01*
X92319000Y-132565750D01*
X87859052Y-132565750D01*
X90987401Y-129437401D01*
X91152148Y-129190839D01*
X91210000Y-128900000D01*
X91210000Y-127754802D01*
X91724802Y-127240000D01*
X96950000Y-127240000D01*
X97240839Y-127182148D01*
X97487401Y-127017401D01*
X97600000Y-126904802D01*
X97600000Y-127185198D01*
X96735910Y-128049288D01*
X96733162Y-128034683D01*
X96594090Y-127818559D01*
X96381890Y-127673569D01*
X96130000Y-127622560D01*
X95430000Y-127622560D01*
X95194683Y-127666838D01*
X94978559Y-127805910D01*
X94833569Y-128018110D01*
X94830919Y-128031197D01*
X94694090Y-127818559D01*
X94481890Y-127673569D01*
X94230000Y-127622560D01*
X93530000Y-127622560D01*
X93294683Y-127666838D01*
X93078559Y-127805910D01*
X92933569Y-128018110D01*
X92882560Y-128270000D01*
X92882560Y-129570000D01*
X92926838Y-129805317D01*
X93065910Y-130021441D01*
X93126538Y-130062866D01*
X93177852Y-130320839D01*
X93342599Y-130567401D01*
X93404198Y-130629000D01*
X92827690Y-130629000D01*
X92594301Y-130725673D01*
X92415673Y-130904302D01*
X92319000Y-131137691D01*
X92319000Y-131994250D01*
X92477750Y-132153000D01*
X93843000Y-132153000D01*
X93843000Y-132133000D01*
X94097000Y-132133000D01*
X94097000Y-132153000D01*
X94117000Y-132153000D01*
X94117000Y-132407000D01*
X94097000Y-132407000D01*
X94097000Y-133772250D01*
X94255750Y-133931000D01*
X95112310Y-133931000D01*
X95345699Y-133834327D01*
X95524327Y-133655698D01*
X95541999Y-133613034D01*
X95770000Y-133765380D01*
X95770000Y-134005198D01*
X95297311Y-134477887D01*
X95214090Y-134348559D01*
X95001890Y-134203569D01*
X94750000Y-134152560D01*
X94250000Y-134152560D01*
X94014683Y-134196838D01*
X93798559Y-134335910D01*
X93752031Y-134404006D01*
X93609698Y-134261673D01*
X93376309Y-134165000D01*
X93283750Y-134165000D01*
X93125000Y-134323750D01*
X93125000Y-135123000D01*
X93147000Y-135123000D01*
X93147000Y-135377000D01*
X93125000Y-135377000D01*
X93125000Y-136176250D01*
X93283750Y-136335000D01*
X93376309Y-136335000D01*
X93609698Y-136238327D01*
X93750936Y-136097090D01*
X93785910Y-136151441D01*
X93998110Y-136296431D01*
X94250000Y-136347440D01*
X94750000Y-136347440D01*
X94985317Y-136303162D01*
X95201441Y-136164090D01*
X95306726Y-136010000D01*
X95600000Y-136010000D01*
X95890839Y-135952148D01*
X96137401Y-135787401D01*
X97067401Y-134857401D01*
X97232148Y-134610839D01*
X97290000Y-134320000D01*
X97290000Y-133738653D01*
X97677433Y-133479778D01*
X98035325Y-132944155D01*
X98161000Y-132312345D01*
X98161000Y-132247655D01*
X98035325Y-131615845D01*
X97677433Y-131080222D01*
X97255773Y-130798478D01*
X97212148Y-130579161D01*
X97047401Y-130332599D01*
X96649412Y-129934610D01*
X96726431Y-129821890D01*
X96755164Y-129680000D01*
X96940000Y-129680000D01*
X97230839Y-129622148D01*
X97477401Y-129457401D01*
X98897401Y-128037401D01*
X99062148Y-127790840D01*
X99120000Y-127500000D01*
X99120000Y-122960000D01*
X99113072Y-122925167D01*
X106684838Y-122925167D01*
X106826883Y-123268943D01*
X107089673Y-123532192D01*
X107433201Y-123674838D01*
X107805167Y-123675162D01*
X108148943Y-123533117D01*
X108412192Y-123270327D01*
X108554838Y-122926799D01*
X108555162Y-122554833D01*
X108413117Y-122211057D01*
X108150327Y-121947808D01*
X107806799Y-121805162D01*
X107434833Y-121804838D01*
X107091057Y-121946883D01*
X106827808Y-122209673D01*
X106685162Y-122553201D01*
X106684838Y-122925167D01*
X99113072Y-122925167D01*
X99062148Y-122669161D01*
X98897401Y-122422599D01*
X98063191Y-121588389D01*
X98385787Y-121265792D01*
X98385790Y-121265790D01*
X98577633Y-120978675D01*
X98597525Y-120878674D01*
X98645001Y-120640000D01*
X98645000Y-120639995D01*
X98645000Y-117719027D01*
X98810000Y-117752440D01*
X99810000Y-117752440D01*
X100045317Y-117708162D01*
X100261441Y-117569090D01*
X100307969Y-117500994D01*
X100450302Y-117643327D01*
X100683691Y-117740000D01*
X101024250Y-117740000D01*
X101183000Y-117581250D01*
X101183000Y-116607000D01*
X101437000Y-116607000D01*
X101437000Y-117581250D01*
X101595750Y-117740000D01*
X101936309Y-117740000D01*
X102169698Y-117643327D01*
X102348327Y-117464699D01*
X102445000Y-117231310D01*
X102445000Y-117165167D01*
X106614838Y-117165167D01*
X106756883Y-117508943D01*
X107019673Y-117772192D01*
X107363201Y-117914838D01*
X107735167Y-117915162D01*
X108078943Y-117773117D01*
X108342192Y-117510327D01*
X108484838Y-117166799D01*
X108485162Y-116794833D01*
X108343117Y-116451057D01*
X108080327Y-116187808D01*
X107736799Y-116045162D01*
X107364833Y-116044838D01*
X107021057Y-116186883D01*
X106757808Y-116449673D01*
X106615162Y-116793201D01*
X106614838Y-117165167D01*
X102445000Y-117165167D01*
X102445000Y-116765750D01*
X102286250Y-116607000D01*
X101437000Y-116607000D01*
X101183000Y-116607000D01*
X101163000Y-116607000D01*
X101163000Y-116353000D01*
X101183000Y-116353000D01*
X101183000Y-115378750D01*
X101437000Y-115378750D01*
X101437000Y-116353000D01*
X102286250Y-116353000D01*
X102445000Y-116194250D01*
X102445000Y-115728690D01*
X102348327Y-115495301D01*
X102169698Y-115316673D01*
X101936309Y-115220000D01*
X101595750Y-115220000D01*
X101437000Y-115378750D01*
X101183000Y-115378750D01*
X101024250Y-115220000D01*
X100683691Y-115220000D01*
X100450302Y-115316673D01*
X100309064Y-115457910D01*
X100274090Y-115403559D01*
X100061890Y-115258569D01*
X99810000Y-115207560D01*
X99435000Y-115207560D01*
X99435000Y-114975005D01*
X99435001Y-114975000D01*
X99435000Y-114974995D01*
X99435000Y-113274669D01*
X99451441Y-113264090D01*
X99596431Y-113051890D01*
X99647440Y-112800000D01*
X99647440Y-112645750D01*
X105425000Y-112645750D01*
X105425000Y-113111310D01*
X105521673Y-113344699D01*
X105700302Y-113523327D01*
X105933691Y-113620000D01*
X106274250Y-113620000D01*
X106433000Y-113461250D01*
X106433000Y-112487000D01*
X105583750Y-112487000D01*
X105425000Y-112645750D01*
X99647440Y-112645750D01*
X99647440Y-112300000D01*
X99603162Y-112064683D01*
X99464090Y-111848559D01*
X99394289Y-111800866D01*
X99451441Y-111764090D01*
X99557621Y-111608690D01*
X105425000Y-111608690D01*
X105425000Y-112074250D01*
X105583750Y-112233000D01*
X106433000Y-112233000D01*
X106433000Y-111258750D01*
X106274250Y-111100000D01*
X105933691Y-111100000D01*
X105700302Y-111196673D01*
X105521673Y-111375301D01*
X105425000Y-111608690D01*
X99557621Y-111608690D01*
X99596431Y-111551890D01*
X99647440Y-111300000D01*
X99647440Y-110800000D01*
X99603162Y-110564683D01*
X99464090Y-110348559D01*
X99435000Y-110328683D01*
X99435000Y-110049669D01*
X99451441Y-110039090D01*
X99596431Y-109826890D01*
X99647440Y-109575000D01*
X99647440Y-109075000D01*
X99603162Y-108839683D01*
X99600632Y-108835750D01*
X105425000Y-108835750D01*
X105425000Y-109301310D01*
X105521673Y-109534699D01*
X105700302Y-109713327D01*
X105933691Y-109810000D01*
X106274250Y-109810000D01*
X106433000Y-109651250D01*
X106433000Y-108677000D01*
X105583750Y-108677000D01*
X105425000Y-108835750D01*
X99600632Y-108835750D01*
X99464090Y-108623559D01*
X99395994Y-108577031D01*
X99538327Y-108434698D01*
X99635000Y-108201309D01*
X99635000Y-108108750D01*
X99476250Y-107950000D01*
X98677000Y-107950000D01*
X98677000Y-107972000D01*
X98423000Y-107972000D01*
X98423000Y-107950000D01*
X97623750Y-107950000D01*
X97465000Y-108108750D01*
X97465000Y-108201309D01*
X97561673Y-108434698D01*
X97702910Y-108575936D01*
X97648559Y-108610910D01*
X97503569Y-108823110D01*
X97452560Y-109075000D01*
X97452560Y-109575000D01*
X97496838Y-109810317D01*
X97635910Y-110026441D01*
X97665000Y-110046317D01*
X97665000Y-110325331D01*
X97648559Y-110335910D01*
X97503569Y-110548110D01*
X97464710Y-110740000D01*
X97337473Y-110740000D01*
X97346431Y-110726890D01*
X97397440Y-110475000D01*
X97397440Y-108975000D01*
X97353162Y-108739683D01*
X97214090Y-108523559D01*
X97001890Y-108378569D01*
X96750000Y-108327560D01*
X93150000Y-108327560D01*
X92914683Y-108371838D01*
X92698559Y-108510910D01*
X92553569Y-108723110D01*
X92502560Y-108975000D01*
X92502560Y-109329535D01*
X92434698Y-109261673D01*
X92201309Y-109165000D01*
X92035750Y-109165000D01*
X91877000Y-109323750D01*
X91877000Y-109652560D01*
X91623000Y-109652560D01*
X91623000Y-109323750D01*
X91464250Y-109165000D01*
X91302162Y-109165000D01*
X91226890Y-109113569D01*
X90975000Y-109062560D01*
X89425000Y-109062560D01*
X89189683Y-109106838D01*
X89084248Y-109174683D01*
X88975000Y-109152560D01*
X88442007Y-109152560D01*
X88385092Y-109095645D01*
X88385162Y-109014833D01*
X88243117Y-108671057D01*
X88107297Y-108535000D01*
X90199995Y-108535000D01*
X90200000Y-108535001D01*
X90517535Y-108471838D01*
X90538675Y-108467633D01*
X90825790Y-108275790D01*
X91276147Y-107825432D01*
X91276150Y-107825430D01*
X91294016Y-107798690D01*
X105425000Y-107798690D01*
X105425000Y-108264250D01*
X105583750Y-108423000D01*
X106433000Y-108423000D01*
X106433000Y-107448750D01*
X106274250Y-107290000D01*
X105933691Y-107290000D01*
X105700302Y-107386673D01*
X105521673Y-107565301D01*
X105425000Y-107798690D01*
X91294016Y-107798690D01*
X91467993Y-107538315D01*
X91482099Y-107467401D01*
X91485820Y-107448691D01*
X97465000Y-107448691D01*
X97465000Y-107541250D01*
X97623750Y-107700000D01*
X98423000Y-107700000D01*
X98423000Y-107098750D01*
X98677000Y-107098750D01*
X98677000Y-107700000D01*
X99476250Y-107700000D01*
X99635000Y-107541250D01*
X99635000Y-107448691D01*
X99538327Y-107215302D01*
X99359699Y-107036673D01*
X99126310Y-106940000D01*
X98835750Y-106940000D01*
X98677000Y-107098750D01*
X98423000Y-107098750D01*
X98264250Y-106940000D01*
X97973690Y-106940000D01*
X97740301Y-107036673D01*
X97561673Y-107215302D01*
X97465000Y-107448691D01*
X91485820Y-107448691D01*
X91535361Y-107199640D01*
X91535360Y-107199635D01*
X91535360Y-106697540D01*
X92150230Y-106697540D01*
X92385547Y-106653262D01*
X92601671Y-106514190D01*
X92746661Y-106301990D01*
X92797670Y-106050100D01*
X92797670Y-105535750D01*
X92914770Y-105535750D01*
X92914770Y-106176410D01*
X93011443Y-106409799D01*
X93190072Y-106588427D01*
X93423461Y-106685100D01*
X94763890Y-106685100D01*
X94922640Y-106526350D01*
X94922640Y-105377000D01*
X95176640Y-105377000D01*
X95176640Y-106526350D01*
X95335390Y-106685100D01*
X96675819Y-106685100D01*
X96909208Y-106588427D01*
X97087837Y-106409799D01*
X97184510Y-106176410D01*
X97184510Y-105535750D01*
X97025760Y-105377000D01*
X95176640Y-105377000D01*
X94922640Y-105377000D01*
X93073520Y-105377000D01*
X92914770Y-105535750D01*
X92797670Y-105535750D01*
X92797670Y-104449900D01*
X92773904Y-104323590D01*
X92914770Y-104323590D01*
X92914770Y-104964250D01*
X93073520Y-105123000D01*
X94922640Y-105123000D01*
X94922640Y-103973650D01*
X95176640Y-103973650D01*
X95176640Y-105123000D01*
X97025760Y-105123000D01*
X97184510Y-104964250D01*
X97184510Y-104323590D01*
X97087837Y-104090201D01*
X96909208Y-103911573D01*
X96675819Y-103814900D01*
X95335390Y-103814900D01*
X95176640Y-103973650D01*
X94922640Y-103973650D01*
X94763890Y-103814900D01*
X93423461Y-103814900D01*
X93190072Y-103911573D01*
X93011443Y-104090201D01*
X92914770Y-104323590D01*
X92773904Y-104323590D01*
X92753392Y-104214583D01*
X92614320Y-103998459D01*
X92402120Y-103853469D01*
X92150230Y-103802460D01*
X89150490Y-103802460D01*
X88915173Y-103846738D01*
X88699049Y-103985810D01*
X88554059Y-104198010D01*
X88520243Y-104365000D01*
X88009802Y-104365000D01*
X88727401Y-103647401D01*
X88892148Y-103400840D01*
X88911561Y-103303243D01*
X88950000Y-103110000D01*
X88950000Y-99579262D01*
X89249670Y-99379029D01*
X89460000Y-99064248D01*
X89670330Y-99379029D01*
X90156511Y-99703885D01*
X90730000Y-99817959D01*
X91303489Y-99703885D01*
X91789670Y-99379029D01*
X92005664Y-99055772D01*
X92063179Y-99178490D01*
X92495053Y-99572688D01*
X92910974Y-99744958D01*
X93143000Y-99623817D01*
X93143000Y-98417000D01*
X93123000Y-98417000D01*
X93123000Y-98163000D01*
X93143000Y-98163000D01*
X93143000Y-98143000D01*
X93397000Y-98143000D01*
X93397000Y-98163000D01*
G36*
X122569673Y-117812192D02*
X122913201Y-117954838D01*
X123285167Y-117955162D01*
X123445330Y-117888984D01*
X123520954Y-118269173D01*
X123366799Y-118205162D01*
X122994833Y-118204838D01*
X122651057Y-118346883D01*
X122387808Y-118609673D01*
X122245162Y-118953201D01*
X122244838Y-119325167D01*
X122386883Y-119668943D01*
X122649673Y-119932192D01*
X122993201Y-120074838D01*
X123365167Y-120075162D01*
X123658129Y-119954113D01*
X123501375Y-120188711D01*
X123340000Y-121000000D01*
X123340000Y-121167515D01*
X123320327Y-121147808D01*
X122976799Y-121005162D01*
X122604833Y-121004838D01*
X122261057Y-121146883D01*
X121997808Y-121409673D01*
X121855162Y-121753201D01*
X121854838Y-122125167D01*
X121996883Y-122468943D01*
X122259673Y-122732192D01*
X122603201Y-122874838D01*
X122975167Y-122875162D01*
X123318943Y-122733117D01*
X123509277Y-122543115D01*
X123960934Y-123219066D01*
X124374690Y-123495530D01*
X124358559Y-123505910D01*
X124237606Y-123682931D01*
X124090934Y-123780934D01*
X123631375Y-124468711D01*
X123470000Y-125280000D01*
X123470000Y-125816854D01*
X123355000Y-126395000D01*
X123355000Y-127782926D01*
X123100327Y-127527808D01*
X122756799Y-127385162D01*
X122384833Y-127384838D01*
X122041057Y-127526883D01*
X121777808Y-127789673D01*
X121635162Y-128133201D01*
X121634838Y-128505167D01*
X121776883Y-128848943D01*
X122039673Y-129112192D01*
X122383201Y-129254838D01*
X122755167Y-129255162D01*
X123098943Y-129113117D01*
X123362192Y-128850327D01*
X123415876Y-128721043D01*
X123516375Y-129226289D01*
X123975934Y-129914066D01*
X124326885Y-130148564D01*
X124360910Y-130201441D01*
X124503172Y-130298644D01*
X123975934Y-130650934D01*
X123575035Y-131250921D01*
X123575162Y-131104833D01*
X123433117Y-130761057D01*
X123170327Y-130497808D01*
X122826799Y-130355162D01*
X122454833Y-130354838D01*
X122111057Y-130496883D01*
X121847808Y-130759673D01*
X121705162Y-131103201D01*
X121704838Y-131475167D01*
X121846883Y-131818943D01*
X122109673Y-132082192D01*
X122453201Y-132224838D01*
X122825167Y-132225162D01*
X123168943Y-132083117D01*
X123417698Y-131834796D01*
X123355000Y-132150000D01*
X123355000Y-134191835D01*
X123243117Y-133921057D01*
X122980327Y-133657808D01*
X122636799Y-133515162D01*
X122264833Y-133514838D01*
X121921057Y-133656883D01*
X121657808Y-133919673D01*
X121515162Y-134263201D01*
X121514838Y-134635167D01*
X121656883Y-134978943D01*
X121919673Y-135242192D01*
X122263201Y-135384838D01*
X122635167Y-135385162D01*
X122978943Y-135243117D01*
X123242192Y-134980327D01*
X123355000Y-134708657D01*
X123355000Y-136514320D01*
X123330001Y-136640000D01*
X123491375Y-137451289D01*
X123950934Y-138139066D01*
X124317521Y-138384012D01*
X124360910Y-138451441D01*
X124430711Y-138499134D01*
X124373559Y-138535910D01*
X124228569Y-138748110D01*
X124177560Y-139000000D01*
X124177560Y-139079507D01*
X123950934Y-139230934D01*
X123491375Y-139918711D01*
X123355333Y-140602641D01*
X123243117Y-140331057D01*
X122980327Y-140067808D01*
X122636799Y-139925162D01*
X122264833Y-139924838D01*
X121921057Y-140066883D01*
X121657808Y-140329673D01*
X121515162Y-140673201D01*
X121514838Y-141045167D01*
X121656883Y-141388943D01*
X121919673Y-141652192D01*
X122263201Y-141794838D01*
X122635167Y-141795162D01*
X122978943Y-141653117D01*
X123242192Y-141390327D01*
X123330000Y-141178863D01*
X123330000Y-142700000D01*
X123482952Y-143468943D01*
X123491375Y-143511289D01*
X123950934Y-144199066D01*
X123960934Y-144209066D01*
X124062560Y-144276970D01*
X124062560Y-148835000D01*
X122695000Y-148835000D01*
X122695000Y-148165750D01*
X122536250Y-148007000D01*
X121387000Y-148007000D01*
X121387000Y-148027000D01*
X121133000Y-148027000D01*
X121133000Y-148007000D01*
X119983750Y-148007000D01*
X119825000Y-148165750D01*
X119825000Y-148835000D01*
X109385000Y-148835000D01*
X109385000Y-148125750D01*
X109226250Y-147967000D01*
X108077000Y-147967000D01*
X108077000Y-147987000D01*
X107823000Y-147987000D01*
X107823000Y-147967000D01*
X106673750Y-147967000D01*
X106515000Y-148125750D01*
X106515000Y-148835000D01*
X105147440Y-148835000D01*
X105147440Y-147906970D01*
X105249066Y-147839066D01*
X105708625Y-147151289D01*
X105870000Y-146340000D01*
X105870000Y-145625750D01*
X106515000Y-145625750D01*
X106515000Y-147554250D01*
X106673750Y-147713000D01*
X107823000Y-147713000D01*
X107823000Y-145467000D01*
X108077000Y-145467000D01*
X108077000Y-147713000D01*
X109226250Y-147713000D01*
X109385000Y-147554250D01*
X109385000Y-145665750D01*
X119825000Y-145665750D01*
X119825000Y-147594250D01*
X119983750Y-147753000D01*
X121133000Y-147753000D01*
X121133000Y-145507000D01*
X121387000Y-145507000D01*
X121387000Y-147753000D01*
X122536250Y-147753000D01*
X122695000Y-147594250D01*
X122695000Y-145665750D01*
X122536250Y-145507000D01*
X121387000Y-145507000D01*
X121133000Y-145507000D01*
X119983750Y-145507000D01*
X119825000Y-145665750D01*
X109385000Y-145665750D01*
X109385000Y-145625750D01*
X109226250Y-145467000D01*
X108077000Y-145467000D01*
X107823000Y-145467000D01*
X106673750Y-145467000D01*
X106515000Y-145625750D01*
X105870000Y-145625750D01*
X105870000Y-143963690D01*
X106515000Y-143963690D01*
X106515000Y-145054250D01*
X106673750Y-145213000D01*
X107823000Y-145213000D01*
X107823000Y-143613750D01*
X108077000Y-143613750D01*
X108077000Y-145213000D01*
X109226250Y-145213000D01*
X109385000Y-145054250D01*
X109385000Y-144003690D01*
X119825000Y-144003690D01*
X119825000Y-145094250D01*
X119983750Y-145253000D01*
X121133000Y-145253000D01*
X121133000Y-143653750D01*
X120974250Y-143495000D01*
X120333691Y-143495000D01*
X120100302Y-143591673D01*
X119921673Y-143770301D01*
X119825000Y-144003690D01*
X109385000Y-144003690D01*
X109385000Y-143963690D01*
X109288327Y-143730301D01*
X109109698Y-143551673D01*
X108876309Y-143455000D01*
X108235750Y-143455000D01*
X108077000Y-143613750D01*
X107823000Y-143613750D01*
X107664250Y-143455000D01*
X107023691Y-143455000D01*
X106790302Y-143551673D01*
X106611673Y-143730301D01*
X106515000Y-143963690D01*
X105870000Y-143963690D01*
X105870000Y-142545167D01*
X107204838Y-142545167D01*
X107346883Y-142888943D01*
X107609673Y-143152192D01*
X107953201Y-143294838D01*
X108325167Y-143295162D01*
X108668943Y-143153117D01*
X108696941Y-143125167D01*
X121334838Y-143125167D01*
X121476883Y-143468943D01*
X121524304Y-143516446D01*
X121387000Y-143653750D01*
X121387000Y-145253000D01*
X122536250Y-145253000D01*
X122695000Y-145094250D01*
X122695000Y-144003690D01*
X122614493Y-143809330D01*
X122798943Y-143733117D01*
X123062192Y-143470327D01*
X123204838Y-143126799D01*
X123205162Y-142754833D01*
X123063117Y-142411057D01*
X122800327Y-142147808D01*
X122456799Y-142005162D01*
X122084833Y-142004838D01*
X121741057Y-142146883D01*
X121477808Y-142409673D01*
X121335162Y-142753201D01*
X121334838Y-143125167D01*
X108696941Y-143125167D01*
X108932192Y-142890327D01*
X109074838Y-142546799D01*
X109075162Y-142174833D01*
X108933117Y-141831057D01*
X108670327Y-141567808D01*
X108326799Y-141425162D01*
X107954833Y-141424838D01*
X107611057Y-141566883D01*
X107347808Y-141829673D01*
X107205162Y-142173201D01*
X107204838Y-142545167D01*
X105870000Y-142545167D01*
X105870000Y-141488132D01*
X107272965Y-140085167D01*
X108754838Y-140085167D01*
X108896883Y-140428943D01*
X109159673Y-140692192D01*
X109503201Y-140834838D01*
X109875167Y-140835162D01*
X110218943Y-140693117D01*
X110482192Y-140430327D01*
X110624838Y-140086799D01*
X110625162Y-139714833D01*
X110483117Y-139371057D01*
X110220327Y-139107808D01*
X109876799Y-138965162D01*
X109504833Y-138964838D01*
X109161057Y-139106883D01*
X108897808Y-139369673D01*
X108755162Y-139713201D01*
X108754838Y-140085167D01*
X107272965Y-140085167D01*
X109682965Y-137675167D01*
X110594838Y-137675167D01*
X110736883Y-138018943D01*
X110999673Y-138282192D01*
X111343201Y-138424838D01*
X111715167Y-138425162D01*
X112058943Y-138283117D01*
X112307326Y-138035167D01*
X121484838Y-138035167D01*
X121626883Y-138378943D01*
X121889673Y-138642192D01*
X122233201Y-138784838D01*
X122605167Y-138785162D01*
X122948943Y-138643117D01*
X123212192Y-138380327D01*
X123354838Y-138036799D01*
X123355162Y-137664833D01*
X123213117Y-137321057D01*
X122950327Y-137057808D01*
X122606799Y-136915162D01*
X122234833Y-136914838D01*
X121891057Y-137056883D01*
X121627808Y-137319673D01*
X121485162Y-137663201D01*
X121484838Y-138035167D01*
X112307326Y-138035167D01*
X112322192Y-138020327D01*
X112464838Y-137676799D01*
X112465162Y-137304833D01*
X112323117Y-136961057D01*
X112060327Y-136697808D01*
X111716799Y-136555162D01*
X111344833Y-136554838D01*
X111001057Y-136696883D01*
X110737808Y-136959673D01*
X110595162Y-137303201D01*
X110594838Y-137675167D01*
X109682965Y-137675167D01*
X111522965Y-135835167D01*
X112454838Y-135835167D01*
X112596883Y-136178943D01*
X112859673Y-136442192D01*
X113203201Y-136584838D01*
X113575167Y-136585162D01*
X113918943Y-136443117D01*
X114182192Y-136180327D01*
X114324838Y-135836799D01*
X114325162Y-135464833D01*
X114183117Y-135121057D01*
X113920327Y-134857808D01*
X113576799Y-134715162D01*
X113204833Y-134714838D01*
X112861057Y-134856883D01*
X112597808Y-135119673D01*
X112455162Y-135463201D01*
X112454838Y-135835167D01*
X111522965Y-135835167D01*
X113062965Y-134295167D01*
X114094838Y-134295167D01*
X114236883Y-134638943D01*
X114499673Y-134902192D01*
X114843201Y-135044838D01*
X115215167Y-135045162D01*
X115558943Y-134903117D01*
X115822192Y-134640327D01*
X115964838Y-134296799D01*
X115965162Y-133924833D01*
X115823117Y-133581057D01*
X115560327Y-133317808D01*
X115216799Y-133175162D01*
X114844833Y-133174838D01*
X114501057Y-133316883D01*
X114237808Y-133579673D01*
X114095162Y-133923201D01*
X114094838Y-134295167D01*
X113062965Y-134295167D01*
X115042965Y-132315167D01*
X115824838Y-132315167D01*
X115966883Y-132658943D01*
X116229673Y-132922192D01*
X116573201Y-133064838D01*
X116945167Y-133065162D01*
X117288943Y-132923117D01*
X117552192Y-132660327D01*
X117694838Y-132316799D01*
X117695162Y-131944833D01*
X117553117Y-131601057D01*
X117290327Y-131337808D01*
X116946799Y-131195162D01*
X116574833Y-131194838D01*
X116231057Y-131336883D01*
X115967808Y-131599673D01*
X115825162Y-131943201D01*
X115824838Y-132315167D01*
X115042965Y-132315167D01*
X116109066Y-131249067D01*
X116568625Y-130561289D01*
X116580106Y-130503569D01*
X116725082Y-129774723D01*
X116724838Y-130055167D01*
X116866883Y-130398943D01*
X117129673Y-130662192D01*
X117473201Y-130804838D01*
X117845167Y-130805162D01*
X118188943Y-130663117D01*
X118452192Y-130400327D01*
X118594838Y-130056799D01*
X118595162Y-129684833D01*
X118453117Y-129341057D01*
X118190327Y-129077808D01*
X117846799Y-128935162D01*
X117474833Y-128934838D01*
X117131057Y-129076883D01*
X116867808Y-129339673D01*
X116730000Y-129671550D01*
X116730000Y-127407660D01*
X116866883Y-127738943D01*
X117129673Y-128002192D01*
X117473201Y-128144838D01*
X117845167Y-128145162D01*
X118188943Y-128003117D01*
X118452192Y-127740327D01*
X118594838Y-127396799D01*
X118595162Y-127024833D01*
X118453117Y-126681057D01*
X118190327Y-126417808D01*
X117846799Y-126275162D01*
X117474833Y-126274838D01*
X117131057Y-126416883D01*
X116867808Y-126679673D01*
X116730000Y-127011550D01*
X116730000Y-125945167D01*
X121554838Y-125945167D01*
X121696883Y-126288943D01*
X121959673Y-126552192D01*
X122303201Y-126694838D01*
X122675167Y-126695162D01*
X123018943Y-126553117D01*
X123282192Y-126290327D01*
X123424838Y-125946799D01*
X123425162Y-125574833D01*
X123283117Y-125231057D01*
X123020327Y-124967808D01*
X122676799Y-124825162D01*
X122304833Y-124824838D01*
X121961057Y-124966883D01*
X121697808Y-125229673D01*
X121555162Y-125573201D01*
X121554838Y-125945167D01*
X116730000Y-125945167D01*
X116730000Y-124615167D01*
X116734838Y-124615167D01*
X116876883Y-124958943D01*
X117139673Y-125222192D01*
X117483201Y-125364838D01*
X117855167Y-125365162D01*
X118198943Y-125223117D01*
X118462192Y-124960327D01*
X118604838Y-124616799D01*
X118605162Y-124244833D01*
X118463117Y-123901057D01*
X118200327Y-123637808D01*
X117856799Y-123495162D01*
X117484833Y-123494838D01*
X117141057Y-123636883D01*
X116877808Y-123899673D01*
X116735162Y-124243201D01*
X116734838Y-124615167D01*
X116730000Y-124615167D01*
X116730000Y-124360000D01*
X116568625Y-123548711D01*
X116109066Y-122860934D01*
X115756217Y-122625167D01*
X116744838Y-122625167D01*
X116886883Y-122968943D01*
X117149673Y-123232192D01*
X117493201Y-123374838D01*
X117865167Y-123375162D01*
X118208943Y-123233117D01*
X118472192Y-122970327D01*
X118614838Y-122626799D01*
X118615162Y-122254833D01*
X118473117Y-121911057D01*
X118210327Y-121647808D01*
X117866799Y-121505162D01*
X117494833Y-121504838D01*
X117151057Y-121646883D01*
X116887808Y-121909673D01*
X116745162Y-122253201D01*
X116744838Y-122625167D01*
X115756217Y-122625167D01*
X115732841Y-122609548D01*
X115728162Y-122584683D01*
X115589090Y-122368559D01*
X115519289Y-122320866D01*
X115576441Y-122284090D01*
X115680335Y-122132036D01*
X115999066Y-121919066D01*
X116059067Y-121859066D01*
X116518625Y-121171289D01*
X116667071Y-120425000D01*
X117372720Y-120425000D01*
X117365162Y-120443201D01*
X117364838Y-120815167D01*
X117506883Y-121158943D01*
X117769673Y-121422192D01*
X118113201Y-121564838D01*
X118485167Y-121565162D01*
X118828943Y-121423117D01*
X119092192Y-121160327D01*
X119234838Y-120816799D01*
X119235081Y-120537657D01*
X119493201Y-120644838D01*
X119865167Y-120645162D01*
X120208943Y-120503117D01*
X120472192Y-120240327D01*
X120614838Y-119896799D01*
X120615162Y-119524833D01*
X120473117Y-119181057D01*
X120210327Y-118917808D01*
X119869542Y-118776301D01*
X120050402Y-118595441D01*
X120146883Y-118828943D01*
X120409673Y-119092192D01*
X120753201Y-119234838D01*
X121125167Y-119235162D01*
X121468943Y-119093117D01*
X121732192Y-118830327D01*
X121874838Y-118486799D01*
X121875162Y-118114833D01*
X121825708Y-117995145D01*
X121845167Y-117995162D01*
X122188943Y-117853117D01*
X122400103Y-117642325D01*
X122569673Y-117812192D01*
X122569673Y-117812192D01*
G37*
X122569673Y-117812192D02*
X122913201Y-117954838D01*
X123285167Y-117955162D01*
X123445330Y-117888984D01*
X123520954Y-118269173D01*
X123366799Y-118205162D01*
X122994833Y-118204838D01*
X122651057Y-118346883D01*
X122387808Y-118609673D01*
X122245162Y-118953201D01*
X122244838Y-119325167D01*
X122386883Y-119668943D01*
X122649673Y-119932192D01*
X122993201Y-120074838D01*
X123365167Y-120075162D01*
X123658129Y-119954113D01*
X123501375Y-120188711D01*
X123340000Y-121000000D01*
X123340000Y-121167515D01*
X123320327Y-121147808D01*
X122976799Y-121005162D01*
X122604833Y-121004838D01*
X122261057Y-121146883D01*
X121997808Y-121409673D01*
X121855162Y-121753201D01*
X121854838Y-122125167D01*
X121996883Y-122468943D01*
X122259673Y-122732192D01*
X122603201Y-122874838D01*
X122975167Y-122875162D01*
X123318943Y-122733117D01*
X123509277Y-122543115D01*
X123960934Y-123219066D01*
X124374690Y-123495530D01*
X124358559Y-123505910D01*
X124237606Y-123682931D01*
X124090934Y-123780934D01*
X123631375Y-124468711D01*
X123470000Y-125280000D01*
X123470000Y-125816854D01*
X123355000Y-126395000D01*
X123355000Y-127782926D01*
X123100327Y-127527808D01*
X122756799Y-127385162D01*
X122384833Y-127384838D01*
X122041057Y-127526883D01*
X121777808Y-127789673D01*
X121635162Y-128133201D01*
X121634838Y-128505167D01*
X121776883Y-128848943D01*
X122039673Y-129112192D01*
X122383201Y-129254838D01*
X122755167Y-129255162D01*
X123098943Y-129113117D01*
X123362192Y-128850327D01*
X123415876Y-128721043D01*
X123516375Y-129226289D01*
X123975934Y-129914066D01*
X124326885Y-130148564D01*
X124360910Y-130201441D01*
X124503172Y-130298644D01*
X123975934Y-130650934D01*
X123575035Y-131250921D01*
X123575162Y-131104833D01*
X123433117Y-130761057D01*
X123170327Y-130497808D01*
X122826799Y-130355162D01*
X122454833Y-130354838D01*
X122111057Y-130496883D01*
X121847808Y-130759673D01*
X121705162Y-131103201D01*
X121704838Y-131475167D01*
X121846883Y-131818943D01*
X122109673Y-132082192D01*
X122453201Y-132224838D01*
X122825167Y-132225162D01*
X123168943Y-132083117D01*
X123417698Y-131834796D01*
X123355000Y-132150000D01*
X123355000Y-134191835D01*
X123243117Y-133921057D01*
X122980327Y-133657808D01*
X122636799Y-133515162D01*
X122264833Y-133514838D01*
X121921057Y-133656883D01*
X121657808Y-133919673D01*
X121515162Y-134263201D01*
X121514838Y-134635167D01*
X121656883Y-134978943D01*
X121919673Y-135242192D01*
X122263201Y-135384838D01*
X122635167Y-135385162D01*
X122978943Y-135243117D01*
X123242192Y-134980327D01*
X123355000Y-134708657D01*
X123355000Y-136514320D01*
X123330001Y-136640000D01*
X123491375Y-137451289D01*
X123950934Y-138139066D01*
X124317521Y-138384012D01*
X124360910Y-138451441D01*
X124430711Y-138499134D01*
X124373559Y-138535910D01*
X124228569Y-138748110D01*
X124177560Y-139000000D01*
X124177560Y-139079507D01*
X123950934Y-139230934D01*
X123491375Y-139918711D01*
X123355333Y-140602641D01*
X123243117Y-140331057D01*
X122980327Y-140067808D01*
X122636799Y-139925162D01*
X122264833Y-139924838D01*
X121921057Y-140066883D01*
X121657808Y-140329673D01*
X121515162Y-140673201D01*
X121514838Y-141045167D01*
X121656883Y-141388943D01*
X121919673Y-141652192D01*
X122263201Y-141794838D01*
X122635167Y-141795162D01*
X122978943Y-141653117D01*
X123242192Y-141390327D01*
X123330000Y-141178863D01*
X123330000Y-142700000D01*
X123482952Y-143468943D01*
X123491375Y-143511289D01*
X123950934Y-144199066D01*
X123960934Y-144209066D01*
X124062560Y-144276970D01*
X124062560Y-148835000D01*
X122695000Y-148835000D01*
X122695000Y-148165750D01*
X122536250Y-148007000D01*
X121387000Y-148007000D01*
X121387000Y-148027000D01*
X121133000Y-148027000D01*
X121133000Y-148007000D01*
X119983750Y-148007000D01*
X119825000Y-148165750D01*
X119825000Y-148835000D01*
X109385000Y-148835000D01*
X109385000Y-148125750D01*
X109226250Y-147967000D01*
X108077000Y-147967000D01*
X108077000Y-147987000D01*
X107823000Y-147987000D01*
X107823000Y-147967000D01*
X106673750Y-147967000D01*
X106515000Y-148125750D01*
X106515000Y-148835000D01*
X105147440Y-148835000D01*
X105147440Y-147906970D01*
X105249066Y-147839066D01*
X105708625Y-147151289D01*
X105870000Y-146340000D01*
X105870000Y-145625750D01*
X106515000Y-145625750D01*
X106515000Y-147554250D01*
X106673750Y-147713000D01*
X107823000Y-147713000D01*
X107823000Y-145467000D01*
X108077000Y-145467000D01*
X108077000Y-147713000D01*
X109226250Y-147713000D01*
X109385000Y-147554250D01*
X109385000Y-145665750D01*
X119825000Y-145665750D01*
X119825000Y-147594250D01*
X119983750Y-147753000D01*
X121133000Y-147753000D01*
X121133000Y-145507000D01*
X121387000Y-145507000D01*
X121387000Y-147753000D01*
X122536250Y-147753000D01*
X122695000Y-147594250D01*
X122695000Y-145665750D01*
X122536250Y-145507000D01*
X121387000Y-145507000D01*
X121133000Y-145507000D01*
X119983750Y-145507000D01*
X119825000Y-145665750D01*
X109385000Y-145665750D01*
X109385000Y-145625750D01*
X109226250Y-145467000D01*
X108077000Y-145467000D01*
X107823000Y-145467000D01*
X106673750Y-145467000D01*
X106515000Y-145625750D01*
X105870000Y-145625750D01*
X105870000Y-143963690D01*
X106515000Y-143963690D01*
X106515000Y-145054250D01*
X106673750Y-145213000D01*
X107823000Y-145213000D01*
X107823000Y-143613750D01*
X108077000Y-143613750D01*
X108077000Y-145213000D01*
X109226250Y-145213000D01*
X109385000Y-145054250D01*
X109385000Y-144003690D01*
X119825000Y-144003690D01*
X119825000Y-145094250D01*
X119983750Y-145253000D01*
X121133000Y-145253000D01*
X121133000Y-143653750D01*
X120974250Y-143495000D01*
X120333691Y-143495000D01*
X120100302Y-143591673D01*
X119921673Y-143770301D01*
X119825000Y-144003690D01*
X109385000Y-144003690D01*
X109385000Y-143963690D01*
X109288327Y-143730301D01*
X109109698Y-143551673D01*
X108876309Y-143455000D01*
X108235750Y-143455000D01*
X108077000Y-143613750D01*
X107823000Y-143613750D01*
X107664250Y-143455000D01*
X107023691Y-143455000D01*
X106790302Y-143551673D01*
X106611673Y-143730301D01*
X106515000Y-143963690D01*
X105870000Y-143963690D01*
X105870000Y-142545167D01*
X107204838Y-142545167D01*
X107346883Y-142888943D01*
X107609673Y-143152192D01*
X107953201Y-143294838D01*
X108325167Y-143295162D01*
X108668943Y-143153117D01*
X108696941Y-143125167D01*
X121334838Y-143125167D01*
X121476883Y-143468943D01*
X121524304Y-143516446D01*
X121387000Y-143653750D01*
X121387000Y-145253000D01*
X122536250Y-145253000D01*
X122695000Y-145094250D01*
X122695000Y-144003690D01*
X122614493Y-143809330D01*
X122798943Y-143733117D01*
X123062192Y-143470327D01*
X123204838Y-143126799D01*
X123205162Y-142754833D01*
X123063117Y-142411057D01*
X122800327Y-142147808D01*
X122456799Y-142005162D01*
X122084833Y-142004838D01*
X121741057Y-142146883D01*
X121477808Y-142409673D01*
X121335162Y-142753201D01*
X121334838Y-143125167D01*
X108696941Y-143125167D01*
X108932192Y-142890327D01*
X109074838Y-142546799D01*
X109075162Y-142174833D01*
X108933117Y-141831057D01*
X108670327Y-141567808D01*
X108326799Y-141425162D01*
X107954833Y-141424838D01*
X107611057Y-141566883D01*
X107347808Y-141829673D01*
X107205162Y-142173201D01*
X107204838Y-142545167D01*
X105870000Y-142545167D01*
X105870000Y-141488132D01*
X107272965Y-140085167D01*
X108754838Y-140085167D01*
X108896883Y-140428943D01*
X109159673Y-140692192D01*
X109503201Y-140834838D01*
X109875167Y-140835162D01*
X110218943Y-140693117D01*
X110482192Y-140430327D01*
X110624838Y-140086799D01*
X110625162Y-139714833D01*
X110483117Y-139371057D01*
X110220327Y-139107808D01*
X109876799Y-138965162D01*
X109504833Y-138964838D01*
X109161057Y-139106883D01*
X108897808Y-139369673D01*
X108755162Y-139713201D01*
X108754838Y-140085167D01*
X107272965Y-140085167D01*
X109682965Y-137675167D01*
X110594838Y-137675167D01*
X110736883Y-138018943D01*
X110999673Y-138282192D01*
X111343201Y-138424838D01*
X111715167Y-138425162D01*
X112058943Y-138283117D01*
X112307326Y-138035167D01*
X121484838Y-138035167D01*
X121626883Y-138378943D01*
X121889673Y-138642192D01*
X122233201Y-138784838D01*
X122605167Y-138785162D01*
X122948943Y-138643117D01*
X123212192Y-138380327D01*
X123354838Y-138036799D01*
X123355162Y-137664833D01*
X123213117Y-137321057D01*
X122950327Y-137057808D01*
X122606799Y-136915162D01*
X122234833Y-136914838D01*
X121891057Y-137056883D01*
X121627808Y-137319673D01*
X121485162Y-137663201D01*
X121484838Y-138035167D01*
X112307326Y-138035167D01*
X112322192Y-138020327D01*
X112464838Y-137676799D01*
X112465162Y-137304833D01*
X112323117Y-136961057D01*
X112060327Y-136697808D01*
X111716799Y-136555162D01*
X111344833Y-136554838D01*
X111001057Y-136696883D01*
X110737808Y-136959673D01*
X110595162Y-137303201D01*
X110594838Y-137675167D01*
X109682965Y-137675167D01*
X111522965Y-135835167D01*
X112454838Y-135835167D01*
X112596883Y-136178943D01*
X112859673Y-136442192D01*
X113203201Y-136584838D01*
X113575167Y-136585162D01*
X113918943Y-136443117D01*
X114182192Y-136180327D01*
X114324838Y-135836799D01*
X114325162Y-135464833D01*
X114183117Y-135121057D01*
X113920327Y-134857808D01*
X113576799Y-134715162D01*
X113204833Y-134714838D01*
X112861057Y-134856883D01*
X112597808Y-135119673D01*
X112455162Y-135463201D01*
X112454838Y-135835167D01*
X111522965Y-135835167D01*
X113062965Y-134295167D01*
X114094838Y-134295167D01*
X114236883Y-134638943D01*
X114499673Y-134902192D01*
X114843201Y-135044838D01*
X115215167Y-135045162D01*
X115558943Y-134903117D01*
X115822192Y-134640327D01*
X115964838Y-134296799D01*
X115965162Y-133924833D01*
X115823117Y-133581057D01*
X115560327Y-133317808D01*
X115216799Y-133175162D01*
X114844833Y-133174838D01*
X114501057Y-133316883D01*
X114237808Y-133579673D01*
X114095162Y-133923201D01*
X114094838Y-134295167D01*
X113062965Y-134295167D01*
X115042965Y-132315167D01*
X115824838Y-132315167D01*
X115966883Y-132658943D01*
X116229673Y-132922192D01*
X116573201Y-133064838D01*
X116945167Y-133065162D01*
X117288943Y-132923117D01*
X117552192Y-132660327D01*
X117694838Y-132316799D01*
X117695162Y-131944833D01*
X117553117Y-131601057D01*
X117290327Y-131337808D01*
X116946799Y-131195162D01*
X116574833Y-131194838D01*
X116231057Y-131336883D01*
X115967808Y-131599673D01*
X115825162Y-131943201D01*
X115824838Y-132315167D01*
X115042965Y-132315167D01*
X116109066Y-131249067D01*
X116568625Y-130561289D01*
X116580106Y-130503569D01*
X116725082Y-129774723D01*
X116724838Y-130055167D01*
X116866883Y-130398943D01*
X117129673Y-130662192D01*
X117473201Y-130804838D01*
X117845167Y-130805162D01*
X118188943Y-130663117D01*
X118452192Y-130400327D01*
X118594838Y-130056799D01*
X118595162Y-129684833D01*
X118453117Y-129341057D01*
X118190327Y-129077808D01*
X117846799Y-128935162D01*
X117474833Y-128934838D01*
X117131057Y-129076883D01*
X116867808Y-129339673D01*
X116730000Y-129671550D01*
X116730000Y-127407660D01*
X116866883Y-127738943D01*
X117129673Y-128002192D01*
X117473201Y-128144838D01*
X117845167Y-128145162D01*
X118188943Y-128003117D01*
X118452192Y-127740327D01*
X118594838Y-127396799D01*
X118595162Y-127024833D01*
X118453117Y-126681057D01*
X118190327Y-126417808D01*
X117846799Y-126275162D01*
X117474833Y-126274838D01*
X117131057Y-126416883D01*
X116867808Y-126679673D01*
X116730000Y-127011550D01*
X116730000Y-125945167D01*
X121554838Y-125945167D01*
X121696883Y-126288943D01*
X121959673Y-126552192D01*
X122303201Y-126694838D01*
X122675167Y-126695162D01*
X123018943Y-126553117D01*
X123282192Y-126290327D01*
X123424838Y-125946799D01*
X123425162Y-125574833D01*
X123283117Y-125231057D01*
X123020327Y-124967808D01*
X122676799Y-124825162D01*
X122304833Y-124824838D01*
X121961057Y-124966883D01*
X121697808Y-125229673D01*
X121555162Y-125573201D01*
X121554838Y-125945167D01*
X116730000Y-125945167D01*
X116730000Y-124615167D01*
X116734838Y-124615167D01*
X116876883Y-124958943D01*
X117139673Y-125222192D01*
X117483201Y-125364838D01*
X117855167Y-125365162D01*
X118198943Y-125223117D01*
X118462192Y-124960327D01*
X118604838Y-124616799D01*
X118605162Y-124244833D01*
X118463117Y-123901057D01*
X118200327Y-123637808D01*
X117856799Y-123495162D01*
X117484833Y-123494838D01*
X117141057Y-123636883D01*
X116877808Y-123899673D01*
X116735162Y-124243201D01*
X116734838Y-124615167D01*
X116730000Y-124615167D01*
X116730000Y-124360000D01*
X116568625Y-123548711D01*
X116109066Y-122860934D01*
X115756217Y-122625167D01*
X116744838Y-122625167D01*
X116886883Y-122968943D01*
X117149673Y-123232192D01*
X117493201Y-123374838D01*
X117865167Y-123375162D01*
X118208943Y-123233117D01*
X118472192Y-122970327D01*
X118614838Y-122626799D01*
X118615162Y-122254833D01*
X118473117Y-121911057D01*
X118210327Y-121647808D01*
X117866799Y-121505162D01*
X117494833Y-121504838D01*
X117151057Y-121646883D01*
X116887808Y-121909673D01*
X116745162Y-122253201D01*
X116744838Y-122625167D01*
X115756217Y-122625167D01*
X115732841Y-122609548D01*
X115728162Y-122584683D01*
X115589090Y-122368559D01*
X115519289Y-122320866D01*
X115576441Y-122284090D01*
X115680335Y-122132036D01*
X115999066Y-121919066D01*
X116059067Y-121859066D01*
X116518625Y-121171289D01*
X116667071Y-120425000D01*
X117372720Y-120425000D01*
X117365162Y-120443201D01*
X117364838Y-120815167D01*
X117506883Y-121158943D01*
X117769673Y-121422192D01*
X118113201Y-121564838D01*
X118485167Y-121565162D01*
X118828943Y-121423117D01*
X119092192Y-121160327D01*
X119234838Y-120816799D01*
X119235081Y-120537657D01*
X119493201Y-120644838D01*
X119865167Y-120645162D01*
X120208943Y-120503117D01*
X120472192Y-120240327D01*
X120614838Y-119896799D01*
X120615162Y-119524833D01*
X120473117Y-119181057D01*
X120210327Y-118917808D01*
X119869542Y-118776301D01*
X120050402Y-118595441D01*
X120146883Y-118828943D01*
X120409673Y-119092192D01*
X120753201Y-119234838D01*
X121125167Y-119235162D01*
X121468943Y-119093117D01*
X121732192Y-118830327D01*
X121874838Y-118486799D01*
X121875162Y-118114833D01*
X121825708Y-117995145D01*
X121845167Y-117995162D01*
X122188943Y-117853117D01*
X122400103Y-117642325D01*
X122569673Y-117812192D01*
G36*
X138591024Y-94395630D02*
X138831748Y-94636354D01*
X138975888Y-94804517D01*
X139046288Y-94898384D01*
X139055000Y-94911452D01*
X139055000Y-146530000D01*
X139055995Y-146535000D01*
X139055000Y-146540000D01*
X139055000Y-148126048D01*
X139021288Y-148176616D01*
X138949582Y-148272224D01*
X138855230Y-148390164D01*
X138639263Y-148606131D01*
X138496202Y-148725348D01*
X138401616Y-148796288D01*
X138343548Y-148835000D01*
X131095000Y-148835000D01*
X131095000Y-148165750D01*
X130936250Y-148007000D01*
X129787000Y-148007000D01*
X129787000Y-148027000D01*
X129533000Y-148027000D01*
X129533000Y-148007000D01*
X128383750Y-148007000D01*
X128225000Y-148165750D01*
X128225000Y-148835000D01*
X126857440Y-148835000D01*
X126857440Y-145665750D01*
X128225000Y-145665750D01*
X128225000Y-147594250D01*
X128383750Y-147753000D01*
X129533000Y-147753000D01*
X129533000Y-145507000D01*
X129787000Y-145507000D01*
X129787000Y-147753000D01*
X130936250Y-147753000D01*
X131095000Y-147594250D01*
X131095000Y-145665750D01*
X130936250Y-145507000D01*
X129787000Y-145507000D01*
X129533000Y-145507000D01*
X128383750Y-145507000D01*
X128225000Y-145665750D01*
X126857440Y-145665750D01*
X126857440Y-144276970D01*
X126959066Y-144209066D01*
X127096294Y-144003690D01*
X128225000Y-144003690D01*
X128225000Y-145094250D01*
X128383750Y-145253000D01*
X129533000Y-145253000D01*
X129533000Y-143653750D01*
X129787000Y-143653750D01*
X129787000Y-145253000D01*
X130936250Y-145253000D01*
X131095000Y-145094250D01*
X131095000Y-144003690D01*
X130998327Y-143770301D01*
X130819698Y-143591673D01*
X130586309Y-143495000D01*
X129945750Y-143495000D01*
X129787000Y-143653750D01*
X129533000Y-143653750D01*
X129374250Y-143495000D01*
X128733691Y-143495000D01*
X128500302Y-143591673D01*
X128321673Y-143770301D01*
X128225000Y-144003690D01*
X127096294Y-144003690D01*
X127418625Y-143521289D01*
X127579999Y-142710000D01*
X127570000Y-142659731D01*
X127570000Y-142425167D01*
X128764838Y-142425167D01*
X128906883Y-142768943D01*
X129169673Y-143032192D01*
X129513201Y-143174838D01*
X129885167Y-143175162D01*
X130228943Y-143033117D01*
X130492192Y-142770327D01*
X130634838Y-142426799D01*
X130635162Y-142054833D01*
X130493117Y-141711057D01*
X130230327Y-141447808D01*
X129886799Y-141305162D01*
X129514833Y-141304838D01*
X129171057Y-141446883D01*
X128907808Y-141709673D01*
X128765162Y-142053201D01*
X128764838Y-142425167D01*
X127570000Y-142425167D01*
X127570000Y-140730000D01*
X127408625Y-139918711D01*
X126951895Y-139235167D01*
X128584838Y-139235167D01*
X128726883Y-139578943D01*
X128989673Y-139842192D01*
X129333201Y-139984838D01*
X129705167Y-139985162D01*
X130048943Y-139843117D01*
X130312192Y-139580327D01*
X130454838Y-139236799D01*
X130455162Y-138864833D01*
X130313117Y-138521057D01*
X130050327Y-138257808D01*
X129706799Y-138115162D01*
X129334833Y-138114838D01*
X128991057Y-138256883D01*
X128727808Y-138519673D01*
X128585162Y-138863201D01*
X128584838Y-139235167D01*
X126951895Y-139235167D01*
X126949066Y-139230934D01*
X126722440Y-139079507D01*
X126722440Y-139000000D01*
X126678162Y-138764683D01*
X126539090Y-138548559D01*
X126469289Y-138500866D01*
X126526441Y-138464090D01*
X126580044Y-138385639D01*
X126949066Y-138139066D01*
X126974066Y-138114067D01*
X127433625Y-137426289D01*
X127469320Y-137246838D01*
X127595000Y-136615000D01*
X127595000Y-135583557D01*
X127803691Y-135670000D01*
X128144250Y-135670000D01*
X128303000Y-135511250D01*
X128303000Y-134537000D01*
X128557000Y-134537000D01*
X128557000Y-135511250D01*
X128715750Y-135670000D01*
X129056309Y-135670000D01*
X129178195Y-135619513D01*
X129047808Y-135749673D01*
X128905162Y-136093201D01*
X128904838Y-136465167D01*
X129046883Y-136808943D01*
X129309673Y-137072192D01*
X129653201Y-137214838D01*
X130025167Y-137215162D01*
X130368943Y-137073117D01*
X130632192Y-136810327D01*
X130774838Y-136466799D01*
X130775162Y-136094833D01*
X130633117Y-135751057D01*
X130370327Y-135487808D01*
X130026799Y-135345162D01*
X129654833Y-135344838D01*
X129421972Y-135441054D01*
X129468327Y-135394699D01*
X129565000Y-135161310D01*
X129565000Y-134695750D01*
X129406250Y-134537000D01*
X128557000Y-134537000D01*
X128303000Y-134537000D01*
X128283000Y-134537000D01*
X128283000Y-134283000D01*
X128303000Y-134283000D01*
X128303000Y-134263000D01*
X128557000Y-134263000D01*
X128557000Y-134283000D01*
X129406250Y-134283000D01*
X129565000Y-134124250D01*
X129565000Y-133658690D01*
X129468327Y-133425301D01*
X129355733Y-133312707D01*
X129378943Y-133303117D01*
X129642192Y-133040327D01*
X129784838Y-132696799D01*
X129785162Y-132324833D01*
X129643117Y-131981057D01*
X129380327Y-131717808D01*
X129036799Y-131575162D01*
X128664833Y-131574838D01*
X128321057Y-131716883D01*
X128057808Y-131979673D01*
X127915162Y-132323201D01*
X127914838Y-132695167D01*
X128056883Y-133038943D01*
X128302998Y-133285488D01*
X128302998Y-133308748D01*
X128144250Y-133150000D01*
X127803691Y-133150000D01*
X127595000Y-133236443D01*
X127595000Y-132150000D01*
X127433625Y-131338711D01*
X126974066Y-130650934D01*
X126445951Y-130298058D01*
X126576441Y-130214090D01*
X126619614Y-130150904D01*
X126747928Y-130065167D01*
X127954838Y-130065167D01*
X128096883Y-130408943D01*
X128359673Y-130672192D01*
X128703201Y-130814838D01*
X129075167Y-130815162D01*
X129418943Y-130673117D01*
X129682192Y-130410327D01*
X129824838Y-130066799D01*
X129825162Y-129694833D01*
X129683117Y-129351057D01*
X129420327Y-129087808D01*
X129076799Y-128945162D01*
X128704833Y-128944838D01*
X128361057Y-129086883D01*
X128097808Y-129349673D01*
X127955162Y-129693201D01*
X127954838Y-130065167D01*
X126747928Y-130065167D01*
X126974066Y-129914066D01*
X127433625Y-129226289D01*
X127595000Y-128415000D01*
X127595000Y-127948025D01*
X127630302Y-127983327D01*
X127863691Y-128080000D01*
X128204250Y-128080000D01*
X128363000Y-127921250D01*
X128363000Y-126947000D01*
X128617000Y-126947000D01*
X128617000Y-127921250D01*
X128775750Y-128080000D01*
X129116309Y-128080000D01*
X129349698Y-127983327D01*
X129528327Y-127804699D01*
X129625000Y-127571310D01*
X129625000Y-127105750D01*
X129466250Y-126947000D01*
X128617000Y-126947000D01*
X128363000Y-126947000D01*
X128343000Y-126947000D01*
X128343000Y-126693000D01*
X128363000Y-126693000D01*
X128363000Y-125718750D01*
X128617000Y-125718750D01*
X128617000Y-126693000D01*
X129466250Y-126693000D01*
X129625000Y-126534250D01*
X129625000Y-126068690D01*
X129528327Y-125835301D01*
X129349698Y-125656673D01*
X129116309Y-125560000D01*
X128775750Y-125560000D01*
X128617000Y-125718750D01*
X128363000Y-125718750D01*
X128204250Y-125560000D01*
X127863691Y-125560000D01*
X127710000Y-125623661D01*
X127710000Y-125280000D01*
X127548625Y-124468711D01*
X127111940Y-123815167D01*
X128264838Y-123815167D01*
X128406883Y-124158943D01*
X128669673Y-124422192D01*
X129013201Y-124564838D01*
X129385167Y-124565162D01*
X129728943Y-124423117D01*
X129992192Y-124160327D01*
X130134838Y-123816799D01*
X130135162Y-123444833D01*
X129993117Y-123101057D01*
X129730327Y-122837808D01*
X129386799Y-122695162D01*
X129014833Y-122694838D01*
X128671057Y-122836883D01*
X128407808Y-123099673D01*
X128265162Y-123443201D01*
X128264838Y-123815167D01*
X127111940Y-123815167D01*
X127089066Y-123780934D01*
X126603620Y-123456568D01*
X126959066Y-123219066D01*
X127418625Y-122531289D01*
X127580000Y-121720000D01*
X127580000Y-121080543D01*
X127599999Y-120980000D01*
X127446228Y-120206936D01*
X127566883Y-120498943D01*
X127829673Y-120762192D01*
X128173201Y-120904838D01*
X128545167Y-120905162D01*
X128888943Y-120763117D01*
X129152192Y-120500327D01*
X129294838Y-120156799D01*
X129295162Y-119784833D01*
X129153117Y-119441057D01*
X128890327Y-119177808D01*
X128546799Y-119035162D01*
X128174833Y-119034838D01*
X127831057Y-119176883D01*
X127567808Y-119439673D01*
X127425162Y-119783201D01*
X127424844Y-120148087D01*
X126979066Y-119480934D01*
X126588552Y-119220000D01*
X126979066Y-118959066D01*
X127438625Y-118271289D01*
X127600000Y-117460000D01*
X127600000Y-116883390D01*
X127620000Y-116887440D01*
X128050062Y-116887440D01*
X128037808Y-116899673D01*
X127895162Y-117243201D01*
X127894838Y-117615167D01*
X128036883Y-117958943D01*
X128299673Y-118222192D01*
X128643201Y-118364838D01*
X129015167Y-118365162D01*
X129358943Y-118223117D01*
X129622192Y-117960327D01*
X129764838Y-117616799D01*
X129765162Y-117244833D01*
X129623117Y-116901057D01*
X129360327Y-116637808D01*
X129016799Y-116495162D01*
X128914256Y-116495073D01*
X128916431Y-116491890D01*
X128967440Y-116240000D01*
X128967440Y-115215167D01*
X129204838Y-115215167D01*
X129346883Y-115558943D01*
X129609673Y-115822192D01*
X129953201Y-115964838D01*
X130325167Y-115965162D01*
X130668943Y-115823117D01*
X130932192Y-115560327D01*
X131074838Y-115216799D01*
X131075162Y-114844833D01*
X130933117Y-114501057D01*
X130670327Y-114237808D01*
X130326799Y-114095162D01*
X129954833Y-114094838D01*
X129611057Y-114236883D01*
X129347808Y-114499673D01*
X129205162Y-114843201D01*
X129204838Y-115215167D01*
X128967440Y-115215167D01*
X128967440Y-114940000D01*
X128923162Y-114704683D01*
X128855000Y-114598756D01*
X128855000Y-114336822D01*
X128904838Y-114216799D01*
X128905162Y-113844833D01*
X128763117Y-113501057D01*
X128500327Y-113237808D01*
X128156799Y-113095162D01*
X127784833Y-113094838D01*
X127441057Y-113236883D01*
X127435000Y-113242929D01*
X127435000Y-112875750D01*
X127276250Y-112717000D01*
X126427000Y-112717000D01*
X126427000Y-113691250D01*
X126585750Y-113850000D01*
X126926309Y-113850000D01*
X127054364Y-113796958D01*
X127035162Y-113843201D01*
X127034838Y-114215167D01*
X127085000Y-114336569D01*
X127085000Y-114598203D01*
X127023569Y-114688110D01*
X127020919Y-114701197D01*
X126884090Y-114488559D01*
X126671890Y-114343569D01*
X126420000Y-114292560D01*
X126116699Y-114292560D01*
X125400000Y-114150001D01*
X124588711Y-114311375D01*
X124515755Y-114360123D01*
X124490000Y-114355000D01*
X121190000Y-114355000D01*
X121098085Y-114373283D01*
X121010000Y-114285198D01*
X121010000Y-113936742D01*
X121135317Y-113913162D01*
X121351441Y-113774090D01*
X121496431Y-113561890D01*
X121547440Y-113310000D01*
X121547440Y-112777440D01*
X122080000Y-112777440D01*
X122278976Y-112740000D01*
X122365198Y-112740000D01*
X122722599Y-113097401D01*
X122969161Y-113262148D01*
X123168908Y-113301880D01*
X123196838Y-113450317D01*
X123335910Y-113666441D01*
X123548110Y-113811431D01*
X123800000Y-113862440D01*
X124800000Y-113862440D01*
X125035317Y-113818162D01*
X125251441Y-113679090D01*
X125297969Y-113610994D01*
X125440302Y-113753327D01*
X125673691Y-113850000D01*
X126014250Y-113850000D01*
X126173000Y-113691250D01*
X126173000Y-112717000D01*
X126153000Y-112717000D01*
X126153000Y-112463000D01*
X126173000Y-112463000D01*
X126173000Y-111488750D01*
X126427000Y-111488750D01*
X126427000Y-112463000D01*
X127276250Y-112463000D01*
X127435000Y-112304250D01*
X127435000Y-111838690D01*
X127338327Y-111605301D01*
X127159698Y-111426673D01*
X126926309Y-111330000D01*
X126585750Y-111330000D01*
X126427000Y-111488750D01*
X126173000Y-111488750D01*
X126014250Y-111330000D01*
X125673691Y-111330000D01*
X125440302Y-111426673D01*
X125299064Y-111567910D01*
X125264090Y-111513559D01*
X125051890Y-111368569D01*
X125050000Y-111368186D01*
X125050000Y-110542279D01*
X125241441Y-110419090D01*
X125287969Y-110350994D01*
X125430302Y-110493327D01*
X125663691Y-110590000D01*
X126004250Y-110590000D01*
X126163000Y-110431250D01*
X126163000Y-109457000D01*
X126417000Y-109457000D01*
X126417000Y-110431250D01*
X126575750Y-110590000D01*
X126916309Y-110590000D01*
X127149698Y-110493327D01*
X127328327Y-110314699D01*
X127425000Y-110081310D01*
X127425000Y-109615750D01*
X127266250Y-109457000D01*
X126417000Y-109457000D01*
X126163000Y-109457000D01*
X126143000Y-109457000D01*
X126143000Y-109203000D01*
X126163000Y-109203000D01*
X126163000Y-108228750D01*
X126417000Y-108228750D01*
X126417000Y-109203000D01*
X127266250Y-109203000D01*
X127425000Y-109044250D01*
X127425000Y-108578690D01*
X127328327Y-108345301D01*
X127149698Y-108166673D01*
X126916309Y-108070000D01*
X126575750Y-108070000D01*
X126417000Y-108228750D01*
X126163000Y-108228750D01*
X126004250Y-108070000D01*
X125663691Y-108070000D01*
X125430302Y-108166673D01*
X125289064Y-108307910D01*
X125254090Y-108253559D01*
X125195000Y-108213185D01*
X125195000Y-107316822D01*
X125244838Y-107196799D01*
X125245162Y-106824833D01*
X125103117Y-106481057D01*
X124840327Y-106217808D01*
X124508450Y-106080000D01*
X127670000Y-106080000D01*
X127960839Y-106022148D01*
X128207401Y-105857401D01*
X129367401Y-104697401D01*
X129532148Y-104450839D01*
X129590000Y-104160000D01*
X129590000Y-99579262D01*
X129889670Y-99379029D01*
X130105664Y-99055772D01*
X130163179Y-99178490D01*
X130595053Y-99572688D01*
X131010974Y-99744958D01*
X131243000Y-99623817D01*
X131243000Y-98417000D01*
X131497000Y-98417000D01*
X131497000Y-99623817D01*
X131729026Y-99744958D01*
X132144947Y-99572688D01*
X132576821Y-99178490D01*
X132824968Y-98649027D01*
X132704469Y-98417000D01*
X131497000Y-98417000D01*
X131243000Y-98417000D01*
X131223000Y-98417000D01*
X131223000Y-98163000D01*
X131243000Y-98163000D01*
X131243000Y-98143000D01*
X131497000Y-98143000D01*
X131497000Y-98163000D01*
X132704469Y-98163000D01*
X132824968Y-97930973D01*
X132576821Y-97401510D01*
X132158839Y-97019992D01*
X132429670Y-96839029D01*
X132754526Y-96352848D01*
X132868600Y-95779359D01*
X132868600Y-95720641D01*
X132754526Y-95147152D01*
X132429670Y-94660971D01*
X131943489Y-94336115D01*
X131370000Y-94222041D01*
X130796511Y-94336115D01*
X130310330Y-94660971D01*
X130100000Y-94975752D01*
X129889670Y-94660971D01*
X129403489Y-94336115D01*
X128830000Y-94222041D01*
X128256511Y-94336115D01*
X127770330Y-94660971D01*
X127560000Y-94975752D01*
X127349670Y-94660971D01*
X126863489Y-94336115D01*
X126290000Y-94222041D01*
X125716511Y-94336115D01*
X125230330Y-94660971D01*
X125014336Y-94984228D01*
X124956821Y-94861510D01*
X124524947Y-94467312D01*
X124109026Y-94295042D01*
X123877000Y-94416183D01*
X123877000Y-95623000D01*
X123897000Y-95623000D01*
X123897000Y-95877000D01*
X123877000Y-95877000D01*
X123877000Y-95897000D01*
X123623000Y-95897000D01*
X123623000Y-95877000D01*
X123603000Y-95877000D01*
X123603000Y-95623000D01*
X123623000Y-95623000D01*
X123623000Y-94416183D01*
X123390974Y-94295042D01*
X122975053Y-94467312D01*
X122543179Y-94861510D01*
X122485664Y-94984228D01*
X122269670Y-94660971D01*
X121783489Y-94336115D01*
X121210000Y-94222041D01*
X120636511Y-94336115D01*
X120150330Y-94660971D01*
X119934336Y-94984228D01*
X119876821Y-94861510D01*
X119444947Y-94467312D01*
X119029026Y-94295042D01*
X118797000Y-94416183D01*
X118797000Y-95623000D01*
X118817000Y-95623000D01*
X118817000Y-95877000D01*
X118797000Y-95877000D01*
X118797000Y-95897000D01*
X118543000Y-95897000D01*
X118543000Y-95877000D01*
X118523000Y-95877000D01*
X118523000Y-95623000D01*
X118543000Y-95623000D01*
X118543000Y-94416183D01*
X118310974Y-94295042D01*
X117895053Y-94467312D01*
X117463179Y-94861510D01*
X117405664Y-94984228D01*
X117189670Y-94660971D01*
X116703489Y-94336115D01*
X116130000Y-94222041D01*
X115556511Y-94336115D01*
X115070330Y-94660971D01*
X114860000Y-94975752D01*
X114649670Y-94660971D01*
X114163489Y-94336115D01*
X113590000Y-94222041D01*
X113016511Y-94336115D01*
X112530330Y-94660971D01*
X112320000Y-94975752D01*
X112109670Y-94660971D01*
X111623489Y-94336115D01*
X111050000Y-94222041D01*
X110476511Y-94336115D01*
X109990330Y-94660971D01*
X109780000Y-94975752D01*
X109569670Y-94660971D01*
X109083489Y-94336115D01*
X108510000Y-94222041D01*
X107936511Y-94336115D01*
X107450330Y-94660971D01*
X107234336Y-94984228D01*
X107176821Y-94861510D01*
X106744947Y-94467312D01*
X106329026Y-94295042D01*
X106097000Y-94416183D01*
X106097000Y-95623000D01*
X106117000Y-95623000D01*
X106117000Y-95877000D01*
X106097000Y-95877000D01*
X106097000Y-95897000D01*
X105843000Y-95897000D01*
X105843000Y-95877000D01*
X105823000Y-95877000D01*
X105823000Y-95623000D01*
X105843000Y-95623000D01*
X105843000Y-94416183D01*
X105610974Y-94295042D01*
X105195053Y-94467312D01*
X104763179Y-94861510D01*
X104705664Y-94984228D01*
X104489670Y-94660971D01*
X104003489Y-94336115D01*
X103430000Y-94222041D01*
X102856511Y-94336115D01*
X102370330Y-94660971D01*
X102160000Y-94975752D01*
X101949670Y-94660971D01*
X101463489Y-94336115D01*
X100890000Y-94222041D01*
X100316511Y-94336115D01*
X99830330Y-94660971D01*
X99614336Y-94984228D01*
X99556821Y-94861510D01*
X99124947Y-94467312D01*
X98709026Y-94295042D01*
X98477000Y-94416183D01*
X98477000Y-95623000D01*
X98497000Y-95623000D01*
X98497000Y-95877000D01*
X98477000Y-95877000D01*
X98477000Y-95897000D01*
X98223000Y-95897000D01*
X98223000Y-95877000D01*
X98203000Y-95877000D01*
X98203000Y-95623000D01*
X98223000Y-95623000D01*
X98223000Y-94416183D01*
X97990974Y-94295042D01*
X97575053Y-94467312D01*
X97143179Y-94861510D01*
X97085664Y-94984228D01*
X96869670Y-94660971D01*
X96383489Y-94336115D01*
X95810000Y-94222041D01*
X95236511Y-94336115D01*
X94750330Y-94660971D01*
X94540000Y-94975752D01*
X94329670Y-94660971D01*
X93843489Y-94336115D01*
X93270000Y-94222041D01*
X92696511Y-94336115D01*
X92210330Y-94660971D01*
X92000000Y-94975752D01*
X91789670Y-94660971D01*
X91303489Y-94336115D01*
X90730000Y-94222041D01*
X90156511Y-94336115D01*
X89670330Y-94660971D01*
X89454336Y-94984228D01*
X89396821Y-94861510D01*
X88964947Y-94467312D01*
X88549026Y-94295042D01*
X88317000Y-94416183D01*
X88317000Y-95623000D01*
X88337000Y-95623000D01*
X88337000Y-95877000D01*
X88317000Y-95877000D01*
X88317000Y-95897000D01*
X88063000Y-95897000D01*
X88063000Y-95877000D01*
X88043000Y-95877000D01*
X88043000Y-95623000D01*
X88063000Y-95623000D01*
X88063000Y-94416183D01*
X87830974Y-94295042D01*
X87415053Y-94467312D01*
X86983179Y-94861510D01*
X86925664Y-94984228D01*
X86709670Y-94660971D01*
X86223489Y-94336115D01*
X85650000Y-94222041D01*
X85076511Y-94336115D01*
X84590330Y-94660971D01*
X84454002Y-94865000D01*
X84305998Y-94865000D01*
X84169670Y-94660971D01*
X83683489Y-94336115D01*
X83110000Y-94222041D01*
X82536511Y-94336115D01*
X82050330Y-94660971D01*
X81914002Y-94865000D01*
X81700005Y-94865000D01*
X81700000Y-94864999D01*
X81417516Y-94921190D01*
X81361325Y-94932367D01*
X81074210Y-95124210D01*
X81074208Y-95124213D01*
X80874210Y-95324210D01*
X80682367Y-95611326D01*
X80614999Y-95950000D01*
X80682367Y-96288674D01*
X80874210Y-96575790D01*
X80890000Y-96586340D01*
X80890000Y-97546421D01*
X80747852Y-97759161D01*
X80690000Y-98050000D01*
X80690000Y-99475071D01*
X80632367Y-99561325D01*
X80565000Y-99900000D01*
X80565000Y-102133421D01*
X78883420Y-103815000D01*
X78490478Y-103815000D01*
X78192370Y-103516371D01*
X77679100Y-103303243D01*
X77123339Y-103302758D01*
X76609697Y-103514990D01*
X76274117Y-103849985D01*
X76111326Y-103882366D01*
X76040037Y-103930000D01*
X75824210Y-104074210D01*
X75824208Y-104074213D01*
X75425000Y-104473421D01*
X75425000Y-94916452D01*
X75453712Y-94873384D01*
X75521182Y-94783424D01*
X75539803Y-94764803D01*
X75549170Y-94754336D01*
X75644770Y-94634836D01*
X75884836Y-94394770D01*
X76000031Y-94302614D01*
X76070447Y-94255670D01*
X76089803Y-94239803D01*
X76105914Y-94223692D01*
X76133952Y-94205000D01*
X138343205Y-94205000D01*
X138591024Y-94395630D01*
X138591024Y-94395630D01*
G37*
X138591024Y-94395630D02*
X138831748Y-94636354D01*
X138975888Y-94804517D01*
X139046288Y-94898384D01*
X139055000Y-94911452D01*
X139055000Y-146530000D01*
X139055995Y-146535000D01*
X139055000Y-146540000D01*
X139055000Y-148126048D01*
X139021288Y-148176616D01*
X138949582Y-148272224D01*
X138855230Y-148390164D01*
X138639263Y-148606131D01*
X138496202Y-148725348D01*
X138401616Y-148796288D01*
X138343548Y-148835000D01*
X131095000Y-148835000D01*
X131095000Y-148165750D01*
X130936250Y-148007000D01*
X129787000Y-148007000D01*
X129787000Y-148027000D01*
X129533000Y-148027000D01*
X129533000Y-148007000D01*
X128383750Y-148007000D01*
X128225000Y-148165750D01*
X128225000Y-148835000D01*
X126857440Y-148835000D01*
X126857440Y-145665750D01*
X128225000Y-145665750D01*
X128225000Y-147594250D01*
X128383750Y-147753000D01*
X129533000Y-147753000D01*
X129533000Y-145507000D01*
X129787000Y-145507000D01*
X129787000Y-147753000D01*
X130936250Y-147753000D01*
X131095000Y-147594250D01*
X131095000Y-145665750D01*
X130936250Y-145507000D01*
X129787000Y-145507000D01*
X129533000Y-145507000D01*
X128383750Y-145507000D01*
X128225000Y-145665750D01*
X126857440Y-145665750D01*
X126857440Y-144276970D01*
X126959066Y-144209066D01*
X127096294Y-144003690D01*
X128225000Y-144003690D01*
X128225000Y-145094250D01*
X128383750Y-145253000D01*
X129533000Y-145253000D01*
X129533000Y-143653750D01*
X129787000Y-143653750D01*
X129787000Y-145253000D01*
X130936250Y-145253000D01*
X131095000Y-145094250D01*
X131095000Y-144003690D01*
X130998327Y-143770301D01*
X130819698Y-143591673D01*
X130586309Y-143495000D01*
X129945750Y-143495000D01*
X129787000Y-143653750D01*
X129533000Y-143653750D01*
X129374250Y-143495000D01*
X128733691Y-143495000D01*
X128500302Y-143591673D01*
X128321673Y-143770301D01*
X128225000Y-144003690D01*
X127096294Y-144003690D01*
X127418625Y-143521289D01*
X127579999Y-142710000D01*
X127570000Y-142659731D01*
X127570000Y-142425167D01*
X128764838Y-142425167D01*
X128906883Y-142768943D01*
X129169673Y-143032192D01*
X129513201Y-143174838D01*
X129885167Y-143175162D01*
X130228943Y-143033117D01*
X130492192Y-142770327D01*
X130634838Y-142426799D01*
X130635162Y-142054833D01*
X130493117Y-141711057D01*
X130230327Y-141447808D01*
X129886799Y-141305162D01*
X129514833Y-141304838D01*
X129171057Y-141446883D01*
X128907808Y-141709673D01*
X128765162Y-142053201D01*
X128764838Y-142425167D01*
X127570000Y-142425167D01*
X127570000Y-140730000D01*
X127408625Y-139918711D01*
X126951895Y-139235167D01*
X128584838Y-139235167D01*
X128726883Y-139578943D01*
X128989673Y-139842192D01*
X129333201Y-139984838D01*
X129705167Y-139985162D01*
X130048943Y-139843117D01*
X130312192Y-139580327D01*
X130454838Y-139236799D01*
X130455162Y-138864833D01*
X130313117Y-138521057D01*
X130050327Y-138257808D01*
X129706799Y-138115162D01*
X129334833Y-138114838D01*
X128991057Y-138256883D01*
X128727808Y-138519673D01*
X128585162Y-138863201D01*
X128584838Y-139235167D01*
X126951895Y-139235167D01*
X126949066Y-139230934D01*
X126722440Y-139079507D01*
X126722440Y-139000000D01*
X126678162Y-138764683D01*
X126539090Y-138548559D01*
X126469289Y-138500866D01*
X126526441Y-138464090D01*
X126580044Y-138385639D01*
X126949066Y-138139066D01*
X126974066Y-138114067D01*
X127433625Y-137426289D01*
X127469320Y-137246838D01*
X127595000Y-136615000D01*
X127595000Y-135583557D01*
X127803691Y-135670000D01*
X128144250Y-135670000D01*
X128303000Y-135511250D01*
X128303000Y-134537000D01*
X128557000Y-134537000D01*
X128557000Y-135511250D01*
X128715750Y-135670000D01*
X129056309Y-135670000D01*
X129178195Y-135619513D01*
X129047808Y-135749673D01*
X128905162Y-136093201D01*
X128904838Y-136465167D01*
X129046883Y-136808943D01*
X129309673Y-137072192D01*
X129653201Y-137214838D01*
X130025167Y-137215162D01*
X130368943Y-137073117D01*
X130632192Y-136810327D01*
X130774838Y-136466799D01*
X130775162Y-136094833D01*
X130633117Y-135751057D01*
X130370327Y-135487808D01*
X130026799Y-135345162D01*
X129654833Y-135344838D01*
X129421972Y-135441054D01*
X129468327Y-135394699D01*
X129565000Y-135161310D01*
X129565000Y-134695750D01*
X129406250Y-134537000D01*
X128557000Y-134537000D01*
X128303000Y-134537000D01*
X128283000Y-134537000D01*
X128283000Y-134283000D01*
X128303000Y-134283000D01*
X128303000Y-134263000D01*
X128557000Y-134263000D01*
X128557000Y-134283000D01*
X129406250Y-134283000D01*
X129565000Y-134124250D01*
X129565000Y-133658690D01*
X129468327Y-133425301D01*
X129355733Y-133312707D01*
X129378943Y-133303117D01*
X129642192Y-133040327D01*
X129784838Y-132696799D01*
X129785162Y-132324833D01*
X129643117Y-131981057D01*
X129380327Y-131717808D01*
X129036799Y-131575162D01*
X128664833Y-131574838D01*
X128321057Y-131716883D01*
X128057808Y-131979673D01*
X127915162Y-132323201D01*
X127914838Y-132695167D01*
X128056883Y-133038943D01*
X128302998Y-133285488D01*
X128302998Y-133308748D01*
X128144250Y-133150000D01*
X127803691Y-133150000D01*
X127595000Y-133236443D01*
X127595000Y-132150000D01*
X127433625Y-131338711D01*
X126974066Y-130650934D01*
X126445951Y-130298058D01*
X126576441Y-130214090D01*
X126619614Y-130150904D01*
X126747928Y-130065167D01*
X127954838Y-130065167D01*
X128096883Y-130408943D01*
X128359673Y-130672192D01*
X128703201Y-130814838D01*
X129075167Y-130815162D01*
X129418943Y-130673117D01*
X129682192Y-130410327D01*
X129824838Y-130066799D01*
X129825162Y-129694833D01*
X129683117Y-129351057D01*
X129420327Y-129087808D01*
X129076799Y-128945162D01*
X128704833Y-128944838D01*
X128361057Y-129086883D01*
X128097808Y-129349673D01*
X127955162Y-129693201D01*
X127954838Y-130065167D01*
X126747928Y-130065167D01*
X126974066Y-129914066D01*
X127433625Y-129226289D01*
X127595000Y-128415000D01*
X127595000Y-127948025D01*
X127630302Y-127983327D01*
X127863691Y-128080000D01*
X128204250Y-128080000D01*
X128363000Y-127921250D01*
X128363000Y-126947000D01*
X128617000Y-126947000D01*
X128617000Y-127921250D01*
X128775750Y-128080000D01*
X129116309Y-128080000D01*
X129349698Y-127983327D01*
X129528327Y-127804699D01*
X129625000Y-127571310D01*
X129625000Y-127105750D01*
X129466250Y-126947000D01*
X128617000Y-126947000D01*
X128363000Y-126947000D01*
X128343000Y-126947000D01*
X128343000Y-126693000D01*
X128363000Y-126693000D01*
X128363000Y-125718750D01*
X128617000Y-125718750D01*
X128617000Y-126693000D01*
X129466250Y-126693000D01*
X129625000Y-126534250D01*
X129625000Y-126068690D01*
X129528327Y-125835301D01*
X129349698Y-125656673D01*
X129116309Y-125560000D01*
X128775750Y-125560000D01*
X128617000Y-125718750D01*
X128363000Y-125718750D01*
X128204250Y-125560000D01*
X127863691Y-125560000D01*
X127710000Y-125623661D01*
X127710000Y-125280000D01*
X127548625Y-124468711D01*
X127111940Y-123815167D01*
X128264838Y-123815167D01*
X128406883Y-124158943D01*
X128669673Y-124422192D01*
X129013201Y-124564838D01*
X129385167Y-124565162D01*
X129728943Y-124423117D01*
X129992192Y-124160327D01*
X130134838Y-123816799D01*
X130135162Y-123444833D01*
X129993117Y-123101057D01*
X129730327Y-122837808D01*
X129386799Y-122695162D01*
X129014833Y-122694838D01*
X128671057Y-122836883D01*
X128407808Y-123099673D01*
X128265162Y-123443201D01*
X128264838Y-123815167D01*
X127111940Y-123815167D01*
X127089066Y-123780934D01*
X126603620Y-123456568D01*
X126959066Y-123219066D01*
X127418625Y-122531289D01*
X127580000Y-121720000D01*
X127580000Y-121080543D01*
X127599999Y-120980000D01*
X127446228Y-120206936D01*
X127566883Y-120498943D01*
X127829673Y-120762192D01*
X128173201Y-120904838D01*
X128545167Y-120905162D01*
X128888943Y-120763117D01*
X129152192Y-120500327D01*
X129294838Y-120156799D01*
X129295162Y-119784833D01*
X129153117Y-119441057D01*
X128890327Y-119177808D01*
X128546799Y-119035162D01*
X128174833Y-119034838D01*
X127831057Y-119176883D01*
X127567808Y-119439673D01*
X127425162Y-119783201D01*
X127424844Y-120148087D01*
X126979066Y-119480934D01*
X126588552Y-119220000D01*
X126979066Y-118959066D01*
X127438625Y-118271289D01*
X127600000Y-117460000D01*
X127600000Y-116883390D01*
X127620000Y-116887440D01*
X128050062Y-116887440D01*
X128037808Y-116899673D01*
X127895162Y-117243201D01*
X127894838Y-117615167D01*
X128036883Y-117958943D01*
X128299673Y-118222192D01*
X128643201Y-118364838D01*
X129015167Y-118365162D01*
X129358943Y-118223117D01*
X129622192Y-117960327D01*
X129764838Y-117616799D01*
X129765162Y-117244833D01*
X129623117Y-116901057D01*
X129360327Y-116637808D01*
X129016799Y-116495162D01*
X128914256Y-116495073D01*
X128916431Y-116491890D01*
X128967440Y-116240000D01*
X128967440Y-115215167D01*
X129204838Y-115215167D01*
X129346883Y-115558943D01*
X129609673Y-115822192D01*
X129953201Y-115964838D01*
X130325167Y-115965162D01*
X130668943Y-115823117D01*
X130932192Y-115560327D01*
X131074838Y-115216799D01*
X131075162Y-114844833D01*
X130933117Y-114501057D01*
X130670327Y-114237808D01*
X130326799Y-114095162D01*
X129954833Y-114094838D01*
X129611057Y-114236883D01*
X129347808Y-114499673D01*
X129205162Y-114843201D01*
X129204838Y-115215167D01*
X128967440Y-115215167D01*
X128967440Y-114940000D01*
X128923162Y-114704683D01*
X128855000Y-114598756D01*
X128855000Y-114336822D01*
X128904838Y-114216799D01*
X128905162Y-113844833D01*
X128763117Y-113501057D01*
X128500327Y-113237808D01*
X128156799Y-113095162D01*
X127784833Y-113094838D01*
X127441057Y-113236883D01*
X127435000Y-113242929D01*
X127435000Y-112875750D01*
X127276250Y-112717000D01*
X126427000Y-112717000D01*
X126427000Y-113691250D01*
X126585750Y-113850000D01*
X126926309Y-113850000D01*
X127054364Y-113796958D01*
X127035162Y-113843201D01*
X127034838Y-114215167D01*
X127085000Y-114336569D01*
X127085000Y-114598203D01*
X127023569Y-114688110D01*
X127020919Y-114701197D01*
X126884090Y-114488559D01*
X126671890Y-114343569D01*
X126420000Y-114292560D01*
X126116699Y-114292560D01*
X125400000Y-114150001D01*
X124588711Y-114311375D01*
X124515755Y-114360123D01*
X124490000Y-114355000D01*
X121190000Y-114355000D01*
X121098085Y-114373283D01*
X121010000Y-114285198D01*
X121010000Y-113936742D01*
X121135317Y-113913162D01*
X121351441Y-113774090D01*
X121496431Y-113561890D01*
X121547440Y-113310000D01*
X121547440Y-112777440D01*
X122080000Y-112777440D01*
X122278976Y-112740000D01*
X122365198Y-112740000D01*
X122722599Y-113097401D01*
X122969161Y-113262148D01*
X123168908Y-113301880D01*
X123196838Y-113450317D01*
X123335910Y-113666441D01*
X123548110Y-113811431D01*
X123800000Y-113862440D01*
X124800000Y-113862440D01*
X125035317Y-113818162D01*
X125251441Y-113679090D01*
X125297969Y-113610994D01*
X125440302Y-113753327D01*
X125673691Y-113850000D01*
X126014250Y-113850000D01*
X126173000Y-113691250D01*
X126173000Y-112717000D01*
X126153000Y-112717000D01*
X126153000Y-112463000D01*
X126173000Y-112463000D01*
X126173000Y-111488750D01*
X126427000Y-111488750D01*
X126427000Y-112463000D01*
X127276250Y-112463000D01*
X127435000Y-112304250D01*
X127435000Y-111838690D01*
X127338327Y-111605301D01*
X127159698Y-111426673D01*
X126926309Y-111330000D01*
X126585750Y-111330000D01*
X126427000Y-111488750D01*
X126173000Y-111488750D01*
X126014250Y-111330000D01*
X125673691Y-111330000D01*
X125440302Y-111426673D01*
X125299064Y-111567910D01*
X125264090Y-111513559D01*
X125051890Y-111368569D01*
X125050000Y-111368186D01*
X125050000Y-110542279D01*
X125241441Y-110419090D01*
X125287969Y-110350994D01*
X125430302Y-110493327D01*
X125663691Y-110590000D01*
X126004250Y-110590000D01*
X126163000Y-110431250D01*
X126163000Y-109457000D01*
X126417000Y-109457000D01*
X126417000Y-110431250D01*
X126575750Y-110590000D01*
X126916309Y-110590000D01*
X127149698Y-110493327D01*
X127328327Y-110314699D01*
X127425000Y-110081310D01*
X127425000Y-109615750D01*
X127266250Y-109457000D01*
X126417000Y-109457000D01*
X126163000Y-109457000D01*
X126143000Y-109457000D01*
X126143000Y-109203000D01*
X126163000Y-109203000D01*
X126163000Y-108228750D01*
X126417000Y-108228750D01*
X126417000Y-109203000D01*
X127266250Y-109203000D01*
X127425000Y-109044250D01*
X127425000Y-108578690D01*
X127328327Y-108345301D01*
X127149698Y-108166673D01*
X126916309Y-108070000D01*
X126575750Y-108070000D01*
X126417000Y-108228750D01*
X126163000Y-108228750D01*
X126004250Y-108070000D01*
X125663691Y-108070000D01*
X125430302Y-108166673D01*
X125289064Y-108307910D01*
X125254090Y-108253559D01*
X125195000Y-108213185D01*
X125195000Y-107316822D01*
X125244838Y-107196799D01*
X125245162Y-106824833D01*
X125103117Y-106481057D01*
X124840327Y-106217808D01*
X124508450Y-106080000D01*
X127670000Y-106080000D01*
X127960839Y-106022148D01*
X128207401Y-105857401D01*
X129367401Y-104697401D01*
X129532148Y-104450839D01*
X129590000Y-104160000D01*
X129590000Y-99579262D01*
X129889670Y-99379029D01*
X130105664Y-99055772D01*
X130163179Y-99178490D01*
X130595053Y-99572688D01*
X131010974Y-99744958D01*
X131243000Y-99623817D01*
X131243000Y-98417000D01*
X131497000Y-98417000D01*
X131497000Y-99623817D01*
X131729026Y-99744958D01*
X132144947Y-99572688D01*
X132576821Y-99178490D01*
X132824968Y-98649027D01*
X132704469Y-98417000D01*
X131497000Y-98417000D01*
X131243000Y-98417000D01*
X131223000Y-98417000D01*
X131223000Y-98163000D01*
X131243000Y-98163000D01*
X131243000Y-98143000D01*
X131497000Y-98143000D01*
X131497000Y-98163000D01*
X132704469Y-98163000D01*
X132824968Y-97930973D01*
X132576821Y-97401510D01*
X132158839Y-97019992D01*
X132429670Y-96839029D01*
X132754526Y-96352848D01*
X132868600Y-95779359D01*
X132868600Y-95720641D01*
X132754526Y-95147152D01*
X132429670Y-94660971D01*
X131943489Y-94336115D01*
X131370000Y-94222041D01*
X130796511Y-94336115D01*
X130310330Y-94660971D01*
X130100000Y-94975752D01*
X129889670Y-94660971D01*
X129403489Y-94336115D01*
X128830000Y-94222041D01*
X128256511Y-94336115D01*
X127770330Y-94660971D01*
X127560000Y-94975752D01*
X127349670Y-94660971D01*
X126863489Y-94336115D01*
X126290000Y-94222041D01*
X125716511Y-94336115D01*
X125230330Y-94660971D01*
X125014336Y-94984228D01*
X124956821Y-94861510D01*
X124524947Y-94467312D01*
X124109026Y-94295042D01*
X123877000Y-94416183D01*
X123877000Y-95623000D01*
X123897000Y-95623000D01*
X123897000Y-95877000D01*
X123877000Y-95877000D01*
X123877000Y-95897000D01*
X123623000Y-95897000D01*
X123623000Y-95877000D01*
X123603000Y-95877000D01*
X123603000Y-95623000D01*
X123623000Y-95623000D01*
X123623000Y-94416183D01*
X123390974Y-94295042D01*
X122975053Y-94467312D01*
X122543179Y-94861510D01*
X122485664Y-94984228D01*
X122269670Y-94660971D01*
X121783489Y-94336115D01*
X121210000Y-94222041D01*
X120636511Y-94336115D01*
X120150330Y-94660971D01*
X119934336Y-94984228D01*
X119876821Y-94861510D01*
X119444947Y-94467312D01*
X119029026Y-94295042D01*
X118797000Y-94416183D01*
X118797000Y-95623000D01*
X118817000Y-95623000D01*
X118817000Y-95877000D01*
X118797000Y-95877000D01*
X118797000Y-95897000D01*
X118543000Y-95897000D01*
X118543000Y-95877000D01*
X118523000Y-95877000D01*
X118523000Y-95623000D01*
X118543000Y-95623000D01*
X118543000Y-94416183D01*
X118310974Y-94295042D01*
X117895053Y-94467312D01*
X117463179Y-94861510D01*
X117405664Y-94984228D01*
X117189670Y-94660971D01*
X116703489Y-94336115D01*
X116130000Y-94222041D01*
X115556511Y-94336115D01*
X115070330Y-94660971D01*
X114860000Y-94975752D01*
X114649670Y-94660971D01*
X114163489Y-94336115D01*
X113590000Y-94222041D01*
X113016511Y-94336115D01*
X112530330Y-94660971D01*
X112320000Y-94975752D01*
X112109670Y-94660971D01*
X111623489Y-94336115D01*
X111050000Y-94222041D01*
X110476511Y-94336115D01*
X109990330Y-94660971D01*
X109780000Y-94975752D01*
X109569670Y-94660971D01*
X109083489Y-94336115D01*
X108510000Y-94222041D01*
X107936511Y-94336115D01*
X107450330Y-94660971D01*
X107234336Y-94984228D01*
X107176821Y-94861510D01*
X106744947Y-94467312D01*
X106329026Y-94295042D01*
X106097000Y-94416183D01*
X106097000Y-95623000D01*
X106117000Y-95623000D01*
X106117000Y-95877000D01*
X106097000Y-95877000D01*
X106097000Y-95897000D01*
X105843000Y-95897000D01*
X105843000Y-95877000D01*
X105823000Y-95877000D01*
X105823000Y-95623000D01*
X105843000Y-95623000D01*
X105843000Y-94416183D01*
X105610974Y-94295042D01*
X105195053Y-94467312D01*
X104763179Y-94861510D01*
X104705664Y-94984228D01*
X104489670Y-94660971D01*
X104003489Y-94336115D01*
X103430000Y-94222041D01*
X102856511Y-94336115D01*
X102370330Y-94660971D01*
X102160000Y-94975752D01*
X101949670Y-94660971D01*
X101463489Y-94336115D01*
X100890000Y-94222041D01*
X100316511Y-94336115D01*
X99830330Y-94660971D01*
X99614336Y-94984228D01*
X99556821Y-94861510D01*
X99124947Y-94467312D01*
X98709026Y-94295042D01*
X98477000Y-94416183D01*
X98477000Y-95623000D01*
X98497000Y-95623000D01*
X98497000Y-95877000D01*
X98477000Y-95877000D01*
X98477000Y-95897000D01*
X98223000Y-95897000D01*
X98223000Y-95877000D01*
X98203000Y-95877000D01*
X98203000Y-95623000D01*
X98223000Y-95623000D01*
X98223000Y-94416183D01*
X97990974Y-94295042D01*
X97575053Y-94467312D01*
X97143179Y-94861510D01*
X97085664Y-94984228D01*
X96869670Y-94660971D01*
X96383489Y-94336115D01*
X95810000Y-94222041D01*
X95236511Y-94336115D01*
X94750330Y-94660971D01*
X94540000Y-94975752D01*
X94329670Y-94660971D01*
X93843489Y-94336115D01*
X93270000Y-94222041D01*
X92696511Y-94336115D01*
X92210330Y-94660971D01*
X92000000Y-94975752D01*
X91789670Y-94660971D01*
X91303489Y-94336115D01*
X90730000Y-94222041D01*
X90156511Y-94336115D01*
X89670330Y-94660971D01*
X89454336Y-94984228D01*
X89396821Y-94861510D01*
X88964947Y-94467312D01*
X88549026Y-94295042D01*
X88317000Y-94416183D01*
X88317000Y-95623000D01*
X88337000Y-95623000D01*
X88337000Y-95877000D01*
X88317000Y-95877000D01*
X88317000Y-95897000D01*
X88063000Y-95897000D01*
X88063000Y-95877000D01*
X88043000Y-95877000D01*
X88043000Y-95623000D01*
X88063000Y-95623000D01*
X88063000Y-94416183D01*
X87830974Y-94295042D01*
X87415053Y-94467312D01*
X86983179Y-94861510D01*
X86925664Y-94984228D01*
X86709670Y-94660971D01*
X86223489Y-94336115D01*
X85650000Y-94222041D01*
X85076511Y-94336115D01*
X84590330Y-94660971D01*
X84454002Y-94865000D01*
X84305998Y-94865000D01*
X84169670Y-94660971D01*
X83683489Y-94336115D01*
X83110000Y-94222041D01*
X82536511Y-94336115D01*
X82050330Y-94660971D01*
X81914002Y-94865000D01*
X81700005Y-94865000D01*
X81700000Y-94864999D01*
X81417516Y-94921190D01*
X81361325Y-94932367D01*
X81074210Y-95124210D01*
X81074208Y-95124213D01*
X80874210Y-95324210D01*
X80682367Y-95611326D01*
X80614999Y-95950000D01*
X80682367Y-96288674D01*
X80874210Y-96575790D01*
X80890000Y-96586340D01*
X80890000Y-97546421D01*
X80747852Y-97759161D01*
X80690000Y-98050000D01*
X80690000Y-99475071D01*
X80632367Y-99561325D01*
X80565000Y-99900000D01*
X80565000Y-102133421D01*
X78883420Y-103815000D01*
X78490478Y-103815000D01*
X78192370Y-103516371D01*
X77679100Y-103303243D01*
X77123339Y-103302758D01*
X76609697Y-103514990D01*
X76274117Y-103849985D01*
X76111326Y-103882366D01*
X76040037Y-103930000D01*
X75824210Y-104074210D01*
X75824208Y-104074213D01*
X75425000Y-104473421D01*
X75425000Y-94916452D01*
X75453712Y-94873384D01*
X75521182Y-94783424D01*
X75539803Y-94764803D01*
X75549170Y-94754336D01*
X75644770Y-94634836D01*
X75884836Y-94394770D01*
X76000031Y-94302614D01*
X76070447Y-94255670D01*
X76089803Y-94239803D01*
X76105914Y-94223692D01*
X76133952Y-94205000D01*
X138343205Y-94205000D01*
X138591024Y-94395630D01*
G36*
X85430000Y-121885000D02*
X86368156Y-121885000D01*
X86410910Y-121951441D01*
X86479006Y-121997969D01*
X86336673Y-122140302D01*
X86240000Y-122373691D01*
X86240000Y-122714250D01*
X86398750Y-122873000D01*
X87373000Y-122873000D01*
X87373000Y-122853000D01*
X87627000Y-122853000D01*
X87627000Y-122873000D01*
X87647000Y-122873000D01*
X87647000Y-123127000D01*
X87627000Y-123127000D01*
X87627000Y-123147000D01*
X87373000Y-123147000D01*
X87373000Y-123127000D01*
X86398750Y-123127000D01*
X86240000Y-123285750D01*
X86240000Y-123626309D01*
X86336673Y-123859698D01*
X86515301Y-124038327D01*
X86569908Y-124060946D01*
X86465162Y-124313201D01*
X86464838Y-124685167D01*
X86606883Y-125028943D01*
X86869673Y-125292192D01*
X87213201Y-125434838D01*
X87585167Y-125435162D01*
X87928943Y-125293117D01*
X88192192Y-125030327D01*
X88334838Y-124686799D01*
X88335162Y-124314833D01*
X88259462Y-124131624D01*
X88484699Y-124038327D01*
X88663327Y-123859698D01*
X88740000Y-123674593D01*
X88740000Y-128185198D01*
X85935198Y-130990000D01*
X84176742Y-130990000D01*
X84153162Y-130864683D01*
X84014090Y-130648559D01*
X83801890Y-130503569D01*
X83550000Y-130452560D01*
X82850000Y-130452560D01*
X82614683Y-130496838D01*
X82398559Y-130635910D01*
X82253569Y-130848110D01*
X82250919Y-130861197D01*
X82114090Y-130648559D01*
X81901890Y-130503569D01*
X81650000Y-130452560D01*
X81422242Y-130452560D01*
X83437401Y-128437401D01*
X83602148Y-128190839D01*
X83660000Y-127900000D01*
X83660000Y-125977361D01*
X83775540Y-125891834D01*
X83775540Y-124926100D01*
X84029540Y-124926100D01*
X84029540Y-125891834D01*
X84200478Y-126018368D01*
X84574361Y-125834652D01*
X84862108Y-125510149D01*
X85003769Y-125100231D01*
X84855103Y-124926100D01*
X84029540Y-124926100D01*
X83775540Y-124926100D01*
X83755540Y-124926100D01*
X83755540Y-124672100D01*
X83775540Y-124672100D01*
X83775540Y-124652100D01*
X84029540Y-124652100D01*
X84029540Y-124672100D01*
X84855103Y-124672100D01*
X85003769Y-124497969D01*
X84945450Y-124329215D01*
X85115867Y-124158799D01*
X85212540Y-123925410D01*
X85212540Y-123857850D01*
X85053790Y-123699100D01*
X84895473Y-123699100D01*
X85028981Y-123613190D01*
X85173971Y-123400990D01*
X85179575Y-123373315D01*
X85212540Y-123340350D01*
X85212540Y-123272790D01*
X85204072Y-123252347D01*
X85224980Y-123149100D01*
X85224980Y-122749100D01*
X85200596Y-122619511D01*
X85224980Y-122499100D01*
X85224980Y-122099100D01*
X85200596Y-121969511D01*
X85217892Y-121884100D01*
X85420000Y-121884100D01*
X85422738Y-121883555D01*
X85430000Y-121885000D01*
X85430000Y-121885000D01*
G37*
X85430000Y-121885000D02*
X86368156Y-121885000D01*
X86410910Y-121951441D01*
X86479006Y-121997969D01*
X86336673Y-122140302D01*
X86240000Y-122373691D01*
X86240000Y-122714250D01*
X86398750Y-122873000D01*
X87373000Y-122873000D01*
X87373000Y-122853000D01*
X87627000Y-122853000D01*
X87627000Y-122873000D01*
X87647000Y-122873000D01*
X87647000Y-123127000D01*
X87627000Y-123127000D01*
X87627000Y-123147000D01*
X87373000Y-123147000D01*
X87373000Y-123127000D01*
X86398750Y-123127000D01*
X86240000Y-123285750D01*
X86240000Y-123626309D01*
X86336673Y-123859698D01*
X86515301Y-124038327D01*
X86569908Y-124060946D01*
X86465162Y-124313201D01*
X86464838Y-124685167D01*
X86606883Y-125028943D01*
X86869673Y-125292192D01*
X87213201Y-125434838D01*
X87585167Y-125435162D01*
X87928943Y-125293117D01*
X88192192Y-125030327D01*
X88334838Y-124686799D01*
X88335162Y-124314833D01*
X88259462Y-124131624D01*
X88484699Y-124038327D01*
X88663327Y-123859698D01*
X88740000Y-123674593D01*
X88740000Y-128185198D01*
X85935198Y-130990000D01*
X84176742Y-130990000D01*
X84153162Y-130864683D01*
X84014090Y-130648559D01*
X83801890Y-130503569D01*
X83550000Y-130452560D01*
X82850000Y-130452560D01*
X82614683Y-130496838D01*
X82398559Y-130635910D01*
X82253569Y-130848110D01*
X82250919Y-130861197D01*
X82114090Y-130648559D01*
X81901890Y-130503569D01*
X81650000Y-130452560D01*
X81422242Y-130452560D01*
X83437401Y-128437401D01*
X83602148Y-128190839D01*
X83660000Y-127900000D01*
X83660000Y-125977361D01*
X83775540Y-125891834D01*
X83775540Y-124926100D01*
X84029540Y-124926100D01*
X84029540Y-125891834D01*
X84200478Y-126018368D01*
X84574361Y-125834652D01*
X84862108Y-125510149D01*
X85003769Y-125100231D01*
X84855103Y-124926100D01*
X84029540Y-124926100D01*
X83775540Y-124926100D01*
X83755540Y-124926100D01*
X83755540Y-124672100D01*
X83775540Y-124672100D01*
X83775540Y-124652100D01*
X84029540Y-124652100D01*
X84029540Y-124672100D01*
X84855103Y-124672100D01*
X85003769Y-124497969D01*
X84945450Y-124329215D01*
X85115867Y-124158799D01*
X85212540Y-123925410D01*
X85212540Y-123857850D01*
X85053790Y-123699100D01*
X84895473Y-123699100D01*
X85028981Y-123613190D01*
X85173971Y-123400990D01*
X85179575Y-123373315D01*
X85212540Y-123340350D01*
X85212540Y-123272790D01*
X85204072Y-123252347D01*
X85224980Y-123149100D01*
X85224980Y-122749100D01*
X85200596Y-122619511D01*
X85224980Y-122499100D01*
X85224980Y-122099100D01*
X85200596Y-121969511D01*
X85217892Y-121884100D01*
X85420000Y-121884100D01*
X85422738Y-121883555D01*
X85430000Y-121885000D01*
G36*
X81327000Y-115573000D02*
X81347000Y-115573000D01*
X81347000Y-115827000D01*
X81327000Y-115827000D01*
X81327000Y-116676250D01*
X81485750Y-116835000D01*
X81840000Y-116835000D01*
X81840000Y-117738949D01*
X81604540Y-117664100D01*
X81329540Y-117664100D01*
X81329540Y-118672100D01*
X81349540Y-118672100D01*
X81349540Y-118926100D01*
X81329540Y-118926100D01*
X81329540Y-119934100D01*
X81390000Y-119934100D01*
X81390000Y-124664100D01*
X81329540Y-124664100D01*
X81329540Y-125672100D01*
X81349540Y-125672100D01*
X81349540Y-125926100D01*
X81329540Y-125926100D01*
X81329540Y-126934100D01*
X81604540Y-126934100D01*
X82029218Y-126799102D01*
X82140000Y-126705701D01*
X82140000Y-127585198D01*
X79977000Y-129748198D01*
X79977000Y-126393389D01*
X80035172Y-126511863D01*
X80375862Y-126799102D01*
X80800540Y-126934100D01*
X81075540Y-126934100D01*
X81075540Y-125926100D01*
X81055540Y-125926100D01*
X81055540Y-125672100D01*
X81075540Y-125672100D01*
X81075540Y-124664100D01*
X80800540Y-124664100D01*
X80375862Y-124799098D01*
X80035172Y-125086337D01*
X79977000Y-125204811D01*
X79977000Y-119393389D01*
X80035172Y-119511863D01*
X80375862Y-119799102D01*
X80800540Y-119934100D01*
X81075540Y-119934100D01*
X81075540Y-118926100D01*
X81055540Y-118926100D01*
X81055540Y-118672100D01*
X81075540Y-118672100D01*
X81075540Y-117664100D01*
X80800540Y-117664100D01*
X80375862Y-117799098D01*
X80035172Y-118086337D01*
X79977000Y-118204811D01*
X79977000Y-116415635D01*
X80036673Y-116559698D01*
X80215301Y-116738327D01*
X80448690Y-116835000D01*
X80914250Y-116835000D01*
X81073000Y-116676250D01*
X81073000Y-115827000D01*
X81053000Y-115827000D01*
X81053000Y-115573000D01*
X81073000Y-115573000D01*
X81073000Y-115553000D01*
X81327000Y-115553000D01*
X81327000Y-115573000D01*
X81327000Y-115573000D01*
G37*
X81327000Y-115573000D02*
X81347000Y-115573000D01*
X81347000Y-115827000D01*
X81327000Y-115827000D01*
X81327000Y-116676250D01*
X81485750Y-116835000D01*
X81840000Y-116835000D01*
X81840000Y-117738949D01*
X81604540Y-117664100D01*
X81329540Y-117664100D01*
X81329540Y-118672100D01*
X81349540Y-118672100D01*
X81349540Y-118926100D01*
X81329540Y-118926100D01*
X81329540Y-119934100D01*
X81390000Y-119934100D01*
X81390000Y-124664100D01*
X81329540Y-124664100D01*
X81329540Y-125672100D01*
X81349540Y-125672100D01*
X81349540Y-125926100D01*
X81329540Y-125926100D01*
X81329540Y-126934100D01*
X81604540Y-126934100D01*
X82029218Y-126799102D01*
X82140000Y-126705701D01*
X82140000Y-127585198D01*
X79977000Y-129748198D01*
X79977000Y-126393389D01*
X80035172Y-126511863D01*
X80375862Y-126799102D01*
X80800540Y-126934100D01*
X81075540Y-126934100D01*
X81075540Y-125926100D01*
X81055540Y-125926100D01*
X81055540Y-125672100D01*
X81075540Y-125672100D01*
X81075540Y-124664100D01*
X80800540Y-124664100D01*
X80375862Y-124799098D01*
X80035172Y-125086337D01*
X79977000Y-125204811D01*
X79977000Y-119393389D01*
X80035172Y-119511863D01*
X80375862Y-119799102D01*
X80800540Y-119934100D01*
X81075540Y-119934100D01*
X81075540Y-118926100D01*
X81055540Y-118926100D01*
X81055540Y-118672100D01*
X81075540Y-118672100D01*
X81075540Y-117664100D01*
X80800540Y-117664100D01*
X80375862Y-117799098D01*
X80035172Y-118086337D01*
X79977000Y-118204811D01*
X79977000Y-116415635D01*
X80036673Y-116559698D01*
X80215301Y-116738327D01*
X80448690Y-116835000D01*
X80914250Y-116835000D01*
X81073000Y-116676250D01*
X81073000Y-115827000D01*
X81053000Y-115827000D01*
X81053000Y-115573000D01*
X81073000Y-115573000D01*
X81073000Y-115553000D01*
X81327000Y-115553000D01*
X81327000Y-115573000D01*
G36*
X91800000Y-123276310D02*
X91888252Y-123489369D01*
X91807808Y-123569673D01*
X91665162Y-123913201D01*
X91664838Y-124285167D01*
X91806883Y-124628943D01*
X92069673Y-124892192D01*
X92413201Y-125034838D01*
X92785167Y-125035162D01*
X93061665Y-124920915D01*
X93133750Y-124993000D01*
X93833000Y-124993000D01*
X93833000Y-124973000D01*
X94087000Y-124973000D01*
X94087000Y-124993000D01*
X94107000Y-124993000D01*
X94107000Y-125247000D01*
X94087000Y-125247000D01*
X94087000Y-125267000D01*
X93833000Y-125267000D01*
X93833000Y-125247000D01*
X93133750Y-125247000D01*
X92975000Y-125405750D01*
X92975000Y-125720000D01*
X91410000Y-125720000D01*
X91119161Y-125777852D01*
X90872599Y-125942599D01*
X90740000Y-126075198D01*
X90740000Y-123264802D01*
X90744802Y-123260000D01*
X91800000Y-123260000D01*
X91800000Y-123276310D01*
X91800000Y-123276310D01*
G37*
X91800000Y-123276310D02*
X91888252Y-123489369D01*
X91807808Y-123569673D01*
X91665162Y-123913201D01*
X91664838Y-124285167D01*
X91806883Y-124628943D01*
X92069673Y-124892192D01*
X92413201Y-125034838D01*
X92785167Y-125035162D01*
X93061665Y-124920915D01*
X93133750Y-124993000D01*
X93833000Y-124993000D01*
X93833000Y-124973000D01*
X94087000Y-124973000D01*
X94087000Y-124993000D01*
X94107000Y-124993000D01*
X94107000Y-125247000D01*
X94087000Y-125247000D01*
X94087000Y-125267000D01*
X93833000Y-125267000D01*
X93833000Y-125247000D01*
X93133750Y-125247000D01*
X92975000Y-125405750D01*
X92975000Y-125720000D01*
X91410000Y-125720000D01*
X91119161Y-125777852D01*
X90872599Y-125942599D01*
X90740000Y-126075198D01*
X90740000Y-123264802D01*
X90744802Y-123260000D01*
X91800000Y-123260000D01*
X91800000Y-123276310D01*
G36*
X83235910Y-111151441D02*
X83305711Y-111199134D01*
X83248559Y-111235910D01*
X83103569Y-111448110D01*
X83052560Y-111700000D01*
X83052560Y-112200000D01*
X83096838Y-112435317D01*
X83235910Y-112651441D01*
X83426079Y-112781378D01*
X83447852Y-112890839D01*
X83612599Y-113137401D01*
X83719148Y-113208595D01*
X83830277Y-113319724D01*
X84068728Y-113479051D01*
X84350000Y-113535000D01*
X84415000Y-113535000D01*
X84415000Y-114250000D01*
X84468236Y-114517633D01*
X84470949Y-114531272D01*
X84630277Y-114769723D01*
X84830277Y-114969724D01*
X85040216Y-115110000D01*
X85068728Y-115129051D01*
X85350000Y-115185000D01*
X86900000Y-115185000D01*
X87181272Y-115129051D01*
X87419723Y-114969723D01*
X87669723Y-114719724D01*
X87829051Y-114481273D01*
X87852841Y-114361673D01*
X87885000Y-114200000D01*
X87885000Y-112675682D01*
X87904521Y-112577546D01*
X87965302Y-112638327D01*
X88198691Y-112735000D01*
X88364250Y-112735000D01*
X88523000Y-112576250D01*
X88523000Y-112247440D01*
X88777000Y-112247440D01*
X88777000Y-112576250D01*
X88935750Y-112735000D01*
X89097838Y-112735000D01*
X89173110Y-112786431D01*
X89425000Y-112837440D01*
X90975000Y-112837440D01*
X91025398Y-112827957D01*
X91047852Y-112940839D01*
X91180934Y-113140011D01*
X91140162Y-113238201D01*
X91139838Y-113610167D01*
X91281883Y-113953943D01*
X91544673Y-114217192D01*
X91888201Y-114359838D01*
X92260167Y-114360162D01*
X92603943Y-114218117D01*
X92780974Y-114041395D01*
X92898110Y-114121431D01*
X93150000Y-114172440D01*
X96495860Y-114172440D01*
X97665000Y-115341579D01*
X97665000Y-115595000D01*
X97207716Y-115595000D01*
X97017433Y-115310222D01*
X96481810Y-114952330D01*
X95850000Y-114826655D01*
X95218190Y-114952330D01*
X94881999Y-115176966D01*
X94864327Y-115134302D01*
X94685699Y-114955673D01*
X94452310Y-114859000D01*
X93595750Y-114859000D01*
X93437000Y-115017750D01*
X93437000Y-116383000D01*
X93457000Y-116383000D01*
X93457000Y-116637000D01*
X93437000Y-116637000D01*
X93437000Y-118002250D01*
X93595750Y-118161000D01*
X94452310Y-118161000D01*
X94685699Y-118064327D01*
X94864327Y-117885698D01*
X94881999Y-117843034D01*
X95218190Y-118067670D01*
X95850000Y-118193345D01*
X96481810Y-118067670D01*
X96875000Y-117804949D01*
X96875000Y-120240000D01*
X96369884Y-120240000D01*
X96185000Y-120202560D01*
X95535000Y-120202560D01*
X95424410Y-120223369D01*
X95336890Y-120163569D01*
X95085000Y-120112560D01*
X93535000Y-120112560D01*
X93299683Y-120156838D01*
X93194248Y-120224683D01*
X93085000Y-120202560D01*
X92435000Y-120202560D01*
X92236024Y-120240000D01*
X91354929Y-120240000D01*
X91268675Y-120182367D01*
X90930000Y-120115000D01*
X88631844Y-120115000D01*
X88589090Y-120048559D01*
X88376890Y-119903569D01*
X88125000Y-119852560D01*
X86875000Y-119852560D01*
X86639683Y-119896838D01*
X86423559Y-120035910D01*
X86369519Y-120115000D01*
X85430000Y-120115000D01*
X85427262Y-120115545D01*
X85420000Y-120114100D01*
X85146025Y-120114100D01*
X85050000Y-120094999D01*
X85002298Y-120104488D01*
X85003769Y-120100231D01*
X84855103Y-119926100D01*
X84029540Y-119926100D01*
X84029540Y-119946100D01*
X83775540Y-119946100D01*
X83775540Y-119926100D01*
X83755540Y-119926100D01*
X83755540Y-119672100D01*
X83775540Y-119672100D01*
X83775540Y-118706366D01*
X84029540Y-118706366D01*
X84029540Y-119672100D01*
X84855103Y-119672100D01*
X85003769Y-119497969D01*
X84862108Y-119088051D01*
X84574361Y-118763548D01*
X84200478Y-118579832D01*
X84029540Y-118706366D01*
X83775540Y-118706366D01*
X83604602Y-118579832D01*
X83360000Y-118700023D01*
X83360000Y-116795750D01*
X91659000Y-116795750D01*
X91659000Y-117652309D01*
X91755673Y-117885698D01*
X91934301Y-118064327D01*
X92167690Y-118161000D01*
X93024250Y-118161000D01*
X93183000Y-118002250D01*
X93183000Y-116637000D01*
X91817750Y-116637000D01*
X91659000Y-116795750D01*
X83360000Y-116795750D01*
X83360000Y-115433750D01*
X85065000Y-115433750D01*
X85065000Y-115526309D01*
X85161673Y-115759698D01*
X85340301Y-115938327D01*
X85573690Y-116035000D01*
X85864250Y-116035000D01*
X86023000Y-115876250D01*
X86023000Y-115275000D01*
X86277000Y-115275000D01*
X86277000Y-115876250D01*
X86435750Y-116035000D01*
X86726310Y-116035000D01*
X86959699Y-115938327D01*
X87138327Y-115759698D01*
X87235000Y-115526309D01*
X87235000Y-115433750D01*
X87168941Y-115367691D01*
X91659000Y-115367691D01*
X91659000Y-116224250D01*
X91817750Y-116383000D01*
X93183000Y-116383000D01*
X93183000Y-115017750D01*
X93024250Y-114859000D01*
X92167690Y-114859000D01*
X91934301Y-114955673D01*
X91755673Y-115134302D01*
X91659000Y-115367691D01*
X87168941Y-115367691D01*
X87076250Y-115275000D01*
X86277000Y-115275000D01*
X86023000Y-115275000D01*
X85223750Y-115275000D01*
X85065000Y-115433750D01*
X83360000Y-115433750D01*
X83360000Y-114350000D01*
X83302148Y-114059161D01*
X83137401Y-113812599D01*
X82487401Y-113162599D01*
X82462239Y-113145786D01*
X82428162Y-112964683D01*
X82289090Y-112748559D01*
X82085000Y-112609110D01*
X82085000Y-112166580D01*
X83175787Y-111075792D01*
X83175790Y-111075790D01*
X83181618Y-111067068D01*
X83235910Y-111151441D01*
X83235910Y-111151441D01*
G37*
X83235910Y-111151441D02*
X83305711Y-111199134D01*
X83248559Y-111235910D01*
X83103569Y-111448110D01*
X83052560Y-111700000D01*
X83052560Y-112200000D01*
X83096838Y-112435317D01*
X83235910Y-112651441D01*
X83426079Y-112781378D01*
X83447852Y-112890839D01*
X83612599Y-113137401D01*
X83719148Y-113208595D01*
X83830277Y-113319724D01*
X84068728Y-113479051D01*
X84350000Y-113535000D01*
X84415000Y-113535000D01*
X84415000Y-114250000D01*
X84468236Y-114517633D01*
X84470949Y-114531272D01*
X84630277Y-114769723D01*
X84830277Y-114969724D01*
X85040216Y-115110000D01*
X85068728Y-115129051D01*
X85350000Y-115185000D01*
X86900000Y-115185000D01*
X87181272Y-115129051D01*
X87419723Y-114969723D01*
X87669723Y-114719724D01*
X87829051Y-114481273D01*
X87852841Y-114361673D01*
X87885000Y-114200000D01*
X87885000Y-112675682D01*
X87904521Y-112577546D01*
X87965302Y-112638327D01*
X88198691Y-112735000D01*
X88364250Y-112735000D01*
X88523000Y-112576250D01*
X88523000Y-112247440D01*
X88777000Y-112247440D01*
X88777000Y-112576250D01*
X88935750Y-112735000D01*
X89097838Y-112735000D01*
X89173110Y-112786431D01*
X89425000Y-112837440D01*
X90975000Y-112837440D01*
X91025398Y-112827957D01*
X91047852Y-112940839D01*
X91180934Y-113140011D01*
X91140162Y-113238201D01*
X91139838Y-113610167D01*
X91281883Y-113953943D01*
X91544673Y-114217192D01*
X91888201Y-114359838D01*
X92260167Y-114360162D01*
X92603943Y-114218117D01*
X92780974Y-114041395D01*
X92898110Y-114121431D01*
X93150000Y-114172440D01*
X96495860Y-114172440D01*
X97665000Y-115341579D01*
X97665000Y-115595000D01*
X97207716Y-115595000D01*
X97017433Y-115310222D01*
X96481810Y-114952330D01*
X95850000Y-114826655D01*
X95218190Y-114952330D01*
X94881999Y-115176966D01*
X94864327Y-115134302D01*
X94685699Y-114955673D01*
X94452310Y-114859000D01*
X93595750Y-114859000D01*
X93437000Y-115017750D01*
X93437000Y-116383000D01*
X93457000Y-116383000D01*
X93457000Y-116637000D01*
X93437000Y-116637000D01*
X93437000Y-118002250D01*
X93595750Y-118161000D01*
X94452310Y-118161000D01*
X94685699Y-118064327D01*
X94864327Y-117885698D01*
X94881999Y-117843034D01*
X95218190Y-118067670D01*
X95850000Y-118193345D01*
X96481810Y-118067670D01*
X96875000Y-117804949D01*
X96875000Y-120240000D01*
X96369884Y-120240000D01*
X96185000Y-120202560D01*
X95535000Y-120202560D01*
X95424410Y-120223369D01*
X95336890Y-120163569D01*
X95085000Y-120112560D01*
X93535000Y-120112560D01*
X93299683Y-120156838D01*
X93194248Y-120224683D01*
X93085000Y-120202560D01*
X92435000Y-120202560D01*
X92236024Y-120240000D01*
X91354929Y-120240000D01*
X91268675Y-120182367D01*
X90930000Y-120115000D01*
X88631844Y-120115000D01*
X88589090Y-120048559D01*
X88376890Y-119903569D01*
X88125000Y-119852560D01*
X86875000Y-119852560D01*
X86639683Y-119896838D01*
X86423559Y-120035910D01*
X86369519Y-120115000D01*
X85430000Y-120115000D01*
X85427262Y-120115545D01*
X85420000Y-120114100D01*
X85146025Y-120114100D01*
X85050000Y-120094999D01*
X85002298Y-120104488D01*
X85003769Y-120100231D01*
X84855103Y-119926100D01*
X84029540Y-119926100D01*
X84029540Y-119946100D01*
X83775540Y-119946100D01*
X83775540Y-119926100D01*
X83755540Y-119926100D01*
X83755540Y-119672100D01*
X83775540Y-119672100D01*
X83775540Y-118706366D01*
X84029540Y-118706366D01*
X84029540Y-119672100D01*
X84855103Y-119672100D01*
X85003769Y-119497969D01*
X84862108Y-119088051D01*
X84574361Y-118763548D01*
X84200478Y-118579832D01*
X84029540Y-118706366D01*
X83775540Y-118706366D01*
X83604602Y-118579832D01*
X83360000Y-118700023D01*
X83360000Y-116795750D01*
X91659000Y-116795750D01*
X91659000Y-117652309D01*
X91755673Y-117885698D01*
X91934301Y-118064327D01*
X92167690Y-118161000D01*
X93024250Y-118161000D01*
X93183000Y-118002250D01*
X93183000Y-116637000D01*
X91817750Y-116637000D01*
X91659000Y-116795750D01*
X83360000Y-116795750D01*
X83360000Y-115433750D01*
X85065000Y-115433750D01*
X85065000Y-115526309D01*
X85161673Y-115759698D01*
X85340301Y-115938327D01*
X85573690Y-116035000D01*
X85864250Y-116035000D01*
X86023000Y-115876250D01*
X86023000Y-115275000D01*
X86277000Y-115275000D01*
X86277000Y-115876250D01*
X86435750Y-116035000D01*
X86726310Y-116035000D01*
X86959699Y-115938327D01*
X87138327Y-115759698D01*
X87235000Y-115526309D01*
X87235000Y-115433750D01*
X87168941Y-115367691D01*
X91659000Y-115367691D01*
X91659000Y-116224250D01*
X91817750Y-116383000D01*
X93183000Y-116383000D01*
X93183000Y-115017750D01*
X93024250Y-114859000D01*
X92167690Y-114859000D01*
X91934301Y-114955673D01*
X91755673Y-115134302D01*
X91659000Y-115367691D01*
X87168941Y-115367691D01*
X87076250Y-115275000D01*
X86277000Y-115275000D01*
X86023000Y-115275000D01*
X85223750Y-115275000D01*
X85065000Y-115433750D01*
X83360000Y-115433750D01*
X83360000Y-114350000D01*
X83302148Y-114059161D01*
X83137401Y-113812599D01*
X82487401Y-113162599D01*
X82462239Y-113145786D01*
X82428162Y-112964683D01*
X82289090Y-112748559D01*
X82085000Y-112609110D01*
X82085000Y-112166580D01*
X83175787Y-111075792D01*
X83175790Y-111075790D01*
X83181618Y-111067068D01*
X83235910Y-111151441D01*
G36*
X116785000Y-111256310D02*
X116786667Y-111260335D01*
X116772560Y-111330000D01*
X116772560Y-111630000D01*
X116792067Y-111733671D01*
X116772560Y-111830000D01*
X116772560Y-112130000D01*
X116816838Y-112365317D01*
X116955910Y-112581441D01*
X117168110Y-112726431D01*
X117420000Y-112777440D01*
X117952560Y-112777440D01*
X117952560Y-113310000D01*
X117990000Y-113508976D01*
X117990000Y-113945198D01*
X117679261Y-114255937D01*
X117631890Y-114223569D01*
X117380000Y-114172560D01*
X116680000Y-114172560D01*
X116444683Y-114216838D01*
X116228559Y-114355910D01*
X116083569Y-114568110D01*
X116080919Y-114581197D01*
X115944090Y-114368559D01*
X115731890Y-114223569D01*
X115480000Y-114172560D01*
X114780000Y-114172560D01*
X114544683Y-114216838D01*
X114328559Y-114355910D01*
X114183569Y-114568110D01*
X114180149Y-114585000D01*
X113604987Y-114585000D01*
X113516532Y-114548270D01*
X114057401Y-114007401D01*
X114222148Y-113760839D01*
X114226945Y-113736725D01*
X114405317Y-113703162D01*
X114621441Y-113564090D01*
X114766431Y-113351890D01*
X114817440Y-113100000D01*
X114817440Y-113060000D01*
X114840000Y-113060000D01*
X115130839Y-113002148D01*
X115377401Y-112837401D01*
X115817401Y-112397401D01*
X115982148Y-112150839D01*
X116040000Y-111860000D01*
X116040000Y-111240000D01*
X116785000Y-111240000D01*
X116785000Y-111256310D01*
X116785000Y-111256310D01*
G37*
X116785000Y-111256310D02*
X116786667Y-111260335D01*
X116772560Y-111330000D01*
X116772560Y-111630000D01*
X116792067Y-111733671D01*
X116772560Y-111830000D01*
X116772560Y-112130000D01*
X116816838Y-112365317D01*
X116955910Y-112581441D01*
X117168110Y-112726431D01*
X117420000Y-112777440D01*
X117952560Y-112777440D01*
X117952560Y-113310000D01*
X117990000Y-113508976D01*
X117990000Y-113945198D01*
X117679261Y-114255937D01*
X117631890Y-114223569D01*
X117380000Y-114172560D01*
X116680000Y-114172560D01*
X116444683Y-114216838D01*
X116228559Y-114355910D01*
X116083569Y-114568110D01*
X116080919Y-114581197D01*
X115944090Y-114368559D01*
X115731890Y-114223569D01*
X115480000Y-114172560D01*
X114780000Y-114172560D01*
X114544683Y-114216838D01*
X114328559Y-114355910D01*
X114183569Y-114568110D01*
X114180149Y-114585000D01*
X113604987Y-114585000D01*
X113516532Y-114548270D01*
X114057401Y-114007401D01*
X114222148Y-113760839D01*
X114226945Y-113736725D01*
X114405317Y-113703162D01*
X114621441Y-113564090D01*
X114766431Y-113351890D01*
X114817440Y-113100000D01*
X114817440Y-113060000D01*
X114840000Y-113060000D01*
X115130839Y-113002148D01*
X115377401Y-112837401D01*
X115817401Y-112397401D01*
X115982148Y-112150839D01*
X116040000Y-111860000D01*
X116040000Y-111240000D01*
X116785000Y-111240000D01*
X116785000Y-111256310D01*
G36*
X81865910Y-107366441D02*
X82078110Y-107511431D01*
X82330000Y-107562440D01*
X83266317Y-107562440D01*
X83024210Y-107724210D01*
X83024208Y-107724213D01*
X81924210Y-108824210D01*
X81732367Y-109111325D01*
X81732367Y-109111326D01*
X81664999Y-109450000D01*
X81665000Y-109450005D01*
X81665000Y-110083421D01*
X80983420Y-110765000D01*
X78425844Y-110765000D01*
X78495226Y-110695618D01*
X78380215Y-110580607D01*
X78622397Y-110511143D01*
X78809144Y-109987698D01*
X78781362Y-109432632D01*
X78622397Y-109048857D01*
X78380213Y-108979392D01*
X77579605Y-109780000D01*
X77593748Y-109794143D01*
X77414143Y-109973748D01*
X77400000Y-109959605D01*
X77385858Y-109973748D01*
X77206253Y-109794143D01*
X77220395Y-109780000D01*
X77206253Y-109765858D01*
X77385858Y-109586253D01*
X77400000Y-109600395D01*
X78200608Y-108799787D01*
X78131143Y-108557603D01*
X77990682Y-108507491D01*
X78190303Y-108425010D01*
X78583629Y-108032370D01*
X78597070Y-108000000D01*
X80640000Y-108000000D01*
X80930839Y-107942148D01*
X81177401Y-107777401D01*
X81604802Y-107350000D01*
X81855331Y-107350000D01*
X81865910Y-107366441D01*
X81865910Y-107366441D01*
G37*
X81865910Y-107366441D02*
X82078110Y-107511431D01*
X82330000Y-107562440D01*
X83266317Y-107562440D01*
X83024210Y-107724210D01*
X83024208Y-107724213D01*
X81924210Y-108824210D01*
X81732367Y-109111325D01*
X81732367Y-109111326D01*
X81664999Y-109450000D01*
X81665000Y-109450005D01*
X81665000Y-110083421D01*
X80983420Y-110765000D01*
X78425844Y-110765000D01*
X78495226Y-110695618D01*
X78380215Y-110580607D01*
X78622397Y-110511143D01*
X78809144Y-109987698D01*
X78781362Y-109432632D01*
X78622397Y-109048857D01*
X78380213Y-108979392D01*
X77579605Y-109780000D01*
X77593748Y-109794143D01*
X77414143Y-109973748D01*
X77400000Y-109959605D01*
X77385858Y-109973748D01*
X77206253Y-109794143D01*
X77220395Y-109780000D01*
X77206253Y-109765858D01*
X77385858Y-109586253D01*
X77400000Y-109600395D01*
X78200608Y-108799787D01*
X78131143Y-108557603D01*
X77990682Y-108507491D01*
X78190303Y-108425010D01*
X78583629Y-108032370D01*
X78597070Y-108000000D01*
X80640000Y-108000000D01*
X80930839Y-107942148D01*
X81177401Y-107777401D01*
X81604802Y-107350000D01*
X81855331Y-107350000D01*
X81865910Y-107366441D01*
G36*
X113717000Y-98163000D02*
X113737000Y-98163000D01*
X113737000Y-98417000D01*
X113717000Y-98417000D01*
X113717000Y-98437000D01*
X113463000Y-98437000D01*
X113463000Y-98417000D01*
X113443000Y-98417000D01*
X113443000Y-98163000D01*
X113463000Y-98163000D01*
X113463000Y-98143000D01*
X113717000Y-98143000D01*
X113717000Y-98163000D01*
X113717000Y-98163000D01*
G37*
X113717000Y-98163000D02*
X113737000Y-98163000D01*
X113737000Y-98417000D01*
X113717000Y-98417000D01*
X113717000Y-98437000D01*
X113463000Y-98437000D01*
X113463000Y-98417000D01*
X113443000Y-98417000D01*
X113443000Y-98163000D01*
X113463000Y-98163000D01*
X113463000Y-98143000D01*
X113717000Y-98143000D01*
X113717000Y-98163000D01*
M02*
